<?xml version="1.0" standalone="no"?>
<!DOCTYPE svg PUBLIC "-//W3C//DTD SVG 20010904//EN"
 "http://www.w3.org/TR/2001/REC-SVG-20010904/DTD/svg10.dtd">
<svg version="1.0" xmlns="http://www.w3.org/2000/svg"
 width="960.000000pt" height="520.000000pt" viewBox="0 0 960.000000 520.000000"
 preserveAspectRatio="xMidYMid meet">
<metadata>
Created by potrace 1.11, written by Peter Selinger 2001-2013
</metadata>
<g transform="translate(0.000000,520.000000) scale(0.100000,-0.100000)"
fill="#000000" stroke="none">
<path d="M3879 5174 c38 -48 44 -99 47 -359 1 -137 4 -497 8 -800 3 -302 8
-806 11 -1120 3 -313 8 -865 11 -1225 4 -360 7 -758 8 -885 l1 -230 -67 -2
c-47 -2 -68 1 -68 9 0 9 -3 9 -11 1 -6 -6 -19 -8 -30 -6 -22 6 -23 29 -20 391
1 79 -18 118 -67 139 l-37 16 38 9 c28 6 46 4 68 -7 35 -19 39 -2 5 20 -22 15
-74 15 -495 8 -397 -7 -473 -10 -485 -23 -14 -13 -9 -15 44 -12 63 4 77 -7 35
-26 -48 -22 -57 -61 -56 -228 l2 -152 -33 -10 c-18 -6 -85 -11 -150 -11 l-116
0 -4 47 c-3 26 -6 103 -7 172 -2 118 -10 178 -30 208 -17 28 -90 31 -471 21
-490 -12 -508 -13 -520 -25 -10 -10 118 -11 480 -1 160 4 233 3 210 -3 -44
-12 -208 -21 -422 -23 -187 -2 -206 -8 -241 -79 -15 -31 -16 -48 -8 -159 21
-262 21 -270 -4 -279 -12 -4 -78 -8 -148 -7 l-126 0 -9 36 c-7 25 -10 29 -11
14 -1 -23 -16 -29 -38 -15 -13 8 -20 251 -9 317 9 50 -15 100 -62 132 -32 21
-39 21 -217 16 l-185 -6 0 27 0 28 235 -4 c200 -3 233 -1 218 11 -15 11 -61
12 -236 7 l-218 -6 5 83 c3 45 9 116 13 157 l8 75 194 1 c216 2 222 4 270 77
13 20 26 36 27 34 2 -2 8 -28 12 -58 6 -34 7 37 4 193 -6 279 -10 264 73 249
30 -6 56 -6 67 0 9 5 42 6 72 3 l55 -7 3 -218 3 -219 38 -37 37 -38 396 2
c443 2 427 0 465 75 18 36 20 51 14 127 -3 47 -7 149 -7 226 -1 132 0 140 18
140 18 0 19 -11 22 -242 1 -133 6 -252 10 -264 5 -12 7 98 4 244 l-5 267 40 0
c27 0 46 -6 58 -20 10 -11 24 -20 32 -20 10 0 13 -20 13 -79 0 -44 5 -83 10
-86 6 -4 10 27 10 84 l0 91 39 0 c29 0 41 -5 44 -17 4 -17 5 -17 6 0 0 9 7 17
14 17 35 -1 37 -14 40 -226 4 -233 7 -243 71 -278 34 -18 46 -18 278 -6 134 7
305 12 381 13 124 0 142 3 170 21 40 27 73 109 58 143 -11 23 -27 445 -22 558
5 111 3 135 -16 167 -23 41 -85 73 -138 71 -467 -21 -648 -27 -651 -21 -9 14
-108 -29 -129 -56 -19 -26 -20 -39 -17 -190 4 -158 3 -163 -17 -169 -21 -5
-21 -2 -23 171 l-2 177 -6 -175 -5 -175 -35 0 -35 0 -7 140 c-11 198 -15 204
-17 23 -1 -130 -4 -158 -15 -158 -8 0 -18 4 -21 10 -3 5 -28 10 -54 10 l-48 0
-7 61 c-3 34 -6 109 -6 165 0 57 -4 104 -9 104 -5 0 -13 -35 -18 -77 -8 -59
-11 -68 -12 -35 -2 58 -32 113 -74 136 -31 16 -49 17 -134 12 -54 -4 -225 -9
-381 -11 -313 -4 -311 -4 -352 -69 -20 -34 -21 -43 -15 -180 l6 -143 -23 -7
c-13 -3 -44 -6 -70 -6 -47 0 -48 1 -50 33 0 17 -1 38 -1 45 1 6 -3 12 -8 12
-5 0 -9 -20 -9 -46 l0 -45 -52 3 -53 3 -6 60 c-4 33 -8 116 -9 185 -2 140 -12
193 -24 120 l-7 -45 -22 40 c-18 31 -35 45 -77 62 l-55 22 63 1 c44 0 61 3 56
11 -4 8 -57 10 -168 8 l-161 -4 2 115 c1 63 2 125 2 137 1 22 3 23 134 21 150
-2 175 5 206 56 24 39 26 60 15 249 -6 113 -5 127 10 127 18 0 19 -11 21 -155
1 -183 7 -271 15 -245 4 14 5 109 2 213 l-5 187 51 0 c60 0 62 -4 61 -103 0
-38 2 -71 5 -74 3 -4 6 35 6 85 l0 92 80 0 c76 0 80 -1 81 -22 1 -23 -2 -136
-6 -231 -1 -37 4 -57 23 -87 36 -54 80 -71 167 -64 39 3 210 7 380 9 171 2
313 4 318 4 13 2 87 85 87 98 0 7 5 13 10 13 13 0 13 -86 -1 -111 -6 -11 -20
-24 -32 -29 l-22 -9 22 0 c47 -2 53 26 53 261 l0 218 41 0 c71 0 81 -11 77
-91 -2 -38 -7 -69 -12 -69 -5 0 -3 -6 3 -13 6 -8 9 -16 7 -18 -3 -3 -1 -69 4
-147 14 -240 20 -244 393 -242 133 1 253 3 267 5 14 2 91 4 173 4 81 1 147 4
147 9 0 7 -592 6 -730 -1 -77 -4 -148 9 -174 32 -46 41 -50 64 -54 304 l-4
227 59 0 c94 0 93 2 94 -190 0 -136 3 -172 18 -206 32 -72 106 -99 201 -75 37
10 378 24 518 22 102 -2 155 13 191 55 32 36 50 119 33 151 -10 18 -24 310
-26 549 l-2 131 -30 32 c-33 35 -102 58 -132 42 -9 -4 -106 -11 -214 -14
l-198 -6 0 112 0 112 87 -1 c53 -1 80 2 68 7 -11 4 -50 8 -87 8 -54 1 -68 4
-68 16 0 8 4 15 9 15 5 0 11 9 14 20 5 19 14 20 134 20 72 0 198 3 282 7 136
5 153 8 162 25 10 18 9 19 -13 4 -19 -12 -77 -15 -303 -19 -154 -2 -252 -2
-217 0 34 2 62 8 62 12 0 4 -26 6 -57 4 -45 -3 -55 -2 -46 8 8 8 76 12 233 13
l221 1 39 32 c44 37 68 110 48 147 -7 14 -12 140 -13 363 -2 379 -2 375 -68
407 -36 16 -102 22 -110 9 -3 -5 -106 -9 -229 -11 -122 -2 -285 -4 -360 -5
l-138 -2 -32 -33 c-29 -28 -33 -38 -31 -80 12 -327 14 -392 8 -392 -3 0 -15 5
-26 10 -13 7 -19 7 -19 0 0 -5 -15 -10 -34 -10 -41 0 -76 40 -52 59 15 13 11
88 -5 105 -9 10 -13 -31 -12 -116 1 -41 -6 -46 -69 -47 l-38 0 0 224 c0 151
-4 226 -11 231 -8 4 -9 -50 -4 -193 7 -175 6 -203 -9 -231 -9 -18 -21 -32 -26
-32 -11 0 -16 121 -11 316 l2 131 -36 31 c-33 30 -56 38 -95 34 -8 -1 -179 -4
-380 -7 -201 -3 -373 -8 -383 -11 -10 -3 -30 -17 -45 -31 -24 -22 -27 -32 -26
-81 8 -288 8 -359 2 -355 -5 2 -8 -5 -8 -16 0 -28 -20 -37 -21 -9 -1 15 -4 11
-8 -12 -6 -32 -9 -35 -45 -38 -21 -2 -42 0 -47 5 -5 5 -9 55 -10 113 -2 168
-16 209 -18 52 l-1 -132 -57 6 c-32 4 -60 8 -61 10 -2 1 -8 102 -12 224 -4
122 -11 224 -14 227 -3 4 -6 2 -6 -3 0 -5 -4 -16 -10 -24 -7 -12 -12 -10 -30
12 -28 36 -80 52 -149 44 -84 -10 -588 -15 -624 -6 -46 10 -106 -10 -131 -43
-15 -20 -21 -45 -22 -85 -4 -116 -4 -718 -1 -732 5 -28 22 -48 57 -68 33 -20
54 -21 425 -23 310 -2 394 0 411 10 32 21 64 74 64 109 0 57 18 42 24 -21 9
-80 1 -114 -33 -132 -24 -13 -24 -14 -5 -15 45 0 49 19 54 264 l5 231 26 3
c19 2 36 -6 58 -28 34 -35 34 -35 36 -302 0 -84 4 -121 13 -130 11 -11 13 22
10 197 l-3 210 45 0 c42 0 45 -2 48 -29 3 -23 7 -27 27 -24 32 6 37 -18 24
-107 -18 -120 24 -205 109 -221 20 -4 118 -2 217 5 99 6 264 11 368 10 207 -1
219 2 258 64 16 25 19 43 14 82 -3 28 -8 98 -11 158 l-6 107 26 0 26 0 0 -200
c0 -182 -2 -202 -19 -219 -17 -17 -44 -19 -322 -25 -167 -4 -386 -6 -487 -4
-154 3 -180 1 -165 -10 15 -11 100 -13 473 -7 250 3 466 8 480 11 48 9 52 31
51 246 -1 110 0 202 3 206 2 4 26 5 53 4 l49 -4 3 -46 c1 -26 4 -55 7 -64 3
-10 0 -18 -6 -18 -8 0 -10 -8 -6 -22 4 -13 9 -75 11 -138 7 -154 10 -170 45
-208 38 -42 67 -52 146 -52 82 0 84 14 3 17 -68 3 -110 22 -143 66 -19 26 -21
45 -26 248 -6 246 -10 234 71 223 49 -7 54 -13 40 -49 -5 -11 -4 -29 2 -39 5
-11 10 -72 11 -136 1 -108 3 -118 26 -147 37 -47 65 -53 210 -46 126 6 130 5
130 -14 0 -18 -8 -22 -52 -26 -117 -12 -265 -9 -304 7 l-39 16 24 -20 c21 -18
38 -20 197 -20 l174 0 0 -30 c0 -33 -1 -33 -142 -32 -32 0 -58 -3 -58 -8 0
-15 23 -18 111 -12 l86 4 5 -33 c5 -31 0 -180 -6 -186 -1 -2 -59 -4 -127 -6
-134 -4 -169 -14 -201 -57 -22 -30 -22 -36 -15 -241 l5 -156 -51 -7 c-92 -11
-84 -19 -91 107 -11 184 -11 317 -2 400 5 50 5 77 -2 77 -17 0 -26 -132 -20
-315 3 -102 -6 -261 -16 -267 -6 -4 -29 -8 -52 -8 l-41 0 -6 152 c-4 83 -7
192 -8 242 0 89 -7 95 -25 21 l-7 -30 -8 29 c-11 41 -45 73 -85 81 -70 13
-104 15 -104 5 0 -11 -513 -19 -650 -10 -32 2 -47 -3 -66 -21 -47 -44 -48 -52
-45 -285 l3 -221 -65 -7 c-35 -3 -72 -4 -80 0 -20 7 -24 85 -23 376 1 145 -2
214 -9 207 -6 -6 -10 -118 -10 -294 l0 -283 -40 -5 c-22 -3 -43 -3 -47 1 -3 4
-9 79 -12 167 -8 209 -15 285 -27 285 -5 0 -9 -21 -10 -47 -1 -42 -2 -44 -8
-18 -23 95 -102 141 -197 116 -22 -5 -180 -11 -354 -12 -173 -1 -327 -6 -342
-11 -37 -14 -82 -81 -73 -110 3 -13 8 -188 10 -390 2 -207 8 -375 14 -385 5
-10 21 -29 35 -43 31 -28 48 -29 338 -16 l187 9 0 -141 1 -142 -94 0 c-51 0
-162 -3 -247 -7 -135 -6 -149 -8 -119 -18 l34 -12 -45 -11 c-44 -11 -77 -37
-96 -77 -12 -25 3 -689 18 -761 20 -100 64 -116 292 -107 l147 6 0 -61 c0 -39
-4 -62 -11 -62 -8 0 -9 -26 -6 -83 3 -46 2 -89 -2 -95 -3 -6 -36 -13 -71 -15
l-65 -3 68 -2 67 -2 0 -30 0 -31 -189 2 c-164 1 -193 -1 -219 -16 -47 -28 -65
-68 -57 -123 12 -71 12 -94 15 -417 3 -326 7 -353 59 -379 20 -10 115 -11 424
-8 l398 4 29 25 c44 37 54 87 40 207 -15 129 -11 221 10 221 8 0 20 -16 27
-35 9 -26 12 -29 12 -12 1 22 2 22 151 22 112 0 152 -3 155 -12 2 -7 6 -80 8
-161 l4 -149 36 -36 37 -36 92 -1 c51 0 228 4 393 9 333 10 340 11 377 76 24
41 36 50 40 28 1 -7 5 81 8 197 l5 210 135 0 c75 1 140 4 146 8 13 8 21 -86
23 -283 2 -139 11 -176 50 -205 25 -19 39 -20 421 -17 432 4 422 3 461 65 19
29 20 44 16 174 l-5 141 97 1 98 1 6 -201 c5 -212 -2 -269 -39 -310 -17 -19
-15 -19 84 -19 61 0 102 4 102 10 0 7 252 10 735 10 483 0 735 -3 735 -10 0
-6 51 -10 133 -10 l132 1 -28 20 c-15 12 -38 40 -52 63 -24 41 -25 49 -25 228
l0 186 51 4 c28 1 53 0 55 -3 2 -3 4 -79 5 -167 0 -89 5 -174 10 -189 5 -18 8
41 6 165 -3 183 -2 192 16 192 18 0 19 -7 14 -107 -5 -134 5 -192 41 -225 31
-29 96 -53 113 -42 6 4 62 8 123 9 532 13 591 17 615 34 36 26 42 59 44 241
l2 165 120 1 c156 2 155 1 155 19 0 15 39 22 41 8 1 -5 4 -108 8 -230 3 -126
10 -226 16 -232 11 -11 11 41 0 307 -4 89 -3 162 2 162 34 -1 38 -19 43 -192
6 -194 11 -212 77 -243 29 -14 50 -16 112 -10 101 10 143 12 431 20 266 8 266
8 297 69 12 23 15 58 12 150 -1 67 -2 140 -1 164 l2 42 80 0 c47 0 80 4 80 10
0 6 6 10 14 10 9 0 16 -13 19 -32 l4 -33 1 33 c2 24 7 32 21 32 25 0 29 -26
30 -248 2 -176 8 -223 30 -237 12 -7 15 8 4 19 -4 4 -9 110 -10 237 -2 197 -1
229 12 229 11 0 15 -12 16 -47 0 -27 4 -69 8 -94 4 -26 3 -73 -2 -106 -13 -76
-4 -109 39 -150 l35 -33 197 6 c108 2 283 6 387 8 119 1 198 7 211 14 50 27
53 49 55 460 2 369 1 384 -18 410 -11 15 -35 34 -53 43 l-33 16 34 9 c24 6
-28 10 -174 12 l-207 2 2 162 3 162 185 4 c101 2 195 8 207 13 13 5 32 23 43
41 17 29 19 46 15 143 -6 140 -18 592 -17 625 3 65 -43 122 -97 124 -14 0 -96
-3 -181 -8 -85 -4 -243 -8 -350 -8 -144 0 -203 -4 -225 -14 -32 -15 -66 -61
-76 -104 -4 -19 -7 -13 -13 28 -6 43 -4 60 12 92 22 46 16 50 -22 15 -20 -18
-26 -34 -27 -67 -2 -105 2 -327 7 -365 7 -50 -8 -57 -45 -22 -14 13 -26 18
-30 12 -7 -11 -20 -13 -108 -14 -34 0 -67 3 -73 6 -8 5 -11 58 -9 164 3 162
-4 196 -45 230 -24 20 -86 31 -113 20 -18 -7 -386 -24 -458 -21 -236 9 -274 0
-306 -74 -17 -38 -19 -58 -14 -156 3 -62 8 -136 11 -165 3 -28 1 -53 -3 -56
-5 -3 -10 8 -11 26 -4 44 -12 47 -12 4 0 -20 -4 -37 -9 -37 -15 0 -19 398 -5
443 13 40 5 47 -21 20 -16 -15 -17 -41 -13 -240 l4 -223 -38 0 -38 0 0 129 c0
82 -4 132 -11 136 -7 5 -8 -31 -4 -123 4 -79 3 -132 -3 -136 -18 -11 -143 7
-163 23 -18 15 -20 28 -19 161 1 80 1 158 1 173 -1 41 -39 97 -77 113 -39 16
-100 18 -109 4 -3 -6 -49 -10 -101 -10 l-95 0 4 96 c4 110 8 115 79 110 25 -2
52 1 60 5 16 11 16 11 -55 14 -73 4 -87 9 -87 35 0 16 7 20 33 21 30 2 30 2 5
6 -28 4 -40 31 -15 35 6 1 71 2 142 2 124 1 132 2 162 26 45 36 56 84 43 178
-6 42 -10 113 -8 157 l3 80 73 3 c67 3 73 1 82 -20 6 -17 9 -19 9 -5 1 9 5 17
9 17 5 0 12 -94 15 -209 8 -271 22 -310 115 -317 47 -4 47 -4 12 7 -42 13 -67
34 -88 74 -12 23 -16 78 -20 242 l-5 213 36 0 36 0 3 -221 c3 -218 3 -221 27
-240 13 -10 31 -19 40 -19 12 0 9 6 -12 25 -20 20 -27 35 -26 63 0 42 17 93
18 58 1 -31 48 -84 86 -96 20 -7 55 -9 78 -6 23 4 186 9 362 11 176 3 330 8
342 10 45 10 61 58 67 210 3 77 5 168 6 203 l0 62 95 0 c52 0 95 -1 95 -2 0
-2 3 -102 6 -223 4 -121 8 -222 10 -224 2 -2 4 98 4 222 l0 227 39 0 38 0 5
-240 c4 -201 7 -243 20 -257 23 -23 95 -33 174 -24 l69 8 -85 2 c-96 1 -130
16 -130 57 l0 25 37 -28 c30 -23 45 -28 87 -26 28 1 204 4 391 7 187 2 343 5
347 5 4 1 16 14 28 30 19 28 21 44 22 248 3 389 -3 601 -19 623 -19 27 -70 53
-86 43 -16 -10 -637 -15 -637 -4 0 4 -28 3 -62 -2 -45 -7 -71 -17 -90 -35
l-28 -26 0 33 c0 18 5 41 10 52 15 26 -11 26 -35 -1 -16 -18 -18 -41 -16 -240
l1 -220 -40 0 -40 0 0 98 c0 53 -5 104 -11 112 -7 11 -9 -14 -8 -85 1 -55 1
-105 0 -111 0 -7 -34 -12 -95 -13 l-93 -2 -6 28 c-3 15 -4 99 -2 187 l4 159
-33 33 -32 32 -157 -5 -157 -6 0 101 c0 104 6 120 43 114 9 -2 17 1 17 7 0 5
-12 11 -27 13 -24 3 -28 8 -30 35 -1 18 3 36 9 39 6 4 5 10 -3 15 -16 10 41
13 168 10 99 -3 134 12 164 71 17 33 20 51 14 87 -3 25 -9 106 -11 180 l-5
134 38 -6 c21 -4 71 -7 110 -7 l72 0 4 -157 3 -158 2 158 2 157 33 0 34 0 7
-202 c7 -218 16 -272 46 -288 23 -12 357 -12 385 0 13 6 -44 9 -150 9 -108 -1
-171 3 -173 10 -2 5 -9 8 -17 5 -18 -7 -49 41 -40 63 6 16 8 17 18 2 7 -9 31
-26 54 -38 47 -24 111 -27 208 -11 33 6 172 13 310 17 174 4 260 10 282 20 43
18 67 64 59 117 -3 22 -8 122 -11 221 -13 405 -15 447 -24 463 -6 11 -5 19 6
27 14 10 14 15 -1 44 -17 33 -78 67 -97 56 -5 -4 -174 -8 -374 -10 -376 -4
-385 -5 -431 -47 -29 -26 -39 -9 -24 38 15 44 8 52 -18 24 -25 -27 -28 -69
-22 -303 l5 -187 -32 0 c-32 0 -32 0 -36 58 l-3 57 -2 -59 -2 -59 -101 5 c-58
3 -105 10 -112 17 -11 11 -14 157 -6 312 5 94 -59 147 -160 134 -31 -4 -205
-9 -387 -10 -357 -2 -354 -2 -392 -57 -14 -18 -17 -48 -17 -148 -1 -206 -4
-270 -15 -270 -14 0 -6 461 9 489 16 28 -3 28 -23 -1 -13 -19 -16 -61 -16
-255 0 -226 -1 -233 -20 -233 -18 0 -20 7 -20 68 0 105 -12 239 -20 217 -4
-11 -5 -66 -2 -124 3 -80 1 -106 -10 -112 -10 -6 -10 -9 0 -9 6 0 12 -9 12
-21 0 -19 -4 -21 -42 -15 -24 4 -68 9 -99 12 l-56 6 -7 200 c-6 182 -8 203
-28 230 -26 37 -81 62 -106 49 -9 -5 -172 -12 -362 -15 -190 -4 -356 -10 -370
-14 -37 -10 -63 -33 -79 -67 l-14 -30 -9 40 c-5 24 -5 50 2 69 14 39 12 45 -5
22 -19 -25 -19 -166 -4 -631 12 -367 13 -373 80 -387 19 -4 115 -3 214 1 l180
8 -188 1 c-198 2 -246 12 -248 50 -2 27 -5 166 -12 452 l-6 265 14 -220 c7
-121 13 -269 14 -328 1 -127 12 -154 73 -181 41 -17 134 -17 333 0 33 2 151 6
262 7 228 3 240 7 277 81 16 32 17 45 8 94 -9 47 -17 207 -13 260 1 16 83 16
128 0 35 -13 35 -12 35 -110 0 -51 14 -66 20 -20 2 15 7 -43 11 -128 4 -85 10
-171 14 -191 7 -45 41 -89 71 -92 12 -1 22 -4 22 -7 0 -15 68 -28 105 -20 48
9 46 11 -21 15 -55 3 -99 21 -126 51 -27 31 -37 99 -41 302 -4 177 -3 192 13
192 15 0 17 -20 23 -226 5 -214 6 -228 26 -248 21 -20 31 -21 317 -24 261 -3
295 -5 290 -18 -3 -9 -6 -17 -6 -18 0 -2 -28 -1 -62 1 -76 4 -140 -5 -132 -19
4 -5 43 -8 92 -7 83 3 87 2 100 -21 8 -17 11 -52 9 -105 l-4 -80 -238 0 -237
0 -34 -39 c-24 -28 -34 -50 -35 -75 l-1 -36 -9 35 c-10 39 -2 108 13 128 11
13 0 16 -19 4 -29 -18 -33 -65 -26 -293 l6 -229 -36 0 -37 0 -1 63 c0 34 -2
73 -3 87 -20 168 -15 361 10 448 3 12 2 22 -4 22 -5 0 -15 -21 -22 -46 -10
-35 -12 -107 -7 -304 l7 -257 -31 -7 c-17 -3 -46 -6 -65 -6 -32 0 -33 1 -37
48 l-3 47 -2 -47 c-2 -47 -12 -58 -38 -40 -15 9 -26 272 -14 332 7 36 5 52 -9
79 -23 47 -60 72 -102 71 -137 -2 -322 -8 -481 -14 -143 -6 -188 -5 -188 4 0
9 -16 10 -57 6 -50 -6 -63 -12 -91 -43 -18 -21 -30 -43 -27 -51 2 -7 1 -11 -4
-8 -4 3 -7 -96 -6 -220 1 -124 -1 -222 -6 -217 -4 4 -9 126 -10 271 -1 239 0
265 16 282 10 11 13 20 7 20 -6 0 -20 -12 -33 -27 -21 -28 -22 -31 -15 -288 3
-143 9 -356 13 -473 6 -211 6 -213 31 -233 23 -18 42 -19 250 -19 124 0 223 3
220 6 -4 3 -101 5 -216 5 -186 -1 -212 1 -231 17 -19 15 -21 30 -25 165 -2 82
-2 146 0 144 10 -9 16 -56 19 -130 4 -92 27 -136 87 -163 33 -15 55 -16 160
-9 193 13 311 12 315 -2 3 -8 -5 -13 -19 -14 l-23 0 23 -9 c12 -6 22 -18 22
-30 0 -19 -6 -20 -137 -21 -76 -1 -160 -2 -187 -2 -33 1 -44 -2 -35 -9 9 -6 3
-7 -20 -3 -23 5 -31 4 -27 -4 5 -8 43 -9 124 -6 64 3 122 6 127 6 6 0 40 -3
77 -7 66 -7 68 -8 74 -38 3 -18 4 -50 2 -71 l-3 -40 -65 -6 -65 -6 68 -1 c37
-1 67 -5 67 -9 -1 -33 -18 -35 -241 -37 -158 -1 -231 -6 -249 -15 -36 -18 -62
-58 -62 -94 2 -128 13 -381 17 -387 2 -4 0 -87 -4 -185 -9 -174 -9 -179 12
-207 42 -56 78 -70 165 -64 42 3 147 6 232 7 l155 2 3 -47 c2 -28 -2 -54 -10
-63 -8 -10 -12 -47 -13 -104 0 -48 -4 -92 -10 -97 -5 -5 -134 -12 -285 -16
-151 -3 -276 -6 -276 -6 -1 0 -14 -18 -29 -40 l-27 -39 7 -236 c7 -207 6 -235
-8 -235 -8 0 -17 -6 -20 -13 -3 -9 -17 -12 -41 -9 l-36 4 0 147 c0 80 -2 247
-5 371 -2 124 -6 536 -9 915 -7 799 -12 1222 -27 2303 -9 626 -9 791 1 827 7
25 17 48 21 51 5 3 9 9 9 15 0 5 -360 9 -941 9 l-940 0 20 -26z m-3279 -403
c5 -11 10 -58 10 -104 0 -96 -12 -118 -54 -99 -22 10 -25 19 -31 95 -5 57 -3
91 4 106 15 27 57 28 71 2z m6948 -214 c6 -7 12 -50 13 -96 2 -72 -1 -86 -16
-98 -43 -31 -51 -18 -61 96 -4 59 -3 85 6 96 15 18 44 19 58 2z m-428 -143 c0
-30 5 -65 12 -77 7 -13 11 -59 9 -117 -3 -130 16 -173 89 -204 24 -10 46 -10
103 -1 39 6 136 12 214 14 133 2 142 1 152 -18 6 -11 11 -22 11 -25 0 -8 -490
-8 -528 0 -17 3 -40 15 -51 25 -18 17 -20 31 -20 181 -1 90 -4 189 -7 221 -5
39 -3 57 5 57 7 0 11 -21 11 -56z m-4780 -890 c6 -14 8 -53 6 -87 -2 -38 2
-75 11 -96 7 -19 12 -36 10 -37 -2 -2 -17 2 -34 8 -26 10 -35 9 -56 -5 -33
-22 -41 -8 -22 37 8 20 15 66 15 105 0 86 6 101 36 101 17 0 27 -8 34 -26z
m-549 -31 c5 -14 8 -63 7 -107 -3 -79 -4 -81 -29 -84 -37 -4 -45 13 -53 105
-5 67 -4 84 10 97 24 25 53 20 65 -11z m-974 -11 c7 -5 15 -46 19 -104 6 -90
6 -96 -14 -107 -27 -14 -51 -4 -63 26 -13 36 -11 167 3 181 14 14 37 15 55 4z
m5713 -272 c3 -59 11 -103 20 -117 8 -12 10 -26 6 -30 -5 -4 -11 -2 -13 5 -7
19 -74 15 -89 -5 -12 -17 -13 -17 -19 -1 -4 10 0 27 9 40 11 15 16 45 16 96 0
85 12 115 43 110 20 -3 22 -10 27 -98z m1170 -16 c0 -56 4 -94 10 -94 6 0 10
-10 10 -22 0 -17 -3 -19 -12 -10 -17 17 -73 15 -89 -4 -12 -14 -14 -14 -20 3
-4 10 -1 25 6 33 11 12 20 81 25 183 0 4 10 11 23 16 39 15 47 -3 47 -105z
m-155 90 c23 -24 18 -182 -7 -198 -13 -8 -23 -8 -35 0 -15 9 -19 28 -21 99 -3
87 5 115 34 115 7 0 20 -7 29 -16z m-4003 -1119 c2 -72 6 -90 18 -90 13 0 14
16 11 99 -3 80 -1 98 10 94 10 -3 15 -31 19 -99 4 -73 8 -94 20 -94 11 0 14
18 11 98 -2 64 1 97 8 97 13 0 11 11 18 -95 3 -49 10 -96 15 -102 14 -17 2
-47 -14 -36 -7 4 -40 8 -73 8 l-60 0 -7 100 c-7 104 -4 135 12 119 5 -5 10
-50 12 -99z m-275 45 c12 -28 26 -50 32 -50 6 0 18 23 28 50 25 70 34 69 38
-5 1 -22 4 -68 6 -102 2 -37 0 -64 -6 -65 -6 -2 -11 26 -13 65 -3 70 -15 88
-25 37 -4 -18 -13 -30 -22 -30 -9 0 -21 14 -26 30 -18 50 -31 35 -28 -32 2
-35 -1 -65 -6 -68 -10 -5 -27 197 -18 213 9 15 19 5 40 -43z m5049 -246 c21
-5 21 -12 23 -176 0 -94 3 -173 6 -176 3 -3 5 76 5 176 0 100 2 182 4 182 3 0
16 -4 30 -10 25 -9 26 -12 26 -97 0 -49 3 -153 7 -231 7 -154 13 -173 63 -187
l25 -7 -27 29 c-29 30 -35 76 -19 133 8 25 8 25 15 -7 4 -18 25 -48 50 -71 36
-33 53 -41 99 -47 34 -4 62 -3 75 4 12 6 68 14 125 18 l105 6 -2 -164 -1 -164
-225 -8 c-243 -9 -282 -17 -301 -66 -6 -14 -7 -111 -3 -233 l7 -210 -34 2
c-58 5 -79 1 -79 -15 0 -12 -13 -15 -59 -15 -33 0 -63 4 -66 10 -3 5 -8 102
-10 215 -5 291 2 284 -288 266 -106 -6 -271 -11 -368 -11 -97 0 -189 -5 -206
-10 -45 -16 -72 -60 -79 -128 -4 -33 -2 -67 3 -78 7 -11 8 -66 4 -139 -5 -103
-8 -120 -23 -123 -17 -3 -18 13 -18 220 0 159 4 230 13 248 12 25 15 25 175
31 89 4 173 10 187 13 13 3 129 7 258 7 128 0 248 4 267 9 47 11 -127 12 -533
3 l-317 -6 -37 -34 -38 -33 4 -230 3 -230 -26 0 c-15 0 -37 -6 -49 -14 -15 -9
-58 -13 -135 -14 l-114 0 3 206 c3 215 1 229 -41 267 -17 15 -38 20 -93 21
-40 1 -77 -2 -84 -8 -6 -5 -38 -8 -70 -6 -44 2 -59 7 -61 19 -3 15 17 17 175
21 98 2 189 1 203 -4 23 -9 24 -8 9 8 -15 14 -41 16 -204 15 l-188 -2 8 23 c4
13 9 54 11 91 2 37 8 76 14 87 5 10 10 44 10 74 l0 56 138 0 c204 1 207 4 207
270 l0 185 50 -2 c28 -1 69 -5 93 -9 l42 -7 0 -178 c0 -98 4 -180 8 -183 5 -3
7 78 4 179 l-5 185 41 0 40 0 6 -112 c3 -62 8 -170 12 -241 5 -114 8 -129 27
-142 26 -18 35 -11 14 13 -13 14 -17 51 -22 187 -3 94 -8 198 -11 233 -6 59
-5 62 15 59 11 -2 22 -5 25 -8 2 -2 6 -86 8 -187 l4 -183 42 -42 c48 -47 57
-49 232 -34 52 5 205 10 340 13 l244 4 32 31 c38 37 58 102 45 146 -5 17 -10
88 -10 158 -1 71 -4 132 -7 137 -12 19 12 28 79 28 40 0 82 -3 93 -6z m-5032
-217 c27 -20 36 -176 11 -201 -13 -12 -26 -15 -44 -11 -33 8 -35 11 -27 31 5
13 9 15 18 6 20 -20 38 -13 38 13 0 18 -5 25 -20 25 -37 0 -62 86 -36 125 18
28 34 31 60 12z m-1298 -15 c16 -10 25 -133 13 -176 -8 -28 -15 -36 -34 -36
-44 0 -55 24 -54 113 0 45 5 88 11 95 11 13 47 16 64 4z m6538 -588 c11 -4 8
-12 -18 -34 -27 -24 -35 -41 -46 -98 -8 -45 -9 -75 -3 -88 5 -10 7 -74 5 -141
-3 -99 -7 -123 -19 -123 -20 0 -15 448 6 473 14 17 47 22 75 11z m-2064 -44
c0 -22 -26 -24 -351 -25 -121 0 -127 -1 -162 -28 -44 -34 -56 -82 -45 -181 5
-38 7 -116 6 -175 -3 -91 -5 -106 -20 -109 -17 -3 -18 13 -14 244 4 306 -12
282 183 283 75 1 139 4 142 6 2 3 62 5 133 5 121 0 128 -1 128 -20z m2730
-406 c0 -85 2 -95 17 -92 15 3 17 15 14 94 -1 56 1 94 8 98 18 11 28 -27 29
-107 0 -45 6 -84 12 -92 23 -28 5 -44 -42 -38 -24 3 -49 10 -55 16 -14 10 -19
208 -7 220 17 17 24 -12 24 -99z m-1569 -2 c1 -44 1 -45 10 -17 5 17 7 35 5
42 -6 16 22 39 33 27 15 -15 18 -217 4 -221 -9 -3 -13 10 -13 48 0 59 -10 58
-25 -4 -12 -50 -30 -58 -39 -16 -8 41 -8 184 0 192 14 14 24 -6 25 -51z
m-4441 28 c37 -37 18 -130 -27 -130 -9 0 -13 -14 -13 -46 0 -32 -4 -44 -12
-42 -15 5 -31 146 -23 195 5 28 15 37 48 42 4 0 16 -8 27 -19z m-982 -29 c7
-9 12 -35 10 -61 -3 -38 -7 -47 -31 -58 -26 -12 -28 -18 -23 -47 4 -21 2 -36
-5 -41 -19 -11 -26 13 -33 114 -7 85 -6 98 10 109 21 15 53 8 72 -16z m-132 8
c3 -6 9 -50 11 -98 4 -56 11 -92 20 -103 9 -10 13 -24 10 -33 -7 -17 -23 -20
-32 -5 -10 16 -65 12 -71 -5 -4 -8 -12 -15 -20 -15 -18 0 -18 39 0 63 14 19
36 23 36 7 0 -15 19 -12 36 4 9 9 10 17 4 21 -5 3 -10 36 -10 71 0 85 -23 84
-30 -1 -3 -34 -10 -60 -17 -63 -17 -5 -18 139 -1 156 15 15 55 16 64 1z
m-1346 -270 c13 -24 13 -165 0 -190 -15 -26 -66 -26 -80 1 -6 11 -10 58 -8
107 3 81 5 88 27 99 28 14 48 9 61 -17z"/>
</g>
</svg>
