<?xml version="1.0" standalone="no"?>
<!DOCTYPE svg PUBLIC "-//W3C//DTD SVG 20010904//EN"
 "http://www.w3.org/TR/2001/REC-SVG-20010904/DTD/svg10.dtd">
<svg version="1.0" xmlns="http://www.w3.org/2000/svg"
 width="800.000000pt" height="600.000000pt" viewBox="0 0 800.000000 600.000000"
 preserveAspectRatio="xMidYMid meet">
<metadata>
Created by potrace 1.11, written by Peter Selinger 2001-2013
</metadata>
<g transform="translate(0.000000,600.000000) scale(0.100000,-0.100000)"
fill="#000000" stroke="none">
<path d="M3105 4275 c-11 -13 -28 -24 -38 -25 -10 0 -21 -10 -26 -22 -5 -13
-11 -22 -15 -20 -16 6 -20 1 -6 -9 12 -8 10 -9 -8 -4 -15 4 -24 2 -28 -9 -5
-13 -43 -19 -45 -6 -10 72 -15 80 -46 75 -15 -3 -154 -12 -308 -20 -154 -8
-293 -17 -310 -20 -16 -2 -64 -5 -105 -6 -41 -1 -80 -4 -87 -6 -13 -5 -13 -9
12 -394 8 -125 15 -248 15 -273 0 -44 -2 -47 -30 -53 -17 -3 -29 -11 -27 -17
2 -6 -3 -17 -12 -24 -17 -13 22 -13 369 9 200 12 200 12 200 -6 0 -10 -10 -15
-28 -15 -15 0 -33 -5 -40 -12 -8 -8 -12 -9 -12 -1 0 7 -9 9 -27 4 -21 -6 -28
-14 -27 -31 l1 -23 -17 21 c-15 19 -25 21 -86 17 -38 -2 -100 -9 -139 -14 -38
-6 -105 -11 -148 -11 -72 0 -78 2 -86 23 -9 23 -16 24 -123 30 -62 4 -163 7
-225 7 l-112 0 -3 -42 c-3 -39 -6 -44 -38 -55 l-35 -11 2 -67 c2 -57 0 -66
-13 -61 -9 3 -22 6 -30 6 -11 0 -14 16 -14 65 0 44 -4 67 -12 70 -7 2 -79 11
-160 20 -107 12 -151 14 -160 6 -7 -6 -29 -22 -48 -34 -28 -18 -36 -30 -38
-60 -2 -24 -8 -37 -18 -37 -16 0 -20 8 -28 60 -4 30 -3 32 6 13 10 -22 11 -22
42 11 17 18 38 35 46 38 28 10 1 20 -66 26 l-66 5 17 -29 c18 -28 17 -28 -11
3 -29 32 -31 33 -174 47 -80 8 -181 18 -225 21 -43 4 -90 11 -104 17 -20 7
-28 5 -41 -11 -16 -22 -85 -29 -277 -30 -63 -1 -93 -5 -93 -12 0 -9 57 -10
213 -6 116 3 199 2 182 -3 -25 -6 -19 -8 31 -9 l62 -1 7 -110 7 -110 43 0 c43
0 81 -22 70 -40 -3 -5 -5 -149 -5 -320 -1 -284 1 -313 16 -325 16 -11 16 -13
-5 -24 -12 -7 -29 -10 -37 -7 -9 3 -12 1 -9 -4 3 -6 -1 -10 -9 -10 -9 0 -16 5
-16 11 0 5 -4 7 -10 4 -15 -9 -6 -42 18 -70 23 -26 41 -28 117 -11 11 2 25 5
31 5 7 1 11 15 10 34 -1 27 3 32 21 32 13 0 29 9 37 20 25 33 18 6 -9 -33 -28
-41 -32 -64 -10 -56 12 5 15 -3 15 -35 l0 -41 -52 0 c-49 0 -50 1 -35 18 26
28 21 32 -18 16 -40 -16 -103 -18 -172 -5 -182 36 -157 36 -270 0 -113 -37
-132 -58 -55 -60 26 -1 51 0 57 1 5 1 64 4 131 7 119 6 121 5 137 -18 10 -13
17 -31 17 -41 0 -16 40 -50 120 -101 52 -34 50 -51 -17 -117 -46 -47 -57 -63
-53 -82 4 -14 14 -24 29 -26 22 -3 23 -7 17 -50 -3 -26 -2 -53 3 -60 5 -9 44
-15 120 -19 61 -3 114 -10 118 -16 3 -6 -35 -7 -107 -2 -108 7 -113 7 -105
-11 4 -11 9 -26 12 -36 6 -20 24 -24 153 -27 58 -1 188 -6 290 -11 102 -6 239
-12 305 -15 66 -3 221 -13 345 -22 314 -24 304 -24 308 10 l3 28 -165 -7 -165
-7 -6 25 c-3 13 -7 50 -8 82 -2 52 0 59 21 70 21 11 22 14 8 25 -9 8 -16 26
-16 42 l0 29 -69 0 c-70 0 -100 -12 -58 -24 12 -3 34 -6 50 -6 23 0 27 -4 27
-29 0 -24 -9 -34 -47 -59 l-48 -30 -205 14 c-113 7 -222 13 -242 13 -31 1 -38
5 -38 21 0 18 -3 19 -20 10 -11 -6 -45 -12 -75 -15 l-56 -4 23 28 c33 40 115
103 167 128 55 27 51 27 51 3 0 -23 13 -26 29 -6 16 19 76 29 100 17 13 -7 20
-8 23 -1 2 6 21 2 47 -10 42 -21 79 -21 66 0 -12 20 14 9 29 -12 14 -20 17
-20 33 -6 10 9 29 19 42 23 23 7 23 8 6 18 -10 5 -37 12 -59 14 -58 6 -65 9
-76 37 -6 18 -3 38 11 77 11 29 18 60 16 69 -2 10 -1 24 4 33 9 16 -15 32 -32
21 -5 -3 -9 -1 -9 4 0 5 -96 14 -213 21 -116 7 -228 14 -247 16 -19 2 -59 4
-87 5 l-53 0 0 36 c0 33 2 36 25 32 31 -6 41 7 27 35 -35 78 -35 92 1 60 18
-17 19 -17 32 1 13 17 21 17 242 -3 125 -11 255 -21 288 -23 l60 -2 5 52 c3
29 3 52 -1 52 -3 0 -3 19 2 43 4 23 8 168 8 322 0 154 3 288 6 298 11 27 25
20 25 -13 0 -38 -2 -37 240 -44 107 -4 255 -9 327 -13 l133 -6 5 -31 c9 -47
11 -237 3 -242 -4 -3 -4 -15 1 -27 5 -12 7 -33 5 -46 -3 -13 1 -30 7 -37 9
-11 8 -14 0 -14 -8 0 -10 -8 -5 -22 4 -13 7 -56 7 -96 0 -40 4 -75 9 -78 11
-7 -10 -34 -27 -34 -7 0 -18 -7 -25 -15 -15 -18 -51 -20 -69 -2 -11 10 -12 8
-6 -12 7 -23 7 -23 -61 -20 l-69 4 -10 -48 c-8 -36 -20 -57 -51 -85 -22 -21
-60 -64 -84 -97 -47 -64 -64 -60 -34 8 27 64 80 124 114 132 42 9 37 22 -11
35 -102 28 -199 -37 -259 -173 l-21 -48 23 -20 c18 -15 32 -18 66 -14 27 3 41
1 37 -5 -3 -6 0 -10 7 -10 7 -1 0 -11 -15 -24 -28 -22 -28 -23 -5 -22 18 1 23
-4 22 -21 -1 -29 12 -30 19 -2 5 20 11 21 68 16 34 -3 73 -1 86 4 16 6 22 5
18 -1 -4 -6 9 -10 32 -10 21 0 61 -3 88 -6 47 -6 52 -5 62 19 9 20 9 27 0 31
-7 2 9 2 34 -1 l45 -5 42 64 c45 69 50 83 27 74 -8 -3 -15 -2 -16 2 -6 56 -6
58 29 54 23 -3 37 -12 47 -31 8 -14 14 -21 15 -14 0 7 14 10 37 8 21 -2 43 1
50 7 9 7 13 7 13 -2 0 -10 3 -10 15 0 10 9 15 9 15 1 0 -6 5 -11 11 -11 5 0 7
4 4 10 -3 5 0 7 8 4 9 -3 16 3 20 16 4 16 -1 23 -19 31 -14 5 -33 9 -42 9 -33
0 -60 29 -73 80 -7 28 -25 62 -39 78 -40 40 -52 68 -37 80 12 10 47 3 382 -71
142 -32 162 -34 182 -22 12 8 24 23 28 34 3 10 12 22 20 25 8 3 21 20 31 38 9
18 28 45 42 61 14 15 45 64 67 110 38 74 47 84 91 106 27 13 61 30 76 38 14 7
41 13 60 13 53 0 112 25 118 50 3 11 8 21 13 21 4 -1 6 2 5 7 -2 4 -6 6 -10 5
-5 -2 -8 4 -8 13 0 8 5 12 11 8 8 -4 8 -1 1 13 -13 23 -5 63 12 63 6 0 5 4 -3
9 -8 5 -16 20 -19 33 -2 13 -5 30 -7 38 -2 8 -4 36 -4 63 l-1 47 -117 1 c-65
0 -111 3 -103 6 8 3 18 11 22 17 6 8 8 7 8 -1 0 -15 50 -12 67 3 6 6 48 12 92
13 l81 2 1 -71 c1 -38 3 -74 4 -80 1 -5 3 -37 4 -70 l1 -60 34 0 c18 0 54 -3
80 -6 l46 -7 0 -67 c0 -51 4 -69 15 -74 11 -4 15 1 15 17 0 68 22 343 28 348
6 5 272 -22 454 -45 40 -6 47 -4 42 9 -4 10 0 15 10 15 9 0 16 -6 16 -14 0 -8
6 -17 13 -20 16 -8 -115 1 -283 20 -74 8 -160 15 -190 17 l-55 2 -11 -195
c-10 -183 -10 -197 8 -227 24 -41 57 -167 58 -218 0 -45 -49 -150 -81 -173
-12 -8 -19 -25 -19 -47 0 -19 -5 -37 -10 -40 -5 -3 -10 1 -10 9 0 23 -8 20
-38 -12 -15 -16 -34 -31 -42 -34 -13 -4 -13 -7 -1 -21 7 -10 18 -17 23 -17 5
0 27 -16 48 -37 52 -47 64 -91 57 -215 l-6 -98 72 0 c96 0 110 -11 44 -34 -28
-11 -59 -24 -67 -30 -8 -7 -27 -18 -42 -25 -22 -11 -27 -21 -30 -65 -6 -68 -3
-73 43 -80 48 -8 59 -2 59 28 0 13 6 29 14 35 11 9 15 3 24 -30 12 -46 0 -79
-29 -79 -18 0 -52 -34 -43 -43 4 -3 14 1 22 10 11 10 17 12 20 4 2 -6 8 -11
13 -11 6 0 7 5 3 11 -4 7 -1 10 7 7 7 -2 26 9 41 25 l27 30 6 -26 c4 -14 4
-31 -1 -38 -5 -9 -1 -10 15 -6 18 4 21 2 16 -11 -4 -9 -9 -28 -11 -42 -2 -14
-5 -36 -8 -50 -2 -14 -5 -29 -5 -33 -1 -4 -28 -19 -61 -34 -62 -26 -82 -50
-32 -39 15 4 56 18 92 31 165 61 264 95 274 94 14 -1 -64 -37 -82 -38 -7 -1
-34 -11 -60 -23 -26 -11 -53 -21 -60 -21 -6 0 -10 -3 -7 -5 8 -9 -17 -32 -27
-25 -6 3 -9 0 -6 -8 3 -8 15 -16 28 -17 19 -3 22 0 17 17 -3 12 -1 21 4 21 5
0 9 -3 9 -7 0 -5 39 -9 88 -10 191 -5 217 -15 195 -74 -10 -26 -9 -28 31 -43
23 -9 46 -16 50 -16 5 0 6 27 3 59 -8 73 3 86 62 72 23 -5 52 -16 65 -24 22
-15 24 -14 35 9 7 16 18 24 29 22 18 -4 19 -15 8 -59 -5 -18 -2 -32 12 -49 32
-40 41 -17 21 56 -14 49 -16 77 -10 105 10 45 21 40 -139 69 -111 21 -169 39
-126 40 11 0 79 -12 153 -26 149 -29 146 -30 195 38 l19 28 -26 27 c-14 16
-28 35 -31 43 -3 8 -31 36 -62 61 l-57 46 -215 41 c-118 22 -236 44 -262 48
-27 3 -48 10 -48 15 0 5 -10 9 -21 9 -12 0 -33 12 -46 26 -24 26 -24 28 -12
91 12 61 12 66 -6 76 -11 6 -33 10 -50 8 -24 -2 -27 -1 -17 11 6 8 9 18 5 21
-3 4 4 7 16 7 14 0 20 -4 15 -11 -4 -8 0 -8 15 0 11 7 21 16 21 22 0 6 4 8 8
5 5 -3 9 1 9 10 0 10 -7 12 -21 8 -12 -4 -22 -11 -24 -15 -2 -5 -11 -9 -19 -9
-13 0 -13 2 -2 17 12 15 12 16 -1 8 -12 -6 -13 -5 -2 6 23 25 13 34 -36 31
-36 -3 -53 1 -66 13 -9 10 -16 19 -14 20 3 3 91 -5 266 -23 47 -5 72 -5 72 2
0 6 4 6 11 -1 6 -6 18 -9 25 -6 8 3 22 2 32 -2 9 -4 40 -7 69 -8 29 0 50 -5
46 -10 -3 -5 4 -6 17 -2 12 4 32 2 44 -3 22 -11 309 -46 381 -47 34 0 40 3 43
23 3 19 8 23 25 18 12 -3 51 -13 87 -21 36 -9 142 -34 235 -56 94 -22 204 -47
245 -55 100 -18 98 -18 95 -56 -2 -18 -3 -54 -4 -79 -1 -45 -2 -47 -35 -53
-51 -10 -136 -76 -190 -150 -26 -36 -51 -66 -55 -66 -4 0 -15 -18 -25 -39 -12
-28 -32 -49 -66 -70 l-49 -30 2 -63 2 -63 -50 -1 c-27 0 -63 -6 -78 -12 l-28
-12 52 -46 c28 -25 56 -43 63 -41 6 3 44 25 85 50 68 41 75 44 100 31 14 -7
33 -26 42 -41 16 -27 15 -29 -14 -66 l-30 -38 -66 6 -66 6 63 -60 c46 -44 73
-62 100 -66 52 -9 61 -13 30 -14 -26 -1 -26 -2 -12 -29 7 -15 14 -32 14 -39 0
-6 33 -23 73 -38 39 -15 121 -48 180 -72 l108 -45 21 21 c33 36 87 26 117 -21
13 -21 30 -38 37 -38 7 0 15 -8 18 -18 3 -10 21 -26 38 -36 18 -11 42 -27 53
-37 12 -10 41 -29 65 -42 25 -12 72 -40 104 -61 l60 -38 28 33 c15 19 28 38
28 43 0 4 13 24 30 43 16 18 30 41 30 51 0 9 9 32 20 50 l20 32 -43 0 c-23 0
-49 5 -57 10 -11 7 1 10 41 10 66 0 75 8 95 82 19 74 18 78 -16 78 -28 0 -29
2 -18 20 7 11 23 20 36 20 41 0 72 113 35 124 -22 6 -168 26 -194 26 -10 0
-18 -5 -16 -11 1 -6 -43 -32 -97 -57 l-100 -45 -72 9 c-78 10 -227 -5 -247
-25 -7 -7 -48 -11 -101 -10 -101 0 -94 17 8 18 36 1 66 7 75 15 9 8 61 24 116
36 271 58 267 55 162 111 -34 18 -75 43 -92 55 -19 14 -50 24 -85 28 -30 2
-95 10 -145 16 -140 17 -253 16 -272 -3 -14 -14 -18 -13 -41 14 -24 29 -24 30
-6 44 11 8 24 15 29 15 6 0 -6 10 -25 21 -19 12 -39 28 -43 35 -4 8 -15 14
-24 14 -9 0 -13 6 -10 14 3 7 1 18 -5 24 -8 8 -1 24 23 55 27 36 40 45 65 45
38 0 104 29 104 46 0 7 20 31 44 55 41 40 44 42 51 22 11 -34 -2 -54 -76 -121
-81 -72 -82 -72 36 -88 52 -7 65 -6 65 5 0 19 56 17 64 -3 3 -9 4 -19 1 -24
-3 -4 2 -10 10 -14 8 -3 15 -1 15 4 0 6 13 5 33 -3 17 -7 64 -13 104 -12 39 0
69 -3 67 -7 -3 -4 4 -7 13 -7 10 0 38 -3 63 -5 82 -7 305 -19 334 -17 15 1 35
-4 42 -10 8 -6 14 -8 14 -5 0 4 9 2 20 -4 14 -7 20 -7 20 0 0 5 5 10 11 10 5
0 7 -4 4 -10 -3 -5 -1 -10 4 -10 6 0 11 6 11 13 0 9 2 9 8 0 5 -8 39 -15 81
-18 40 -3 77 -7 81 -10 5 -3 14 1 22 8 7 7 26 22 41 32 15 10 26 20 23 22 -4
4 -305 34 -786 78 -156 15 -287 30 -290 35 -3 4 -4 196 -4 425 1 305 -1 414
-10 405 -13 -13 -18 -90 -5 -90 6 0 6 -7 1 -17 -5 -10 -10 -62 -10 -116 -1
-53 -3 -101 -6 -106 -4 -5 -22 -5 -43 0 -21 5 -159 36 -308 70 -148 33 -274
64 -279 69 -5 5 3 91 18 197 14 103 34 257 45 341 10 84 21 156 25 159 3 4 86
-10 184 -30 97 -21 188 -39 202 -42 14 -2 80 -17 148 -31 l124 -27 -6 -31 c-3
-17 -8 -59 -12 -93 l-7 -63 -36 0 c-20 0 -43 -4 -51 -10 -16 -10 -11 -13 35
-23 17 -4 17 -5 -3 -6 -13 0 -20 -6 -17 -11 4 -7 14 -6 28 2 12 7 25 11 29 10
4 -1 30 -2 57 -3 28 -1 51 -6 51 -11 0 -4 5 -8 11 -8 5 0 8 4 5 8 -2 4 11 6
31 4 24 -3 31 -7 22 -13 -9 -5 9 -7 44 -4 34 2 55 0 52 -6 -4 -5 -1 -9 4 -9 6
0 11 5 11 11 0 7 11 9 33 5 17 -4 46 -6 63 -6 30 0 234 -17 264 -23 8 -1 21
-7 29 -11 10 -6 12 -5 7 2 -4 7 -1 12 9 12 10 0 14 -5 9 -12 -5 -10 -4 -10 6
-1 8 7 21 8 34 3 11 -4 24 -8 29 -9 4 0 17 -3 30 -6 49 -11 77 -13 77 -6 0 3
9 7 20 7 11 0 20 -4 20 -8 0 -4 3 -7 8 -7 4 1 9 0 12 -1 20 -7 40 -7 40 2 0
13 42 6 59 -10 7 -7 16 -10 19 -7 4 3 0 10 -8 15 -12 8 -10 10 8 10 13 0 21
-4 18 -9 -3 -5 3 -11 14 -14 11 -3 18 -1 14 4 -3 5 4 9 15 9 11 0 25 8 30 18
9 17 -5 19 -217 36 -125 10 -243 20 -262 22 -19 2 -82 6 -140 9 -58 4 -118 8
-135 10 -16 2 -95 8 -175 15 -80 6 -150 13 -156 15 -8 2 -6 36 6 114 9 61 20
114 23 117 12 12 27 -8 27 -36 0 -26 4 -30 38 -35 20 -4 45 -9 55 -12 14 -3
17 2 17 27 0 29 3 32 23 26 12 -3 25 -6 30 -6 4 0 7 -13 7 -30 0 -16 1 -30 3
-30 2 0 131 -27 288 -60 156 -33 288 -60 293 -60 5 0 3 7 -4 15 -11 13 -9 15
13 15 18 0 26 -7 31 -25 4 -14 13 -25 22 -25 9 0 123 -27 255 -60 131 -33 242
-60 245 -60 9 0 0 247 -8 256 -5 4 -23 -1 -40 -10 -32 -17 -39 -17 -173 4
-248 37 -236 38 -274 -5 -37 -43 -55 -39 -23 5 27 36 27 40 0 41 -22 0 -22 1
-3 8 16 7 12 10 -23 16 -24 4 -46 4 -49 1 -4 -3 6 -6 20 -6 15 0 27 -4 27 -8
0 -4 -16 -6 -35 -4 -19 2 -35 1 -35 -2 0 -4 11 -23 25 -43 13 -20 22 -39 18
-42 -3 -3 -8 -1 -10 6 -9 25 -64 93 -76 93 -6 1 -118 16 -247 34 -129 19 -237
30 -240 26 -3 -5 -17 -6 -33 -3 -26 5 -27 7 -27 78 0 39 -3 106 -6 147 l-7 76
-74 11 c-117 17 -112 20 -115 -46 -3 -53 -6 -59 -32 -72 -26 -12 -43 -11 -159
14 -107 22 -131 25 -138 14 -14 -22 -11 -36 21 -99 24 -47 27 -60 15 -60 -8 0
-15 6 -15 14 0 7 -7 19 -15 26 -9 7 -22 27 -31 44 -30 61 -86 113 -132 121
-38 6 -42 9 -42 36 0 25 3 29 23 24 136 -33 399 -80 403 -73 6 9 -1 203 -11
323 -2 28 -7 100 -10 160 -3 61 -8 141 -11 178 l-5 68 63 -7 c35 -4 66 -9 71
-11 4 -2 7 -30 8 -61 0 -105 14 -188 33 -207 19 -19 88 -36 105 -26 9 6 6 43
-24 257 -12 87 -26 87 548 15 271 -33 504 -61 518 -61 26 0 68 35 56 46 -3 4
-48 12 -99 19 -51 7 -194 27 -318 43 -124 17 -238 32 -255 34 -25 2 -31 8 -35
33 l-5 30 -215 22 c-118 12 -240 23 -270 25 l-54 3 -1 -60 0 -60 -59 3 c-33 1
-61 4 -62 5 -2 1 -4 29 -5 62 -4 94 0 90 -97 106 -48 7 -100 14 -117 15 -16 1
-30 3 -30 5 0 2 -19 5 -75 14 -54 8 -64 10 -77 18 -16 10 -33 0 -33 -19 0 -10
-6 -14 -17 -10 -46 13 -258 46 -291 45 -20 -1 -47 2 -59 6 -22 7 -23 4 -23
-36 0 -38 15 -296 25 -424 2 -22 3 -77 4 -122 1 -70 4 -83 18 -83 26 0 403
-83 399 -88 -5 -5 -201 30 -323 57 -81 17 -83 17 -83 -1 0 -11 5 -16 10 -13 6
3 10 1 10 -4 0 -6 -4 -11 -10 -11 -13 0 -13 -47 1 -55 6 -4 8 -13 5 -20 -2 -7
1 -18 7 -24 8 -8 4 -11 -16 -11 -62 0 -18 -17 111 -43 250 -51 232 -46 232
-74 0 -24 -1 -24 -54 -18 l-54 7 -5 -168 c-3 -151 -40 -476 -76 -684 -9 -48
-9 -41 -5 45 2 55 6 150 9 210 3 61 7 139 10 175 4 58 7 216 6 278 -1 13 -4
21 -8 19 -5 -3 -8 16 -7 41 1 81 7 78 -142 92 -74 7 -134 15 -134 18 0 3 44 2
98 -1 66 -4 90 -3 74 3 -13 6 -28 8 -33 4 -5 -3 -9 0 -9 5 0 6 -6 11 -13 11
-17 0 -51 36 -44 47 2 4 1 18 -4 31 -7 18 -16 22 -54 22 -44 0 -45 -1 -45 -31
0 -27 -3 -30 -22 -23 -26 8 -38 22 -38 46 0 10 -10 20 -22 22 -31 7 -125 15
-166 16 -20 0 -31 4 -27 10 3 6 2 10 -4 10 -5 0 -11 -4 -13 -8 -6 -14 -75 -62
-89 -62 -8 0 1 10 18 21 18 12 30 25 27 30 -3 5 -30 9 -60 9 -52 0 -54 1 -54
26 l0 27 183 -7 c100 -3 223 -9 272 -12 l90 -6 -2 43 c-1 41 -13 242 -18 319
-2 19 -6 96 -9 170 -8 158 -14 250 -22 303 -5 38 -5 39 23 33 15 -3 111 -22
213 -41 102 -19 244 -46 315 -60 345 -65 337 -64 363 -47 l24 16 -23 9 c-13 5
-98 24 -189 42 -217 44 -214 44 -295 55 -39 5 -77 11 -85 14 -8 3 -33 8 -55
10 -22 3 -76 12 -120 21 -44 9 -100 15 -125 15 -25 -1 -137 2 -249 6 l-204 7
8 -132 7 -131 -56 0 c-37 0 -56 4 -56 12 0 47 -24 245 -31 253 -4 6 -59 12
-126 13 -65 1 -189 5 -276 8 l-159 6 6 -63 c40 -410 55 -585 56 -626 0 -27 4
-33 23 -34 16 -1 18 -2 5 -6 -14 -3 -18 -15 -17 -51 0 -26 4 -56 8 -67 5 -13
3 -24 -7 -31 -19 -13 54 -21 311 -30 l177 -7 0 -27 c0 -27 0 -27 -66 -23 l-67
5 5 -26 c5 -25 4 -26 -41 -24 -43 1 -44 2 -8 5 27 3 37 9 37 22 0 15 -12 19
-77 25 -42 3 -122 6 -178 6 -86 0 -104 3 -119 18 -14 16 -44 21 -211 31 -106
7 -199 10 -204 6 -6 -3 -11 -22 -11 -41 0 -30 -3 -34 -25 -34 -23 0 -25 4 -25
40 0 24 -5 42 -12 45 -7 2 -64 6 -125 8 -108 4 -115 3 -150 -22 l-38 -25 18
27 c9 15 13 27 7 27 -5 0 -10 5 -10 10 0 6 7 10 16 10 8 0 12 5 9 10 -4 6 -11
8 -16 5 -5 -4 -9 1 -9 10 0 8 6 18 13 20 6 2 104 9 217 15 113 6 231 13 262
16 l56 6 -4 101 c-10 269 -44 657 -58 679 -11 15 -14 14 -31 -7z m-327 -1036
c-7 -3 -119 -10 -248 -13 -129 -4 -238 -10 -242 -12 -4 -3 -7 -38 -7 -77 1
-40 4 -62 6 -49 4 23 7 23 104 20 54 -2 99 0 99 5 0 4 32 7 70 7 l70 0 0 -42
c0 -24 3 -59 6 -79 l6 -37 184 2 184 1 0 -77 0 -78 -107 -1 c-60 -1 -137 -2
-173 -4 -36 -2 -147 -6 -247 -10 -168 -5 -182 -4 -186 12 -3 10 -3 -101 0
-247 3 -149 2 -261 -3 -257 -5 5 -10 59 -11 120 -1 62 -4 180 -7 262 -2 83 -7
239 -10 347 l-5 197 29 6 c16 4 33 4 38 1 4 -2 13 -2 19 2 6 4 109 7 227 8
119 0 211 -3 204 -7z m-2088 -8 c0 -11 49 -20 149 -26 40 -3 92 -7 115 -10
115 -13 349 -26 373 -21 21 5 24 4 13 -4 -11 -7 -2 -10 38 -11 28 -1 57 -3 62
-4 6 -1 15 -3 21 -4 6 -1 8 -21 5 -53 -3 -29 -5 -185 -5 -346 l-1 -294 -27 6
c-16 3 -64 8 -108 11 -44 3 -102 8 -130 10 -121 12 -526 45 -544 45 -19 0 -20
7 -20 338 1 185 3 345 5 355 5 17 54 25 54 8z m5492 -2251 c6 0 -1 -9 -16 -21
-15 -11 -36 -39 -47 -60 -26 -52 -92 -78 -162 -65 -29 5 -36 12 -41 39 -9 44
12 57 90 57 44 0 65 4 71 14 11 20 65 47 81 41 8 -3 18 -5 24 -5z"/>
</g>
</svg>
