<?xml version="1.0" standalone="no"?>
<!DOCTYPE svg PUBLIC "-//W3C//DTD SVG 20010904//EN"
 "http://www.w3.org/TR/2001/REC-SVG-20010904/DTD/svg10.dtd">
<svg version="1.0" xmlns="http://www.w3.org/2000/svg"
 width="960.000000pt" height="300.000000pt" viewBox="0 0 960.000000 300.000000"
 preserveAspectRatio="xMidYMid meet">
<metadata>
Created by potrace 1.11, written by Peter Selinger 2001-2013
</metadata>
<g transform="translate(0.000000,300.000000) scale(0.100000,-0.100000)"
fill="#000000" stroke="none">
<path d="M3654 2608 c-1 -64 -10 -127 -28 -183 -30 -92 -34 -110 -41 -160 -4
-27 -10 -61 -12 -75 -3 -14 -6 -67 -7 -119 -1 -73 -5 -95 -16 -100 -17 -7 -18
-22 -22 -206 -3 -126 -4 -130 -25 -133 -13 -2 -24 -11 -24 -20 -1 -9 -2 -21
-4 -27 -1 -5 -3 -25 -3 -42 -4 -65 -17 -31 -19 47 -2 47 -9 92 -17 109 -9 16
-13 31 -10 34 3 3 -2 19 -10 36 -9 17 -15 34 -14 38 2 5 -11 9 -29 11 -26 3
-32 -1 -35 -19 -2 -14 -11 -23 -25 -26 -13 -1 -31 -4 -40 -6 -10 -1 -22 -5
-28 -9 -5 -3 -54 -5 -107 -4 -53 1 -95 -1 -92 -5 2 -4 -5 -5 -15 -2 -29 8 -61
-14 -61 -42 0 -14 -3 -25 -7 -26 -5 -1 -23 -2 -40 -4 -18 -1 -59 -6 -90 -11
-32 -4 -62 -8 -68 -8 -6 -1 -10 -44 -11 -108 0 -59 -3 -110 -6 -114 -3 -3 -5
8 -4 25 3 38 -13 66 -39 66 -12 0 -21 9 -25 24 -7 32 -28 38 -103 30 -34 -3
-66 -3 -71 2 -5 4 -10 45 -12 91 -5 95 -7 115 -17 124 -4 4 -7 17 -7 28 0 12
-10 37 -23 56 -15 22 -24 50 -24 77 -1 45 -11 98 -18 91 -3 -2 -9 -37 -15 -76
-5 -40 -16 -83 -24 -95 -8 -12 -17 -37 -21 -54 -4 -18 -10 -33 -14 -33 -4 0
-7 -15 -6 -32 0 -18 -2 -44 -6 -58 -3 -14 -2 -35 2 -48 5 -12 5 -22 1 -22 -4
0 -6 -31 -5 -70 1 -38 -1 -69 -5 -69 -22 4 -31 -3 -30 -23 0 -13 0 -36 -1 -51
l-1 -28 -22 21 c-12 11 -24 16 -27 12 -3 -4 -19 -9 -36 -10 -16 -1 -35 -9 -41
-17 -8 -11 -11 -3 -11 38 -1 84 -1 84 -25 83 -22 -1 -23 2 -20 67 1 37 -1 68
-5 68 -47 7 -108 6 -153 -2 -30 -5 -73 -12 -95 -15 -22 -4 -42 -8 -44 -10 -2
-2 -4 -28 -3 -59 l0 -54 -36 -6 c-21 -4 -48 -9 -62 -13 -40 -10 -43 -8 -47 18
-5 34 -15 38 -103 34 -92 -3 -104 -8 -97 -40 2 -13 1 -24 -2 -25 -3 0 -15 -3
-26 -5 -11 -2 -35 -5 -52 -5 -35 -1 -37 -6 -35 -91 1 -25 -2 -27 -19 -18 -10
6 -19 8 -19 4 0 -3 -8 0 -17 7 -14 12 -15 12 -9 0 7 -10 3 -11 -15 -6 -34 11
-109 13 -109 3 0 -5 -18 -7 -40 -5 -22 2 -40 0 -40 -5 0 -5 -12 -8 -27 -6 -20
2 -27 -1 -25 -12 1 -9 -6 -5 -19 9 -12 15 -23 21 -27 15 -9 -14 -82 -26 -82
-13 0 5 5 9 10 9 6 0 5 6 -2 14 -16 17 -28 11 -28 -15 0 -10 -5 -19 -11 -19
-5 0 -7 -4 -4 -10 4 -7 -2 -7 -19 0 -17 6 -26 6 -29 -3 -8 -22 -19 1 -19 40 0
27 -6 43 -20 54 -11 9 -21 27 -22 40 -1 19 -7 25 -33 27 -18 2 -33 8 -33 15 0
14 -44 -33 -46 -49 -1 -7 -11 -23 -23 -35 -20 -21 -25 -34 -22 -51 1 -8 -37
-31 -57 -34 -8 -1 -17 -6 -20 -10 -4 -4 1 -4 11 -1 9 4 17 2 17 -4 0 -7 -9 -9
-22 -4 -13 4 -41 7 -63 7 -22 -1 -132 -3 -245 -4 l-205 -4 -3 -657 -2 -657
4800 0 4800 0 0 824 c0 803 0 824 -19 829 -21 5 -41 -9 -41 -30 0 -14 -5 -15
-60 -17 -38 -1 -39 -6 -40 -103 0 -18 -5 -33 -11 -33 -6 0 -7 5 -4 10 3 6 2
10 -3 10 -5 0 -9 15 -10 33 0 17 -3 83 -5 146 -4 136 0 131 -124 122 -7 -1
-13 -12 -13 -26 0 -24 6 -28 43 -28 9 0 17 -6 17 -13 0 -17 -5 -17 -31 -4 -15
8 -19 7 -19 -4 0 -9 6 -13 13 -10 8 3 14 -2 14 -10 0 -11 -8 -14 -24 -12 -16
3 -21 1 -16 -7 4 -7 8 -25 8 -41 0 -19 8 -34 25 -45 22 -15 24 -15 17 2 -3 9
-2 17 2 17 7 0 21 -23 21 -34 0 -8 -37 1 -59 13 -20 11 -22 11 -15 -1 9 -14 7
-104 -2 -120 -3 -5 -18 -8 -32 -7 -15 2 -32 1 -37 -2 -9 -4 -80 -4 -80 1 0 1
-8 3 -18 5 -9 2 -25 13 -35 24 -20 24 -42 16 -45 -17 0 -11 -4 -19 -8 -16 -4
2 -9 -3 -13 -11 -3 -8 -11 -15 -17 -15 -9 0 -9 4 0 14 8 10 9 16 1 21 -6 3 -8
10 -5 15 3 5 0 12 -6 16 -8 5 -7 9 2 15 17 10 -29 29 -57 24 -11 -2 -25 -4
-31 -4 -7 -1 -13 -10 -13 -21 0 -11 -4 -20 -8 -20 -4 0 -9 39 -11 88 -4 131
-6 146 -14 159 -4 6 -1 13 5 16 10 3 10 7 -1 20 -11 14 -11 17 0 17 11 0 11 2
-1 10 -8 5 -10 10 -5 10 9 0 10 48 6 175 -1 17 -1 37 0 45 3 43 -5 98 -14 93
-5 -3 -36 -7 -68 -10 -43 -3 -59 0 -60 9 -1 7 -2 43 -4 81 -1 37 -5 70 -9 74
-8 9 -178 73 -194 73 -7 0 -20 4 -30 9 -94 48 -113 47 -379 -14 l-21 -5 2
-379 c1 -209 -1 -378 -6 -375 -4 3 -8 14 -8 24 0 10 -4 21 -9 25 -6 3 -10 13
-9 23 1 33 -12 96 -21 105 -9 9 -121 11 -243 4 -56 -4 -68 -1 -73 12 -4 13
-21 16 -87 17 -108 2 -148 6 -148 17 0 5 -7 7 -15 3 -8 -3 -43 -8 -78 -12 -34
-3 -63 -7 -65 -9 -6 -5 -5 -132 1 -141 3 -6 0 -11 -8 -11 -15 0 -50 96 -49
135 1 15 -4 22 -17 22 -14 0 -19 -7 -19 -28 0 -15 -5 -33 -10 -38 -6 -6 -12
-25 -13 -42 -1 -18 -5 -32 -9 -32 -4 0 -4 -7 -1 -17 5 -12 3 -14 -6 -8 -17 10
-54 93 -57 125 -2 34 -3 35 -14 24 -6 -6 -13 -24 -16 -40 -3 -16 -9 -31 -15
-32 -5 -2 -7 -8 -3 -13 3 -5 -6 -9 -20 -9 -19 0 -26 5 -26 20 0 13 -7 20 -20
20 -11 0 -20 -6 -20 -14 0 -11 -13 -14 -51 -13 -43 1 -52 4 -59 23 -7 17 -14
21 -30 17 -16 -4 -23 0 -26 15 -5 16 -13 19 -44 17 -21 -2 -46 -8 -57 -13 -10
-6 -39 -13 -63 -16 -66 -9 -114 -17 -119 -21 -2 -2 -4 -17 -5 -34 0 -22 -6
-31 -23 -34 -31 -6 -41 4 -40 38 0 17 -1 89 -1 160 l-2 130 -48 3 c-26 1 -67
4 -92 7 -54 4 -152 -24 -157 -45 -3 -12 -17 -15 -63 -12 -35 2 -69 -2 -82 -10
-13 -7 -27 -11 -33 -9 -24 7 -162 7 -182 0 -20 -8 -22 -5 -19 26 1 19 -1 32
-5 29 -4 -2 -10 -1 -13 4 -2 4 -31 7 -63 6 -121 -3 -113 0 -113 -38 0 -19 -4
-36 -9 -38 -14 -4 -22 -286 -9 -294 6 -4 3 -11 -7 -17 -14 -7 -21 -6 -30 6
-20 27 -60 26 -75 -3 -6 -11 -7 -19 -3 -18 4 2 8 -1 8 -7 0 -5 -13 -9 -29 -10
-31 0 -30 -1 -41 80 -6 39 -24 72 -26 47 -2 -15 -4 -23 -12 -42 -4 -8 -8 -33
-11 -54 -2 -22 -11 -45 -20 -51 -9 -7 -16 -17 -16 -24 0 -6 -4 -11 -10 -11 -5
0 -10 21 -10 46 0 32 -4 44 -12 42 -15 -5 -63 37 -63 55 0 6 -10 13 -22 15
-18 3 -23 -2 -23 -18 0 -12 -4 -18 -10 -15 -6 3 -10 -5 -10 -18 0 -14 -7 -28
-16 -31 -8 -3 -12 -11 -9 -16 4 -6 1 -17 -5 -25 -6 -8 -9 -18 -6 -23 3 -5 -2
-21 -10 -36 -7 -16 -14 -37 -14 -47 0 -11 -4 -19 -10 -19 -9 0 -15 107 -11
200 3 62 -7 83 -35 77 -17 -3 -32 2 -45 16 -25 28 -70 36 -125 23 -22 -5 -33
-3 -36 6 -3 7 -6 72 -7 143 -3 122 -7 230 -10 248 0 4 -15 16 -32 26 -24 15
-45 18 -107 14 -85 -4 -100 -12 -101 -51 -5 -324 -7 -356 -18 -359 -7 -3 -9 3
-6 16 3 12 1 21 -6 21 -6 0 -11 9 -11 19 0 31 -21 36 -41 10 -19 -24 -23 -21
-19 15 1 10 -3 15 -9 12 -6 -4 -10 -45 -10 -96 0 -50 -3 -95 -6 -100 -3 -6
-17 -10 -31 -10 -22 0 -24 4 -24 46 0 84 -37 112 -67 49 -16 -33 -44 -52 -61
-41 -17 10 -37 -14 -38 -46 -2 -70 -4 -78 -20 -78 -8 0 -13 -4 -10 -9 4 -5 1
-11 -5 -13 -6 -2 -13 -22 -15 -43 -2 -22 -5 -48 -7 -58 -4 -21 -60 -54 -65
-38 -2 6 -12 11 -23 11 -10 0 -19 7 -19 15 0 8 -7 15 -16 15 -13 0 -14 3 -5
13 6 8 7 17 3 21 -4 4 -7 24 -7 44 0 33 -3 37 -35 45 -19 4 -44 8 -55 7 -11 0
-40 -2 -65 -3 l-44 -2 -2 60 c-1 33 -7 115 -13 183 -6 68 -9 128 -6 132 3 5
-3 14 -13 19 -17 9 -20 23 -21 102 -1 51 -6 100 -12 110 -5 10 -8 22 -7 26 0
4 -2 19 -5 33 -4 14 -8 39 -11 55 -2 17 -9 42 -15 58 -6 15 -8 27 -5 27 2 0
-1 10 -8 23 -7 12 -14 29 -15 37 -1 8 -7 33 -13 55 -10 36 -16 79 -19 128 -2
36 -16 15 -17 -25z"/>
</g>
</svg>
