<?xml version="1.0" standalone="no"?>
<!DOCTYPE svg PUBLIC "-//W3C//DTD SVG 20010904//EN"
 "http://www.w3.org/TR/2001/REC-SVG-20010904/DTD/svg10.dtd">
<svg version="1.0" xmlns="http://www.w3.org/2000/svg"
 width="800.000000pt" height="600.000000pt" viewBox="0 0 800.000000 600.000000"
 preserveAspectRatio="xMidYMid meet">
<metadata>
Created by potrace 1.11, written by Peter Selinger 2001-2013
</metadata>
<g transform="translate(0.000000,600.000000) scale(0.100000,-0.100000)"
fill="#000000" stroke="none">
<path d="M0 5970 c0 -17 5 -30 13 -30 8 0 8 -3 1 -8 -5 -4 -11 -39 -12 -79 -2
-64 0 -73 18 -83 11 -6 18 -15 15 -21 -4 -5 -3 -8 2 -7 4 2 8 -1 8 -7 0 -5 -4
-9 -8 -7 -5 1 -6 -3 -2 -10 4 -7 0 -5 -8 4 -8 10 -17 15 -20 11 -4 -3 -7 -52
-7 -109 0 -100 1 -103 31 -137 22 -25 37 -33 52 -30 16 4 18 2 8 -5 -11 -8
-10 -11 4 -19 16 -9 16 -10 -2 -15 -20 -5 -68 26 -60 39 3 4 -1 14 -9 21 -12
11 -15 10 -21 -4 -4 -11 2 -23 20 -36 34 -24 34 -34 2 -42 -19 -5 -25 -13 -25
-35 0 -24 3 -28 20 -24 13 3 38 -10 78 -41 52 -41 58 -49 54 -76 l-4 -31 -37
26 -36 26 37 -34 c34 -31 50 -67 30 -67 -21 0 -117 73 -128 97 l-12 28 -1 -40
c-1 -23 5 -47 12 -54 9 -11 9 -13 0 -7 -20 11 -15 -15 6 -38 10 -12 21 -34 25
-50 l7 -29 -28 17 c-21 13 -18 9 10 -16 56 -50 46 -92 -13 -51 l-25 17 20 -23
c19 -22 19 -24 2 -36 -21 -15 -23 -45 -3 -45 8 0 25 -14 39 -31 13 -16 31 -31
40 -33 10 -1 23 -8 30 -16 10 -11 8 -12 -8 -6 -17 6 -17 4 4 -18 14 -15 21
-26 17 -26 -5 0 -2 -8 5 -17 13 -16 12 -17 -4 -4 -9 8 -15 16 -12 19 6 7 -15
32 -27 32 -5 0 -6 -5 -2 -12 4 -6 -14 3 -39 22 -50 35 -61 48 -26 29 15 -8 19
-8 15 0 -4 6 -16 16 -27 21 -16 9 -19 7 -19 -14 0 -19 17 -39 71 -82 58 -46
68 -58 55 -66 -10 -5 -24 -5 -36 2 -19 10 -20 10 -8 -9 7 -12 20 -21 28 -21
13 0 13 -1 0 -10 -20 -13 -43 -13 -35 0 3 6 -2 10 -12 10 -11 0 -23 3 -29 8
-5 4 -6 3 -1 -3 12 -16 8 -25 -13 -25 -11 0 -20 -4 -20 -9 0 -16 20 -23 33
-13 12 9 117 25 117 17 0 -3 -14 -11 -30 -20 -21 -11 -36 -13 -48 -6 -21 11
-37 3 -37 -19 0 -8 -8 -14 -17 -14 -11 1 -18 -5 -18 -15 0 -19 14 -43 24 -41
4 1 25 -12 46 -29 53 -42 110 -159 113 -229 1 -33 6 -52 14 -52 7 0 17 -8 22
-17 7 -13 11 51 11 212 0 127 4 236 9 244 5 8 15 10 22 6 8 -4 1 4 -16 19 -25
21 -28 27 -15 36 21 13 23 13 49 -11 12 -12 24 -19 27 -17 2 3 -5 13 -16 23
-11 10 -20 22 -20 27 0 10 43 11 56 1 5 -5 6 -4 2 2 -5 5 -8 12 -8 16 0 11 36
17 53 8 12 -7 14 -5 10 10 -4 16 0 19 26 17 20 -1 31 3 31 11 0 11 19 18 43
14 4 0 7 4 7 9 0 12 49 -21 50 -33 0 -5 -4 -6 -9 -3 -5 3 -14 -1 -21 -9 -7 -8
-17 -12 -23 -8 -6 3 -7 1 -3 -6 6 -9 11 -9 23 1 27 22 46 18 92 -19 85 -70
161 -230 149 -312 -3 -24 0 -32 15 -37 10 -3 21 -3 25 1 4 3 8 113 10 243 2
130 8 242 12 247 5 6 26 16 47 23 21 8 47 17 58 22 41 19 80 33 88 32 4 -1 7
2 7 7 0 5 14 13 32 16 17 4 73 25 125 46 51 22 95 39 98 39 3 0 22 -17 43 -38
82 -82 159 -225 130 -243 -13 -9 -34 -12 -54 -10 -6 1 -17 -5 -23 -13 -20 -24
5 -28 45 -7 39 21 54 20 54 -5 0 -8 -4 -13 -9 -10 -5 3 -12 -2 -15 -11 -4 -10
-4 -14 0 -10 13 13 34 -15 34 -44 0 -23 -5 -29 -21 -29 -11 0 -28 -7 -37 -16
-15 -15 -14 -16 6 -10 18 6 21 4 16 -11 -5 -14 -4 -15 4 -4 9 12 13 12 26 -2
14 -14 11 -17 -35 -32 -28 -9 -52 -15 -54 -13 -4 4 -12 50 -15 88 -2 21 -4 19
-10 -10 -5 -25 -2 -44 12 -68 19 -34 26 -69 8 -42 -8 13 -10 13 -10 -1 0 -9
-10 -20 -22 -24 -20 -6 -20 -8 -5 -12 14 -4 17 -16 17 -68 l0 -64 -87 -26
c-49 -15 -122 -37 -163 -49 -41 -13 -291 -88 -555 -166 -264 -79 -492 -148
-508 -154 -31 -13 -37 -27 -7 -19 14 4 20 1 18 -7 -2 -7 12 -23 30 -36 27 -18
30 -23 15 -27 -15 -4 -14 -5 4 -6 21 -1 43 -43 43 -80 -1 -22 -29 28 -30 52 0
9 -6 17 -14 17 -12 0 -11 -9 6 -47 11 -27 26 -51 32 -55 19 -13 56 -9 56 6 0
7 6 19 14 25 7 6 16 28 20 49 6 42 18 51 104 78 69 22 72 17 72 -103 0 -86 1
-93 20 -93 18 0 20 7 20 75 0 70 2 75 21 75 19 0 20 4 15 34 -6 34 -5 35 41
56 26 12 62 24 79 27 29 5 33 2 65 -53 28 -51 33 -71 38 -152 4 -51 2 -92 -3
-92 -5 0 8 -11 28 -25 20 -14 43 -25 51 -25 8 0 15 -5 15 -11 0 -6 -9 -8 -20
-4 -11 3 -20 2 -20 -3 0 -5 45 -17 101 -27 55 -10 103 -23 106 -28 4 -6 0 -7
-8 -3 -8 4 -1 -4 14 -18 30 -27 58 -37 38 -13 -8 10 -7 17 1 25 9 9 7 12 -8
12 -12 0 -24 3 -27 7 -4 3 -43 18 -86 33 -88 29 -115 46 -106 68 3 8 0 22 -7
30 -11 13 -10 15 4 9 16 -5 17 -1 12 31 -7 43 -21 72 -34 72 -17 0 -11 41 14
94 13 28 30 71 37 96 16 55 18 58 30 40 6 -10 12 -11 17 -4 10 14 161 58 170
49 4 -4 7 -121 7 -261 1 -249 1 -255 23 -276 20 -20 22 -21 22 -4 0 11 5 16
14 13 8 -3 16 2 19 14 4 14 0 19 -14 19 -18 0 -20 6 -17 68 3 64 4 67 27 64
19 -2 22 0 12 12 -9 11 -9 15 1 19 7 3 0 6 -16 6 l-29 1 6 98 c4 53 7 112 7
130 0 27 4 32 25 32 21 0 24 3 19 28 -6 32 35 90 56 77 7 -4 16 -2 20 4 4 7
22 16 41 20 19 4 44 11 56 15 18 6 25 1 37 -23 9 -17 17 -52 17 -78 l2 -48 6
40 6 40 23 -36 c21 -35 22 -43 22 -319 0 -253 2 -282 16 -276 9 3 20 6 25 6 6
0 9 6 8 13 -1 6 -1 51 0 100 1 67 4 87 15 87 9 0 12 7 9 20 -3 11 -9 20 -15
20 -5 0 -7 45 -6 103 3 87 5 102 19 101 20 -2 19 29 -1 37 -20 8 -14 72 12
124 12 22 20 41 20 42 -1 2 5 18 13 37 14 33 14 35 -5 31 -21 -4 -28 19 -10
30 14 9 -7 35 -29 36 -11 0 -10 3 6 9 25 10 25 56 -1 75 -23 17 -20 22 15 29
19 3 38 1 46 -6 11 -9 13 -8 11 2 -2 7 3 15 10 17 6 3 12 -2 12 -11 0 -9 7
-16 15 -16 9 0 18 -7 22 -16 4 -12 11 -8 34 18 28 32 36 25 20 -17 -9 -22 6
-65 23 -65 6 0 41 8 78 19 60 16 68 16 73 2 3 -8 5 -107 4 -219 -1 -163 1
-206 12 -213 10 -6 8 -9 -8 -9 -23 0 -32 -23 -13 -35 15 -9 13 -240 -2 -252
-7 -6 -35 -16 -62 -23 -58 -16 -158 -104 -182 -160 -8 -19 -19 -37 -23 -40 -5
-3 -11 -26 -14 -53 -3 -26 -8 -51 -11 -56 -3 -5 29 -12 72 -16 42 -4 91 -13
108 -20 34 -14 64 -66 64 -111 0 -27 -1 -27 -15 -8 -8 10 -15 14 -15 7 0 -7
-7 -10 -15 -7 -8 4 -15 1 -15 -6 0 -6 -4 -9 -8 -6 -4 2 -14 1 -22 -5 -12 -7
-12 -9 -1 -9 19 0 7 -54 -19 -80 -23 -23 -52 -27 -44 -6 4 12 -5 16 -43 18
l-48 3 -6 60 c-7 72 -39 149 -69 165 -39 21 -71 3 -105 -58 -1 -1 -18 5 -38
13 -20 8 -55 15 -77 15 -22 0 -40 5 -40 10 0 19 93 111 158 158 35 25 68 56
73 70 13 34 5 38 -15 7 -13 -20 -20 -23 -35 -15 -16 8 -20 5 -25 -15 -4 -14
-13 -25 -20 -25 -8 0 -22 -3 -32 -7 -12 -4 -15 -3 -10 5 17 28 -15 9 -39 -22
-15 -19 -32 -33 -39 -30 -22 9 -39 -23 -33 -62 5 -31 4 -34 -6 -20 -10 13 -12
-6 -9 -98 3 -90 1 -119 -11 -136 -14 -20 -15 -10 -19 107 -4 113 -2 131 15
156 18 26 18 27 0 27 -15 0 -16 2 -3 10 13 8 12 10 -4 10 -13 0 -17 -5 -13
-20 3 -11 0 -20 -6 -20 -9 0 -11 -37 -9 -135 l4 -134 -26 -7 c-14 -3 -23 -10
-20 -15 3 -5 -5 -9 -18 -9 -16 0 -19 3 -10 9 9 5 2 8 -19 9 -21 0 -39 8 -48
21 -14 19 -20 20 -53 9 -21 -6 -35 -15 -32 -20 3 -4 0 -8 -5 -8 -6 0 -11 -4
-11 -10 0 -16 22 -12 44 9 17 15 26 17 46 8 21 -8 22 -11 8 -14 -10 -3 -18 -8
-18 -13 0 -4 14 -3 30 3 23 9 33 9 38 1 4 -7 16 -14 27 -16 11 -2 19 -10 17
-17 -3 -16 44 -234 59 -272 12 -29 54 -55 65 -38 4 7 10 6 19 -1 8 -7 19 -9
25 -5 6 4 10 -9 10 -36 l0 -42 -87 7 c-115 9 -315 7 -388 -5 -11 -1 16 -6 60
-9 l80 -7 -95 2 c-52 1 -105 5 -117 9 -16 6 -22 3 -26 -11 -4 -17 -5 -17 -6 0
0 10 -5 15 -11 12 -6 -4 -10 12 -10 40 l0 47 38 -2 c20 -1 42 -2 49 -1 21 2
30 56 31 189 l1 132 32 31 c24 24 34 28 40 17 6 -9 2 -14 -11 -16 -25 -4 -27
-22 -2 -22 25 0 51 20 35 27 -7 2 -13 10 -13 18 0 7 -11 13 -25 13 -14 0 -25
-4 -25 -8 0 -3 -6 -7 -12 -7 -7 0 -21 -4 -30 -8 -20 -8 -19 -17 -22 133 -2 70
0 92 9 88 13 -5 29 49 20 64 -2 4 8 6 23 5 40 -3 44 -4 38 -14 -10 -15 78 9
90 25 10 12 13 12 17 2 4 -10 6 -10 6 0 1 9 6 10 19 3 9 -5 19 -9 22 -9 3 0
16 -3 30 -6 67 -15 89 -14 83 2 -5 11 -3 13 8 7 11 -6 12 -5 2 5 -10 11 -15
11 -28 0 -13 -10 -15 -9 -15 8 0 15 5 20 19 17 14 -3 18 1 14 11 -3 8 -11 14
-19 14 -8 0 -14 5 -14 11 0 5 4 8 9 4 5 -3 12 -1 15 4 4 5 2 12 -4 16 -6 4 -8
9 -6 13 2 4 -4 23 -13 42 -15 32 -20 35 -54 32 -25 -2 -37 1 -37 9 0 7 -3 9
-7 6 -3 -4 -13 -1 -21 5 -12 10 -14 9 -11 -7 3 -15 14 -21 42 -23 20 -2 37 -7
37 -12 0 -12 -16 -21 -24 -13 -3 4 -25 8 -48 9 -27 2 -47 10 -55 20 -7 10 -13
14 -13 9 0 -5 -6 0 -14 11 -14 18 -15 18 -21 2 -4 -10 -14 -18 -22 -18 -8 0
-12 4 -9 8 3 5 -8 6 -25 4 -32 -5 -36 -11 -17 -30 10 -10 7 -12 -12 -9 -25 4
-41 27 -19 27 7 0 9 3 6 6 -4 4 -13 1 -21 -5 -12 -10 -14 -9 -9 8 4 16 1 21
-13 21 -9 0 -14 3 -11 7 4 3 -2 13 -13 20 -11 8 -18 19 -15 24 4 5 1 9 -4 9
-6 0 -11 6 -11 13 0 6 -12 23 -25 36 -14 13 -25 29 -25 36 0 7 -7 15 -15 19
-19 7 -20 -8 -1 -23 22 -18 74 -142 96 -224 10 -43 22 -118 26 -168 l7 -91
-44 6 c-24 3 -98 8 -164 11 -66 3 -155 8 -197 11 l-77 7 -5 41 c-3 22 -8 66
-11 96 -5 50 -4 53 9 31 13 -23 24 -19 20 7 -1 6 -2 17 -3 22 0 6 -10 10 -21
10 -15 0 -20 7 -20 24 0 37 -49 185 -77 233 -43 73 -44 58 -3 -29 41 -87 58
-158 39 -158 -8 0 -10 -15 -5 -47 4 -27 9 -72 13 -102 3 -33 13 -61 24 -72 11
-11 19 -28 19 -39 0 -18 -6 -20 -72 -19 -56 0 -67 3 -50 10 13 5 20 13 17 19
-3 5 3 10 14 10 23 0 25 16 12 106 -6 41 -4 51 6 47 9 -4 11 0 7 11 -3 9 -10
16 -14 16 -5 0 -13 24 -19 53 -14 64 -41 149 -51 160 -4 5 -1 -15 6 -44 8 -30
14 -64 14 -77 0 -13 5 -32 10 -43 7 -13 7 -19 0 -19 -5 0 -10 -6 -10 -14 0 -8
-6 -16 -12 -19 -9 -3 -10 -8 -3 -18 17 -23 3 -95 -16 -84 -5 4 -9 -3 -9 -13 0
-13 -6 -19 -18 -18 -16 1 -17 -25 -19 -392 l-3 -392 183 5 c100 2 326 7 502
10 176 3 322 6 325 6 38 5 101 7 363 14 l307 7 1 -64 c0 -34 2 -77 4 -94 l5
-31 -133 -7 c-72 -4 -157 -9 -187 -11 -30 -3 -176 -9 -325 -15 -291 -11 -768
-31 -825 -35 -19 -1 -77 -3 -129 -4 -52 0 -91 -4 -88 -8 6 -6 224 -5 317 2
133 10 254 15 420 20 102 3 226 8 275 10 50 3 178 10 285 15 107 5 241 13 298
16 101 7 111 4 93 -25 -7 -11 -25 -13 -75 -9 -36 3 -66 2 -68 -2 -2 -5 -61
-11 -133 -14 -71 -3 -234 -11 -362 -17 -127 -6 -254 -9 -282 -8 -28 2 -51 1
-51 -2 0 -6 -162 -15 -465 -24 -193 -7 -269 -14 -242 -24 10 -4 57 -3 105 0
48 4 180 9 294 11 115 1 208 6 208 9 0 3 69 9 153 12 83 4 285 13 447 22 162
9 315 15 340 14 25 0 64 2 87 6 23 4 50 5 59 1 34 -13 -20 -35 -102 -41 -44
-3 -113 -8 -154 -12 -71 -5 -169 -10 -307 -14 -38 -1 -63 -6 -63 -12 0 -7 -4
-7 -12 1 -20 20 -95 12 -82 -9 3 -5 -4 -9 -15 -9 -12 0 -21 3 -21 8 0 4 -23 8
-52 10 -37 1 -49 -1 -41 -9 5 -5 24 -11 42 -11 18 -1 31 -6 31 -14 0 -7 6 -15
13 -17 7 -3 5 -6 -5 -6 -11 -1 -18 6 -18 17 0 14 -2 15 -10 2 -5 -8 -10 -10
-10 -5 0 10 -41 11 -143 0 -39 -4 -56 -2 -52 5 3 5 -1 10 -9 10 -26 0 -28 -19
-1 -26 14 -3 25 -10 25 -15 0 -5 35 -7 78 -4 42 3 105 7 139 9 35 2 72 11 84
20 l23 16 -22 0 c-12 0 -22 5 -22 10 0 15 36 12 49 -3 6 -8 7 -17 3 -21 -4 -4
-2 -7 3 -6 6 1 15 1 20 0 17 -3 196 1 265 7 65 5 207 11 352 15 49 2 74 6 71
13 -3 5 0 5 7 -2 7 -6 13 -28 14 -47 0 -20 5 -36 10 -36 5 0 0 -8 -12 -18 -14
-12 -18 -23 -12 -32 5 -8 4 -22 -2 -33 -7 -14 -7 -17 1 -13 6 4 11 1 11 -8 0
-8 -4 -18 -10 -21 -19 -12 -10 -45 15 -55 15 -6 25 -17 25 -29 0 -25 20 -38
31 -20 7 11 9 9 10 -6 0 -11 2 -30 5 -42 2 -13 -1 -23 -7 -23 -8 0 -8 -5 1
-15 9 -11 9 -15 1 -15 -8 0 -9 -5 -2 -18 7 -14 5 -22 -9 -34 -16 -14 -18 -30
-17 -106 1 -50 -1 -88 -5 -86 -3 2 -4 -5 -1 -16 3 -11 9 -18 13 -15 10 6 20
-19 12 -31 -4 -5 -21 -9 -38 -10 -29 0 -31 2 -24 22 5 13 4 26 -3 33 -8 8 -7
11 3 11 10 0 8 4 -5 13 -15 12 -16 19 -7 45 10 30 8 35 -22 65 -18 17 -36 41
-40 52 -7 26 -46 51 -55 36 -7 -11 -29 -10 -48 2 -8 5 -13 3 -13 -4 0 -8 -4
-8 -15 1 -9 7 -15 8 -15 2 0 -6 -11 -9 -25 -8 -13 2 -22 -1 -19 -5 3 -5 0 -9
-6 -9 -6 0 -8 -5 -5 -11 4 -6 0 -9 -11 -7 -12 2 -20 -4 -22 -17 -4 -17 -2 -18
12 -6 14 12 16 12 10 -4 -5 -12 -4 -16 3 -12 7 5 9 0 6 -12 -3 -13 -11 -17
-24 -14 -14 4 -19 0 -19 -16 0 -17 -5 -21 -25 -17 -18 3 -26 -1 -31 -17 -6
-19 -7 -20 -19 -3 -10 12 -15 14 -20 5 -6 -8 -10 -7 -17 5 -5 9 -13 14 -18 11
-5 -3 -19 4 -31 16 -13 13 -17 24 -11 28 7 4 8 12 1 21 -8 13 -11 13 -23 -2
-13 -17 -32 -26 -23 -10 3 4 -5 7 -18 7 -26 0 -23 -22 7 -43 23 -17 15 -31
-15 -26 -18 4 -19 3 -4 -4 20 -9 20 -20 1 -40 -10 -10 -10 -17 1 -38 18 -36
13 -57 -18 -65 -19 -5 -29 -3 -35 8 -8 13 -11 13 -25 -2 -10 -9 -17 -21 -17
-26 0 -6 7 -3 16 5 15 15 34 14 34 -3 0 -4 -7 -16 -15 -27 -13 -18 -14 -18 -8
6 6 24 6 24 -11 7 -25 -25 -37 -21 -26 7 6 18 5 28 -5 36 -8 7 -12 16 -9 21 3
5 -1 6 -9 3 -8 -3 -18 0 -23 7 -4 7 -3 10 4 5 6 -3 13 -2 17 4 4 6 11 7 17 4
7 -5 8 -2 4 5 -5 7 -14 10 -22 7 -8 -3 -11 0 -8 9 3 7 15 15 26 18 11 3 17 10
13 17 -5 8 -11 8 -19 1 -7 -6 -17 -7 -21 -3 -5 4 -5 1 -1 -6 5 -9 -2 -11 -31
-7 -21 2 -33 1 -26 -3 13 -8 6 -62 -8 -62 -5 0 -9 -4 -9 -10 0 -5 7 -7 15 -4
8 4 15 16 15 29 0 13 6 25 14 28 10 4 13 -5 12 -34 0 -22 -2 -35 -4 -29 -2 5
-8 8 -12 5 -14 -9 0 -34 16 -28 8 3 14 0 14 -6 0 -6 -4 -11 -10 -11 -5 0 -9
-3 -7 -7 1 -5 -3 -8 -8 -8 -5 0 -9 3 -7 8 1 4 -10 4 -25 0 -16 -4 -45 -7 -65
-7 -21 0 -38 -3 -38 -7 0 -12 -49 -16 -62 -5 -7 6 -2 -1 12 -17 l24 -27 -35 7
c-31 6 -33 5 -20 -10 11 -14 11 -18 -3 -23 -9 -3 -27 -4 -41 -2 -15 3 -22 1
-18 -5 4 -6 -2 -8 -15 -5 -13 4 -22 1 -22 -5 0 -7 -5 -5 -10 3 -8 12 -10 12
-10 1 0 -10 -3 -11 -13 -2 -8 6 -16 9 -19 6 -3 -3 -11 3 -19 12 -7 11 -8 14
-1 7 7 -6 25 -9 41 -6 23 3 28 9 27 28 0 13 -7 24 -13 24 -7 0 -13 6 -13 13 0
8 -3 9 -8 1 -4 -6 -14 -14 -22 -18 -8 -3 -5 -4 7 -2 13 2 26 0 29 -5 6 -10 7
-10 -56 -13 -53 -3 -90 -14 -90 -27 0 -5 6 -8 12 -6 7 1 13 -5 13 -13 0 -11
-12 -15 -45 -15 -32 0 -44 -4 -42 -13 2 -10 -2 -10 -19 2 -12 8 -28 12 -35 9
-8 -3 -14 1 -14 8 0 7 -3 9 -7 6 -3 -4 -13 -1 -21 6 -13 9 -14 9 -8 0 5 -9 1
-13 -11 -14 -16 0 -16 -1 1 -8 18 -7 18 -8 -5 -14 -13 -4 -58 -10 -100 -13
-72 -6 -76 -5 -82 15 -3 11 -1 19 4 15 5 -3 9 4 9 15 0 12 -4 21 -10 21 -5 0
-10 14 -10 30 0 22 5 30 18 31 15 0 15 1 1 7 -12 5 -16 17 -13 42 10 92 4 134
-21 144 -10 3 -17 -3 -21 -19 -3 -14 -12 -25 -19 -25 -7 0 -15 -9 -18 -20 -4
-15 0 -20 16 -21 17 -1 18 -2 5 -6 -10 -2 -18 -9 -18 -15 0 -5 6 -8 14 -5 8 3
17 -1 20 -10 4 -9 -1 -17 -14 -20 -11 -3 -21 -10 -21 -17 -1 -6 -3 -22 -5 -36
-3 -21 -6 -53 -13 -131 -1 -12 -15 -18 -51 -23 -40 -5 -50 -10 -50 -26 0 -14
9 -20 37 -23 l38 -4 -37 -1 -38 -2 0 -60 0 -60 38 4 c139 15 166 19 147 27
-16 6 -14 8 12 8 17 1 44 6 60 11 27 10 27 9 8 -6 -20 -16 -19 -16 6 -10 14 3
44 8 65 12 21 3 43 12 47 20 6 10 12 11 26 3 13 -9 25 -8 49 5 18 9 32 12 32
6 0 -5 9 -10 20 -10 11 0 20 4 20 9 0 15 32 22 47 10 7 -7 16 -9 20 -5 3 3 1
6 -5 6 -24 0 -11 19 15 24 88 16 121 16 136 2 8 -8 16 -13 19 -11 2 2 80 13
173 25 94 11 211 27 260 36 122 20 296 43 374 49 35 2 71 7 81 10 12 4 22 -1
29 -12 10 -17 10 -16 11 3 0 25 44 39 60 19 7 -9 46 -11 146 -7 134 5 214 -7
214 -31 0 -5 9 -7 19 -4 11 2 38 1 60 -3 23 -4 41 -3 41 2 0 4 10 7 23 4 85
-15 106 -16 110 -9 6 9 209 -8 322 -26 33 -6 89 -13 125 -16 36 -4 72 -9 80
-12 18 -7 30 -9 96 -18 l52 -8 4 54 c3 30 6 133 6 229 1 96 5 200 8 230 19
204 23 221 55 268 17 23 26 42 20 42 -5 0 -11 -5 -13 -10 -2 -6 -34 -17 -71
-25 -37 -8 -81 -24 -98 -36 -17 -12 -34 -18 -38 -13 -3 5 -19 9 -36 9 -16 0
-38 3 -47 7 -16 8 -276 28 -405 31 -28 1 -49 5 -47 9 6 9 -23 16 -66 17 -19 0
-55 4 -80 9 -48 9 -378 7 -387 -2 -3 -3 -12 1 -20 9 -12 12 -11 17 7 35 19 19
41 26 52 15 3 -3 84 -6 179 -7 96 0 208 -4 249 -9 90 -9 351 -27 589 -39 142
-7 180 -6 208 5 18 8 33 21 33 29 0 10 10 16 28 17 20 1 22 3 7 6 -11 2 -27 7
-35 10 -24 10 -28 10 -256 27 -120 9 -272 21 -337 26 -79 7 -124 7 -137 0 -10
-5 -22 -10 -25 -10 -13 0 5 344 18 352 9 6 9 8 0 8 -7 0 -13 12 -13 26 0 26
-1 26 -52 19 -97 -14 -90 -18 -115 67 -24 86 -49 247 -58 386 -5 87 -5 93 12
89 10 -3 119 -9 242 -12 123 -4 231 -9 240 -10 9 -2 26 -4 39 -4 18 -1 22 -6
21 -28 -4 -74 1 -112 15 -107 10 4 15 -12 19 -63 7 -82 38 -205 52 -210 6 -1
16 1 24 6 12 8 12 12 2 25 -11 13 -11 16 3 16 10 0 16 -9 16 -25 0 -18 5 -25
20 -25 11 0 20 -4 20 -10 0 -5 -4 -10 -8 -10 -5 0 -7 -14 -4 -30 2 -17 8 -30
12 -30 4 0 5 -11 2 -25 -2 -14 0 -25 4 -25 5 0 7 -23 5 -51 -2 -33 3 -64 14
-89 19 -41 25 -110 14 -152 -7 -27 -7 -28 37 -28 25 0 43 -4 40 -9 -3 -5 4
-11 17 -15 33 -9 56 -5 27 4 -21 7 -18 8 20 9 90 2 525 -22 534 -30 5 -4 15
-1 23 7 9 9 39 15 86 16 l72 2 -70 5 c-60 5 -66 7 -40 14 26 7 27 10 12 18 -9
6 -54 13 -100 16 -62 4 -84 9 -84 20 0 10 9 12 36 6 43 -8 50 -8 121 0 75 8
89 14 83 38 -4 15 0 19 23 19 16 0 47 9 69 19 22 10 47 16 55 13 8 -3 12 -1 8
3 -8 8 5 23 45 48 15 10 27 26 27 36 0 10 6 19 13 18 34 -1 58 4 53 11 -2 4
-1 14 5 22 7 12 9 10 9 -7 0 -16 4 -21 15 -17 10 4 15 0 15 -11 0 -15 2 -16
17 -4 15 13 15 12 2 -8 -8 -13 -18 -23 -24 -23 -5 0 -3 -4 5 -10 18 -11 36 -1
61 36 l20 29 -5 -50 c-4 -58 -21 -105 -36 -105 -6 0 -8 -5 -5 -10 4 -6 10 -8
15 -5 4 3 10 -2 14 -10 3 -8 14 -15 25 -15 11 0 25 -8 30 -18 5 -10 20 -18 33
-19 13 -1 32 -12 43 -25 22 -25 24 -25 160 -7 l80 10 -3 80 -4 79 57 0 c31 0
65 5 76 10 10 6 55 13 99 17 44 3 80 10 80 14 0 5 7 9 15 9 8 0 15 -4 15 -8 0
-16 93 -4 106 13 8 10 32 19 58 22 38 5 46 3 46 -11 0 -20 36 -22 47 -3 6 11
29 13 105 7 53 -3 113 -4 132 -2 30 4 36 8 36 29 0 21 4 24 28 21 20 -2 27 -8
26 -25 0 -21 2 -22 85 -17 47 3 93 8 101 11 8 3 41 5 73 3 55 -1 57 0 57 24 0
24 1 25 52 19 29 -4 59 -12 66 -20 7 -7 23 -13 35 -12 12 0 16 3 10 6 -7 2
-13 13 -13 24 0 14 7 19 25 19 18 0 25 -5 25 -20 0 -17 7 -20 41 -20 40 0 40
0 34 30 -5 23 -3 30 8 30 17 0 30 -62 21 -98 -6 -20 -3 -22 29 -22 40 0 49 17
38 72 -5 25 -13 34 -31 36 -23 4 -23 5 9 18 57 24 61 20 61 -46 0 -54 2 -60
23 -65 12 -2 104 -6 204 -7 172 -3 181 -2 166 15 -30 33 21 20 78 -20 l54 -38
300 0 c165 -1 310 2 322 7 14 4 23 3 27 -5 2 -7 3 8 1 33 -2 25 -4 51 -4 58
-1 9 -34 13 -123 14 -100 2 -107 3 -40 5 78 4 108 17 60 26 l-23 4 23 2 c15 1
22 7 22 21 0 13 7 20 20 20 11 0 20 -7 20 -15 0 -8 12 -17 28 -21 15 -3 33 -7
40 -10 18 -5 5 38 -39 126 -79 158 -139 287 -139 298 0 8 -31 13 -97 14 l-98
2 100 6 c55 3 82 7 60 8 -22 2 -72 5 -111 8 -48 4 -74 3 -78 -5 -4 -6 -2 -11
3 -11 6 0 11 -16 11 -35 0 -40 -12 -45 -29 -12 -6 12 -9 14 -7 5 4 -13 -2 -20
-19 -24 -39 -10 -55 1 -52 36 2 25 6 30 27 31 16 0 19 3 10 6 -8 3 -26 19 -39
34 -13 16 -33 30 -45 30 -16 1 -17 2 -4 6 15 4 17 17 13 116 -15 438 -16 588
-4 603 9 11 9 18 -3 32 -22 25 -29 66 -22 122 7 50 27 68 38 33 2 -10 4 2 4
27 0 86 2 110 10 110 5 0 7 -13 6 -30 -2 -26 1 -30 24 -31 l27 -1 -27 -7 c-21
-4 -25 -10 -19 -20 12 -19 41 -23 41 -7 0 17 40 34 92 41 63 7 341 33 358 32
8 0 40 3 70 7 30 3 93 8 140 11 103 6 174 13 243 25 29 5 85 15 125 21 70 11
90 23 55 32 -17 4 -17 5 0 6 12 1 17 10 17 31 0 28 -2 30 -41 30 -25 0 -38 -4
-34 -10 4 -6 11 -7 17 -4 7 4 8 2 4 -5 -4 -6 -12 -9 -17 -6 -5 4 -12 -1 -15
-9 -3 -9 -13 -16 -21 -16 -8 0 -11 5 -8 10 6 10 -8 13 -50 13 -19 -1 -19 0 0
13 22 16 49 19 40 4 -4 -6 5 -10 19 -10 16 0 25 5 24 13 -2 8 12 13 40 15 23
2 42 7 42 13 0 12 -1 12 -180 -10 -85 -11 -186 -23 -225 -27 -99 -10 -99 -10
-103 -22 -2 -6 10 -10 31 -9 19 1 33 5 31 8 -2 3 27 9 64 13 37 3 96 9 132 12
61 6 64 5 45 -10 -11 -8 -24 -15 -30 -16 -5 0 -3 5 5 10 13 8 12 10 -3 10 -10
0 -25 -7 -34 -15 -11 -12 -18 -13 -29 -4 -7 6 -19 9 -26 6 -8 -4 -7 -6 5 -6
25 -1 21 -16 -6 -18 -12 -2 -33 -4 -47 -5 -16 -2 -24 2 -22 10 1 6 -5 12 -13
12 -8 0 -15 -7 -15 -15 0 -17 -25 -20 -35 -5 -4 6 -11 8 -16 4 -5 -3 -7 -9 -5
-13 3 -4 -23 -8 -57 -8 -41 0 -55 2 -42 8 19 7 19 8 -2 8 -13 1 -23 -4 -23
-10 0 -6 -9 -8 -20 -4 -13 4 -20 2 -20 -7 0 -10 -3 -9 -10 2 -8 13 -10 13 -10
-2 0 -11 -6 -16 -17 -14 -10 2 -29 -1 -43 -7 -37 -15 -51 -18 -92 -18 -21 0
-38 -3 -38 -7 0 -4 -12 -8 -27 -9 -16 -2 -49 -5 -75 -7 -25 -2 -51 -6 -56 -10
-22 -14 -110 -5 -116 11 -3 7 -1 13 5 13 6 0 16 6 24 13 15 15 172 31 202 20
10 -3 15 -2 10 3 -9 10 290 45 335 39 21 -3 28 1 28 14 0 16 -6 17 -52 9 -123
-20 -476 -57 -498 -51 -16 4 -21 3 -16 -5 5 -9 -6 -12 -38 -12 l-46 0 0 98 c0
53 -7 286 -15 517 -22 635 -22 640 -7 637 17 -3 15 17 -3 24 -8 4 -15 12 -15
20 0 8 6 11 18 7 16 -6 16 -5 0 14 -10 11 -18 25 -18 31 0 6 8 9 18 6 16 -5
16 -5 0 9 -10 8 -18 22 -18 31 0 14 4 15 21 5 15 -8 19 -8 15 0 -4 6 -3 11 3
11 5 0 13 -4 16 -10 8 -13 45 -13 45 0 0 5 -8 7 -17 4 -10 -4 -4 3 12 15 17
11 38 21 49 21 10 0 35 4 55 10 171 46 354 82 435 86 39 1 72 8 76 14 5 8 9 9
11 2 2 -6 26 0 59 16 50 23 109 31 170 22 8 -1 24 1 34 6 15 5 17 4 11 -6 -5
-9 -4 -11 4 -6 16 10 67 -35 63 -56 -2 -10 2 -18 10 -19 7 0 4 -4 -7 -9 l-20
-9 20 0 c20 -1 55 -50 55 -77 0 -9 4 -13 9 -10 5 3 15 -2 22 -12 13 -15 12
-16 -3 -4 -10 8 -19 9 -22 3 -3 -5 8 -12 25 -16 19 -4 33 -15 36 -26 15 -57
22 20 23 261 l1 270 -298 0 c-180 0 -309 -4 -327 -10 -44 -15 -400 -107 -530
-137 -90 -21 -110 -23 -117 -12 -7 11 -9 11 -9 -2 0 -9 -10 -20 -22 -23 -53
-15 -671 -170 -763 -191 -55 -13 -156 -38 -225 -55 -69 -18 -134 -34 -145 -36
-11 -2 -45 -10 -75 -19 -30 -8 -221 -58 -425 -111 -215 -56 -380 -104 -396
-115 -16 -11 -50 -21 -81 -24 -29 -2 -73 -8 -98 -13 -46 -10 -611 -159 -803
-213 -60 -17 -115 -28 -123 -25 -8 3 -14 2 -14 -3 0 -8 -171 -58 -415 -121
-110 -29 -164 -45 -385 -110 l-75 -23 35 -12 c29 -11 39 -10 58 2 29 18 35 13
24 -18 -11 -27 1 -69 19 -69 7 0 9 -9 5 -25 -8 -33 8 -39 72 -27 l50 9 6 -30
c3 -16 6 -59 6 -94 0 -55 2 -64 16 -59 9 3 24 6 35 6 15 0 19 7 19 34 0 27 5
35 24 40 23 6 24 8 13 43 -9 28 -9 37 1 41 7 2 12 16 12 30 0 17 3 22 8 14 6
-9 13 -7 30 8 11 11 26 20 31 20 5 0 22 5 36 10 22 8 25 13 15 25 -6 8 -8 19
-4 26 4 7 7 26 8 43 1 21 5 30 15 28 8 -2 36 -3 62 -4 37 0 48 -4 52 -18 3
-11 0 -21 -7 -24 -18 -8 16 -26 49 -26 17 0 47 4 67 9 38 9 38 9 125 -81 95
-97 93 -92 78 -199 -7 -55 -7 -56 19 -61 26 -5 32 7 27 50 -1 6 3 20 8 30 8
12 10 13 11 3 0 -11 4 -9 15 5 14 18 15 17 9 -16 -8 -48 -8 -89 -1 -96 15 -15
22 10 19 69 -3 51 -7 67 -20 70 -15 3 -15 5 1 12 11 4 30 19 43 31 12 13 34
24 47 24 43 0 51 -23 50 -138 -1 -99 4 -121 27 -122 11 0 16 93 7 140 -3 19
-2 42 3 50 5 8 4 22 -2 33 -7 14 -7 17 1 13 16 -11 13 2 -11 46 -13 22 -35 47
-51 54 l-28 15 22 37 c74 121 99 151 137 160 227 55 392 92 400 90 4 -1 16 3
26 7 13 6 23 3 31 -8 10 -14 13 -15 27 -1 13 13 16 6 26 -68 7 -46 12 -194 12
-330 0 -137 4 -248 9 -248 4 0 2 -26 -5 -57 -18 -75 -18 -73 11 -73 19 0 25 5
23 18 -2 9 3 16 10 15 6 -2 12 3 12 11 0 8 4 17 9 20 5 3 6 -15 3 -39 -3 -29
-1 -45 6 -45 6 0 11 21 10 50 0 28 -4 50 -10 50 -6 0 0 9 13 19 l24 19 5 -71
c4 -53 9 -73 20 -75 13 -2 14 11 12 83 -4 88 0 95 38 75 24 -13 40 -62 40
-127 0 -39 4 -55 15 -60 9 -3 19 -3 22 1 7 7 -13 132 -28 183 -14 44 -60 75
-110 75 l-40 -1 2 190 c1 104 6 192 11 195 4 3 8 -80 8 -184 0 -190 0 -190 22
-185 21 6 21 7 15 246 -4 168 -9 242 -17 247 -7 4 -13 21 -14 38 -1 17 -5 34
-9 38 -4 4 -2 13 4 20 7 9 5 14 -10 19 -12 3 -21 11 -21 16 0 12 7 11 32 -2
11 -6 18 -7 14 -1 -3 5 5 12 19 14 14 3 25 1 25 -3 0 -15 32 -10 51 7 22 20
250 75 264 64 13 -10 65 -1 65 11 0 5 9 9 21 9 11 0 30 5 42 12 12 6 36 15 55
19 27 6 38 3 57 -16 14 -12 25 -29 25 -38 0 -8 7 -18 16 -21 8 -3 12 -10 9
-16 -3 -5 0 -7 9 -4 11 4 13 0 9 -15 -3 -13 -1 -21 6 -21 7 0 10 -4 7 -9 -9
-14 20 -21 34 -8 9 8 11 9 7 1 -7 -13 16 -38 25 -28 4 3 9 -8 13 -25 7 -31 19
-39 29 -22 3 5 -1 11 -9 15 -8 3 -15 11 -14 18 0 10 2 10 6 1 7 -19 23 -16 23
5 0 14 2 15 10 2 5 -8 10 -12 10 -7 0 19 40 -36 40 -56 0 -13 3 -27 7 -31 18
-17 30 -187 34 -456 2 -130 5 -175 9 -135 5 47 7 34 7 -60 0 -66 -2 -109 -4
-94 l-4 25 -142 -17 c-163 -20 -256 -36 -215 -38 41 -2 24 -29 -20 -33 -21 -2
14 -3 76 -3 61 1 112 -2 112 -7 0 -4 -12 -8 -27 -9 -46 -1 -117 -10 -123 -16
-5 -5 153 5 200 13 22 4 23 3 5 -5 -11 -5 -33 -10 -48 -10 -31 -1 -33 -22 -4
-27 9 -1 14 2 11 8 -4 6 5 8 22 6 17 -2 28 -8 27 -15 -2 -7 6 -13 17 -13 11 0
20 5 20 11 0 5 4 7 10 4 6 -3 7 1 4 9 -5 12 0 16 20 16 14 0 26 -4 26 -10 0
-5 -5 -10 -12 -10 -6 0 -9 -3 -5 -6 3 -3 15 -3 26 1 16 5 21 15 21 40 0 41
-17 47 -80 29 -46 -14 -61 -11 -43 7 17 17 123 21 128 6 9 -29 12 -128 4 -133
-5 -3 -9 -2 -9 3 0 4 -18 8 -39 8 -22 1 -37 -3 -35 -7 3 -4 10 -8 15 -8 5 0
38 -18 73 -40 35 -22 67 -40 71 -40 4 0 13 -7 20 -17 19 -26 38 -6 31 35 -3
24 -2 32 5 25 5 -5 11 -20 12 -32 2 -25 -3 -25 82 -2 39 10 103 25 143 32 40
7 68 15 63 19 -6 3 49 7 122 8 73 1 140 5 149 8 22 7 24 34 2 34 -9 0 -12 5
-8 12 5 8 2 9 -10 5 -10 -4 -22 -7 -27 -7 -6 0 -8 -4 -5 -8 3 -5 -8 -9 -25
-10 -16 0 -27 3 -24 8 3 5 1 11 -4 14 -5 3 -12 -2 -15 -11 -6 -14 -9 -15 -16
-3 -7 11 -11 12 -24 0 -9 -7 -19 -10 -23 -7 -3 3 -21 0 -40 -8 -19 -8 -38 -13
-42 -10 -14 8 -61 14 -57 6 3 -4 -27 -8 -67 -9 -40 -1 -105 -3 -145 -5 -40 -2
-75 -1 -77 3 -3 4 35 13 83 19 134 19 310 40 380 48 34 3 62 10 62 15 0 5 -16
6 -35 2 -19 -3 -66 -7 -105 -8 -38 0 -70 -4 -70 -7 0 -4 -36 -10 -80 -13 -44
-4 -91 -9 -103 -11 -12 -2 -47 -6 -78 -8 -31 -3 -61 -7 -67 -11 -6 -3 -13 -3
-15 1 -3 5 -8 206 -12 448 -4 242 -9 448 -11 457 -1 10 2 21 8 24 7 5 8 2 3
-6 -6 -10 -4 -12 8 -7 11 4 17 -1 20 -16 2 -12 5 3 6 34 1 55 2 58 131 231
l130 176 72 18 c40 9 96 17 125 16 34 -1 57 4 67 13 8 8 21 15 29 15 7 0 17 3
21 7 3 4 17 8 29 10 12 2 53 10 90 18 37 9 72 13 77 10 5 -3 12 -1 15 5 5 8
12 7 23 -2 12 -10 14 -10 8 0 -4 7 -1 12 8 12 10 0 16 -9 16 -21 0 -11 6 -26
13 -34 11 -11 16 -10 26 7 9 15 20 19 41 16 16 -2 27 -1 24 4 -3 4 10 5 28 2
57 -10 59 -12 52 -40 -5 -21 -4 -25 6 -19 10 6 12 3 8 -13 -4 -16 -2 -19 10
-15 10 4 13 2 8 -5 -4 -7 -1 -12 8 -12 12 0 16 -16 19 -77 3 -59 3 -53 3 24
-2 204 11 81 23 -217 24 -623 31 -806 30 -860 0 -55 0 -55 -14 -25 l-14 30 5
-30 5 -30 -78 -18 c-43 -10 -152 -27 -242 -37 -90 -10 -166 -22 -170 -26 -8
-8 137 4 259 22 128 19 147 18 153 -5 3 -15 -2 -20 -24 -25 -16 -3 -31 -5 -33
-3 -1 1 -9 -3 -17 -10 -8 -6 -44 -10 -87 -10 -39 1 -72 -2 -72 -7 0 -4 -8 -6
-17 -4 -10 3 -31 -1 -48 -8 -29 -13 -30 -13 -5 -15 16 -1 19 -3 8 -6 -31 -8
-7 -32 39 -39 33 -5 47 -3 54 7 5 8 9 9 9 3 0 -6 13 -9 30 -6 17 2 30 9 30 14
0 5 10 7 23 4 12 -3 16 -3 9 0 -21 10 -4 22 27 18 17 -2 33 1 36 6 8 12 85 13
104 1 7 -5 11 -13 7 -19 -3 -6 -1 -12 5 -14 6 -2 12 -35 14 -73 2 -39 8 -92
14 -120 14 -63 27 -625 15 -625 -13 0 -41 20 -29 21 6 0 1 4 -10 9 -17 7 -17
9 -2 9 18 1 24 35 7 46 -6 4 -7 11 -4 17 4 7 2 8 -4 4 -12 -7 -35 28 -24 38 3
4 -1 4 -11 0 -11 -4 -17 -1 -17 8 0 19 -32 48 -52 48 -23 0 -45 29 -30 39 24
15 1 41 -35 41 -34 0 -35 1 -30 30 7 31 -19 90 -39 90 -11 0 -13 7 -16 60 -1
18 -4 26 -9 19 -4 -7 -12 2 -20 24 -7 20 -17 33 -23 30 -5 -4 -7 1 -3 11 4 10
3 15 -3 11 -6 -4 -10 5 -10 20 0 15 4 24 10 20 6 -3 10 -4 10 -1 0 3 -13 12
-30 21 -16 9 -30 21 -30 29 0 17 -35 48 -44 39 -4 -4 -5 -1 -1 7 6 16 -41 73
-54 65 -8 -4 -90 -15 -141 -19 -14 0 -29 -4 -35 -8 -5 -3 -28 -9 -50 -12 -22
-4 -44 -11 -50 -17 -5 -5 -15 -38 -21 -72 l-12 -62 -1 93 c-1 70 -4 92 -14 92
-10 0 -14 -14 -15 -46 0 -25 -2 -47 -5 -50 -2 -2 -22 2 -43 10 -67 23 -131 3
-102 -31 7 -9 7 -13 0 -13 -6 0 -15 6 -19 13 -4 7 -21 18 -38 25 l-30 12 25
-18 c48 -34 89 -73 143 -140 146 -178 227 -383 243 -612 6 -89 8 -97 25 -93
15 4 18 1 13 -11 -4 -10 -13 -15 -20 -12 -8 3 -14 1 -14 -4 0 -29 -24 -174
-37 -225 -8 -33 -17 -68 -18 -78 -2 -9 -7 -22 -11 -29 -5 -8 6 -9 40 -6 25 3
46 3 46 -1 0 -11 -53 -27 -89 -26 -33 0 -35 2 -50 57 -9 31 -19 60 -23 64 -5
4 -8 19 -8 33 0 14 -9 53 -19 86 -15 45 -19 53 -20 32 -1 -16 -8 -52 -16 -80
-8 -29 -17 -65 -19 -80 -10 -59 -39 -129 -55 -133 -9 -3 -23 -9 -32 -14 -8 -4
-27 -6 -41 -3 -23 4 -27 14 -62 165 -21 87 -39 158 -41 156 -2 -2 -5 -16 -8
-33 -12 -66 -20 -96 -28 -101 -5 -3 -9 -16 -9 -30 0 -14 -4 -23 -9 -20 -5 4
-8 -2 -6 -11 1 -10 -4 -33 -11 -52 -20 -48 -18 -51 25 -51 30 0 40 -4 44 -19
5 -22 0 -31 -20 -31 -7 0 -13 9 -13 19 0 14 -9 20 -35 23 -25 3 -35 0 -35 -10
0 -7 -5 -10 -10 -7 -6 4 -8 11 -5 16 9 13 -2 11 -36 -7 -36 -18 -33 -37 7 -45
l29 -7 -28 -1 c-16 0 -43 5 -60 13 -18 7 -43 18 -57 23 -23 10 -28 24 -59 164
-40 180 -46 195 -55 145 -4 -20 -11 -36 -17 -36 -6 0 -8 -4 -5 -9 3 -5 0 -21
-8 -36 -8 -15 -13 -36 -11 -46 2 -11 0 -17 -4 -15 -4 3 -18 -21 -31 -52 -13
-31 -32 -68 -44 -81 -17 -19 -17 -23 -4 -18 14 5 15 1 8 -24 -5 -16 -5 -27 0
-24 4 2 12 -1 18 -8 8 -9 -15 -12 -109 -12 -65 0 -119 0 -119 1 0 5 -74 329
-81 358 -10 38 -21 42 -24 8 -1 -19 -24 -91 -33 -107 -4 -5 -5 -22 -3 -37 1
-16 -2 -28 -8 -28 -6 0 -11 -6 -11 -14 0 -7 -8 -20 -19 -27 -21 -16 -40 -76
-20 -63 9 5 10 2 6 -10 -4 -10 -7 -22 -7 -27 0 -6 -4 -7 -10 -4 -5 3 -10 -1
-10 -9 0 -8 4 -17 9 -20 5 -3 11 -17 13 -31 l5 -26 -73 7 c-65 6 -74 5 -74
-10 0 -13 -6 -15 -27 -10 -26 7 -27 6 -13 -11 14 -17 13 -18 -3 -12 -10 4 -30
7 -43 7 -21 0 -24 5 -24 38 0 48 -22 171 -54 299 -14 56 -26 112 -27 125 -1
19 -2 18 -9 -7 -4 -16 -11 -51 -15 -77 -3 -27 -10 -48 -15 -48 -5 0 -7 7 -4
15 4 8 2 15 -4 15 -6 0 -16 -16 -22 -36 -8 -24 -16 -32 -22 -26 -7 7 -6 44 1
111 14 127 14 340 1 451 -15 129 -72 377 -81 354 -5 -13 -8 -15 -9 -4 -1 8 -2
31 -4 50 -5 65 -147 355 -200 408 -11 12 -13 9 -8 -15 2 -15 2 -25 -2 -22 -3
3 -7 20 -9 37 -5 66 -263 307 -289 271 -8 -11 -9 -11 -5 2 4 11 -6 23 -31 37
-45 24 -193 74 -200 67 -3 -3 0 -5 6 -5 6 0 15 -14 20 -31 6 -27 16 -35 62
-52 30 -11 62 -25 70 -32 8 -7 37 -23 63 -36 80 -39 257 -202 257 -237 0 -4
16 -26 35 -48 63 -70 173 -302 180 -378 2 -22 9 -42 15 -46 15 -9 58 -224 72
-359 10 -103 10 -114 -5 -123 -22 -12 -23 -63 -2 -54 13 5 15 -5 14 -60 -1
-40 -5 -60 -10 -52 -7 11 -11 10 -19 -2 -8 -12 -10 -13 -10 -1 0 8 -2 12 -5
10 -8 -8 7 -49 16 -43 5 3 9 1 9 -5 0 -6 -8 -15 -18 -20 -13 -7 -22 -32 -31
-89 -15 -91 -24 -113 -42 -95 -9 9 -9 23 -1 55 6 24 13 82 16 128 l5 85 -9
-70 c-19 -144 -15 -135 -65 -135 l-44 0 -10 -57 c-6 -32 -15 -70 -20 -85 -11
-32 -3 -40 37 -38 42 3 54 1 47 -10 -3 -5 -12 -7 -20 -3 -8 3 -15 0 -15 -7 0
-10 -3 -10 -15 0 -17 14 -36 5 -29 -14 3 -8 -4 -20 -15 -28 -12 -8 -18 -18
-14 -21 3 -4 1 -7 -5 -7 -7 0 -12 5 -12 10 0 6 -4 10 -10 10 -5 0 -7 -7 -4
-15 4 -8 2 -15 -3 -15 -19 0 -21 12 -8 43 7 18 10 38 8 45 -3 6 3 12 12 12 13
0 16 -6 12 -21 -3 -13 -1 -19 6 -16 13 4 10 39 -3 47 -4 3 3 57 16 120 23 112
43 301 31 289 -4 -3 -13 -55 -22 -115 -8 -60 -16 -116 -18 -124 -2 -8 -7 -32
-12 -52 -4 -21 -11 -38 -17 -38 -5 0 -7 -4 -4 -9 4 -5 -3 -7 -14 -4 -11 3 -20
11 -20 18 0 7 -6 15 -14 18 -15 6 -16 23 -2 46 6 8 5 12 0 8 -22 -13 -45 22
-51 77 -4 42 -10 56 -22 57 -9 0 -11 3 -4 5 8 4 9 13 3 30 -7 17 -6 32 3 47 7
12 12 29 12 37 -1 8 -5 60 -10 115 -5 55 -7 110 -6 123 1 13 -6 40 -17 61 -11
21 -23 69 -26 107 -10 107 -12 118 -25 142 -7 13 -10 30 -7 38 3 8 -1 25 -9
38 -8 12 -13 24 -11 27 2 2 -2 10 -10 17 -8 7 -14 8 -14 2 0 -6 -7 -6 -19 2
-15 9 -19 20 -15 42 3 20 2 25 -3 14 -8 -17 -9 -17 -20 0 -6 11 -8 24 -3 33 5
8 5 19 -2 26 -5 7 -8 18 -6 25 3 7 -6 24 -19 38 -13 14 -23 29 -23 35 0 5 5 3
10 -5 6 -9 10 -10 10 -3 0 11 -27 43 -36 43 -3 0 -2 -6 2 -12 4 -7 -2 -4 -13
7 -11 11 -19 27 -19 35 1 8 -5 14 -13 12 -9 -2 -11 3 -7 13 8 22 -11 55 -30
55 -11 0 -14 6 -10 16 4 11 2 15 -7 11 -8 -3 -22 6 -33 21 -30 40 -44 52 -61
52 -13 0 -13 3 -3 15 12 15 4 20 -22 16 -5 0 -8 7 -8 17 0 21 -34 52 -58 52
-9 1 -30 12 -47 25 -28 23 -28 25 -8 25 12 0 25 5 29 11 4 7 22 9 47 6 27 -4
36 -2 26 4 -7 5 -31 9 -51 9 -20 0 -41 6 -45 13 -10 16 -43 30 -43 18 0 -5 -7
-12 -16 -15 -12 -4 -14 -1 -9 14 5 17 2 20 -25 20 -18 0 -29 -4 -25 -10 3 -5
2 -10 -4 -10 -5 0 -14 7 -19 17 -6 10 -16 14 -26 10 -9 -4 -16 -2 -16 3 0 5
-8 9 -18 9 -32 0 -57 6 -64 15 -4 6 -13 4 -22 -3 -15 -12 -20 -8 -17 12 0 4
-3 7 -9 7 -5 0 -10 -5 -10 -11 0 -6 -9 -9 -20 -6 -13 3 -25 -2 -34 -15 -13
-18 -19 -19 -45 -10 -17 6 -31 7 -31 3 0 -5 -30 -11 -67 -14 -75 -6 -185 -54
-236 -101 -16 -14 -33 -23 -39 -20 -7 4 -8 2 -4 -4 4 -7 3 -12 -2 -12 -10 0
-31 -20 -87 -81 -83 -89 -150 -187 -198 -288 -41 -86 -48 -107 -38 -122 6 -10
11 -27 10 -36 0 -13 -3 -11 -10 7 -6 13 -15 28 -22 32 -14 9 -37 -9 -37 -29 0
-10 -7 -14 -20 -10 -11 3 -18 1 -14 -4 3 -5 -2 -9 -12 -9 -12 0 -15 -6 -12
-25 4 -19 1 -25 -13 -25 -28 0 -23 -27 5 -32 13 -3 51 -4 83 -3 32 1 60 -1 63
-5 3 -4 79 -14 168 -24 180 -18 222 -32 222 -72 0 -21 -3 -23 -19 -14 -11 5
-25 10 -31 10 -13 0 37 -76 70 -105 l22 -20 -2 50 c-3 95 -2 105 20 105 14 0
20 -7 20 -21 0 -12 22 -67 49 -123 52 -108 78 -182 68 -193 -13 -13 -105 -21
-207 -18 -58 2 -146 4 -197 6 -133 3 -144 6 -136 37 3 15 15 34 26 42 20 16
19 17 -4 36 -13 10 -35 39 -48 63 -25 46 -186 211 -206 211 -6 0 -15 3 -21 8
-5 4 5 -8 23 -25 32 -33 90 -133 76 -133 -4 0 -2 -5 5 -12 7 -7 12 -18 12 -26
0 -23 -20 -2 -37 39 -8 21 -19 39 -23 39 -5 0 -11 8 -15 18 -11 35 -92 113
-131 127 -36 12 -59 35 -35 35 6 0 11 -4 11 -10 0 -5 7 -10 15 -10 12 0 15 15
15 76 0 61 3 75 14 71 17 -7 16 25 -1 36 -17 10 -17 117 -1 152 7 16 8 29 2
35 -5 5 -8 74 -6 154 l3 146 27 0 c20 0 23 3 14 12 -7 7 -12 27 -12 44 0 25 7
38 29 53 16 12 36 21 45 21 9 0 21 9 28 20 16 26 32 26 25 0 -5 -20 16 -29 27
-11 7 11 98 41 124 41 28 0 133 -143 143 -194 5 -23 8 -66 9 -96 l0 -55 34 40
c31 37 34 44 29 92 -5 47 -2 59 46 148 28 54 51 101 51 105 0 17 -29 4 -39
-17 -14 -30 -35 -31 -25 0 3 12 13 30 22 40 14 16 13 19 -6 40 -16 17 -19 26
-11 34 6 6 10 32 8 57 -2 25 0 47 5 49 5 2 10 11 12 20 2 12 -3 16 -14 13 -9
-3 -44 -12 -77 -21 -93 -26 -741 -213 -822 -238 -39 -11 -69 -25 -66 -31 3 -5
1 -6 -5 -2 -6 4 -31 2 -54 -5 -24 -7 -50 -13 -58 -13 -9 -1 -21 -5 -28 -10 -8
-5 -12 -1 -12 11 0 21 20 56 20 35 0 -7 5 -10 11 -7 6 4 8 13 5 21 -3 7 -1 16
3 19 5 3 7 14 4 26 -4 15 -11 19 -25 15 -20 -5 -20 -4 -2 13 23 23 30 19 37
-18 6 -29 8 -30 37 -19 17 5 34 8 37 4 4 -3 0 -6 -8 -6 -12 0 -12 -2 0 -9 8
-5 24 -6 36 -1 12 5 35 11 51 14 32 6 321 92 544 162 80 25 150 52 155 59 6 7
33 20 60 28 49 14 50 15 51 53 0 28 -6 44 -21 55 -23 19 -53 25 -75 16 -20 -8
-355 -116 -508 -163 -68 -20 -117 -41 -111 -45 7 -4 -27 -19 -77 -33 -49 -15
-102 -31 -119 -37 -18 -6 -26 -6 -20 0 6 5 53 23 105 40 52 17 82 29 66 26
-15 -3 -41 -9 -57 -12 -24 -5 -27 -3 -22 16 3 11 9 19 13 16 4 -2 12 6 18 19
8 19 21 25 61 31 28 4 51 11 51 17 0 10 -3 9 -93 -18 -31 -9 -60 -14 -64 -10
-3 3 0 25 8 48 8 24 13 46 11 51 -1 4 10 7 24 7 14 0 23 4 20 8 -3 5 3 18 14
29 17 19 18 21 2 25 -10 3 -23 -1 -30 -9 -7 -7 -22 -13 -33 -13 -21 0 -21 4
-17 132 2 87 8 133 15 135 7 3 10 10 8 16 -3 7 -7 25 -9 40 -4 23 0 30 22 38
18 7 28 7 30 0 2 -6 8 -11 14 -11 6 0 7 7 4 16 -3 9 -2 12 5 9 6 -4 16 0 22 8
12 15 215 107 236 107 6 0 14 7 17 15 4 8 10 13 15 10 4 -3 35 6 68 20 33 14
70 25 81 25 11 0 20 5 20 10 0 6 9 10 19 10 11 0 23 5 26 10 9 15 25 12 25 -6
0 -8 4 -13 10 -9 5 3 7 11 4 19 -3 7 6 18 20 24 23 10 28 7 65 -35 61 -69 109
-145 136 -217 23 -61 23 -66 7 -76 -16 -11 -16 -11 0 -6 20 6 24 -6 33 -96 7
-66 7 -67 -16 -61 -13 3 -21 3 -18 -1 4 -4 27 -9 52 -12 l46 -5 -3 143 c-1 79
0 221 3 317 l6 173 140 57 c147 60 193 80 315 139 41 19 83 35 93 34 9 0 17 6
17 14 0 12 -7 14 -28 9 -21 -4 -33 -1 -47 15 -16 18 -17 23 -5 30 25 16 48 11
69 -16 11 -14 21 -30 23 -36 2 -6 21 -2 48 13 25 13 48 22 53 21 4 -1 7 3 7 9
0 5 4 8 8 5 9 -5 86 20 225 73 l78 29 38 -51 c96 -129 157 -280 167 -412 4
-61 2 -85 -6 -85 -6 0 -8 5 -4 12 5 8 2 9 -9 5 -15 -6 -16 -4 -4 16 8 12 13
27 13 32 -2 16 -25 51 -26 38 0 -6 -9 -10 -20 -8 -26 5 -26 -12 0 -20 20 -6
28 -25 12 -25 -5 0 -9 -13 -9 -30 0 -16 5 -30 10 -30 5 0 7 -7 3 -15 -7 -19
10 -65 23 -65 6 0 8 8 4 18 -4 13 -2 13 9 -3 8 -11 17 -32 20 -47 4 -22 1 -28
-13 -28 -20 0 -49 47 -49 80 0 22 -7 25 -28 11 -14 -8 -13 -62 0 -61 12 0 58
-42 58 -53 0 -5 -14 -7 -30 -3 -36 7 -40 -10 -10 -44 11 -13 20 -30 20 -39 0
-20 53 -71 73 -71 7 0 19 -10 25 -22 10 -23 11 -23 11 4 1 23 7 29 39 37 69
19 567 142 623 155 35 7 72 25 98 45 24 19 48 31 57 27 8 -3 24 0 34 7 16 9
24 9 39 0 15 -10 51 -5 188 27 92 22 215 52 273 68 58 16 117 32 131 36 14 3
36 15 49 26 32 28 70 36 81 19 7 -11 9 -11 9 2 0 18 20 29 52 29 35 0 51 27
46 75 -5 36 -2 44 13 48 10 3 20 0 22 -7 3 -8 8 -8 17 1 9 8 9 16 1 30 -7 11
-11 13 -11 4 0 -9 -8 -12 -25 -9 -13 3 -22 1 -19 -3 3 -5 1 -9 -5 -9 -5 0 -16
12 -23 28 -8 16 -23 28 -37 30 -13 2 -26 12 -28 23 -7 25 -17 24 -37 -5 -12
-18 -12 -26 -3 -29 8 -4 7 -6 -3 -6 -43 -3 -597 -164 -606 -177 -7 -9 -13 -11
-16 -4 -2 6 -99 -16 -253 -59 -138 -38 -269 -74 -293 -80 -23 -7 -40 -16 -37
-21 3 -4 -3 -6 -14 -3 -15 4 -332 -73 -386 -93 -10 -4 -15 0 -15 11 0 11 5 15
15 11 9 -3 15 0 15 9 0 9 6 12 15 9 12 -5 15 2 15 29 0 23 6 37 16 41 26 10
32 7 37 -16 4 -19 4 -18 6 5 1 23 5 27 20 22 10 -3 23 0 29 8 8 10 5 13 -13
15 -13 1 -27 -3 -30 -8 -3 -6 -27 -9 -53 -9 -26 1 -40 3 -32 5 13 4 14 41 10
282 -3 152 -7 278 -8 280 -1 1 -10 2 -20 2 -14 0 -19 -8 -20 -32 0 -18 -1 -53
-3 -78 -1 -25 2 -71 6 -103 5 -39 4 -62 -4 -71 -8 -9 -8 -16 -2 -20 5 -4 9
-25 9 -48 0 -40 -2 -38 -33 47 -39 110 -54 140 -118 233 l-49 72 -84 0 c-46 0
-84 -3 -84 -7 0 -10 -61 -46 -81 -48 -9 -1 -25 11 -35 27 -16 23 -26 28 -60
28 -23 0 -59 -7 -80 -16 -35 -15 -39 -15 -50 1 -7 9 -20 15 -30 13 -17 -3 -17
-4 0 -20 23 -23 15 -33 -41 -52 -52 -18 -60 -15 -94 40 -12 20 -29 34 -41 34
-17 0 -15 -5 16 -42 20 -23 36 -45 36 -50 0 -5 -21 -18 -46 -31 l-46 -22 -19
24 c-10 13 -17 26 -15 30 3 4 -4 18 -15 31 -16 21 -18 22 -14 5 l6 -20 -11 20
c-17 31 -60 59 -72 47 -7 -7 -3 -12 11 -17 12 -3 19 -11 15 -16 -3 -5 -10 -7
-15 -4 -5 4 -9 -2 -9 -12 0 -15 -2 -16 -10 -3 -6 9 -10 10 -10 3 0 -16 17 -26
25 -13 4 6 11 7 17 4 7 -4 8 -2 4 4 -4 7 -2 12 3 12 6 0 11 -6 11 -13 0 -7 8
-22 19 -33 25 -28 42 -60 34 -68 -3 -3 -19 -6 -34 -6 -15 0 -29 -7 -33 -16 -5
-14 -7 -14 -22 1 -9 8 -13 22 -10 30 3 8 -1 18 -8 22 -7 5 -21 21 -31 37 -17
26 -18 29 -2 38 9 5 17 14 17 20 0 6 -3 8 -7 5 -3 -4 -13 -1 -21 6 -13 9 -14
9 -8 0 4 -7 3 -13 -3 -13 -5 0 -13 5 -16 10 -3 6 -19 10 -35 10 -16 0 -32 5
-35 10 -3 6 -11 10 -16 10 -6 0 2 -15 16 -34 l25 -33 -26 5 c-24 4 -26 3 -19
-19 4 -13 11 -31 16 -39 7 -13 8 -13 9 0 0 9 5 21 11 27 14 14 39 -6 39 -32 0
-8 8 -19 18 -22 9 -4 27 -18 39 -32 l23 -26 -23 -8 c-12 -5 -26 -10 -32 -11
-5 -1 -15 -5 -21 -8 -6 -4 -26 9 -45 29 -30 33 -31 34 -5 15 15 -12 33 -19 40
-15 7 5 5 9 -7 11 -9 2 -15 7 -12 12 2 4 -13 19 -35 34 -43 28 -55 32 -44 14
4 -7 3 -8 -4 -4 -17 10 -15 26 2 26 21 0 30 20 17 33 -9 9 -11 8 -5 -6 5 -15
3 -16 -19 -8 -14 5 -27 7 -30 5 -3 -3 -8 0 -13 7 -5 8 -3 10 6 4 9 -5 11 -4 6
3 -4 7 -13 12 -20 12 -7 0 -27 14 -44 30 -38 36 -90 43 -72 10 6 -11 28 -28
48 -38 28 -13 38 -24 40 -45 4 -36 -8 -34 -51 8 -21 20 -37 31 -37 25 0 -5 -6
-10 -14 -10 -15 0 -16 16 -2 38 7 12 4 12 -14 2 -27 -15 -35 -8 -20 19 l11 21
-186 0 c-102 -1 -185 -4 -185 -7 0 -4 7 -15 17 -25 15 -17 15 -18 -5 -18 -12
0 -26 8 -31 18 -6 9 -11 12 -11 5 0 -6 -8 -10 -17 -8 -10 1 -17 9 -17 17 1 8
-5 15 -12 15 -10 0 -9 -7 3 -31 l16 -31 -22 19 c-11 11 -21 25 -21 32 0 9 -10
13 -25 12 -27 -3 -33 -13 -12 -21 7 -4 6 -6 -4 -6 -9 -1 -22 6 -29 14 -7 8
-28 15 -47 15 l-35 0 56 -46 c51 -41 74 -67 44 -47 -7 4 -20 6 -28 5 -9 -1
-38 18 -65 43 -46 42 -95 60 -95 34 0 -6 8 -8 18 -5 12 4 31 -8 62 -39 24 -25
41 -45 37 -45 -4 0 -3 -9 3 -20 10 -18 9 -19 -26 -4 -20 9 -47 16 -60 17 -28
2 -114 72 -114 92 0 23 -61 18 -90 -6 -14 -11 -20 -18 -13 -15 6 3 22 2 35 -3
21 -9 21 -10 3 -11 -17 0 -17 -2 -5 -10 8 -5 10 -10 4 -10 -6 0 -14 3 -18 8
-4 4 -11 7 -15 7 -3 0 -19 12 -35 27 l-29 26 -619 2 c-502 0 -618 -2 -612 -12
5 -10 4 -11 -7 0 -7 6 -23 12 -36 12 -19 0 -23 -5 -23 -30z m210 -175 c0 6 6
-1 14 -15 9 -18 10 -29 2 -40 -9 -13 -9 -13 6 -2 10 8 14 20 10 30 -7 20 61
-32 136 -104 50 -47 52 -52 37 -68 -9 -9 -20 -16 -25 -16 -10 0 -97 71 -152
123 -35 33 -38 40 -27 54 12 14 11 15 -11 9 -17 -5 -21 -4 -11 2 9 7 10 12 2
16 -6 4 -8 12 -5 18 4 6 10 5 15 -3 5 -8 9 -9 9 -4z m1473 -91 c-3 -8 -2 -21
1 -30 5 -14 9 -14 23 -3 14 12 15 11 8 -11 -7 -21 -6 -23 7 -12 13 10 22 6 57
-27 22 -21 41 -44 41 -52 0 -7 3 -9 7 -5 4 3 13 -4 20 -16 7 -13 12 -17 13
-10 0 10 3 10 14 0 12 -11 11 -14 -3 -20 -15 -6 -15 -7 0 -7 17 -1 36 -31 20
-31 -5 0 -16 -2 -23 -5 -13 -5 -40 33 -42 58 -1 12 -29 26 -40 20 -5 -4 -7 3
-4 15 4 12 2 20 -2 17 -5 -3 -10 0 -13 7 -2 7 -3 5 -2 -4 2 -10 -3 -18 -10
-18 -8 0 -19 8 -24 18 -6 9 -11 13 -11 7 0 -5 -25 15 -55 45 l-55 54 27 17
c29 19 55 15 46 -7z m-1008 -3 c-5 -9 22 -23 62 -30 4 0 -2 -8 -13 -16 -18
-14 -18 -14 4 -10 12 2 22 0 22 -6 0 -5 6 -8 13 -6 6 1 11 -4 10 -10 -3 -15
13 -17 22 -3 3 5 -3 18 -14 29 -24 24 -11 37 18 19 16 -10 18 -15 8 -28 -6 -8
-2 -6 11 4 l22 19 0 -39 c-1 -35 -2 -37 -14 -21 -16 21 -26 22 -26 3 0 -8 9
-18 20 -21 15 -5 20 -15 20 -40 0 -19 -4 -36 -9 -39 -5 -3 -28 9 -52 28 -24
18 -48 35 -54 37 -26 10 -135 85 -135 92 0 11 37 -10 90 -51 l45 -35 -47 46
c-53 51 -57 61 -30 76 22 13 35 14 27 2z m-30 -133 c0 -6 6 -13 14 -16 8 -3
11 0 7 7 -7 11 80 -47 186 -124 55 -40 58 -44 40 -54 -12 -6 -25 -11 -29 -11
-11 0 -60 39 -125 99 -27 24 -48 40 -48 35 0 -5 31 -36 69 -69 39 -33 70 -65
70 -72 1 -19 -37 -36 -52 -23 -6 5 -37 30 -67 56 -30 25 -64 50 -75 55 -15 8
-13 4 5 -11 118 -102 123 -108 106 -125 -19 -19 -44 -13 -78 18 -14 12 -40 35
-59 51 -19 16 -50 43 -70 60 -19 17 -57 49 -83 70 l-48 40 22 18 c20 16 24 16
50 3 16 -8 32 -19 35 -25 3 -5 11 -10 16 -10 6 0 -3 12 -20 26 -37 31 -38 38
-7 52 28 12 63 -6 111 -58 17 -17 39 -36 50 -41 11 -6 -11 20 -50 57 l-70 66
50 -31 c28 -18 50 -37 50 -43z m1799 -14 c3 -9 6 -99 6 -200 0 -150 -3 -184
-14 -184 -8 0 -16 13 -18 30 -3 21 0 30 9 30 8 0 11 5 8 11 -4 5 -12 8 -18 6
-7 -2 -31 31 -54 73 -23 42 -61 97 -84 123 -23 27 -40 49 -38 51 13 11 148 59
166 59 13 0 20 3 17 8 -3 5 -1 9 4 9 6 0 13 -7 16 -16z m-1924 -108 c52 -44
109 -93 125 -108 17 -15 33 -28 38 -28 14 0 7 -28 -9 -34 -23 -9 -46 -7 -40 3
3 5 -5 16 -19 25 -14 9 -25 13 -25 9 0 -4 -6 2 -14 12 -8 11 -13 22 -11 25 2
3 -7 7 -20 8 -13 1 -28 -5 -33 -14 -8 -14 -12 -12 -30 11 -12 15 -22 25 -22
21 0 -4 -6 -1 -14 6 -9 8 -11 17 -5 22 5 6 21 -1 40 -20 26 -25 31 -26 27 -9
-2 11 -15 25 -29 32 -36 18 -120 99 -111 108 4 5 1 5 -5 1 -7 -4 -13 -3 -13 3
0 19 33 30 55 19 11 -6 63 -47 115 -92z m336 -125 c-3 -5 1 -11 9 -15 8 -3 15
-1 15 5 0 5 11 2 25 -7 14 -9 22 -21 18 -27 -3 -5 -2 -7 4 -4 9 6 154 -114
161 -133 2 -5 -6 -14 -18 -20 -18 -10 -34 0 -131 76 -78 62 -106 89 -97 95 10
7 10 9 -2 10 -8 1 -18 1 -22 0 -13 -2 -9 17 5 22 20 9 39 8 33 -2z m-557 -106
c40 -33 66 -61 59 -62 -7 0 -46 -7 -86 -13 -59 -10 -76 -10 -85 0 -9 10 -9 11
3 5 12 -6 13 -5 3 6 -7 7 -13 28 -13 46 l0 34 26 -26 c32 -32 73 -59 79 -53 3
3 -18 23 -47 44 -46 34 -53 45 -56 78 l-3 39 23 -19 c13 -11 57 -46 97 -79z
m504 74 c19 -11 106 -83 190 -160 l28 -25 -24 -11 c-21 -10 -30 -8 -61 13 -41
28 -49 22 -11 -8 32 -25 32 -34 -2 -41 -19 -3 -36 2 -54 16 -119 98 -169 137
-173 137 -4 0 -6 -7 -6 -17 0 -9 3 -14 6 -10 4 3 23 -6 43 -21 127 -96 161
-142 88 -121 -17 5 -33 9 -34 9 -1 0 -17 15 -37 33 -44 41 -57 51 -81 65 -11
6 -14 12 -7 12 7 0 10 4 7 10 -3 5 -1 19 5 30 8 15 8 25 1 34 -8 10 -5 16 14
24 21 10 30 7 75 -29 57 -45 67 -44 14 3 -26 23 -32 33 -22 39 10 7 10 9 -2 9
-13 0 -13 1 0 10 19 12 17 12 43 -1z m4991 -1 c-4 -7 -16 -25 -26 -40 -10 -14
-16 -32 -13 -40 3 -7 -32 -62 -76 -123 -97 -131 -88 -120 -95 -112 -3 3 4 16
16 29 12 13 42 52 67 88 25 36 55 75 66 87 11 13 18 25 16 28 -3 2 -33 -34
-68 -80 -68 -92 -81 -105 -81 -80 0 9 4 14 9 10 13 -8 18 33 9 75 -13 60 -10
110 7 110 8 0 15 -5 15 -11 0 -8 5 -8 15 1 8 7 15 9 15 6 0 -4 7 -1 15 6 32
29 42 35 70 46 40 14 47 14 39 0z m-4298 -292 c-3 -78 -5 -147 -5 -153 -1 -18
-21 -16 -21 1 0 28 -73 157 -117 206 -25 28 -43 54 -39 58 12 11 99 42 106 37
4 -3 13 2 20 10 10 12 15 12 36 -2 l25 -16 -5 -141z m-1252 27 c4 -5 12 -8 16
-8 5 0 16 -9 25 -20 9 -11 13 -14 9 -6 -4 8 14 -1 40 -19 56 -40 76 -65 25
-31 l-34 23 29 -25 c15 -13 35 -24 44 -23 9 0 17 -6 17 -14 0 -8 8 -14 17 -12
9 1 19 -2 23 -8 3 -5 1 -10 -5 -10 -6 0 -8 -5 -5 -10 3 -6 -2 -13 -12 -16 -10
-3 -31 -12 -48 -19 -33 -15 -43 -12 -102 37 -23 18 -64 51 -92 73 -28 22 -51
43 -51 47 0 3 9 9 20 13 13 4 32 -3 57 -21 l38 -28 -33 36 c-24 25 -30 37 -20
41 20 8 34 8 42 0z m-99 -63 c4 -6 49 -42 101 -81 52 -39 92 -75 88 -80 -8
-14 -37 -11 -64 8 -25 16 -25 16 -7 -3 21 -26 21 -32 0 -36 -19 -4 -87 37
-114 68 -9 11 -20 33 -23 49 l-8 30 24 -21 c13 -11 41 -33 63 -48 39 -27 39
-26 -5 11 -68 58 -100 90 -100 102 0 14 37 14 45 1z m479 -89 c17 -19 17 -20
-11 -35 -48 -26 -5 -17 69 14 40 17 78 28 85 26 10 -4 13 -41 13 -156 0 -171
-10 -190 -50 -92 -18 44 -43 77 -114 146 -50 50 -83 87 -73 83 11 -4 17 -1 17
8 0 11 11 18 41 24 3 0 14 -8 23 -18z m-414 -371 c0 -82 -4 -140 -10 -140 -5
0 -18 19 -28 43 -10 23 -40 68 -66 100 -27 34 -44 63 -40 69 19 30 40 48 56
48 9 0 20 5 23 10 3 6 19 10 36 10 l29 0 0 -140z m68 -1304 c21 -13 14 -46
-10 -47 l-23 0 23 -11 c29 -15 28 -34 -3 -42 -25 -6 -142 1 -156 10 -4 2 -7
26 -6 53 l2 49 80 -2 c44 -1 86 -5 93 -10z m1066 -60 c3 -13 15 -26 25 -29 18
-4 19 -9 11 -38 -13 -43 -12 -52 0 -44 6 4 11 -10 12 -34 1 -23 3 -53 4 -68
13 -146 13 -210 0 -210 -8 0 -12 6 -9 14 3 7 -2 13 -11 13 -9 0 -16 -4 -16
-10 0 -5 -13 -7 -30 -5 -16 2 -30 0 -30 -5 0 -8 -26 -8 -34 1 -2 2 -7 90 -11
195 -7 189 -7 192 14 199 12 3 21 15 21 26 0 30 46 26 54 -5z m-1084 -106 c0
-29 4 -40 15 -40 8 0 15 -4 15 -9 0 -5 3 -18 6 -28 5 -17 5 -17 -6 0 -14 22
-30 13 -30 -19 0 -16 6 -24 18 -25 15 -1 15 -2 0 -6 -21 -5 -23 -99 -4 -173
14 -55 18 -52 -54 -52 -16 0 -50 1 -74 1 l-43 1 13 52 c9 32 14 107 14 195 l0
143 65 0 65 0 0 -40z m48 -380 c31 0 32 -1 32 -43 l0 -43 -112 3 c-75 2 -106
0 -93 -6 15 -7 8 -10 -30 -9 -39 0 -45 2 -25 8 23 7 23 8 4 9 -22 1 -33 29
-26 63 4 19 75 28 167 22 28 -2 65 -4 83 -4z"/>
</g>
</svg>
