<?xml version="1.0" standalone="no"?>
<!DOCTYPE svg PUBLIC "-//W3C//DTD SVG 20010904//EN"
 "http://www.w3.org/TR/2001/REC-SVG-20010904/DTD/svg10.dtd">
<svg version="1.0" xmlns="http://www.w3.org/2000/svg"
 width="884.000000pt" height="600.000000pt" viewBox="0 0 884.000000 600.000000"
 preserveAspectRatio="xMidYMid meet">
<metadata>
Created by potrace 1.11, written by Peter Selinger 2001-2013
</metadata>
<g transform="translate(0.000000,600.000000) scale(0.100000,-0.100000)"
fill="#000000" stroke="none">
<path d="M1066 5429 c-15 -12 -25 -27 -22 -34 2 -7 -1 -18 -7 -24 -8 -8 -7
-11 6 -11 9 0 17 -5 17 -10 0 -6 -14 -4 -31 5 -40 21 -63 13 -57 -20 3 -14 1
-25 -4 -25 -5 0 -6 -5 -2 -12 4 -7 9 -24 10 -38 2 -14 15 -35 29 -47 29 -26
11 -31 -23 -7 -15 11 -22 25 -22 50 0 19 -5 34 -11 34 -7 0 -8 -18 -4 -55 5
-37 4 -55 -3 -55 -20 0 -34 -38 -22 -59 6 -12 6 -22 1 -26 -5 -3 -9 -35 -8
-72 0 -55 4 -67 19 -71 22 -5 26 -62 4 -62 -22 0 -41 -29 -28 -42 22 -22 13
-44 -20 -53 -21 -6 -34 -18 -37 -30 -2 -11 -15 -30 -28 -43 -23 -21 -25 -29
-22 -99 l4 -76 -34 -12 c-19 -6 -44 -23 -54 -38 -17 -22 -18 -30 -8 -55 10
-24 10 -34 0 -50 -10 -16 -10 -26 -1 -46 9 -20 9 -32 0 -51 -8 -18 -8 -31 0
-49 8 -18 8 -33 -1 -55 -9 -25 -9 -36 2 -52 9 -15 10 -24 2 -32 -13 -13 -14
-57 -2 -76 6 -9 4 -22 -6 -37 -13 -20 -13 -26 1 -52 14 -26 14 -31 1 -42 -19
-16 -19 -40 0 -67 13 -18 13 -22 0 -33 -19 -16 -19 -40 0 -67 13 -19 13 -22 0
-27 -17 -6 -20 -57 -4 -73 8 -8 7 -17 -5 -35 -14 -21 -14 -27 -1 -52 14 -26
14 -31 -1 -47 -13 -14 -14 -24 -6 -46 9 -27 8 -30 -32 -45 -22 -9 -119 -49
-215 -88 -96 -39 -179 -69 -186 -66 -7 2 -37 -7 -66 -21 -30 -15 -60 -25 -67
-24 -6 1 -12 -2 -12 -8 0 -5 -25 -19 -55 -32 -51 -21 -55 -25 -55 -56 0 -18 3
-33 8 -33 8 0 322 122 437 170 236 99 239 100 253 82 10 -13 9 -18 -3 -25 -20
-11 -19 -56 2 -79 9 -10 11 -18 5 -18 -6 0 -16 -10 -23 -21 -9 -17 -7 -26 9
-48 20 -27 20 -28 1 -39 -23 -15 -24 -40 -2 -64 15 -17 15 -19 0 -36 -21 -23
-22 -56 -2 -72 14 -12 13 -16 -6 -37 l-23 -23 22 -29 c21 -29 21 -29 1 -46
-24 -23 -24 -33 2 -61 l21 -22 -21 -11 c-25 -14 -27 -48 -4 -73 16 -18 15 -19
-5 -34 -28 -19 -28 -32 0 -61 l22 -23 -22 -16 c-26 -18 -28 -41 -5 -66 15 -17
15 -19 0 -36 -19 -21 -22 -48 -6 -57 5 -4 14 -18 20 -31 5 -14 22 -33 39 -42
35 -20 39 -48 10 -84 -27 -35 -75 -41 -125 -18 -56 26 -270 114 -410 170 -38
15 -96 39 -128 54 -32 14 -60 26 -62 26 -3 0 -5 -542 -5 -1205 l0 -1205 4420
0 4420 0 0 1321 0 1320 -22 -7 c-13 -3 -50 -17 -82 -30 -69 -28 -99 -30 -116
-9 -15 18 -78 19 -101 2 -9 -7 -21 -28 -28 -48 -13 -42 -14 -42 -191 -110
-157 -60 -230 -70 -230 -33 0 13 -8 28 -17 33 -17 10 -17 12 0 25 21 16 22 39
2 56 -14 12 -14 15 0 30 19 21 19 34 0 50 -12 10 -12 15 2 36 14 23 14 26 -1
43 -15 16 -15 22 -4 40 11 17 10 25 0 42 -10 15 -11 24 -3 32 16 16 14 38 -6
59 -9 10 -11 18 -5 18 19 0 25 40 8 59 -15 16 -15 19 -1 31 19 16 19 34 0 50
-12 10 -12 15 2 36 14 23 14 26 -3 46 -14 15 -16 22 -6 25 17 7 15 50 -4 61
-14 8 -14 10 0 21 20 17 20 48 0 59 -14 8 -14 10 0 21 21 18 20 48 -1 59 -16
9 -16 11 0 27 21 20 22 39 2 55 -14 12 -14 15 0 30 19 21 19 34 0 50 -12 10
-12 15 0 34 13 19 13 25 0 43 -10 14 -12 24 -5 28 13 8 13 48 -1 62 -8 8 -8
13 0 17 6 4 11 18 11 32 0 18 -9 29 -35 41 -40 19 -44 28 -15 36 11 3 25 17
31 31 15 32 1 51 -43 60 -52 10 -58 21 -58 110 0 48 -5 87 -11 93 -7 7 -11 39
-10 78 3 108 -20 117 -139 57 -78 -40 -87 -52 -89 -119 -1 -26 3 -33 19 -33
10 0 28 -10 40 -22 17 -18 20 -35 20 -100 0 -74 -1 -78 -24 -84 -14 -3 -33
-15 -42 -25 -17 -19 -17 -22 -1 -47 9 -15 23 -26 32 -26 23 3 18 -10 -15 -34
-33 -25 -38 -47 -15 -72 14 -15 14 -18 0 -30 -8 -7 -15 -18 -15 -25 0 -7 7
-18 15 -25 14 -12 14 -15 0 -30 -19 -21 -19 -34 0 -50 12 -10 12 -15 0 -34
-13 -19 -13 -25 0 -43 10 -14 12 -24 5 -28 -16 -10 -12 -53 6 -63 14 -8 14
-10 0 -21 -21 -17 -20 -47 0 -55 16 -6 16 -8 0 -24 -20 -23 -20 -36 -1 -52 12
-10 12 -15 -2 -36 -14 -23 -14 -26 1 -43 11 -13 14 -21 7 -26 -14 -8 -14 -48
0 -62 8 -8 7 -17 -3 -32 -11 -17 -11 -25 0 -42 10 -15 11 -24 3 -32 -16 -16
-14 -42 4 -57 14 -12 14 -15 -1 -31 -15 -17 -15 -21 -2 -41 13 -20 13 -26 1
-44 -12 -19 -12 -24 3 -38 12 -13 14 -20 5 -29 -16 -16 -13 -54 5 -61 16 -6
16 -8 0 -24 -20 -23 -20 -36 -1 -52 14 -12 14 -15 0 -30 -19 -21 -19 -29 2
-52 15 -17 15 -19 0 -36 -15 -16 -15 -20 -1 -40 14 -20 14 -22 -4 -22 -38 0
-177 -41 -244 -72 -82 -38 -118 -75 -118 -124 0 -46 12 -68 55 -94 19 -12 35
-25 35 -29 0 -12 -162 -86 -362 -166 -91 -36 -109 -41 -119 -29 -9 11 -9 20 2
40 12 23 11 28 -5 39 -16 12 -16 15 -2 37 14 22 14 26 -1 48 -12 17 -13 25 -5
28 16 5 15 45 0 60 -9 9 -9 15 0 24 17 17 15 45 -4 56 -14 8 -14 10 0 21 20
17 20 35 1 51 -14 12 -14 15 0 30 19 21 19 29 -2 52 -15 17 -15 19 2 38 17 19
17 21 1 39 -15 16 -15 22 -4 40 10 17 10 25 0 41 -10 16 -10 24 0 40 10 16 10
24 0 40 -10 16 -10 24 0 40 10 16 10 24 0 41 -10 15 -11 24 -3 32 16 16 13 47
-4 53 -13 5 -13 8 0 27 19 27 19 32 -1 52 -15 15 -15 17 1 35 16 18 16 21 1
44 -9 15 -12 27 -6 31 6 3 10 17 10 30 0 19 -10 30 -40 45 l-39 20 6 51 c5 41
2 55 -14 77 -11 15 -23 37 -27 50 -5 14 -15 22 -31 22 -18 0 -24 7 -28 33 -4
17 -9 46 -13 64 -5 24 -1 39 14 58 18 22 20 37 17 98 -5 82 0 107 21 107 17 0
56 79 47 94 -4 5 -10 1 -14 -10 -7 -18 -8 -18 -8 1 -1 19 25 41 133 111 83 54
237 123 366 163 244 77 310 107 310 141 0 31 -16 32 -71 4 -29 -14 -134 -53
-233 -86 -184 -61 -317 -122 -439 -203 -56 -36 -75 -44 -106 -41 -21 2 -43 6
-48 9 -5 3 -32 -13 -59 -36 -91 -78 -114 -104 -114 -131 0 -15 -6 -35 -12 -46
-11 -16 -9 -26 6 -54 18 -34 19 -35 47 -21 15 8 30 15 34 15 3 0 5 -26 5 -59
0 -50 3 -59 20 -64 24 -6 28 -58 5 -77 -8 -7 -15 -26 -15 -41 0 -22 -6 -32
-25 -39 -15 -6 -25 -17 -25 -29 0 -10 -7 -24 -15 -31 -11 -9 -15 -32 -15 -81
0 -66 -1 -69 -30 -84 -41 -21 -56 -52 -37 -73 13 -15 14 -20 1 -36 -12 -17
-12 -23 1 -43 13 -19 13 -26 3 -43 -10 -16 -10 -24 0 -40 10 -16 10 -24 0 -40
-10 -16 -10 -24 0 -40 10 -16 10 -24 0 -40 -10 -16 -10 -24 0 -41 10 -15 10
-24 2 -34 -13 -15 -5 -55 11 -55 5 0 2 -12 -7 -26 -16 -23 -16 -27 -1 -41 14
-14 14 -18 0 -40 -14 -21 -14 -25 1 -42 15 -16 15 -22 4 -40 -10 -17 -10 -25
0 -41 10 -16 10 -24 0 -40 -10 -16 -10 -24 0 -41 10 -15 11 -24 3 -32 -17 -17
-13 -45 7 -56 15 -9 15 -12 2 -21 -14 -10 -158 -4 -170 7 -2 2 1 12 8 21 23
32 24 43 7 62 -15 17 -15 20 0 43 15 24 15 26 -5 45 -18 17 -19 20 -5 32 19
16 19 44 0 60 -14 12 -14 15 0 30 20 22 19 47 -2 60 -17 10 -17 10 0 20 21 13
22 43 2 60 -14 12 -14 15 0 30 19 21 19 44 0 60 -14 12 -14 15 0 30 20 22 19
47 -2 59 -17 9 -17 10 0 28 21 24 21 32 1 54 -15 17 -15 19 0 34 20 21 20 42
0 53 -15 8 -15 11 1 36 17 25 17 28 1 45 -16 18 -16 21 -1 44 15 24 15 27 -4
46 -17 17 -18 21 -5 32 17 14 19 56 2 62 -10 4 -10 7 0 18 15 17 16 51 0 67
-9 9 -9 15 0 24 7 7 12 19 12 28 0 9 36 47 80 84 83 71 92 88 67 134 -13 22
-14 21 -80 -38 -38 -33 -72 -60 -77 -60 -13 0 -13 17 0 25 15 9 12 41 -5 58
-13 13 -13 16 0 27 19 16 19 44 0 60 -14 12 -14 15 1 31 16 18 12 59 -7 59 -5
0 -2 11 7 25 15 22 15 27 1 48 -12 19 -12 25 0 44 11 16 12 27 4 42 -7 13 -8
28 -2 44 7 18 6 30 -5 45 -8 11 -10 23 -5 26 11 7 11 138 -1 153 -5 7 -5 14 2
18 14 8 13 48 -2 63 -9 9 -9 15 0 24 24 24 14 58 -24 80 -32 19 -34 22 -18 29
24 8 47 50 42 74 -4 22 -22 32 -69 40 l-37 6 0 101 c-1 71 -5 104 -14 109 -9
6 -12 29 -10 74 4 74 -7 95 -46 95 -24 0 -107 -43 -148 -77 -41 -34 -33 -133
10 -133 19 0 34 -38 40 -105 7 -68 3 -76 -41 -99 -47 -23 -58 -50 -36 -81 10
-13 24 -25 31 -25 8 0 0 -12 -17 -26 -30 -25 -41 -66 -21 -79 6 -3 5 -15 -2
-31 -9 -19 -9 -30 0 -45 10 -15 10 -23 0 -38 -9 -15 -9 -25 0 -46 9 -20 9 -30
0 -45 -10 -16 -10 -24 0 -40 9 -15 9 -25 0 -45 -9 -21 -9 -29 5 -42 14 -14 14
-18 0 -39 -14 -21 -14 -26 0 -47 13 -20 13 -26 1 -42 -12 -16 -12 -22 1 -41 9
-14 11 -25 5 -29 -14 -9 -13 -48 2 -63 9 -9 9 -15 0 -24 -15 -15 -16 -50 -1
-65 8 -8 7 -17 -3 -32 -10 -17 -10 -25 0 -41 9 -15 9 -25 0 -45 -9 -21 -9 -31
0 -45 9 -15 9 -26 0 -45 -9 -20 -8 -28 6 -44 15 -16 15 -19 1 -31 -19 -16 -19
-29 2 -52 15 -17 15 -19 0 -36 -10 -10 -17 -23 -17 -28 0 -10 -74 -77 -130
-119 -15 -11 -113 -89 -219 -174 -188 -152 -191 -155 -191 -193 0 -21 2 -38 5
-38 5 0 112 83 359 280 197 156 183 147 197 133 8 -8 7 -17 -6 -36 -16 -24
-15 -27 4 -46 17 -17 18 -21 5 -32 -19 -15 -18 -43 2 -60 14 -11 14 -13 0 -21
-21 -12 -21 -52 0 -69 14 -11 14 -13 0 -21 -20 -11 -20 -42 -1 -58 14 -12 14
-15 0 -30 -19 -21 -19 -44 0 -60 14 -12 14 -15 0 -30 -19 -21 -19 -29 2 -52
15 -17 15 -19 0 -36 -21 -23 -22 -41 -2 -48 16 -7 21 -34 6 -34 -18 0 -21 -33
-5 -51 14 -16 14 -19 0 -41 -14 -22 -14 -26 0 -46 13 -19 13 -24 -1 -46 -15
-23 -15 -25 5 -44 26 -24 31 -21 -112 -80 -97 -41 -98 -41 -142 -26 -43 15
-45 14 -70 -7 -23 -20 -26 -31 -26 -83 0 -41 -5 -65 -16 -77 -16 -17 -15 -19
10 -29 15 -5 31 -10 36 -10 5 0 12 -16 16 -36 5 -28 10 -35 28 -32 13 2 22 11
24 26 4 28 9 28 157 -3 66 -14 121 -25 122 -25 2 0 3 -22 3 -49 0 -55 5 -51
-150 -107 -164 -58 -283 -104 -294 -113 -8 -6 -40 -4 -96 9 -47 10 -106 21
-132 25 -46 6 -63 24 -38 40 15 9 12 41 -5 55 -14 12 -14 15 0 30 20 22 19 46
-1 54 -16 6 -16 8 0 24 20 23 21 46 1 62 -14 12 -14 15 0 30 19 21 19 44 0 60
-14 12 -14 15 0 30 20 22 19 47 -2 58 -16 9 -16 11 0 27 21 20 22 39 2 55 -14
12 -14 15 0 30 20 22 19 47 -2 59 -17 9 -17 10 0 28 9 11 17 23 17 28 0 5 -8
17 -17 28 -17 18 -17 19 0 28 9 6 17 19 17 29 0 10 -8 23 -17 29 -17 9 -17 10
0 28 21 24 21 32 1 54 -15 17 -15 19 0 34 19 20 20 37 4 53 -10 10 -8 15 7 26
60 42 67 51 63 89 l-3 38 -34 -25 c-39 -29 -61 -35 -37 -10 20 19 20 38 1 54
-13 11 -13 15 0 33 19 27 19 32 -1 52 -15 15 -15 17 1 35 16 18 16 22 3 42
-14 21 -14 26 0 46 13 20 13 24 -3 42 -17 19 -17 21 0 40 16 18 16 22 3 42
-14 21 -14 26 0 46 13 20 13 24 -2 41 -16 18 -16 21 -2 43 14 21 14 27 2 43
-12 16 -12 22 0 40 12 18 12 24 0 40 -11 15 -11 23 0 44 11 21 11 29 0 46 -11
17 -12 24 -1 39 19 25 2 59 -40 79 l-33 16 5 64 c5 57 3 67 -16 86 -12 12 -26
33 -31 46 -6 15 -17 25 -30 25 -15 0 -20 7 -20 28 -1 15 -7 38 -14 51 -15 26
-10 70 9 78 22 8 39 61 25 77 -8 10 -8 21 -2 32 5 10 7 34 5 55 -5 34 -3 40
19 48 31 12 68 69 68 104 0 21 10 32 48 53 26 15 72 45 103 65 31 21 112 66
180 100 68 34 174 95 236 136 102 66 113 76 113 103 0 17 -4 30 -8 30 -5 0
-58 -32 -117 -71 -60 -39 -172 -105 -248 -146 -77 -41 -182 -101 -233 -133
-98 -62 -121 -67 -177 -38 -14 7 -29 3 -60 -19 -23 -15 -44 -31 -47 -34 -3 -3
-21 -14 -41 -23 -38 -18 -79 -51 -79 -64 0 -4 9 -38 18 -77 14 -53 23 -70 36
-70 28 0 44 -32 40 -77 -3 -33 -1 -41 16 -45 16 -4 20 -14 20 -44 0 -26 -5
-42 -15 -45 -11 -5 -14 -15 -10 -38 6 -28 3 -32 -24 -43 -17 -6 -31 -18 -31
-27 0 -9 -9 -25 -21 -37 -17 -17 -20 -31 -18 -87 2 -66 2 -66 -33 -88 -36 -23
-36 -24 -36 -94 0 -38 4 -73 9 -76 6 -4 6 -10 0 -17 -12 -15 -11 -138 1 -154
5 -7 5 -14 -2 -18 -14 -8 -13 -48 2 -63 9 -9 9 -15 0 -24 -15 -15 -16 -50 -1
-65 8 -8 8 -13 0 -17 -15 -9 -14 -49 1 -64 9 -9 9 -15 0 -24 -15 -15 -16 -50
-1 -65 8 -8 8 -13 0 -17 -15 -9 -14 -49 1 -64 9 -9 9 -15 0 -24 -15 -15 -16
-50 -1 -65 8 -8 8 -13 0 -17 -14 -9 -14 -49 0 -63 8 -8 7 -16 -2 -31 -11 -17
-11 -25 0 -45 11 -20 11 -28 0 -46 -12 -17 -12 -25 -1 -42 10 -15 11 -24 3
-32 -6 -6 -11 -24 -11 -39 0 -15 -4 -28 -10 -28 -5 0 -10 21 -10 48 0 57 -7
68 -44 78 -24 6 -27 11 -23 33 3 15 3 46 0 70 -5 40 -10 45 -51 63 l-44 20
-29 -31 c-23 -26 -35 -31 -66 -30 -44 3 -83 18 -83 32 0 5 -7 7 -15 4 -8 -4
-17 -2 -20 4 -4 5 -10 7 -13 5 -4 -2 -19 4 -32 14 -20 15 -23 21 -12 31 16 17
15 44 -3 59 -14 12 -14 15 0 30 8 9 15 24 15 32 0 9 -7 21 -15 28 -14 12 -14
15 0 30 20 22 19 57 -1 68 -15 8 -14 12 5 31 17 17 19 26 11 40 -5 11 -15 21
-22 24 -9 3 -6 11 10 26 27 27 28 36 2 58 -20 17 -20 17 2 40 20 21 20 23 4
48 -16 24 -16 28 -2 44 20 22 20 30 -1 53 -15 17 -15 19 1 37 20 22 14 56 -11
65 -14 6 -14 9 5 22 25 17 29 46 8 63 -12 10 -12 16 2 41 15 26 15 30 0 47
-14 16 -15 20 -2 37 18 25 18 41 -2 60 -14 15 -14 17 0 32 9 8 16 23 16 32 0
10 27 33 68 57 37 21 90 53 117 71 28 17 103 65 169 105 65 41 120 79 123 86
2 6 -3 25 -12 42 -17 34 -9 36 -94 -16 -20 -12 -45 -26 -57 -32 -24 -11 -167
-102 -174 -111 -13 -15 -107 -78 -126 -84 -29 -9 -50 16 -29 34 19 16 19 44 0
60 -14 11 -14 15 2 32 14 16 15 24 5 51 -8 20 -8 35 -2 41 14 14 13 49 -2 64
-9 9 -9 15 0 24 15 15 15 51 0 66 -9 9 -9 15 0 24 15 15 16 50 2 64 -8 8 -7
19 1 37 8 19 9 34 2 49 -6 15 -6 31 1 50 7 20 7 33 0 45 -8 12 -8 25 0 45 7
20 7 33 0 45 -8 12 -8 25 0 45 8 21 7 34 -2 48 -10 16 -10 24 0 40 9 14 10 27
2 48 -8 20 -8 33 0 45 8 12 7 25 -1 47 -6 17 -7 32 -2 36 5 3 9 18 9 34 0 21
-9 37 -35 57 -38 30 -44 43 -20 43 20 0 47 44 43 71 -3 25 -17 34 -72 46 l-40
8 -2 108 c-2 77 -7 111 -17 121 -11 11 -13 32 -9 84 4 64 3 70 -19 86 -35 24
-55 20 -115 -26 l-56 -42 7 -70 c4 -45 14 -81 26 -98 14 -20 19 -44 19 -92 l0
-64 -50 -37 c-54 -39 -61 -60 -34 -100 14 -22 14 -25 -4 -43 -16 -16 -20 -34
-20 -94 0 -40 5 -78 10 -85 6 -7 5 -14 -2 -18 -5 -3 -10 -19 -10 -35 0 -16 5
-32 10 -35 8 -5 8 -11 1 -19 -7 -8 -9 -50 -7 -103 2 -50 0 -96 -4 -103 -4 -7
-4 -25 2 -41 6 -18 6 -34 -1 -46 -7 -14 -6 -27 3 -44 10 -20 10 -28 -2 -46
-12 -20 -12 -26 1 -46 13 -20 13 -25 -1 -45 -13 -19 -13 -25 0 -45 14 -20 14
-25 0 -45 -13 -19 -13 -25 0 -44 13 -19 13 -25 -1 -49 -14 -24 -13 -29 2 -53
10 -14 13 -26 8 -26 -18 0 -23 -41 -8 -64 14 -21 14 -25 -1 -40 -16 -16 -16
-19 0 -46 14 -25 14 -31 2 -41 -18 -15 -18 -43 1 -59 14 -11 14 -15 -2 -32
-14 -16 -15 -24 -6 -48 9 -25 8 -30 -16 -47 -14 -11 -46 -29 -71 -42 -25 -13
-82 -47 -128 -77 -45 -30 -105 -65 -132 -79 -56 -28 -80 -58 -80 -98 0 -34
-20 -43 236 109 180 108 237 135 200 98 -20 -20 -20 -43 -1 -64 14 -15 14 -18
0 -30 -19 -16 -19 -44 0 -60 14 -12 14 -15 0 -30 -19 -21 -19 -44 0 -60 14
-12 14 -15 0 -30 -19 -21 -19 -54 1 -71 14 -11 14 -13 0 -21 -20 -11 -21 -52
-1 -68 14 -12 14 -15 0 -30 -19 -21 -19 -44 0 -60 14 -12 14 -15 0 -30 -20
-22 -19 -57 3 -70 16 -10 16 -10 0 -20 -22 -14 -23 -53 -2 -71 14 -11 14 -13
0 -21 -9 -5 -16 -22 -16 -37 0 -32 -3 -35 -139 -111 -62 -34 -96 -48 -101 -40
-4 6 -15 8 -24 4 -10 -4 -21 -2 -25 5 -5 8 -16 4 -36 -13 -26 -22 -28 -30 -28
-95 0 -47 -4 -75 -13 -82 -22 -18 -17 -26 19 -33 28 -5 35 -12 43 -44 12 -48
38 -54 53 -11 9 26 15 30 33 26 13 -3 76 -16 141 -28 l118 -22 -3 -50 -3 -51
-210 -108 -210 -109 -74 15 c-40 8 -76 18 -79 21 -3 2 2 13 11 23 21 23 22 46
2 62 -14 12 -14 15 0 30 18 20 20 57 3 63 -10 3 -9 11 4 34 15 27 16 32 2 51
-13 19 -13 24 2 47 16 24 16 27 -1 45 -17 19 -17 21 1 41 17 19 18 22 2 49
-14 25 -14 31 -2 41 18 15 18 43 -1 59 -14 12 -14 15 0 30 19 21 19 44 0 60
-14 12 -14 15 0 30 19 22 19 57 -1 68 -14 8 -14 10 0 21 19 16 21 52 4 69 -9
9 -9 15 0 24 15 15 15 51 0 66 -9 9 -9 15 0 24 15 15 16 60 1 75 -8 8 -8 13 0
17 14 9 14 63 1 71 -6 4 -4 16 6 31 15 22 15 26 0 49 -16 24 -15 25 14 40 26
13 30 21 30 56 0 35 -2 40 -19 34 -15 -5 -18 -2 -14 14 3 10 0 28 -6 40 -9 15
-8 25 1 40 9 15 9 25 -1 47 -8 19 -9 30 -1 38 14 14 13 49 -2 64 -9 9 -9 15 0
24 14 14 16 54 3 62 -5 4 -5 19 2 36 9 23 9 35 0 48 -6 10 -7 25 -3 33 4 8 7
50 6 94 -1 44 1 89 5 100 10 31 -7 63 -46 86 l-36 21 3 68 c2 56 -2 71 -20 95
-12 15 -22 34 -22 42 0 7 -11 19 -25 25 -15 7 -25 19 -25 33 0 12 -7 30 -15
41 -23 30 -19 73 9 95 30 24 41 55 26 74 -9 10 -9 19 0 35 7 12 9 33 5 47 -9
38 3 63 30 63 29 0 75 62 75 101 0 21 12 34 63 67 127 82 282 218 399 351
l117 132 -20 20 c-11 11 -24 19 -28 17 -4 -2 -55 -57 -113 -123 -130 -149
-248 -253 -397 -349 l-44 -28 -46 24 -46 25 -130 -66 -130 -66 -9 -67 c-10
-81 -2 -123 21 -114 37 15 118 -36 95 -59 -4 -3 -7 -20 -7 -36 0 -23 6 -31 23
-36 17 -4 22 -12 22 -38 0 -43 -9 -65 -25 -65 -10 0 -12 -10 -8 -35 5 -30 3
-35 -14 -35 -22 0 -43 -18 -43 -37 0 -7 -9 -22 -20 -33 -16 -16 -20 -33 -20
-89 l0 -70 -40 -22 c-45 -25 -56 -48 -40 -80 9 -17 9 -27 -1 -46 -10 -19 -10
-28 -1 -43 9 -15 9 -25 0 -45 -8 -17 -8 -32 -1 -47 7 -16 7 -30 0 -45 -7 -15
-7 -30 0 -45 6 -15 6 -32 -1 -50 -8 -21 -7 -34 3 -49 9 -15 10 -24 2 -32 -15
-15 -14 -50 1 -65 9 -9 9 -15 0 -24 -15 -15 -16 -50 -1 -65 9 -9 8 -16 -5 -28
-20 -20 -20 -25 0 -53 14 -20 14 -24 0 -38 -20 -20 -20 -33 1 -56 15 -17 15
-19 -3 -39 -17 -19 -17 -22 -2 -49 14 -25 14 -29 0 -44 -13 -13 -14 -20 -3
-42 10 -22 9 -29 -1 -36 -21 -14 -139 -83 -191 -112 -26 -15 -64 -38 -84 -51
-19 -14 -40 -25 -44 -25 -5 0 -30 -13 -56 -29 -27 -16 -68 -40 -93 -54 -25
-14 -45 -30 -44 -36 1 -6 2 -22 3 -36 1 -32 -37 -51 380 184 131 74 177 95
136 61 -19 -16 -19 -44 0 -60 14 -11 14 -15 -2 -32 -14 -16 -15 -24 -5 -51 8
-20 8 -35 2 -41 -13 -13 -13 -49 1 -63 8 -8 7 -18 -5 -35 -14 -22 -14 -26 0
-47 15 -20 15 -24 0 -40 -20 -22 -20 -30 1 -53 15 -17 15 -19 -3 -39 -17 -19
-18 -22 -2 -49 14 -25 14 -31 2 -41 -19 -15 -18 -38 3 -62 17 -18 17 -19 0
-28 -21 -12 -22 -33 -1 -64 15 -23 15 -25 0 -31 -19 -7 -21 -37 -3 -64 10 -17
9 -22 -2 -29 -8 -6 -12 -19 -9 -35 3 -14 1 -26 -4 -26 -21 0 -128 34 -128 41
0 4 -8 8 -17 8 -19 0 -177 29 -298 55 -38 8 -73 12 -77 10 -11 -7 -10 -64 1
-64 5 0 85 -14 177 -31 93 -17 187 -31 209 -31 63 1 154 -17 186 -37 l30 -19
-45 -6 c-25 -4 -46 -11 -46 -15 0 -4 -24 -4 -52 0 -29 5 -116 18 -193 29 -242
35 -265 40 -265 59 0 13 -2 13 -9 2 -6 -10 -21 -12 -52 -7 -62 9 -77 20 -62
45 6 10 9 28 6 40 -9 34 -99 74 -105 46 -1 -6 11 -12 27 -15 38 -7 45 -35 12
-44 -14 -3 -27 -15 -30 -27 -4 -17 -11 -20 -29 -16 -13 3 -47 9 -76 13 -43 5
-56 12 -64 30 -9 19 -8 28 7 44 9 10 15 28 13 38 -3 11 -1 27 4 36 7 12 5 24
-6 41 -15 24 -15 24 21 27 32 3 38 7 45 37 8 27 13 32 31 29 12 -3 68 -16 125
-29 l102 -23 24 24 c15 15 33 56 45 103 24 90 20 109 -34 132 -37 15 -48 48
-20 59 15 5 22 66 9 78 -3 4 -17 0 -32 -8 -15 -8 -37 -14 -49 -14 -25 0 -27
13 -23 185 2 94 -10 132 -42 137 -22 3 -23 6 -20 74 4 64 2 74 -19 93 -29 27
-47 27 -60 -1 -9 -21 -9 -21 -4 4 6 32 -8 44 -28 23 -9 -8 -20 -15 -26 -15 -6
0 -13 -11 -17 -24 -5 -22 -8 -23 -52 -15 -90 16 -182 41 -188 51 -3 5 3 20 15
32 26 28 26 38 1 61 l-20 18 20 19 c25 24 25 43 1 67 -19 19 -19 20 0 37 23
21 24 42 2 66 -15 17 -15 19 0 36 21 23 22 46 2 66 -14 14 -14 17 5 36 25 25
25 31 0 62 -19 25 -19 26 0 43 25 23 25 37 0 60 l-20 18 20 19 c24 22 26 51 5
68 -13 11 -13 15 0 33 20 28 19 46 -2 70 -17 18 -17 19 0 28 9 6 17 17 17 25
0 9 30 29 78 50 283 129 428 195 695 320 283 132 302 143 307 170 3 16 4 39 2
52 l-5 23 -23 -22 c-14 -13 -38 -22 -61 -24 -35 -2 -103 -29 -103 -41 0 -3 5
-2 12 2 7 4 8 3 4 -5 -12 -19 -66 -42 -85 -36 -21 6 -196 -77 -204 -98 -5 -14
-33 -29 -142 -77 -81 -37 -163 -75 -275 -128 -114 -54 -182 -84 -185 -80 0 2
-9 15 -18 31 -16 25 -16 29 -2 51 14 22 15 28 2 52 -12 24 -12 31 1 54 15 25
14 30 -1 53 -14 22 -14 27 -2 37 34 28 0 98 -56 115 -23 7 -25 23 -4 31 8 3
24 22 35 42 29 49 12 92 -35 82 -5 -1 -29 4 -53 11 -30 8 -40 15 -33 22 14 14
14 57 1 57 -5 0 -10 14 -10 30 0 17 5 30 10 30 6 0 10 11 10 24 0 14 -4 28
-10 31 -5 3 -10 17 -10 31 0 13 -4 24 -8 24 -19 0 -31 49 -21 80 8 21 8 39 0
60 -5 17 -8 37 -5 44 3 7 -2 16 -10 19 -10 4 -13 1 -9 -9 3 -7 0 -14 -6 -14
-6 0 -11 7 -11 15 0 26 -32 35 -62 17 -16 -9 -28 -22 -28 -29 0 -7 -4 -13 -9
-13 -4 0 -20 -11 -35 -25 -20 -19 -30 -40 -37 -87 -6 -34 -7 -73 -4 -86 6 -24
7 -24 26 -6 19 17 20 17 41 -4 15 -15 24 -40 29 -84 l8 -63 -58 -60 c-64 -66
-79 -99 -54 -123 14 -14 12 -18 -16 -41 -35 -29 -39 -50 -16 -85 14 -21 14
-24 0 -36 -19 -16 -19 -40 0 -67 13 -18 13 -22 0 -33 -19 -16 -19 -54 0 -70
14 -12 14 -15 0 -30 -18 -20 -19 -44 -4 -72 8 -14 8 -23 0 -31 -14 -14 -14
-60 0 -74 8 -8 6 -18 -5 -36 -13 -19 -14 -30 -6 -51 9 -24 7 -28 -18 -38 -15
-6 -66 -28 -113 -50 -47 -21 -91 -38 -97 -38 -12 0 -28 -67 -19 -77 3 -3 59
17 124 45 85 36 122 47 131 39 10 -8 9 -13 -3 -27 -20 -22 -19 -49 2 -73 17
-18 17 -19 0 -28 -22 -13 -22 -47 0 -72 17 -18 17 -19 0 -32 -21 -15 -22 -58
-2 -75 14 -12 13 -16 -6 -37 l-23 -23 22 -29 c21 -29 21 -29 1 -46 -25 -23
-24 -45 1 -52 20 -5 28 -23 11 -23 -5 0 -12 -8 -14 -17 -4 -16 -5 -16 -6 -2
-3 46 -71 17 -71 -30 0 -22 -11 -37 -52 -69 -50 -38 -54 -40 -76 -26 -12 8
-45 19 -74 24 -28 6 -54 12 -56 15 -3 3 3 14 14 26 18 20 18 22 1 51 -15 26
-15 31 -2 44 19 20 19 48 0 64 -14 12 -14 15 0 30 18 20 20 51 3 68 -10 10 -9
18 4 40 14 23 14 31 3 52 -11 20 -10 28 2 47 13 20 14 29 4 50 -10 22 -10 28
4 35 20 12 18 78 -3 78 -10 0 -12 6 -7 18 15 36 17 63 5 77 -10 12 -10 19 -2
27 15 15 15 61 1 75 -8 8 -6 18 6 37 15 23 16 29 3 48 -13 19 -13 25 1 49 13
24 13 31 1 53 -10 20 -11 29 -2 38 15 15 16 50 2 64 -6 6 -6 20 2 41 9 24 9
38 0 57 -7 16 -8 28 -2 31 12 8 13 55 1 74 -6 9 -4 22 5 36 21 32 4 68 -46
101 l-41 27 2 79 c1 66 -2 83 -18 101 -11 12 -25 36 -32 54 -8 19 -22 34 -37
37 -18 5 -24 13 -24 34 0 16 -7 37 -15 48 -20 27 -18 61 5 91 16 20 20 41 20
99 0 54 4 74 13 74 7 0 52 -8 99 -19 76 -16 90 -17 114 -5 15 8 28 13 29 12 3
-4 31 -94 56 -181 21 -72 49 -120 49 -86 0 11 2 11 10 -1 5 -8 7 -29 4 -46 -5
-26 -1 -35 21 -53 32 -25 93 -29 101 -6 4 8 3 26 0 40 -5 21 -11 24 -35 19
-24 -5 -33 -1 -54 28 -14 18 -35 67 -47 108 -12 41 -26 79 -31 84 -5 6 -9 21
-9 35 0 14 -16 73 -35 131 -45 133 -87 193 -158 225 -81 36 -101 38 -131 14z"/>
</g>
</svg>
