<?xml version="1.0" standalone="no"?>
<!DOCTYPE svg PUBLIC "-//W3C//DTD SVG 20010904//EN"
 "http://www.w3.org/TR/2001/REC-SVG-20010904/DTD/svg10.dtd">
<svg version="1.0" xmlns="http://www.w3.org/2000/svg"
 width="878.000000pt" height="600.000000pt" viewBox="0 0 878.000000 600.000000"
 preserveAspectRatio="xMidYMid meet">
<metadata>
Created by potrace 1.11, written by Peter Selinger 2001-2013
</metadata>
<g transform="translate(0.000000,600.000000) scale(0.100000,-0.100000)"
fill="#000000" stroke="none">
<path d="M2982 5813 c4 -104 12 -440 18 -748 6 -308 15 -702 20 -875 5 -173
12 -447 16 -610 3 -162 7 -314 8 -336 l1 -42 -200 -7 c-110 -4 -795 -5 -1523
-3 l-1322 3 2 -184 3 -184 113 2 c126 2 128 1 93 -68 -18 -34 -29 -41 -107
-71 -70 -26 -88 -30 -95 -19 -5 9 -9 -11 -9 -53 0 -39 4 -68 10 -68 6 0 24
-23 42 -51 27 -45 32 -49 41 -33 6 11 15 22 20 25 6 4 1 19 -12 37 -11 17 -21
33 -21 37 0 3 16 13 36 21 42 18 204 32 204 18 0 -5 -36 -45 -80 -89 -65 -65
-82 -77 -90 -65 -9 13 -11 13 -20 0 -5 -8 -10 -27 -10 -41 0 -19 -17 -42 -60
-83 l-60 -57 0 -217 0 -217 149 149 c83 83 150 143 153 136 7 -23 48 11 42 35
-3 13 2 28 15 39 19 17 21 17 21 3 0 -10 8 -17 20 -17 17 0 20 7 20 40 0 36 8
47 96 140 53 55 99 99 101 97 2 -3 -76 -177 -170 -377 -11 -23 -12 -22 -17 20
-4 37 -9 45 -25 45 -16 0 -19 -6 -17 -27 3 -21 0 -27 -11 -23 -7 3 -20 -2 -28
-11 -11 -14 -10 -22 9 -55 12 -21 23 -49 24 -61 1 -13 -40 -113 -91 -223 -51
-110 -134 -288 -183 -395 -50 -107 -94 -199 -99 -205 -5 -5 -9 -74 -9 -154 0
-86 4 -141 9 -136 8 9 445 969 669 1470 45 99 85 181 89 182 5 2 24 -17 43
-42 l34 -46 3 -127 c1 -70 4 -172 7 -227 2 -55 10 -301 17 -547 12 -401 15
-448 29 -448 9 0 23 6 31 13 14 11 14 70 0 555 -14 464 -14 550 -2 593 7 27
17 49 22 49 12 0 163 -188 167 -208 2 -9 26 -37 53 -62 26 -25 60 -61 74 -80
14 -19 29 -35 32 -35 4 0 12 29 19 65 14 76 20 63 -100 219 l-82 106 -38 141
-38 142 27 83 c15 46 31 88 35 93 5 4 44 -26 88 -68 43 -42 82 -76 86 -76 3 0
6 12 6 27 0 21 -20 47 -82 110 l-83 83 98 0 97 0 2 -77 c1 -43 1 -103 -1 -134
-2 -43 2 -60 14 -70 9 -8 44 -40 76 -72 33 -31 64 -57 69 -57 5 0 10 10 12 23
3 16 -11 38 -55 84 l-60 61 -5 121 -5 121 41 0 c31 0 168 -34 179 -44 2 -1
-11 -79 -28 -172 -17 -93 -35 -198 -39 -234 -5 -36 -23 -146 -40 -244 -27
-159 -29 -182 -16 -195 19 -19 20 -16 41 119 32 218 46 279 61 273 10 -4 14 3
14 24 0 16 -4 33 -9 38 -8 9 12 161 22 172 7 6 17 -256 17 -447 0 -102 3 -234
7 -295 6 -104 8 -111 35 -136 15 -15 28 -31 28 -36 0 -5 9 -15 20 -23 11 -8
20 -19 20 -25 0 -6 9 -18 19 -27 19 -16 20 -15 16 50 -9 144 -14 522 -7 522 4
0 33 -26 64 -58 l57 -57 31 -135 c68 -299 64 -274 52 -368 -9 -67 -9 -88 1
-94 9 -5 16 13 25 65 7 39 19 75 25 79 7 4 12 47 13 120 2 62 7 127 12 143 l9
30 66 -65 66 -65 3 -149 3 -149 -35 -12 c-19 -6 -37 -20 -38 -29 -3 -13 -10
-16 -28 -12 -14 4 -44 2 -67 -5 -30 -8 -42 -8 -45 0 -6 18 -29 12 -35 -9 -3
-10 -17 -22 -33 -26 -23 -6 -32 -2 -51 22 -14 16 -37 44 -54 63 -16 19 -29 39
-29 46 0 6 -17 30 -37 51 -21 22 -47 53 -58 68 -40 56 -92 106 -109 106 -14 0
-17 5 -13 21 4 16 -14 46 -72 120 l-78 98 -6 236 c-5 193 -9 244 -24 276 -9
21 -21 39 -26 39 -5 0 -5 -91 0 -217 4 -120 6 -245 4 -278 -4 -73 -4 -110 7
-345 5 -102 7 -187 6 -189 -3 -3 -7 12 -80 279 -42 154 -52 178 -78 202 -17
14 -32 25 -34 23 -2 -1 26 -106 62 -231 119 -424 122 -442 99 -504 -3 -8 -5
-29 -4 -46 2 -31 1 -32 -75 -58 -43 -14 -79 -24 -81 -22 -2 2 21 18 51 36 56
31 73 47 63 57 -3 2 -65 -29 -137 -71 -73 -42 -142 -76 -153 -76 -11 0 -36 -5
-54 -12 l-33 -12 0 -148 c0 -125 2 -148 15 -148 8 0 15 5 15 10 0 6 7 10 15
10 12 0 15 14 15 65 0 52 3 65 15 65 9 0 18 -7 22 -16 5 -13 9 -12 28 6 18 17
21 28 17 73 l-4 54 119 41 c66 23 129 42 140 42 10 0 28 7 39 15 41 31 60 20
78 -49 15 -54 20 -63 37 -59 23 6 24 24 4 88 -8 27 -12 52 -9 56 2 4 33 17 68
29 54 18 66 26 75 51 5 16 6 29 2 29 -4 0 -41 -11 -81 -25 -40 -14 -77 -25
-81 -25 -14 0 -38 124 -27 137 6 8 8 30 4 54 -5 32 28 295 38 307 2 1 40 -43
86 -99 52 -63 86 -115 91 -138 5 -20 8 -104 8 -188 0 -83 3 -167 6 -186 6 -31
4 -35 -25 -47 -18 -7 -62 -33 -98 -57 -36 -23 -74 -43 -84 -43 -9 0 -38 -10
-63 -22 -24 -12 -47 -19 -50 -16 -3 3 -1 36 6 72 6 37 9 69 7 71 -3 3 -12 -1
-21 -8 -11 -8 -21 -40 -29 -90 l-12 -79 -90 -45 c-84 -42 -91 -44 -103 -27 -7
10 -13 24 -13 32 0 7 -8 12 -17 10 -19 -4 -22 -27 -10 -64 6 -17 0 -24 -43
-44 -27 -13 -50 -27 -50 -32 0 -4 -8 -8 -18 -8 -10 0 -137 -58 -281 -130 -144
-72 -267 -130 -273 -130 -5 0 -8 6 -5 13 6 17 223 692 357 1112 l112 350 -8
90 c-4 50 -7 124 -6 165 1 46 -2 69 -7 60 -5 -8 -34 -94 -64 -190 -30 -96
-137 -431 -237 -745 -100 -314 -209 -653 -241 -755 l-59 -186 -100 -49 -100
-49 0 -48 c0 -26 2 -48 5 -48 3 0 37 16 76 36 39 19 73 34 75 31 2 -2 -10 -46
-26 -98 -16 -52 -30 -97 -30 -101 0 -5 26 -8 58 -8 l57 0 45 143 45 142 294
148 c161 82 295 147 296 145 2 -2 7 -121 11 -266 5 -179 11 -262 18 -262 6 0
20 7 30 15 18 14 19 26 12 283 l-7 268 51 24 c27 13 51 22 53 19 2 -2 27 -68
56 -146 l52 -143 -21 -112 c-26 -145 -26 -147 4 -119 18 17 26 38 31 82 4 32
10 59 14 59 4 0 15 -24 25 -53 23 -65 28 -70 48 -55 15 12 13 22 -22 113 l-38
100 24 135 c29 165 29 170 5 170 -16 0 -21 -13 -31 -86 -22 -153 -21 -153 -69
-30 -23 60 -40 110 -39 111 15 13 125 61 133 58 6 -2 20 5 31 16 12 10 98 57
191 104 l171 85 6 -206 c3 -114 8 -247 11 -297 6 -113 1 -102 -72 165 -31 113
-59 211 -62 218 -6 10 -10 10 -25 -1 -19 -14 -18 -19 88 -391 26 -88 46 -165
46 -170 0 -6 -57 -29 -127 -51 -69 -22 -136 -47 -147 -56 -12 -9 -50 -21 -85
-27 -40 -7 -73 -20 -87 -33 -15 -14 -31 -20 -44 -16 -25 6 -104 -18 -142 -44
-14 -11 -41 -19 -60 -20 -18 0 -42 -4 -53 -9 -32 -14 331 -12 377 2 29 9 41 9
50 0 21 -21 55 -15 54 9 -1 18 18 28 142 71 79 28 146 47 149 44 4 -4 9 -36
11 -71 l4 -65 66 0 65 0 -7 94 -7 94 80 27 c77 25 81 28 101 73 12 26 26 55
31 65 6 11 8 21 5 24 -2 3 -50 -10 -105 -28 -55 -18 -103 -31 -106 -28 -3 3
17 143 44 310 68 418 66 402 50 397 -10 -3 -26 -77 -54 -246 -21 -133 -43
-242 -47 -242 -4 0 -8 60 -8 133 0 74 -3 181 -6 238 l-7 104 54 24 c30 13 98
45 152 73 80 40 101 47 113 37 12 -10 22 -6 52 24 21 21 43 37 48 37 6 0 19 9
30 21 22 25 93 63 101 55 11 -11 -17 -142 -51 -241 l-34 -100 -1 119 c-1 103
-3 117 -17 112 -9 -3 -20 -6 -26 -6 -8 0 -9 -53 -5 -178 l7 -177 -76 -235
c-42 -129 -85 -254 -95 -277 -10 -24 -19 -49 -19 -56 0 -7 -18 -66 -39 -130
l-40 -117 27 0 c26 0 29 6 73 138 l45 137 57 23 c32 12 62 20 67 17 6 -4 10
-72 10 -161 l0 -154 24 0 24 0 -6 168 c-5 168 -5 169 17 175 26 6 19 22 80
-179 42 -138 51 -159 71 -162 17 -3 21 0 16 15 -33 105 -96 326 -96 337 0 8 4
16 10 18 10 3 3 17 -36 77 -21 32 -22 62 -1 88 6 9 6 13 -2 13 -6 0 -11 8 -11
19 0 10 -9 21 -20 24 -19 5 -20 11 -15 59 27 239 75 451 133 588 6 14 13 42
17 63 5 34 12 40 66 68 34 17 63 29 65 26 2 -2 15 -53 28 -113 34 -159 46
-508 16 -489 -3 2 -37 90 -75 196 -55 153 -70 187 -77 170 -8 -23 2 -54 102
-331 39 -107 42 -120 36 -185 -4 -48 -12 -74 -23 -82 -11 -8 -51 -13 -111 -13
-59 0 -91 -4 -87 -10 3 -5 25 -10 48 -11 l42 -1 -43 -15 -42 -15 26 -49 c15
-27 31 -49 37 -49 5 0 34 7 64 16 30 9 56 14 59 12 8 -9 -37 -297 -56 -352
-25 -74 -25 -76 5 -76 19 0 25 5 25 23 0 39 83 298 92 284 4 -6 8 -78 8 -159
l0 -148 40 0 40 0 1 228 c1 125 1 235 0 244 -2 12 20 23 91 45 l93 29 9 57 c5
31 6 60 3 64 -4 4 -32 -1 -63 -11 -32 -10 -60 -14 -65 -9 -5 5 -12 29 -15 53
-5 38 5 76 65 256 74 218 80 244 58 244 -7 0 -36 -71 -71 -178 -84 -253 -75
-238 -97 -167 -25 80 -27 417 -4 545 8 47 15 86 15 87 0 1 33 20 74 43 69 38
75 43 81 80 4 22 4 44 1 49 -4 6 -30 2 -67 -11 -33 -11 -62 -19 -63 -17 -6 7
22 176 32 195 5 11 12 42 15 69 3 28 9 58 12 68 13 31 -21 19 -63 -23 -60 -61
-72 -55 -72 34 0 41 -4 77 -8 80 -12 7 -82 -126 -82 -155 0 -17 -10 -29 -36
-41 -47 -24 -64 -23 -65 5 -5 85 6 236 27 377 28 191 28 193 12 188 -16 -6
-25 -58 -32 -186 -6 -106 -26 -177 -48 -170 -7 3 -14 15 -16 29 -5 53 -76 389
-81 389 -23 -1 -30 -18 -21 -50 5 -19 33 -144 61 -278 64 -307 64 -304 -35
-360 -89 -51 -119 -53 -145 -12 -10 16 -20 28 -22 25 -3 -2 -33 24 -66 58
l-61 62 44 295 c51 347 47 310 31 310 -10 0 -24 -71 -51 -257 -20 -142 -41
-274 -46 -293 -9 -40 -9 -45 -19 350 -5 224 -7 245 -24 248 -17 3 -17 -11 -11
-287 5 -193 4 -291 -3 -291 -5 0 -18 9 -28 20 -10 11 -22 20 -27 20 -9 0 -88
79 -88 89 0 3 -18 23 -39 46 l-39 40 -7 187 c-4 104 -5 188 -2 188 3 0 17 -53
32 -117 77 -338 74 -331 101 -336 13 -2 24 -2 24 1 0 2 -22 102 -49 221 -72
316 -75 330 -68 338 9 8 167 -45 187 -63 9 -7 24 -13 35 -12 11 1 44 -6 73
-15 61 -19 69 -12 55 44 -8 29 -15 35 -64 49 -29 9 -63 21 -74 27 -11 6 -72
27 -135 46 l-115 36 113 1 c89 0 112 -3 112 -14 0 -8 7 -16 15 -20 10 -4 15 1
15 14 0 18 7 20 79 20 l78 0 -5 -49 c-4 -46 -3 -49 23 -55 21 -5 33 -2 49 13
30 28 33 27 40 -14 4 -21 13 -35 21 -35 17 0 18 10 5 65 -7 32 -6 43 7 57 26
29 46 21 102 -34 28 -29 67 -66 86 -81 l35 -29 0 24 c0 14 -13 37 -30 53 -19
18 -30 39 -30 56 l0 28 165 0 165 0 1 -57 c0 -50 2 -54 11 -32 6 14 10 40 9
58 -1 28 1 32 25 32 21 0 25 -4 19 -17 -3 -10 -12 -45 -19 -78 -7 -33 -18 -70
-25 -83 -11 -20 -10 -26 6 -37 16 -13 19 -11 31 16 6 16 13 29 15 29 2 0 2
-30 0 -67 -2 -48 0 -61 6 -43 5 14 9 42 10 63 2 70 21 28 21 -46 0 -70 1 -72
30 -85 16 -7 32 -13 36 -13 4 1 7 63 6 139 -1 141 5 147 28 28 8 -41 15 -55
22 -48 8 8 5 43 -11 119 -11 59 -21 111 -21 116 0 4 18 7 40 7 l39 0 3 -102
c2 -76 6 -103 17 -106 12 -4 13 13 8 102 -6 100 -6 106 13 106 10 0 22 -5 26
-11 3 -6 -2 -72 -12 -147 -11 -76 -20 -125 -22 -109 -2 15 -7 27 -12 27 -14 0
-23 -46 -18 -88 3 -20 2 -46 -2 -57 -5 -14 -10 -4 -15 38 -7 53 -19 77 -32 64
-2 -3 2 -37 10 -76 14 -71 14 -72 -7 -65 -90 26 -153 50 -162 61 -6 7 -18 11
-27 7 -11 -4 -17 5 -22 38 -14 92 -23 99 -46 36 -9 -24 -20 -43 -24 -43 -5 0
-21 59 -35 130 -15 72 -29 136 -33 142 -12 19 -67 24 -96 8 -27 -14 -29 -17
-27 -82 1 -37 7 -78 14 -90 17 -30 15 -53 -4 -53 -12 0 -15 6 -10 25 5 19 3
23 -9 19 -8 -4 -15 -12 -15 -20 0 -17 -1 -17 -34 -4 -18 6 -26 17 -26 33 0 13
-9 34 -20 47 l-20 23 0 -36 c0 -21 -4 -37 -8 -37 -5 0 -35 9 -68 20 -32 12
-70 23 -84 26 -14 3 -38 12 -54 20 -16 8 -33 14 -38 14 -10 0 -11 -402 -1
-647 6 -160 7 -172 26 -177 20 -5 20 -2 13 356 -7 346 -6 360 11 353 10 -3 38
-10 63 -14 25 -4 69 -18 98 -32 l52 -24 1 -145 c1 -131 2 -142 14 -115 9 20
14 69 15 143 0 108 1 112 21 112 12 0 37 -9 55 -21 l34 -21 0 -171 c0 -95 3
-189 6 -210 l7 -38 25 38 c34 49 51 139 50 254 -1 93 -1 94 22 91 33 -4 34 -6
17 -56 -10 -30 -13 -64 -10 -107 l6 -63 24 70 c13 38 28 84 34 102 8 27 13 31
25 21 10 -8 14 -34 13 -98 -1 -84 -1 -85 -14 -46 -13 40 -13 40 -20 12 -4 -15
-1 -58 6 -95 7 -37 12 -79 12 -93 -2 -22 2 -26 17 -22 23 6 27 28 34 171 2 57
7 106 10 109 3 4 17 -4 31 -17 23 -21 25 -31 25 -109 0 -73 -3 -88 -21 -108
-15 -15 -27 -51 -39 -113 -9 -49 -14 -90 -10 -90 3 0 17 11 30 25 48 51 48 47
52 -292 2 -175 7 -324 12 -332 15 -23 66 84 66 138 0 25 14 89 32 143 31 94
34 99 73 117 22 11 61 22 87 26 28 3 49 12 52 22 4 8 13 13 21 9 8 -3 15 -2
15 3 0 4 18 13 41 20 23 7 47 15 55 18 12 4 14 -28 14 -197 0 -131 3 -199 10
-195 6 4 10 83 10 206 0 109 4 199 9 199 4 0 14 -28 20 -62 7 -35 19 -85 28
-111 20 -61 20 -87 -1 -127 -9 -18 -16 -50 -16 -71 0 -53 -9 -69 -36 -69 -23
0 -24 -3 -24 -65 0 -51 -3 -65 -15 -65 -9 0 -15 -9 -15 -24 0 -14 -4 -27 -9
-30 -9 -6 -71 227 -71 269 0 14 -7 40 -16 56 -8 17 -18 61 -21 98 l-6 68 -31
-6 -31 -7 -2 -89 c-1 -85 -67 -643 -77 -652 -2 -3 -9 22 -15 54 -6 32 -15 72
-21 88 -5 17 -18 68 -30 115 -23 88 -39 130 -40 99 0 -9 -7 -22 -15 -29 -8 -7
-15 -22 -15 -34 0 -11 -7 -34 -16 -51 -13 -26 -14 -94 -10 -565 4 -294 3 -528
-1 -520 -4 8 -30 103 -58 210 -38 147 -54 196 -67 198 -15 3 -15 -1 -2 -50 16
-62 18 -104 4 -113 -5 -3 -10 -18 -11 -33 -1 -26 -1 -26 -15 7 -11 24 -18 31
-26 23 -7 -7 -4 -29 11 -74 18 -54 19 -72 11 -128 -12 -81 -12 -100 -1 -100 4
0 13 28 18 63 l10 62 2 -62 c0 -35 6 -63 11 -63 6 0 10 8 10 18 1 16 1 16 14
0 7 -10 19 -18 25 -18 13 0 11 12 -20 95 -19 51 -26 160 -10 169 4 3 24 -54
42 -127 l34 -132 45 -3 46 -3 18 143 c9 79 24 175 32 213 8 39 14 98 14 133 0
34 4 62 10 62 6 0 11 -79 13 -202 l2 -203 3 236 c2 227 3 237 22 242 16 4 22
-2 31 -36 5 -23 14 -58 20 -77 5 -19 9 -55 9 -79 0 -37 2 -42 15 -31 8 7 15
21 15 31 0 11 5 19 11 19 19 0 38 66 37 126 -2 74 8 104 33 104 17 0 19 -7 19
-69 0 -70 -13 -119 -54 -206 -74 -154 -105 -224 -117 -260 -7 -22 -21 -47 -31
-57 -10 -9 -18 -24 -18 -33 0 -9 -5 -25 -10 -36 -10 -17 -7 -19 28 -19 22 0
45 6 51 14 10 11 55 14 229 15 119 0 253 3 297 6 l80 5 -40 -20 -40 -19 32 -1
c18 0 53 5 78 12 39 11 48 10 56 -2 7 -12 11 -12 17 -2 7 10 15 10 36 2 44
-16 65 -11 24 7 -21 8 -38 18 -38 22 0 4 43 22 95 40 63 22 95 38 95 48 0 10
-6 13 -17 8 -10 -3 -65 -23 -122 -43 l-104 -36 -51 18 c-28 10 -69 27 -90 37
-22 11 -44 19 -49 19 -5 0 -23 6 -40 14 -18 7 -86 34 -152 59 l-120 46 93 1
c55 0 92 -4 92 -10 0 -16 37 -12 43 4 4 10 21 15 57 14 46 0 51 -2 47 -19 -7
-25 18 -25 40 1 16 19 30 20 195 20 l177 0 -1 30 -1 30 -196 1 c-108 0 -267 1
-353 0 -87 0 -158 1 -158 3 0 2 53 21 118 41 64 20 134 43 155 51 53 20 55 19
51 -33 l-3 -48 12 50 13 50 104 37 c116 41 160 45 213 23 43 -18 55 -19 40 -4
-6 6 -9 17 -7 24 3 7 1 16 -4 19 -6 3 -8 20 -6 36 l5 30 -120 0 -121 0 0 55 0
55 113 0 114 0 1 34 c1 26 -3 35 -18 39 -24 6 -17 37 8 37 13 0 13 2 -2 13
-13 10 -16 20 -12 35 4 12 11 20 16 17 5 -3 6 27 3 67 -3 40 -5 80 -5 89 0 14
-8 13 -64 -7 l-65 -24 -8 23 c-26 70 -27 67 33 67 30 0 65 -4 79 -9 22 -9 24
-7 24 25 0 37 6 34 -87 38 -55 3 -100 16 -100 31 0 19 26 26 110 32 85 6 105
13 39 14 l-44 0 43 18 c68 27 37 32 -34 5 -87 -33 -131 -32 -144 2 -6 14 -10
27 -10 30 0 2 52 4 115 4 70 0 115 4 115 10 0 6 -46 10 -119 10 l-118 0 -22
56 c-12 32 -20 58 -18 60 3 3 109 -38 231 -91 21 -9 40 -14 43 -12 2 3 -31 19
-74 37 -43 18 -96 40 -118 50 l-40 18 128 1 c116 1 128 3 125 19 -3 15 -19 18
-118 22 -131 6 -133 2 43 70 54 20 103 42 109 48 24 24 -6 32 -124 32 -110 0
-120 1 -113 18 4 9 12 29 17 45 5 15 13 27 18 27 4 0 53 -20 109 -44 55 -24
101 -41 101 -37 0 4 -38 23 -85 42 -100 40 -94 47 38 48 60 1 86 4 82 12 -5 7
-39 8 -105 4 -152 -11 -150 2 10 59 91 32 140 55 143 65 2 11 -21 29 -77 58
-88 45 -78 56 19 23 33 -11 63 -19 68 -17 5 1 15 19 22 40 l12 36 -34 12 c-19
6 -33 12 -31 14 2 2 47 14 101 26 l97 22 30 -28 c34 -32 41 -23 9 11 -20 22
-20 22 -1 28 16 5 20 16 21 56 l1 50 -78 0 c-69 0 -81 3 -100 23 l-22 23 98
30 97 30 98 -31 99 -30 -24 -23 c-20 -18 -36 -22 -85 -22 l-61 0 1 -69 c1 -61
3 -68 17 -59 11 7 45 4 115 -13 l99 -22 -44 -19 c-25 -11 -57 -22 -73 -25
l-27 -6 25 -23 c14 -13 25 -30 25 -40 0 -9 6 -14 13 -12 79 30 180 59 193 56
10 -2 -26 -23 -79 -48 -89 -42 -115 -60 -84 -60 6 0 79 -24 161 -54 101 -36
143 -56 130 -60 -10 -3 -76 -4 -146 -1 -79 3 -128 1 -128 -5 0 -6 47 -10 113
-11 161 -1 166 -7 42 -57 -85 -34 -109 -40 -130 -32 -25 9 -36 -2 -15 -15 8
-5 7 -11 -1 -21 -10 -12 -9 -13 4 -9 17 7 21 -4 32 -72 4 -24 3 -43 -2 -43 -5
0 -9 -9 -10 -20 -2 -19 6 -20 175 -22 l177 -3 -115 -48 c-63 -27 -136 -56
-162 -65 -54 -18 -62 -32 -20 -33 15 0 54 -11 87 -24 l60 -24 -79 0 c-111 -1
-91 -9 29 -12 107 -3 155 -13 155 -34 0 -21 -50 -30 -187 -34 l-51 -1 1 -112
c1 -65 6 -116 12 -120 7 -5 6 -8 -1 -8 -8 0 -10 -20 -7 -61 5 -58 4 -62 -14
-57 -25 7 -26 -20 -1 -28 24 -7 23 -24 -2 -24 -11 0 -20 -7 -20 -15 0 -13 23
-15 150 -15 l150 0 0 -55 0 -55 -157 -2 c-87 -1 -142 -3 -122 -5 32 -4 36 -7
37 -34 1 -27 -2 -29 -39 -29 -53 0 -50 -18 4 -22 l42 -3 -59 -28 c-88 -41 -61
-43 33 -2 48 20 98 35 119 34 21 0 84 -17 142 -37 l104 -37 13 -50 12 -50 -3
48 c-4 52 -2 53 51 33 21 -8 91 -31 156 -51 64 -20 117 -38 117 -40 0 -1 -181
-3 -402 -4 -365 -1 -404 -3 -415 -18 -31 -42 -25 -43 225 -43 225 0 238 -1
255 -20 22 -26 47 -26 40 -1 -4 17 1 19 47 19 36 1 53 -4 57 -14 6 -16 43 -20
43 -4 0 6 37 10 93 10 l92 -1 -120 -46 c-66 -25 -134 -52 -152 -59 -17 -8 -35
-14 -40 -14 -5 0 -27 -8 -49 -19 -21 -10 -62 -27 -90 -37 l-51 -18 -191 67
c-119 41 -194 62 -198 56 -3 -6 -4 -12 -3 -13 2 -1 79 -29 172 -62 92 -32 167
-62 167 -65 0 -4 -17 -14 -37 -22 -42 -18 -21 -23 23 -7 21 8 29 8 36 -2 6
-10 10 -10 17 2 8 12 17 13 56 2 25 -7 60 -12 78 -12 l32 1 -40 19 -40 20 80
-5 c44 -3 178 -6 297 -6 174 -1 219 -4 229 -15 6 -8 29 -14 51 -14 35 0 38 2
28 19 -5 11 -10 27 -10 36 0 9 -8 24 -18 33 -10 10 -24 35 -31 57 -12 36 -43
106 -117 260 -41 87 -54 136 -54 206 0 62 2 69 19 69 25 0 35 -30 33 -104 -1
-60 18 -126 37 -126 6 0 11 -8 11 -19 0 -10 7 -24 15 -31 13 -11 15 -6 15 31
0 24 4 60 9 79 6 19 15 54 20 77 9 34 15 40 31 36 19 -5 20 -15 22 -242 l3
-236 2 203 c2 123 7 202 13 202 6 0 10 -28 10 -62 0 -35 6 -94 14 -133 8 -38
23 -134 32 -213 l18 -143 46 3 45 3 34 132 c18 73 38 130 42 127 16 -9 9 -118
-10 -169 -31 -83 -33 -95 -20 -95 6 0 18 8 25 17 13 17 13 17 14 1 0 -10 5
-18 10 -18 6 0 11 28 11 63 l2 62 10 -63 c5 -34 14 -62 18 -62 11 0 11 19 -1
100 -8 56 -7 74 11 128 15 45 18 67 11 74 -8 8 -15 1 -26 -23 -14 -33 -14 -33
-15 -7 -1 15 -5 30 -11 33 -14 9 -12 51 4 113 13 49 13 53 -2 50 -13 -2 -29
-51 -67 -198 -28 -107 -54 -202 -58 -210 -4 -8 -5 226 -1 520 4 471 3 539 -10
565 -9 17 -16 40 -16 51 0 12 -7 27 -15 34 -8 7 -15 20 -15 29 -1 31 -17 -11
-40 -99 -12 -47 -25 -98 -30 -115 -6 -16 -15 -56 -21 -88 -6 -32 -13 -57 -15
-54 -10 9 -76 567 -77 652 l-2 89 -31 7 -31 6 -6 -68 c-3 -37 -13 -81 -21 -98
-9 -16 -16 -42 -16 -56 0 -42 -62 -275 -71 -269 -5 3 -9 16 -9 30 0 15 -6 24
-15 24 -12 0 -15 14 -15 65 0 62 -1 65 -24 65 -27 0 -36 16 -36 69 0 21 -7 53
-16 71 -21 40 -21 66 -1 127 9 26 21 76 28 111 6 34 16 62 20 62 5 0 9 -90 9
-199 0 -123 4 -202 10 -206 7 -4 10 64 10 195 0 169 2 201 14 197 8 -3 32 -11
55 -18 23 -7 41 -16 41 -20 0 -5 7 -6 15 -3 8 4 17 -1 21 -9 3 -10 24 -19 52
-22 26 -4 65 -15 87 -26 39 -18 42 -23 73 -117 18 -54 32 -118 32 -143 0 -54
51 -161 66 -138 5 8 10 157 12 332 4 339 4 343 52 292 13 -14 27 -25 30 -25 4
0 -1 41 -10 90 -12 62 -24 98 -39 113 -18 20 -21 35 -21 108 0 78 2 88 25 109
14 13 28 21 31 17 3 -3 8 -52 10 -109 7 -143 11 -165 34 -171 15 -4 19 0 17
22 0 14 5 56 12 93 7 37 10 80 6 95 -7 28 -7 28 -20 -12 -13 -39 -13 -38 -14
46 -1 64 3 90 13 98 12 10 17 6 25 -21 6 -18 21 -64 34 -102 l24 -70 6 63 c3
43 0 77 -10 107 -17 50 -16 52 17 56 23 3 23 2 22 -91 -1 -115 16 -205 50
-254 l25 -38 7 38 c3 21 6 115 6 210 l0 171 34 21 c18 12 43 21 55 21 20 0 21
-4 21 -112 1 -74 6 -123 15 -143 12 -27 13 -16 14 115 l1 145 53 24 c28 14 72
28 97 32 25 4 53 11 63 14 17 7 18 -7 11 -353 -7 -358 -7 -361 13 -356 19 5
20 17 26 177 10 245 9 647 -1 647 -5 0 -22 -6 -38 -14 -16 -8 -40 -17 -54 -20
-14 -3 -52 -14 -84 -26 -33 -11 -63 -20 -68 -20 -4 0 -8 16 -8 37 l0 36 -20
-23 c-11 -13 -20 -34 -20 -47 0 -16 -8 -27 -26 -33 -33 -13 -34 -13 -34 4 0 8
-7 16 -15 20 -12 4 -14 0 -9 -19 5 -19 2 -25 -10 -25 -19 0 -21 23 -4 53 7 12
13 53 14 90 2 65 0 68 -27 82 -29 16 -84 11 -96 -8 -4 -6 -18 -70 -33 -142
-14 -71 -30 -129 -35 -128 -5 1 -16 20 -24 42 -23 62 -32 54 -46 -37 -5 -33
-11 -42 -22 -38 -9 4 -21 0 -27 -7 -9 -11 -72 -35 -162 -61 -21 -7 -21 -6 -7
65 8 39 12 73 10 76 -13 13 -25 -11 -32 -64 -5 -42 -10 -52 -15 -38 -4 11 -5
37 -2 57 5 42 -4 88 -18 88 -5 0 -10 -12 -12 -27 -2 -16 -11 33 -22 109 -10
75 -15 141 -12 147 4 6 16 11 26 11 19 0 19 -6 13 -106 -5 -89 -4 -106 8 -102
11 3 15 30 17 106 l3 102 39 0 c22 0 40 -3 40 -7 0 -5 -10 -57 -21 -116 -16
-76 -19 -111 -11 -119 7 -7 14 7 22 48 23 119 29 113 28 -28 -1 -76 2 -138 6
-139 4 0 20 6 36 13 29 13 30 15 30 85 0 74 19 116 21 46 1 -21 5 -49 10 -63
6 -18 8 -5 6 43 -2 37 -2 67 0 67 2 0 9 -13 15 -29 12 -27 15 -29 31 -16 16
11 17 17 6 37 -7 13 -18 50 -25 83 -7 33 -16 68 -19 78 -6 13 -2 17 19 17 24
0 26 -4 25 -32 -1 -18 3 -44 9 -58 9 -22 11 -18 11 32 l1 57 165 0 165 0 0
-28 c0 -17 -11 -38 -30 -56 -17 -16 -30 -39 -30 -53 l0 -24 35 29 c19 15 58
52 86 81 56 55 76 63 102 34 13 -14 14 -25 7 -57 -13 -55 -12 -65 5 -65 8 0
17 14 21 35 7 41 10 42 40 14 16 -15 28 -18 49 -13 26 6 27 9 23 55 l-5 49 78
0 c72 0 79 -2 79 -20 0 -13 5 -18 15 -14 8 4 15 12 15 20 0 11 23 14 113 14
l112 -1 -115 -36 c-63 -19 -124 -40 -135 -46 -11 -6 -45 -18 -74 -27 -49 -14
-56 -20 -64 -49 -14 -56 -6 -63 55 -44 29 9 62 16 73 15 11 -1 26 5 35 12 20
18 178 71 187 63 7 -8 4 -22 -68 -338 -27 -119 -49 -219 -49 -221 0 -3 11 -3
24 -1 27 5 24 -2 101 336 15 64 29 117 32 117 3 0 2 -84 -2 -187 l-7 -188 -39
-40 c-21 -23 -39 -43 -39 -46 0 -10 -79 -89 -88 -89 -5 0 -17 -9 -27 -20 -10
-11 -23 -20 -28 -20 -7 0 -8 98 -3 291 6 276 6 290 -11 287 -17 -3 -19 -24
-24 -248 -10 -395 -10 -390 -19 -350 -5 19 -26 151 -46 293 -27 186 -41 257
-51 257 -16 0 -20 37 31 -310 l44 -295 -61 -62 c-33 -34 -63 -60 -66 -58 -2 3
-12 -9 -22 -25 -26 -41 -56 -39 -145 12 -99 56 -99 53 -35 360 28 134 56 259
61 278 9 32 2 49 -21 50 -5 0 -76 -336 -81 -389 -2 -14 -9 -26 -16 -29 -22 -7
-42 64 -48 170 -7 128 -16 180 -32 186 -16 5 -16 3 12 -188 21 -141 32 -292
27 -377 -1 -28 -18 -29 -65 -5 -26 12 -36 24 -36 41 0 29 -70 162 -82 155 -4
-3 -8 -39 -8 -80 0 -89 -12 -95 -72 -34 -42 42 -76 54 -63 23 3 -10 9 -40 12
-68 3 -27 10 -58 15 -69 10 -19 38 -188 32 -195 -1 -2 -30 6 -63 17 -37 13
-63 17 -67 11 -3 -5 -3 -27 1 -49 6 -37 12 -42 81 -80 41 -23 74 -42 74 -43 0
-1 7 -40 15 -87 23 -128 21 -465 -4 -545 -22 -71 -13 -86 -97 168 -35 106 -64
177 -71 177 -22 0 -16 -26 58 -244 60 -180 70 -218 65 -256 -3 -24 -10 -48
-15 -53 -5 -5 -33 -1 -65 9 -31 10 -59 15 -63 11 -3 -4 -2 -33 3 -64 l9 -57
93 -29 c71 -22 93 -33 91 -45 -1 -9 -1 -119 0 -244 l1 -228 40 0 40 0 0 148
c0 81 4 153 8 159 9 14 92 -245 92 -284 0 -18 6 -23 25 -23 30 0 30 2 5 76
-19 55 -64 343 -56 352 3 2 29 -3 59 -12 30 -9 59 -16 64 -16 6 0 22 22 37 49
l26 49 -42 15 -43 15 42 1 c23 1 45 5 48 11 4 6 -28 10 -87 10 -60 0 -100 5
-111 12 -11 9 -19 35 -23 83 -6 65 -3 78 36 185 100 277 110 308 102 331 -7
17 -22 -17 -77 -170 -38 -106 -72 -194 -75 -196 -30 -19 -18 330 16 489 13 60
26 111 28 113 2 3 31 -9 65 -26 54 -28 61 -34 66 -68 4 -21 11 -49 17 -63 58
-137 106 -349 133 -588 5 -48 4 -54 -15 -59 -11 -3 -20 -14 -20 -24 0 -11 -5
-19 -11 -19 -8 0 -8 -4 -2 -12 21 -27 20 -57 -1 -89 -39 -60 -46 -74 -36 -77
6 -2 10 -10 10 -18 0 -11 -63 -232 -96 -337 -5 -15 -1 -18 16 -15 20 3 29 24
71 162 61 201 54 185 80 179 22 -6 22 -7 17 -175 l-6 -168 24 0 24 0 0 154 c0
89 4 157 10 161 5 3 35 -5 67 -17 l57 -23 45 -138 c44 -131 47 -137 73 -137
l27 0 -40 117 c-21 64 -39 123 -39 130 0 7 -9 32 -19 56 -10 23 -53 148 -95
277 l-76 235 7 178 c4 124 3 177 -5 177 -6 0 -17 3 -26 6 -14 5 -16 -9 -17
-112 l-1 -119 -34 100 c-34 99 -62 230 -51 241 8 8 79 -30 101 -55 11 -12 24
-21 30 -21 5 0 27 -16 48 -37 30 -30 40 -34 52 -24 12 10 33 3 113 -37 54 -28
122 -60 152 -73 l54 -24 -7 -104 c-3 -57 -6 -164 -6 -238 0 -73 -4 -133 -8
-133 -4 0 -26 109 -47 242 -28 169 -44 243 -54 246 -16 5 -18 21 50 -397 27
-167 47 -307 44 -310 -3 -3 -51 10 -106 28 -55 18 -103 31 -105 28 -3 -3 -1
-13 5 -24 5 -10 19 -39 31 -65 20 -45 24 -48 101 -73 l80 -27 -7 -94 -7 -94
65 0 66 0 4 65 c2 35 7 67 11 71 3 3 70 -16 149 -44 124 -43 143 -53 142 -71
-1 -24 33 -30 54 -9 9 9 21 9 50 0 46 -14 409 -16 377 -2 -11 5 -35 9 -53 9
-19 1 -46 9 -60 20 -38 26 -117 50 -142 44 -13 -4 -29 2 -44 16 -14 13 -47 26
-87 33 -35 6 -73 18 -85 27 -11 9 -78 34 -147 56 -70 22 -127 45 -127 51 0 5
20 82 46 170 106 372 107 377 88 391 -15 11 -19 11 -25 1 -3 -7 -31 -105 -62
-218 -73 -267 -78 -278 -72 -165 3 50 8 183 11 297 l6 206 171 -85 c93 -47
179 -94 191 -104 11 -11 25 -18 31 -16 8 3 118 -45 133 -58 1 -1 -16 -51 -39
-111 -48 -123 -47 -123 -69 30 -10 73 -15 86 -31 86 -24 0 -24 -5 5 -170 l24
-135 -38 -100 c-35 -91 -37 -101 -22 -113 20 -15 25 -10 48 56 10 28 21 52 25
52 4 0 10 -27 14 -59 5 -44 13 -65 31 -82 30 -28 30 -26 4 119 l-21 112 52
143 c29 78 54 144 56 146 2 3 26 -6 53 -19 l51 -24 -7 -268 c-7 -257 -6 -269
12 -283 10 -8 24 -15 30 -15 7 0 13 83 18 262 4 145 9 264 11 266 1 2 135 -63
296 -145 l294 -148 45 -142 45 -143 57 0 c32 0 58 3 58 8 0 4 -14 49 -30 101
-16 52 -28 96 -26 98 2 3 36 -12 75 -31 39 -20 73 -36 76 -36 3 0 5 22 5 48
l0 48 -100 49 -100 49 -59 186 c-32 102 -141 441 -241 755 -100 314 -207 649
-237 745 -30 96 -59 182 -64 190 -5 9 -8 -14 -7 -60 1 -41 -2 -115 -6 -165
l-8 -90 112 -350 c134 -420 351 -1095 357 -1112 3 -7 0 -13 -5 -13 -6 0 -129
58 -273 130 -144 72 -271 130 -281 130 -10 0 -18 4 -18 8 0 5 -23 19 -50 32
-43 20 -49 27 -43 44 12 37 9 60 -9 64 -10 2 -18 -3 -18 -10 0 -8 -6 -22 -13
-32 -12 -17 -19 -15 -103 27 l-90 45 -12 79 c-8 50 -18 82 -29 90 -9 7 -18 11
-21 8 -2 -2 1 -34 7 -71 7 -36 9 -69 6 -72 -3 -3 -26 4 -50 16 -25 12 -54 22
-63 22 -10 0 -48 20 -84 43 -36 24 -80 50 -98 57 -29 12 -31 16 -25 47 3 19 6
103 6 186 0 84 3 168 8 188 5 23 39 75 91 138 46 56 84 100 86 99 10 -12 43
-275 38 -307 -4 -24 -2 -46 4 -54 11 -13 -13 -137 -27 -137 -4 0 -41 11 -81
25 -40 14 -77 25 -81 25 -4 0 -3 -13 2 -29 9 -25 21 -33 75 -51 35 -12 66 -25
68 -29 3 -4 -1 -29 -9 -56 -20 -64 -19 -82 4 -88 17 -4 22 5 37 59 18 69 37
80 78 49 11 -8 29 -15 39 -15 11 0 74 -19 140 -42 l119 -41 -4 -54 c-4 -45 -1
-56 17 -73 19 -18 23 -19 28 -6 4 9 13 16 22 16 12 0 15 -13 15 -65 0 -51 3
-65 15 -65 8 0 15 -4 15 -10 0 -5 7 -10 15 -10 13 0 15 23 15 148 l0 148 -33
12 c-18 7 -43 12 -54 12 -11 0 -80 34 -153 76 -72 42 -134 73 -137 71 -10 -10
7 -26 63 -57 30 -18 53 -34 51 -36 -2 -2 -38 8 -81 22 -76 26 -77 27 -75 58 1
17 -1 38 -4 46 -23 62 -20 80 99 504 36 125 64 230 62 231 -2 2 -17 -9 -34
-23 -26 -24 -36 -48 -78 -202 -73 -267 -77 -282 -80 -279 -1 2 1 87 6 189 11
235 11 272 7 345 -2 33 0 158 4 277 5 127 5 218 0 218 -5 0 -17 -18 -26 -39
-15 -32 -19 -83 -24 -276 l-6 -236 -79 -100 c-44 -55 -86 -115 -94 -134 -7
-19 -27 -42 -44 -52 -16 -9 -30 -25 -30 -35 0 -10 -7 -18 -15 -18 -8 0 -22
-17 -30 -37 -9 -21 -19 -40 -23 -43 -4 -3 -16 -22 -26 -43 -11 -22 -29 -40
-43 -43 -13 -4 -23 -9 -23 -13 0 -3 -15 -24 -33 -45 -29 -33 -37 -38 -61 -32
-15 4 -31 17 -36 31 -10 27 -30 34 -30 10 0 -20 -1 -20 -115 19 l-100 33 3
149 3 149 66 65 66 65 9 -30 c5 -16 10 -81 12 -143 1 -70 6 -116 13 -120 6 -4
16 -33 23 -64 8 -40 16 -58 27 -58 9 0 13 6 10 15 -4 8 -9 47 -12 87 -5 57 -2
93 15 163 12 50 32 139 46 200 24 109 25 110 81 167 32 32 61 58 64 58 4 0 5
-120 2 -267 l-6 -268 22 19 c11 11 21 26 21 35 0 9 14 29 30 45 17 16 30 35
30 42 0 6 6 14 14 17 19 8 25 84 26 322 0 213 10 479 17 472 10 -11 30 -163
22 -171 -5 -6 -9 -23 -9 -39 0 -21 4 -28 14 -24 15 6 29 -55 61 -273 21 -135
22 -138 41 -119 13 13 11 36 -16 195 -17 98 -35 208 -40 244 -4 36 -22 141
-39 234 -17 93 -30 171 -28 172 11 10 148 44 179 44 l41 0 -5 -121 -5 -121
-60 -61 c-44 -46 -58 -68 -55 -84 2 -13 7 -23 12 -23 5 0 36 26 69 58 32 31
67 63 76 71 12 10 16 27 14 70 -2 31 -2 91 -1 134 l2 77 97 0 98 0 -83 -83
c-62 -63 -82 -89 -82 -110 0 -15 3 -27 6 -27 4 0 43 34 86 76 44 42 83 72 88
68 4 -5 20 -47 35 -93 l27 -83 -38 -142 -38 -141 -82 -106 c-120 -155 -114
-143 -101 -216 7 -34 15 -64 19 -65 4 -2 19 13 33 32 14 19 48 55 74 80 27 25
51 53 53 62 4 20 155 208 167 208 5 0 15 -22 22 -49 12 -43 12 -129 -2 -593
-14 -485 -14 -544 0 -556 8 -6 22 -12 31 -12 14 0 17 47 29 448 7 246 15 492
17 547 3 55 6 157 7 227 l3 127 34 46 c19 25 38 44 43 42 4 -1 44 -83 89 -182
224 -501 661 -1461 669 -1469 5 -6 9 49 9 135 0 80 -4 149 -9 155 -5 5 -49 97
-99 204 -49 107 -132 285 -183 395 -51 110 -92 210 -91 223 1 12 12 40 24 61
19 33 20 41 9 55 -8 9 -21 14 -28 11 -11 -4 -14 2 -11 23 2 21 -1 27 -17 27
-16 0 -21 -8 -25 -45 -5 -42 -6 -43 -17 -20 -94 200 -172 374 -170 377 2 2 48
-42 101 -97 88 -93 96 -104 96 -140 0 -33 3 -40 20 -40 12 0 20 7 20 17 0 14
2 14 21 -3 13 -11 18 -26 15 -39 -6 -24 35 -58 42 -35 3 7 70 -53 153 -136
l149 -149 0 217 0 217 -60 57 c-43 41 -60 64 -60 83 0 14 -5 33 -10 41 -9 13
-11 13 -20 0 -8 -12 -25 0 -90 65 -44 44 -80 84 -80 89 0 14 162 0 204 -18 20
-8 36 -18 36 -21 0 -4 -10 -20 -21 -37 -13 -18 -18 -33 -12 -37 5 -3 14 -14
20 -25 9 -16 14 -12 41 33 18 28 36 51 42 51 6 0 10 29 10 68 0 42 -4 62 -9
53 -7 -11 -25 -7 -95 19 -78 30 -89 37 -107 71 -35 69 -33 70 94 68 l112 -2 3
184 2 184 -1312 -3 c-722 -2 -1407 -1 -1523 3 l-210 7 1 42 c1 22 5 174 8 336
4 163 11 437 16 610 5 173 14 567 20 875 6 308 14 644 18 748 6 147 4 187 -5
187 -9 0 -13 -23 -13 -82 0 -46 -4 -222 -10 -393 -5 -170 -14 -499 -20 -730
-6 -231 -18 -647 -25 -924 -8 -277 -15 -542 -15 -588 l0 -83 -80 0 -79 0 0
118 c0 64 7 414 15 777 19 896 35 1898 29 1904 -3 2 -8 2 -11 -1 -3 -4 -10
-206 -15 -450 -5 -243 -18 -855 -29 -1358 -11 -503 -20 -932 -20 -952 l0 -38
-81 0 -80 0 1 183 c1 100 8 522 15 937 26 1419 28 1680 17 1680 -14 0 -20
-200 -37 -1365 -9 -561 -17 -1063 -20 -1115 -2 -52 -4 -146 -4 -207 l-1 -113
-110 0 c-102 0 -110 1 -110 19 0 11 -4 23 -10 26 -6 4 -10 -5 -10 -19 0 -23
-4 -26 -37 -26 -20 0 -78 7 -127 15 -324 54 -333 55 -531 55 -198 0 -207 -1
-531 -55 -49 -8 -107 -15 -127 -15 -33 0 -37 3 -37 26 0 14 -4 23 -10 19 -5
-3 -10 -15 -10 -26 0 -18 -8 -19 -110 -19 l-110 0 -1 113 c0 61 -2 155 -4 207
-3 52 -11 554 -20 1115 -18 1191 -23 1365 -39 1365 -8 0 -9 -97 -4 -377 19
-1060 29 -1637 34 -2010 l6 -413 -81 0 -81 0 0 48 c0 26 -9 447 -20 937 -10
490 -22 1034 -25 1210 -7 429 -15 605 -27 605 -10 0 -7 -282 18 -1440 8 -388
17 -852 19 -1032 l5 -328 -80 0 -80 0 0 83 c0 45 -7 312 -15 592 -8 281 -19
697 -25 925 -6 228 -15 557 -20 730 -6 173 -10 350 -10 393 0 55 -4 77 -12 77
-10 0 -12 -40 -6 -187z m938 -3372 l0 -119 -30 -11 c-28 -9 -32 -8 -42 17 -18
44 -19 54 -8 122 15 88 18 98 38 103 42 11 42 11 42 -112z m991 97 c9 -15 30
-150 25 -168 -1 -8 -8 -27 -14 -42 -10 -25 -14 -26 -42 -17 l-30 11 0 120 0
120 27 -7 c15 -3 31 -11 34 -17z m-1233 -179 l-3 -122 -45 -13 c-24 -7 -46
-12 -47 -10 -3 3 21 168 33 228 5 25 18 34 52 37 10 1 12 -26 10 -120z m1470
106 c5 -5 43 -247 39 -251 -1 -2 -23 3 -47 10 l-45 13 -3 123 -3 122 28 -7
c15 -3 29 -8 31 -10z m-1788 -462 l0 -88 -50 -27 c-28 -16 -53 -28 -56 -28 -3
0 -4 44 -2 97 l3 97 45 18 c25 9 48 17 53 17 4 1 7 -38 7 -86z m2126 62 l31
-13 2 -96 c1 -53 0 -96 -3 -96 -4 0 -28 12 -56 28 l-50 27 0 88 c0 99 -5 95
76 62z m-2383 -77 c2 -7 -7 -42 -20 -78 -14 -36 -29 -84 -35 -108 -8 -36 -44
-79 -56 -68 -2 2 4 57 14 123 16 110 30 146 45 122 4 -7 9 -4 12 5 8 19 33 21
40 4z m2604 -4 c3 -9 8 -12 12 -5 15 24 29 -12 45 -122 10 -66 16 -121 14
-123 -12 -11 -48 32 -56 68 -6 24 -21 72 -35 108 -13 36 -22 71 -20 78 7 17
32 15 40 -4z m-2101 -354 c-3 -59 -2 -87 4 -75 5 13 9 -29 9 -117 1 -131 -9
-188 -31 -188 -6 0 -8 47 -6 108 2 59 0 184 -4 277 l-8 170 21 -40 c17 -34 19
-53 15 -135z m1586 -59 c-5 -91 -7 -201 -5 -243 5 -80 -4 -99 -25 -53 -8 16
-12 79 -11 163 0 90 4 130 9 117 6 -13 7 13 3 67 -5 73 -2 96 13 135 l19 48 3
-34 c2 -18 -1 -108 -6 -200z m-392 -25 c197 -75 195 -71 31 -74 -80 -1 -148 1
-152 5 -4 4 -12 32 -17 61 -12 66 -12 66 138 8z m240 -120 c0 -2 -10 -29 -21
-60 l-22 -56 -113 0 c-63 0 -114 2 -114 5 0 4 34 20 180 81 76 33 90 37 90 30z
m-1778 -159 c12 -42 18 -81 14 -100 -3 -18 -10 -61 -16 -97 -5 -36 -14 -74
-20 -85 -5 -11 -11 -56 -13 -100 -2 -44 -3 57 -4 225 -1 212 2 293 9 265 5
-22 18 -71 30 -108z m2286 -159 c-1 -167 -3 -267 -5 -223 -2 44 -8 89 -13 100
-6 11 -15 49 -20 85 -6 36 -13 79 -16 97 -4 20 2 56 14 95 11 35 23 82 27 106
4 23 9 42 11 42 2 0 3 -136 2 -302z m-2403 -335 c-2 -7 -13 -13 -24 -13 -40 0
-43 56 -15 285 13 116 28 221 32 235 4 14 8 -92 10 -235 1 -143 0 -265 -3
-272z m2519 277 c29 -240 25 -294 -17 -288 -22 3 -22 4 -24 273 -1 159 2 262
7 250 5 -11 20 -117 34 -235z m-2650 -60 c15 -63 32 -132 38 -152 9 -30 8 -44
-6 -73 -10 -20 -27 -40 -39 -44 -21 -8 -22 -6 -28 83 -10 136 -10 333 0 316 5
-8 20 -67 35 -130z m2781 -117 c-7 -160 -7 -162 -29 -154 -11 5 -30 24 -40 44
-16 31 -18 43 -8 74 6 21 21 81 33 133 12 52 27 111 33 130 l11 35 3 -50 c2
-27 1 -123 -3 -212z m-2299 -179 c68 -28 129 -54 144 -63 8 -4 35 -14 61 -21
30 -9 49 -21 56 -37 l11 -23 -96 1 c-61 1 -100 5 -104 13 -6 8 -8 8 -8 -1 0
-10 -27 -13 -100 -13 -55 0 -100 2 -100 5 0 3 14 34 30 68 17 35 30 69 30 75
0 17 31 15 76 -4z m1854 4 c0 -6 14 -40 30 -75 17 -34 30 -65 30 -68 0 -3 -45
-5 -100 -5 -73 0 -100 3 -100 13 0 9 -2 9 -8 1 -4 -8 -43 -12 -104 -13 l-96
-1 11 23 c7 16 26 28 56 37 26 7 53 17 61 21 8 5 40 19 70 32 30 13 66 28 80
34 33 15 70 16 70 1z m-1588 -181 c7 -8 22 -12 33 -10 11 2 -2 -5 -30 -16 -64
-25 -85 -26 -86 -3 -1 11 -3 8 -8 -8 -5 -17 -17 -27 -41 -34 -19 -5 -107 -33
-195 -62 -87 -29 -161 -51 -164 -49 -2 3 13 45 34 95 l38 90 186 3 c102 1 194
3 203 5 10 1 23 -4 30 -11z m1493 3 l172 0 38 -90 c21 -50 36 -92 34 -95 -3
-2 -77 20 -164 49 -88 29 -176 57 -195 62 -24 7 -36 17 -41 34 -5 16 -7 19 -8
8 -1 -23 -22 -22 -86 3 -27 11 -41 18 -30 16 11 -2 27 3 34 10 9 10 24 13 44
9 16 -3 107 -6 202 -6z m-1846 -333 c8 -7 17 -11 20 -9 7 3 120 -37 136 -48 6
-4 22 -10 38 -14 15 -3 27 -11 27 -17 0 -6 4 -8 9 -5 9 6 81 -20 81 -29 0 -3
-55 -5 -122 -5 -68 0 -196 -2 -285 -5 -119 -5 -163 -3 -163 5 0 15 58 148 77
176 l14 22 77 -30 c42 -16 83 -35 91 -41z m2165 -12 c20 -41 38 -86 42 -101
l6 -25 -163 6 c-90 3 -219 5 -286 5 -68 0 -123 2 -123 5 0 9 72 35 81 29 5 -3
9 -1 9 5 0 6 12 14 28 17 15 4 32 10 37 14 8 6 130 52 145 56 3 0 22 9 43 18
69 30 132 53 139 49 4 -2 23 -37 42 -78z"/>
</g>
</svg>
