<?xml version="1.0" standalone="no"?>
<!DOCTYPE svg PUBLIC "-//W3C//DTD SVG 20010904//EN"
 "http://www.w3.org/TR/2001/REC-SVG-20010904/DTD/svg10.dtd">
<svg version="1.0" xmlns="http://www.w3.org/2000/svg"
 width="452.000000pt" height="600.000000pt" viewBox="0 0 452.000000 600.000000"
 preserveAspectRatio="xMidYMid meet">
<metadata>
Created by potrace 1.11, written by Peter Selinger 2001-2013
</metadata>
<g transform="translate(0.000000,600.000000) scale(0.100000,-0.100000)"
fill="#000000" stroke="none">
<path d="M2 5338 c2 -522 6 -663 16 -664 6 -1 17 -2 22 -3 6 0 23 -14 39 -30
22 -22 37 -28 69 -28 31 0 42 4 42 15 0 13 3 13 18 -1 23 -21 42 -22 42 -3 0
8 9 18 20 21 43 14 5 26 -73 25 -110 -3 -116 -2 -95 10 10 7 14 17 10 32 -3
14 -2 19 7 14 6 -4 9 -11 7 -15 -3 -4 -1 -13 5 -21 7 -12 9 -11 10 5 1 11 0
24 -1 30 -1 5 2 6 7 2 4 -5 8 -16 8 -25 0 -14 11 -17 60 -17 l60 0 0 60 0 60
-60 0 -60 0 1 -32 c0 -17 -4 -30 -8 -27 -4 3 -8 18 -8 33 0 25 -4 28 -36 29
-56 2 -84 35 -33 38 10 1 23 2 27 3 4 0 7 19 5 40 -1 30 2 40 15 43 15 3 141
3 186 -1 11 -1 14 -11 12 -36 -4 -36 6 -50 37 -50 9 0 17 -3 17 -7 0 -5 0 -12
0 -18 0 -5 -9 -10 -20 -10 -31 0 -40 -38 -28 -122 3 -21 1 -38 -3 -38 -5 0 -9
14 -9 31 0 16 -4 28 -8 25 -5 -3 -8 -21 -7 -40 2 -25 -2 -36 -11 -36 -8 0 -14
-7 -14 -16 0 -14 2 -15 17 -3 11 10 14 10 9 2 -4 -9 -1 -13 9 -13 11 0 15 5
11 15 -3 8 -1 15 4 15 6 0 10 -8 10 -18 0 -17 10 -19 105 -20 101 -2 106 -1
115 21 8 20 15 9 11 -16 -2 -11 119 -6 143 6 10 5 21 5 25 0 3 -4 78 -8 166
-8 l159 0 1 32 c1 29 15 62 15 35 0 -6 6 -9 14 -6 7 3 20 -2 29 -10 9 -9 21
-16 28 -16 17 0 0 -18 -32 -34 -42 -21 -24 -32 45 -27 12 1 14 92 12 584 -2
598 3 750 17 562 5 -55 10 -185 12 -290 3 -104 7 -242 9 -305 2 -63 7 -195 10
-294 4 -98 8 -181 9 -185 2 -3 3 -20 2 -38 -3 -40 28 -52 50 -20 20 29 19 47
-4 47 -11 0 -22 4 -25 9 -9 14 21 45 46 46 13 1 29 5 36 9 7 4 20 0 29 -9 14
-15 17 -15 24 -2 7 11 18 13 53 6 39 -7 56 -4 123 23 43 17 84 35 91 41 6 5
12 5 12 1 0 -8 64 -42 95 -50 6 -2 28 -10 50 -18 22 -8 51 -15 65 -16 21 0 22
-2 9 -10 -9 -5 -16 -20 -15 -32 1 -29 -12 -28 386 -32 219 -1 330 1 339 8 10
8 15 8 18 -1 3 -7 20 -10 49 -6 44 4 46 4 39 -19 -17 -53 -35 -89 -44 -84 -5
4 -7 -4 -3 -16 5 -20 3 -21 -10 -10 -13 10 -18 8 -32 -13 -14 -22 -15 -25 -1
-25 20 0 19 -9 -3 -43 -10 -15 -22 -24 -27 -20 -4 5 -5 2 -1 -4 9 -16 -41
-104 -275 -483 -49 -80 -92 -152 -96 -160 -4 -8 -9 -17 -12 -20 -4 -3 -56 -87
-116 -188 -61 -101 -117 -191 -126 -200 -8 -9 -17 -21 -18 -27 -10 -29 -25
-55 -33 -55 -4 0 -8 -5 -8 -11 0 -11 -238 -410 -251 -419 -3 -3 -9 -15 -13
-27 -4 -13 -11 -23 -15 -23 -5 0 -14 -14 -21 -31 -12 -27 -17 -30 -44 -26 -44
7 -59 12 -74 21 -7 4 -19 3 -27 -4 -10 -8 -54 -11 -137 -9 -94 3 -128 0 -145
-11 -29 -19 -37 -39 -15 -39 9 0 78 -1 152 -2 74 -1 140 0 145 1 6 1 12 1 15
0 3 -1 19 -3 35 -5 17 -1 33 -3 38 -4 12 -2 8 -16 -11 -37 -10 -10 -18 -23
-19 -29 -1 -13 -19 -21 -78 -34 -62 -14 -395 -14 -395 0 0 6 -5 7 -11 3 -8 -5
-8 -8 0 -13 7 -5 4 -15 -10 -30 -12 -12 -19 -24 -17 -26 2 -2 101 -5 221 -6
119 -1 217 -3 217 -6 0 -17 -55 -93 -67 -93 -9 0 -12 -6 -9 -17 10 -31 -8 -45
-45 -38 -38 8 -414 15 -441 8 -9 -2 -27 -18 -41 -36 l-24 -32 242 0 c134 0
241 3 238 8 -2 4 3 7 11 7 13 0 14 -4 4 -27 -7 -16 -26 -49 -43 -75 -16 -25
-41 -64 -54 -86 -13 -22 -31 -42 -40 -44 -31 -8 -51 3 -51 28 0 21 -5 24 -37
24 -403 4 -406 4 -424 -21 -10 -13 -25 -32 -33 -41 -9 -10 -16 -21 -16 -24 0
-3 114 -5 253 -5 279 1 287 1 287 -10 0 -7 -136 -229 -148 -241 -4 -4 -26 -4
-50 -1 -36 5 -42 9 -37 24 5 15 1 19 -17 19 -229 -2 -384 3 -396 12 -9 8 -16
8 -20 2 -4 -6 -18 -11 -31 -11 -32 -3 -134 -103 -105 -104 40 -2 86 -8 100
-13 8 -3 14 -2 14 2 0 4 30 6 67 4 38 -1 138 -3 223 -5 l155 -2 -3 23 c-3 19
1 22 31 22 18 0 36 -3 40 -6 9 -10 -4 -34 -15 -28 -6 4 -8 1 -6 -7 3 -8 -8
-33 -23 -56 -16 -23 -29 -46 -29 -52 0 -6 -4 -11 -10 -11 -5 0 -10 -5 -10 -11
0 -6 -17 -36 -37 -66 -31 -47 -38 -53 -48 -40 -8 11 -16 13 -26 6 -12 -7 -11
-9 3 -9 36 0 30 -40 -14 -93 -18 -22 -34 -29 -77 -33 -53 -6 -54 -6 -49 20 6
31 -5 35 -81 34 -34 -1 -56 3 -59 10 -2 7 -8 12 -13 12 -6 0 -8 -4 -5 -8 2 -4
-4 -9 -15 -9 -10 -1 -19 3 -19 8 0 6 5 7 10 4 6 -3 10 -1 10 6 0 7 -9 9 -22 6
-12 -4 -28 -1 -35 5 -9 7 -13 7 -13 -1 0 -6 5 -11 10 -11 6 0 10 -4 10 -9 0
-4 -75 -8 -166 -7 l-166 1 -34 -37 c-25 -28 -34 -47 -34 -73 0 -34 13 -47 23
-22 4 9 8 9 14 0 5 -7 46 -11 118 -11 61 1 144 0 185 0 139 -2 179 4 203 27
27 25 47 27 47 6 0 -9 -9 -15 -25 -15 -42 0 -28 -15 16 -16 22 -1 37 2 32 5
-22 17 -11 31 25 31 21 0 43 5 50 12 31 31 -3 -44 -73 -159 -41 -68 -75 -128
-75 -134 0 -5 -4 -9 -10 -9 -5 0 -12 -11 -16 -25 -3 -14 -9 -25 -13 -25 -4 0
-12 -12 -19 -27 -13 -30 -44 -85 -52 -93 -3 -3 -11 -17 -19 -32 -8 -16 -25
-30 -42 -33 -31 -7 -111 14 -103 26 3 5 0 9 -5 9 -6 0 -11 -3 -11 -8 0 -4 -13
-8 -30 -8 -44 -2 -37 15 10 22 24 4 42 13 45 23 12 37 3 40 -157 43 -49 1 -88
5 -88 9 0 5 -7 6 -15 3 -10 -4 -15 -20 -15 -45 0 -38 1 -39 35 -39 33 0 34 -1
23 -21 -9 -13 -20 -19 -35 -16 -21 4 -23 0 -23 -40 0 -24 4 -42 9 -39 16 10
85 19 148 20 35 0 63 4 63 8 0 5 -9 8 -19 8 -11 0 -23 5 -26 10 -4 6 -3 10 2
9 4 -1 16 1 26 5 9 5 25 5 35 1 9 -4 39 -9 66 -11 27 -2 51 -5 53 -8 3 -2 -6
-24 -20 -48 -57 -102 -68 -121 -86 -146 -25 -37 -52 -81 -72 -117 -9 -16 -37
-64 -62 -106 -26 -42 -47 -81 -47 -88 0 -6 -3 -11 -7 -11 -5 0 -21 -23 -36
-50 -21 -37 -27 -61 -25 -92 l3 -42 48 1 c26 1 53 2 60 2 8 1 20 13 28 28 8
15 37 66 64 113 28 47 57 99 65 115 8 17 18 32 21 35 4 3 17 25 29 50 12 25
30 56 40 70 10 14 39 66 65 115 63 120 103 182 120 189 8 3 12 12 9 20 -5 13
17 58 73 151 7 11 16 27 20 35 4 8 42 77 85 153 43 75 78 140 78 143 0 3 13
25 29 48 16 23 44 71 62 107 18 35 47 88 66 117 18 29 33 55 33 58 0 3 8 18
19 32 10 15 31 51 46 79 15 29 33 53 41 53 10 0 13 8 10 25 -3 14 -1 25 4 25
5 0 12 10 16 22 8 25 45 81 57 86 4 2 4 8 1 14 -3 5 3 18 15 29 12 11 21 27
21 35 0 8 5 12 10 9 6 -3 10 1 10 10 0 9 12 18 30 22 30 5 30 6 10 20 -14 10
-17 18 -10 26 6 7 25 35 42 62 18 28 37 53 43 57 6 5 6 8 0 8 -7 0 -7 3 0 8 6
4 19 23 29 42 11 19 32 57 47 85 15 27 25 54 22 60 -4 5 -3 7 2 3 7 -7 97 140
195 317 15 28 48 85 74 128 25 43 46 81 46 83 0 2 18 34 40 70 22 36 40 68 40
71 0 3 38 71 84 152 46 80 99 173 117 206 18 33 35 62 38 65 3 3 21 34 40 70
19 36 59 108 89 160 31 52 68 118 82 145 15 28 56 100 90 160 80 138 108 190
217 394 89 168 118 202 147 170 7 -8 30 -59 50 -114 46 -120 143 -368 161
-410 7 -16 32 -79 55 -140 24 -60 51 -128 61 -150 9 -22 42 -103 73 -180 30
-77 78 -196 107 -265 28 -69 62 -150 74 -180 12 -30 55 -134 95 -230 39 -96
73 -180 74 -187 1 -7 5 -16 9 -19 16 -16 6 -33 -15 -28 -13 3 -58 5 -100 5
-43 0 -78 4 -78 9 0 8 -37 6 -87 -5 -12 -3 -27 -14 -33 -24 -8 -16 -7 -18 12
-13 13 3 19 1 15 -5 -5 -7 9 -10 41 -7 26 2 56 4 67 4 l20 1 -20 9 c-18 8 -17
9 8 9 15 1 27 -2 27 -7 0 -4 14 -8 30 -8 34 -2 60 -19 60 -40 0 -8 4 -14 10
-14 5 0 7 6 5 13 -8 20 11 39 36 35 24 -3 53 -43 64 -90 l7 -27 -129 3 c-131
3 -176 0 -168 -14 2 -4 -5 -16 -15 -28 -26 -28 -25 -31 10 -26 17 2 44 6 61 8
31 5 53 16 31 16 -7 0 -12 4 -12 9 0 15 129 10 145 -6 10 -10 15 -10 15 -3 0
8 8 10 23 6 12 -4 30 -9 40 -11 27 -6 37 -15 37 -34 0 -10 3 -21 7 -25 8 -8
43 -96 43 -108 0 -13 -61 -40 -76 -34 -8 3 -14 2 -14 -3 0 -5 -13 -11 -29 -13
-17 -2 -28 -1 -25 3 2 4 -15 6 -38 4 -42 -3 -88 11 -88 27 0 5 -4 7 -9 4 -5
-3 -12 4 -15 17 -6 20 -7 20 -16 5 -6 -10 -17 -15 -26 -11 -13 5 -13 7 -2 14
7 5 9 9 3 9 -13 0 -37 -16 -36 -24 3 -21 -3 -23 -43 -11 -24 8 -46 11 -49 9
-2 -3 -33 -7 -68 -9 -200 -14 -208 -14 -203 -2 3 8 -5 13 -18 14 -16 2 -19 0
-10 -6 10 -6 8 -10 -7 -14 -13 -3 -19 -1 -14 5 4 7 1 8 -8 2 -8 -4 -46 -8 -85
-9 -60 0 -71 2 -67 15 4 12 2 11 -6 -1 -8 -12 -23 -16 -53 -14 -24 2 -45 4
-48 5 -10 4 -56 -2 -71 -11 -9 -4 -20 -5 -24 -1 -3 4 -91 8 -193 8 -103 1
-220 3 -260 4 -40 1 -76 0 -79 -3 -3 -4 -13 4 -23 15 -16 21 -18 21 -34 5 -16
-16 -16 -17 4 -17 12 0 18 -4 15 -11 -4 -5 -17 -9 -28 -8 -37 2 -45 0 -51 -17
-5 -13 -3 -14 7 -6 18 15 56 11 50 -5 -6 -16 20 -22 137 -31 145 -11 630 -9
630 3 0 5 -17 11 -37 12 -48 3 -65 7 -80 16 -15 9 -83 6 -83 -4 0 -14 -109 -6
-114 8 -3 8 2 13 12 13 337 6 404 4 414 -7 11 -14 7 -16 -44 -27 -16 -4 -28
-10 -28 -14 0 -10 335 -9 365 1 22 7 130 20 158 19 9 -1 15 3 12 9 -8 12 0 11
66 -2 63 -12 269 -19 284 -9 22 15 63 19 73 7 11 -13 62 -135 62 -148 0 -19
-61 -39 -163 -55 -15 -2 -36 -8 -47 -14 -11 -6 -31 -8 -45 -4 -14 3 -31 2 -38
-4 -16 -13 -57 -9 -67 8 -19 31 -151 43 -292 25 -92 -12 -168 -13 -168 -2 0 5
-8 6 -17 2 -19 -8 -249 -14 -270 -7 -7 2 -10 8 -7 13 5 9 -22 2 -41 -11 -5 -3
-30 -5 -55 -3 -25 1 -90 2 -145 2 -116 0 -200 2 -235 5 -14 1 -36 -1 -50 -4
-14 -4 -41 -3 -60 2 -19 4 -75 11 -125 14 -49 3 -101 7 -115 8 -14 1 -30 5
-37 9 -7 5 -9 1 -6 -13 5 -21 -12 -29 -19 -9 -2 6 -36 17 -76 24 -52 9 -72 9
-69 1 2 -6 10 -11 17 -11 7 0 15 -6 18 -13 3 -9 -4 -11 -25 -7 l-28 6 25 -15
c25 -15 24 -16 -25 -21 -11 -1 -28 -2 -37 -3 -31 -3 -19 -17 15 -18 17 0 57
-3 87 -7 103 -14 109 -14 105 -6 -3 4 -19 10 -35 14 -29 6 -43 34 -17 36 6 0
3 4 -8 9 -11 5 -15 9 -8 9 19 1 63 -21 63 -33 0 -6 4 -6 12 2 16 16 41 -17 26
-35 -7 -9 -3 -12 19 -11 15 1 42 -2 58 -6 24 -6 349 -19 405 -16 8 0 33 0 55
-1 22 0 110 0 195 0 85 1 161 1 168 1 6 0 19 0 27 0 50 0 78 0 145 0 73 -1 98
-1 170 -2 44 0 164 10 208 18 25 5 30 9 22 19 -6 8 -23 12 -38 10 -15 -2 -21
-2 -14 1 6 3 9 10 6 16 -12 20 88 -3 147 -33 45 -22 59 -26 68 -16 6 8 30 13
58 12 26 -1 52 1 57 4 11 5 25 7 122 17 57 5 71 10 70 23 -1 20 34 21 45 1 9
-16 100 -227 104 -240 1 -3 9 -22 18 -44 9 -21 15 -41 12 -45 -8 -14 -90 -11
-117 3 -20 11 -28 12 -28 3 0 -15 -108 -21 -125 -7 -6 5 -20 9 -30 9 -32 0
-97 10 -103 16 -3 3 0 11 8 18 10 10 11 9 5 -3 -6 -12 -5 -13 6 -2 7 6 24 12
38 12 13 0 22 3 18 6 -10 10 -67 12 -72 3 -3 -4 -12 -6 -20 -2 -11 4 -15 -2
-15 -21 0 -14 -5 -26 -10 -26 -6 0 -8 11 -4 27 5 22 4 26 -6 16 -7 -6 -20 -9
-29 -6 -11 5 -10 -1 7 -19 12 -13 22 -27 22 -31 0 -14 -163 5 -184 22 -12 10
-144 8 -246 -5 -25 -3 -54 -5 -65 -5 -55 3 -428 10 -557 11 -82 1 -151 6 -154
11 -4 6 -10 6 -18 -1 -7 -5 -35 -8 -62 -5 -46 4 -113 6 -159 4 -37 -2 -161 8
-171 12 -5 3 -20 4 -34 3 -14 -1 -42 3 -63 8 -33 10 -40 9 -57 -10 -26 -27
-26 -41 -1 -18 15 14 24 15 40 6 l21 -11 -20 -21 c-11 -12 -20 -32 -20 -45 0
-23 9 -26 65 -25 11 0 45 -4 75 -9 30 -5 109 -12 175 -14 66 -3 132 -7 148 -9
15 -2 30 1 33 6 3 4 10 5 17 1 6 -4 99 -6 207 -5 107 1 215 2 240 1 25 -1 99
-1 165 0 177 2 198 1 222 -3 13 -3 25 -1 28 5 4 5 22 9 40 9 26 0 33 4 29 15
-4 9 3 16 20 21 28 7 34 19 14 28 -7 3 -4 4 7 3 11 -2 19 -8 18 -15 -2 -6 4
-9 12 -6 8 4 15 1 15 -5 0 -11 -18 -15 -50 -13 -9 1 -16 -8 -17 -19 -1 -11 1
-18 5 -15 12 7 84 18 141 21 69 5 103 13 96 25 -3 5 18 7 47 4 29 -2 58 -4 63
-4 41 -2 227 9 232 14 8 8 131 8 160 0 18 -5 36 -34 47 -74 1 -3 7 -15 14 -27
7 -13 10 -23 7 -23 -3 0 1 -10 9 -23 8 -12 27 -56 42 -97 14 -41 31 -78 36
-81 5 -3 9 -8 8 -10 -3 -8 13 -65 27 -91 13 -26 12 -28 -9 -29 -92 -4 -208 13
-208 31 0 4 -6 7 -12 7 -7 -1 -46 2 -87 7 -51 6 -79 14 -93 28 -11 11 -26 17
-34 14 -15 -6 -18 2 -6 21 5 8 13 9 22 3 19 -13 40 -13 40 0 0 13 -63 23 -90
15 -16 -5 -19 -10 -11 -18 15 -15 14 -27 -3 -27 -8 0 -16 -5 -18 -11 -7 -21
-140 -23 -137 -1 3 19 -2 32 -12 32 -8 0 -8 -4 -1 -13 9 -10 0 -13 -43 -14
-41 -1 -55 2 -55 12 0 8 -6 12 -14 9 -8 -3 -24 0 -36 6 -17 9 -24 9 -30 0 -10
-16 -92 -21 -353 -23 -205 -2 -256 3 -207 18 11 3 20 11 20 16 0 16 -18 10
-37 -13 -16 -21 -40 -26 -78 -18 -5 1 -14 2 -19 1 -10 -2 -226 -3 -265 -2 -16
1 -21 5 -17 16 3 8 1 15 -4 15 -6 0 -9 3 -9 8 3 18 -2 32 -12 32 -6 0 -7 -5
-2 -12 4 -7 9 -23 11 -35 2 -21 -2 -23 -38 -23 -24 0 -48 7 -56 15 -20 19 -38
19 -30 0 5 -14 -13 -21 -39 -15 -5 1 -77 3 -160 5 -82 1 -166 5 -185 9 -20 4
-56 9 -81 10 -25 2 -50 5 -55 9 -14 8 -38 -9 -30 -22 5 -7 1 -8 -10 -4 -11 4
-15 2 -11 -4 4 -6 0 -14 -9 -17 -21 -8 -26 -8 -20 3 3 5 -1 11 -9 15 -8 3 -15
1 -15 -4 0 -6 -8 -10 -18 -10 -10 0 -23 -5 -30 -12 -14 -14 -16 -42 -2 -33 5
3 10 -3 10 -14 0 -12 -6 -21 -14 -21 -8 0 -18 -5 -21 -10 -4 -7 3 -9 19 -6 14
3 28 0 32 -6 3 -5 17 -7 29 -4 13 3 25 2 27 -3 2 -5 38 -11 81 -14 42 -3 82
-9 87 -12 6 -3 10 -1 10 6 0 8 3 9 13 0 8 -6 31 -10 53 -9 21 0 172 -2 334 -6
162 -4 302 -7 310 -7 85 2 254 -1 261 -4 4 -3 11 -1 14 5 4 6 12 7 18 3 7 -5
39 -8 72 -6 95 5 147 4 153 -2 3 -2 11 0 18 6 8 7 14 7 18 0 5 -7 15 -7 33 0
19 7 28 6 34 -3 6 -10 15 -10 36 -2 16 6 44 9 63 8 19 -1 58 2 85 7 28 6 85
12 128 15 44 2 88 9 100 16 21 11 21 11 2 18 -29 10 -1 21 37 15 18 -3 35 -10
36 -16 2 -5 15 -9 29 -9 21 0 23 3 14 14 -9 10 -8 15 1 18 20 6 111 2 133 -6
16 -6 17 -6 5 3 -24 17 32 14 66 -4 16 -8 36 -15 45 -15 8 0 36 -7 62 -16 35
-12 45 -20 41 -32 -3 -11 1 -9 12 6 14 19 26 22 80 22 43 0 64 -4 64 -12 0 -6
9 -21 19 -32 10 -12 23 -41 29 -66 14 -60 34 -114 51 -134 7 -9 10 -16 5 -16
-4 0 -3 -5 4 -12 7 -7 12 -19 12 -27 0 -9 14 -45 30 -81 26 -58 27 -66 12 -71
-9 -4 -26 -2 -36 4 -11 5 -88 9 -178 8 -137 -1 -157 1 -152 14 4 8 1 15 -6 15
-8 0 -7 8 5 26 16 25 16 26 -5 19 -14 -5 -20 -3 -16 3 3 5 -1 12 -8 15 -8 3
-16 1 -18 -4 -2 -5 -13 -11 -26 -12 -12 0 -22 -4 -22 -8 0 -3 -12 -4 -26 -1
-19 3 -25 1 -20 -7 4 -6 17 -12 29 -12 17 -1 18 -2 5 -6 -10 -2 -18 -9 -18
-14 0 -6 -4 -8 -9 -4 -5 3 -11 -5 -13 -17 -3 -20 -8 -22 -37 -20 -21 3 -31 0
-27 -7 10 -16 -30 -22 -114 -19 -53 2 -74 7 -73 16 2 7 -8 12 -28 12 -19 0
-28 4 -23 11 3 6 15 9 25 6 10 -3 21 -1 24 3 10 16 -30 29 -78 27 -45 -2 -61
-11 -35 -19 7 -3 2 -7 -10 -10 -15 -4 -22 -2 -22 8 0 10 -13 14 -45 14 -28 0
-44 4 -42 11 1 6 -7 13 -17 15 -10 1 -23 8 -27 16 -4 7 -12 9 -16 4 -4 -4 4
-18 20 -30 36 -29 34 -35 -9 -30 -23 2 -42 -2 -51 -11 -19 -19 -40 -20 -24 -2
8 10 7 14 -4 14 -8 0 -15 -4 -15 -9 0 -4 -7 -8 -15 -8 -8 0 -15 5 -15 11 0 5
-5 7 -10 4 -6 -4 -18 -1 -26 6 -10 8 -18 9 -25 2 -16 -16 -739 -6 -758 10 -9
8 -16 8 -18 2 -2 -6 -39 -9 -90 -8 -49 1 -207 3 -353 4 -146 1 -275 5 -287 10
-12 4 -48 11 -80 14 -32 4 -70 8 -84 9 -32 4 -53 -30 -43 -69 5 -21 1 -25 -28
-33 -18 -5 -32 -14 -31 -19 1 -6 -9 -16 -22 -23 -23 -12 -23 -14 -9 -41 13
-25 21 -29 62 -30 26 -1 56 -3 67 -5 11 -2 38 -5 60 -8 22 -3 56 -9 75 -12 51
-9 168 -13 610 -20 217 -3 422 -7 455 -8 34 0 65 4 73 11 9 9 18 9 36 -1 22
-11 54 -12 256 -6 36 1 70 1 75 0 6 -1 14 -2 19 -1 4 1 14 -4 22 -10 17 -14
18 2 2 21 -7 8 -2 5 12 -7 l25 -21 33 28 c35 29 69 30 86 2 6 -11 21 -13 66
-8 87 10 104 14 115 29 16 22 52 29 76 17 15 -9 24 -9 32 -1 8 8 8 11 -1 11
-7 0 -12 5 -12 10 0 17 28 11 39 -7 6 -10 11 -13 11 -7 0 6 -3 14 -7 18 -13
13 -11 36 3 36 8 0 13 6 11 13 -3 16 75 22 114 8 18 -6 29 -6 29 0 0 5 11 9
25 9 14 0 25 -5 25 -10 0 -7 6 -7 19 0 11 5 30 10 43 10 13 0 29 5 36 12 7 7
12 8 12 4 0 -5 6 -3 13 3 9 6 65 11 143 12 139 1 158 0 189 -18 11 -6 43 -14
72 -18 38 -5 54 -12 58 -25 3 -10 13 -21 21 -24 8 -3 12 -11 9 -16 -7 -11 5
-42 45 -122 10 -20 16 -39 13 -42 -3 -3 0 -13 7 -22 12 -13 11 -17 -1 -26 -11
-8 -11 -9 3 -4 17 5 24 -9 19 -36 0 -5 3 -8 9 -8 6 0 9 -3 8 -7 -3 -14 13 -73
23 -78 5 -4 8 75 6 187 -2 174 -4 197 -23 233 -11 22 -19 46 -17 53 3 6 0 12
-5 12 -5 0 -17 21 -27 47 -10 27 -31 77 -47 113 -17 36 -36 79 -43 95 -7 17
-21 48 -31 70 -32 73 -43 107 -38 120 3 7 26 15 52 19 26 3 59 8 73 11 23 4
81 13 102 14 4 1 7 34 7 74 l0 73 -72 -1 -73 -1 1 -34 c0 -19 4 -43 8 -52 10
-21 -27 -39 -90 -44 -40 -3 -41 -2 -62 44 -69 155 -82 185 -82 193 0 5 -13 37
-30 71 -40 82 -39 90 8 87 52 -3 64 0 57 11 -3 6 4 10 17 11 37 1 282 15 308
18 14 1 10 112 -5 128 -17 17 -36 17 -30 0 4 -9 -11 -12 -55 -12 -42 -1 -60 3
-60 12 0 7 5 13 12 13 6 0 9 3 5 6 -3 4 -21 -2 -39 -13 -32 -19 -68 -20 -68
-2 0 5 -4 9 -10 9 -5 0 -7 -6 -5 -12 4 -9 -8 -14 -36 -15 -57 -4 -73 -18 -54
-47 14 -21 13 -24 -4 -40 -17 -16 -42 -21 -83 -17 -14 1 -53 53 -47 63 1 2
-13 35 -31 73 -17 39 -38 86 -45 105 -7 19 -20 49 -29 65 -26 49 -16 74 17 41
10 -11 42 -13 138 -12 68 2 193 4 278 5 l154 1 -19 21 c-10 12 -18 22 -16 23
10 4 -13 36 -31 42 -25 8 -330 13 -365 6 -20 -4 -21 -6 -6 -16 13 -10 13 -14
2 -23 -20 -17 -68 -4 -68 18 0 19 -11 25 -23 12 -4 -3 -2 -12 4 -20 9 -10 5
-13 -24 -13 -53 0 -80 14 -98 51 -30 63 -51 114 -60 142 -7 25 -5 27 19 26 22
0 24 -2 8 -8 -10 -4 97 -6 239 -5 141 1 259 4 261 7 2 2 -8 19 -24 36 l-28 33
-122 1 c-67 0 -122 4 -122 7 0 3 5 11 12 18 7 7 10 12 8 13 -3 0 -14 2 -24 4
-11 2 -40 -7 -66 -20 -26 -13 -70 -26 -99 -28 -28 -2 -54 -6 -57 -9 -3 -3 -13
-4 -23 -1 -19 5 -77 120 -66 131 3 4 114 7 245 7 l238 0 -14 27 c-8 15 -18 29
-23 33 -11 6 -387 8 -436 2 -16 -2 -35 -2 -42 0 -11 4 -47 82 -41 89 13 12
166 26 286 26 78 0 142 3 142 7 0 3 -7 17 -16 29 -14 21 -22 23 -75 19 -45 -3
-59 -1 -59 9 0 18 -8 18 -26 0 -8 -8 -24 -13 -37 -10 -12 2 -54 5 -94 5 -59 0
-75 -3 -92 -20 -33 -33 -57 -27 -74 18 -9 21 -30 68 -47 105 -27 57 -30 69
-18 83 11 14 11 16 -3 11 -19 -7 -21 -4 -149 284 -27 58 -55 121 -64 140 -8
18 -36 80 -61 138 -52 117 -55 122 -154 342 -39 86 -71 159 -71 162 0 3 -16
39 -36 81 -20 42 -37 81 -38 88 -3 14 -60 139 -81 177 -7 14 -13 27 -13 30 -1
7 -14 42 -55 142 -18 46 -34 93 -35 106 -1 25 15 29 32 8 6 -8 25 -18 41 -21
l30 -7 -23 19 c-24 20 -13 20 528 24 80 0 152 3 161 5 14 4 16 48 16 402 0
242 -3 402 -9 409 -7 8 -7 23 -1 40 5 16 9 51 9 78 l-1 50 -45 6 c-49 7 -39
11 28 12 38 0 47 6 43 30 -1 5 3 6 9 2 6 -3 8 -10 5 -15 -7 -12 23 -20 63 -16
17 1 32 -1 32 -6 0 -4 -20 -8 -45 -8 -33 0 -47 -5 -52 -16 -3 -9 -1 -19 4 -23
6 -3 14 -16 18 -29 5 -19 3 -25 -14 -29 -21 -5 -21 -7 -21 -448 l0 -442 348 2
c191 1 400 3 465 4 l117 1 0 695 0 695 -2260 0 -2260 0 2 -662z m2503 -3677
c132 2 313 -6 321 -13 4 -5 -9 -8 -30 -8 -20 0 -35 -4 -32 -8 3 -5 -9 -6 -26
-4 -23 4 -29 1 -23 -8 5 -8 3 -11 -6 -8 -8 3 -22 1 -31 -3 -10 -6 -19 -5 -23
1 -3 5 3 10 14 10 11 0 22 4 25 9 5 8 -60 8 -204 2 -23 -1 -31 -4 -22 -10 11
-7 11 -9 -2 -14 -9 -4 -23 -4 -32 0 -13 5 -13 7 -2 14 10 7 10 9 -2 10 -57 4
-114 -1 -123 -10 -14 -14 -37 -14 -37 -1 0 6 9 10 20 10 11 0 20 4 20 10 0 5
-18 9 -40 8 -36 -1 -45 -8 -41 -31 1 -5 -3 -6 -9 -2 -6 3 -9 9 -7 13 2 4 6 14
9 22 5 12 27 15 129 13 68 -2 138 -3 154 -2z m-52 -443 c120 -1 220 -5 223 -9
3 -6 -91 -24 -108 -21 -5 1 -8 -3 -8 -8 0 -5 8 -10 18 -10 15 -1 14 -2 -3 -12
-26 -15 -75 -19 -75 -6 0 6 11 7 25 4 14 -4 25 -2 25 4 0 5 -8 10 -17 10 -15
0 -14 2 3 14 17 13 12 14 -48 9 -36 -3 -74 -1 -84 5 -13 7 -22 5 -33 -8 -27
-31 -65 -33 -92 -6 -24 23 -25 23 -46 6 -12 -10 -20 -19 -18 -22 2 -2 -9 -12
-25 -22 -17 -9 -30 -12 -30 -7 0 6 6 11 14 11 26 0 28 19 5 42 -15 16 -23 19
-26 11 -5 -15 -33 -17 -33 -3 0 5 10 12 23 14 12 3 31 7 42 9 11 3 27 3 35 1
8 -2 113 -4 233 -6z m17 -553 c201 -2 372 -4 379 -5 12 0 12 -3 3 -12 -7 -7
-28 -11 -47 -9 -40 3 -45 -11 -13 -33 30 -22 20 -20 -26 3 -30 16 -42 18 -62
9 -17 -8 -21 -14 -12 -19 7 -4 17 -5 23 -2 5 3 5 0 -2 -7 -8 -8 -16 -9 -29 -2
-14 8 -21 6 -30 -6 -7 -10 -16 -13 -21 -8 -4 5 -2 11 5 13 6 3 12 14 12 24 0
11 3 18 8 16 4 -3 16 -1 27 3 31 12 -51 11 -112 -1 -48 -10 -74 -29 -38 -29 8
0 15 -5 15 -11 0 -7 -7 -8 -17 -4 -10 4 -29 9 -41 10 -28 4 -42 15 -19 15 19
0 67 21 67 29 0 12 -72 3 -81 -10 -5 -8 -9 -9 -9 -4 0 13 -93 6 -101 -7 -4 -6
-12 -7 -18 -4 -16 11 -13 26 4 20 8 -4 15 -1 15 5 0 13 -26 15 -34 2 -8 -12
-66 -20 -66 -9 0 4 -9 8 -21 8 -14 0 -19 -5 -16 -14 3 -8 -1 -17 -9 -20 -9 -3
-12 -1 -9 4 4 6 0 17 -8 25 -18 17 -108 18 -119 1 -5 -8 -8 -7 -8 2 0 7 -4 11
-10 7 -5 -3 -7 -12 -4 -19 6 -16 -12 -31 -21 -17 -6 10 13 51 29 63 5 3 19 4
30 2 12 -3 185 -7 386 -9z"/>
</g>
</svg>
