<?xml version="1.0" standalone="no"?>
<!DOCTYPE svg PUBLIC "-//W3C//DTD SVG 20010904//EN"
 "http://www.w3.org/TR/2001/REC-SVG-20010904/DTD/svg10.dtd">
<svg version="1.0" xmlns="http://www.w3.org/2000/svg"
 width="800.000000pt" height="533.000000pt" viewBox="0 0 800.000000 533.000000"
 preserveAspectRatio="xMidYMid meet">
<metadata>
Created by potrace 1.11, written by Peter Selinger 2001-2013
</metadata>
<g transform="translate(0.000000,533.000000) scale(0.100000,-0.100000)"
fill="#000000" stroke="none">
<path d="M5735 5053 c-16 -2 -65 -13 -109 -24 -43 -10 -89 -19 -101 -19 -12 0
-34 -9 -48 -20 -14 -11 -27 -20 -30 -20 -3 0 -3 9 0 20 7 28 -19 26 -82 -5
-27 -14 -39 -23 -25 -20 19 4 15 0 -13 -15 -21 -11 -42 -18 -48 -14 -6 3 -24
0 -40 -7 -23 -9 -27 -14 -17 -21 9 -6 6 -7 -9 -3 -25 7 -67 -11 -58 -25 6 -10
-49 -42 -58 -34 -3 3 -15 3 -28 -1 -16 -5 -18 -9 -9 -15 9 -6 3 -13 -19 -25
-18 -9 -35 -14 -39 -11 -3 3 1 6 8 6 7 0 11 2 8 5 -10 10 -54 -16 -63 -38 -6
-11 -16 -22 -23 -23 -7 -1 -8 0 -2 3 5 2 10 9 10 14 0 5 -18 0 -39 -11 -47
-23 -65 -45 -27 -30 33 12 33 5 0 -17 -15 -9 -40 -16 -56 -15 -18 2 -27 -2
-23 -8 3 -6 12 -7 18 -4 7 4 4 -2 -6 -12 -14 -15 -20 -16 -26 -6 -6 9 -12 7
-27 -9 -12 -14 -13 -19 -4 -14 13 8 13 7 1 -9 -8 -9 -20 -15 -27 -12 -7 3 -23
-4 -36 -15 -13 -11 -16 -17 -8 -13 13 7 13 6 1 -10 -8 -9 -20 -15 -27 -12 -7
3 -14 -2 -16 -9 -5 -23 -132 -115 -140 -102 -8 13 -19 5 -22 -17 -4 -32 -48
-66 -84 -66 -29 0 -34 -3 -29 -20 3 -11 1 -18 -3 -15 -15 9 -40 -7 -40 -26 0
-25 -77 -99 -102 -99 -10 0 -18 -7 -18 -15 0 -8 -9 -19 -20 -25 -11 -6 -20
-16 -20 -23 0 -7 -15 -19 -34 -25 -22 -8 -39 -24 -48 -42 -7 -17 -17 -30 -23
-30 -20 -1 -55 -39 -55 -60 0 -12 -4 -19 -8 -16 -5 3 -29 -15 -55 -40 -25 -24
-51 -44 -57 -44 -5 0 -10 -7 -10 -16 0 -10 -6 -14 -14 -11 -10 4 -16 -2 -18
-15 -2 -12 -9 -23 -17 -26 -8 -3 -11 0 -7 7 15 24 -7 9 -44 -31 -47 -48 -47
-64 -1 -19 49 48 50 36 1 -14 -24 -24 -48 -41 -54 -38 -6 3 -8 3 -4 -2 11 -11
-12 -36 -25 -28 -5 3 -7 2 -4 -4 7 -11 -116 -136 -126 -128 -4 3 -5 2 -2 -2 8
-10 -16 -33 -29 -26 -6 3 -8 3 -4 -2 9 -9 -9 -45 -22 -45 -5 0 -7 8 -3 18 3 9
4 15 2 12 -2 -3 -13 -16 -24 -30 -20 -25 -20 -25 0 -10 20 14 20 14 1 -7 -10
-13 -24 -20 -30 -16 -6 3 -8 3 -4 -2 12 -12 -11 -45 -31 -45 -12 0 -18 -7 -17
-17 0 -10 -6 -18 -14 -18 -8 0 -18 -9 -21 -20 -3 -11 -12 -18 -20 -17 -8 2
-11 0 -6 -4 10 -10 -74 -95 -86 -87 -6 3 -7 1 -4 -4 8 -13 -27 -46 -38 -36 -4
5 -5 3 -2 -3 7 -12 -66 -88 -75 -79 -3 4 -5 -2 -5 -12 1 -12 -6 -19 -20 -21
-13 -2 -20 -8 -17 -16 6 -16 -21 -40 -36 -31 -5 3 -10 -2 -10 -11 0 -21 -188
-214 -209 -214 -8 0 -11 -6 -7 -16 4 -10 2 -13 -6 -8 -8 5 -9 2 -5 -10 4 -9 3
-15 -2 -12 -5 3 -111 -101 -235 -232 -125 -130 -237 -243 -249 -249 -12 -7
-18 -13 -13 -13 6 0 -5 -16 -24 -35 -18 -19 -38 -31 -43 -28 -6 3 -7 1 -3 -5
4 -6 -33 -51 -84 -104 -80 -81 -252 -262 -406 -425 -27 -28 -92 -96 -144 -150
-152 -159 -170 -181 -170 -214 0 -21 -11 -42 -34 -67 -23 -23 -37 -51 -42 -76
-3 -22 -17 -57 -30 -77 -13 -21 -26 -49 -30 -63 -4 -17 -11 -23 -21 -19 -12 5
-14 1 -8 -16 8 -26 -19 -53 -44 -43 -11 4 -13 -1 -8 -24 3 -16 4 -23 1 -16 -3
6 -10 10 -15 6 -14 -8 -11 3 15 59 13 29 26 62 30 75 4 12 12 20 17 17 5 -4 9
7 9 23 0 16 11 50 24 75 14 25 22 48 19 51 -4 3 1 14 9 23 14 16 34 64 29 71
-1 1 5 10 14 18 8 9 15 22 15 29 0 15 19 60 78 185 19 41 40 85 45 98 9 19 6
27 -19 55 -43 47 -57 61 -84 76 -22 12 -25 11 -50 -19 -21 -25 -31 -31 -48
-26 -12 4 -22 12 -22 17 0 5 -9 9 -20 9 -11 0 -48 11 -82 25 -34 14 -67 25
-74 25 -13 0 -74 -119 -74 -144 0 -6 -5 -17 -11 -23 -16 -16 9 -49 53 -69 21
-9 38 -21 38 -26 0 -10 -31 -2 -72 18 -15 8 -33 14 -41 14 -22 0 -47 -34 -47
-63 0 -16 -6 -27 -13 -27 -7 0 -21 -24 -30 -52 l-17 -52 31 -28 c17 -16 34
-28 39 -28 12 0 81 -38 95 -52 6 -5 -8 -2 -30 7 -116 49 -185 60 -185 29 0 -8
-11 -34 -24 -58 -13 -23 -27 -61 -31 -84 -7 -41 -6 -42 42 -72 26 -17 71 -42
100 -55 63 -30 69 -39 49 -70 -24 -37 -20 -42 36 -55 50 -10 142 -60 163 -87
6 -8 26 -16 46 -19 l36 -6 39 77 c22 42 47 85 57 95 9 11 17 25 17 32 0 7 13
38 30 68 16 30 29 62 30 71 0 9 6 19 13 22 6 2 18 26 26 52 8 28 17 42 21 35
5 -8 11 -1 18 19 6 17 37 57 69 90 765 784 1323 1341 1344 1341 12 0 19 7 19
19 0 11 48 64 115 127 237 224 568 540 718 686 49 48 137 132 195 185 58 54
119 111 136 128 17 16 49 43 72 60 64 47 134 111 134 124 0 6 8 11 18 11 10 0
25 8 34 18 9 9 39 35 68 57 28 22 63 50 76 63 14 12 27 22 31 22 5 0 84 60 93
71 3 3 14 9 26 13 11 3 37 22 58 41 21 19 44 35 51 35 7 0 18 7 25 15 7 8 17
15 22 15 6 0 24 10 41 23 31 21 54 35 108 64 15 7 32 20 39 28 7 8 18 15 25
15 16 0 79 32 83 43 2 4 8 7 13 7 10 0 39 13 185 81 34 16 71 29 81 29 11 0
35 8 54 17 115 58 452 95 544 60 22 -8 58 -20 81 -26 22 -6 49 -20 59 -31 10
-11 24 -20 32 -20 20 0 118 -77 173 -136 46 -48 106 -134 116 -166 3 -10 9
-18 14 -18 4 0 15 -17 23 -37 8 -21 26 -63 39 -93 56 -125 98 -270 129 -445
12 -66 27 -145 34 -175 13 -52 14 -53 16 -20 2 19 6 -17 10 -80 3 -63 14 -162
23 -220 22 -145 37 -251 39 -277 1 -13 5 -23 10 -23 4 0 5 -26 1 -59 -4 -39
-3 -61 5 -65 6 -4 11 -29 11 -57 0 -35 4 -49 14 -49 9 0 12 -7 9 -19 -3 -12
-14 -18 -29 -18 -14 -1 -208 92 -432 205 -224 113 -417 210 -429 216 -13 6
-23 14 -23 19 0 4 -8 7 -17 7 -10 0 -38 12 -63 26 -32 19 -62 27 -105 29 -33
2 -66 3 -72 4 -7 1 -13 7 -13 14 0 7 -11 29 -25 49 -14 20 -25 44 -25 53 0 9
-4 14 -9 10 -12 -7 -33 29 -24 39 3 3 -1 6 -10 6 -10 0 -19 11 -23 28 -10 39
-24 53 -47 46 -19 -6 -20 -3 -14 54 4 45 1 66 -10 79 -8 10 -11 11 -7 3 7 -12
5 -13 -8 -2 -8 7 -33 11 -57 9 -22 -2 -41 1 -41 6 0 19 -36 -23 -58 -66 -12
-24 -31 -52 -42 -62 -11 -10 -20 -24 -20 -31 0 -7 -9 -18 -20 -24 -11 -6 -20
-17 -20 -25 0 -8 -4 -15 -10 -15 -5 0 -10 -7 -10 -16 0 -13 -6 -15 -27 -10
-16 4 -34 7 -40 8 -7 1 -13 5 -13 10 0 4 -11 8 -24 8 -14 0 -31 7 -40 15 -18
19 -51 31 -102 39 -21 4 -49 13 -61 21 -12 8 -31 15 -43 15 -11 0 -20 5 -20
11 0 5 -4 8 -9 4 -5 -3 -16 1 -24 10 -8 8 -28 17 -43 19 -16 3 -30 10 -32 16
-2 5 -15 10 -29 10 -14 0 -36 9 -50 20 -14 11 -31 20 -38 20 -7 0 -34 9 -60
21 -25 11 -49 18 -52 16 -2 -3 -13 3 -24 14 -10 10 -27 19 -37 19 -10 0 -22 4
-27 9 -23 20 -117 40 -179 39 -41 -2 -60 -5 -51 -11 20 -11 19 -27 0 -27 -9 0
-18 -8 -22 -17 -3 -10 -17 -30 -31 -45 -14 -16 -22 -33 -19 -42 4 -10 1 -16
-9 -16 -8 0 -12 -4 -9 -10 3 -5 2 -10 -4 -10 -9 0 -22 -27 -27 -60 -2 -8 -8
-16 -13 -18 -6 -2 -11 -17 -11 -34 0 -22 -4 -29 -14 -25 -10 4 -13 1 -9 -9 3
-8 -1 -22 -9 -32 -22 -25 -48 -82 -48 -104 0 -11 -6 -32 -14 -46 -19 -37 -58
-146 -55 -158 1 -5 0 -16 -4 -24 -3 -8 -8 -37 -12 -64 -4 -27 -10 -44 -14 -38
-3 6 -7 -8 -8 -31 -1 -23 -5 -68 -9 -101 -5 -50 -3 -63 15 -87 26 -35 26 -53
0 -90 -11 -16 -18 -29 -15 -29 3 0 -8 -27 -25 -59 -16 -33 -29 -67 -29 -75 0
-9 -4 -16 -10 -16 -5 0 -10 -7 -10 -16 0 -9 -7 -30 -16 -47 -29 -56 -31 -61
-55 -157 -13 -52 -27 -97 -30 -100 -6 -5 -11 -26 -29 -125 -38 -217 -35 -242
37 -271 24 -10 43 -22 43 -26 0 -4 -12 -20 -28 -35 -38 -38 -74 -90 -97 -140
-11 -24 -23 -43 -27 -43 -5 0 -8 -7 -8 -15 0 -8 -13 -38 -28 -67 -16 -29 -32
-66 -36 -83 -4 -16 -18 -55 -31 -85 -30 -71 -65 -185 -65 -210 0 -11 -4 -20
-10 -20 -5 0 -10 -9 -10 -19 0 -11 -13 -87 -30 -169 -17 -83 -30 -171 -30
-197 0 -42 3 -47 33 -60 17 -8 28 -14 22 -15 -19 -1 20 -20 41 -20 12 0 24 -7
28 -15 3 -8 11 -15 18 -15 7 0 62 -25 122 -55 60 -30 115 -55 122 -55 8 0 14
-4 14 -10 0 -5 13 -10 29 -10 16 0 31 -6 34 -14 3 -8 25 -20 49 -26 53 -15
193 -75 208 -90 10 -10 77 -30 100 -30 12 0 28 -7 34 -15 9 -13 44 -22 94 -24
7 -1 10 -6 6 -13 -4 -6 -3 -8 3 -5 12 8 83 -13 83 -24 0 -5 7 -5 17 -2 11 5
14 3 8 -6 -5 -10 -2 -11 14 -6 12 3 21 3 20 -2 -3 -20 2 -27 11 -13 8 13 10
13 10 -2 0 -26 -11 -48 -21 -42 -5 3 -9 -7 -9 -23 0 -22 2 -25 10 -13 8 13 10
12 10 -2 0 -17 36 -18 608 -18 587 0 608 1 619 19 18 28 21 80 33 481 12 400
30 823 36 829 2 2 12 -3 22 -12 10 -10 22 -17 26 -17 5 0 60 -25 122 -55 63
-30 121 -55 129 -55 7 0 17 -4 20 -10 3 -5 15 -10 26 -10 10 0 19 -3 19 -8 0
-4 18 -15 40 -25 l41 -17 -1 -303 c0 -166 -1 -312 0 -323 0 -16 13 -27 49 -43
59 -25 75 -26 131 -6 41 15 90 11 90 -6 0 -5 -6 -9 -12 -9 -7 0 -26 -7 -42
-15 -16 -9 -45 -17 -65 -19 -20 -1 -46 -8 -58 -14 -12 -7 -29 -12 -38 -12 -8
0 -21 -11 -27 -25 -7 -15 -42 -43 -87 -69 -42 -24 -87 -56 -100 -70 -14 -14
-30 -26 -37 -26 -6 0 -17 -6 -23 -14 -7 -8 -24 -17 -39 -21 -15 -4 -45 -20
-67 -36 -22 -16 -59 -43 -82 -59 -24 -17 -43 -35 -43 -40 0 -7 398 -10 1160
-10 l1160 0 0 538 c0 436 -3 549 -14 602 -20 88 -42 200 -56 285 -7 39 -20
111 -30 160 -11 50 -22 113 -26 140 -3 28 -13 65 -20 84 -8 18 -14 62 -14 97
0 34 -4 65 -9 68 -4 3 -11 29 -15 58 -4 29 -11 69 -16 88 -5 19 -14 64 -21 99
-7 36 -22 85 -34 110 -12 25 -28 63 -36 84 -7 20 -17 37 -21 37 -4 0 -8 7 -8
17 0 9 -12 41 -26 72 -14 31 -30 65 -35 76 -42 100 -67 164 -73 188 -3 15 -11
27 -16 27 -6 0 -10 9 -10 20 0 11 -5 19 -12 18 -7 -2 -18 31 -29 84 -9 48 -21
93 -25 100 -4 7 -16 55 -25 108 -43 231 -50 267 -59 294 -6 16 -10 49 -10 72
0 24 -4 44 -8 44 -5 0 -15 26 -22 57 -31 140 -115 389 -175 518 -19 42 -35 78
-35 80 0 1 -21 39 -46 84 -25 45 -42 86 -38 93 4 6 3 8 -3 5 -12 -7 -76 86
-76 108 0 8 -3 13 -7 12 -13 -4 -130 145 -123 155 3 6 2 8 -4 5 -12 -8 -116
97 -106 107 4 4 1 4 -8 1 -9 -3 -25 5 -39 20 -20 22 -21 25 -6 19 14 -5 17 -4
12 4 -4 7 -18 12 -30 12 -13 0 -35 11 -49 24 -14 13 -39 28 -55 34 -27 9 -31
8 -36 -11 l-5 -21 -23 20 c-24 22 -57 38 -70 36 -5 -1 -8 2 -8 7 0 5 -18 11
-39 15 -22 3 -53 17 -69 31 -20 17 -42 25 -66 25 -20 0 -52 7 -71 14 -70 29
-302 45 -420 29z"/>
</g>
</svg>
