<?xml version="1.0" standalone="no"?>
<!DOCTYPE svg PUBLIC "-//W3C//DTD SVG 20010904//EN"
 "http://www.w3.org/TR/2001/REC-SVG-20010904/DTD/svg10.dtd">
<svg version="1.0" xmlns="http://www.w3.org/2000/svg"
 width="800.000000pt" height="600.000000pt" viewBox="0 0 800.000000 600.000000"
 preserveAspectRatio="xMidYMid meet">
<metadata>
Created by potrace 1.11, written by Peter Selinger 2001-2013
</metadata>
<g transform="translate(0.000000,600.000000) scale(0.100000,-0.100000)"
fill="#000000" stroke="none">
<path d="M3584 5401 c-16 -5 -20 -13 -18 -41 1 -32 11 -101 19 -140 2 -8 4
-28 4 -43 1 -17 12 -39 29 -55 16 -16 32 -42 36 -58 4 -16 21 -55 37 -87 16
-32 29 -62 29 -67 0 -6 21 -31 48 -56 26 -25 70 -67 98 -94 67 -64 185 -114
294 -124 19 -2 38 -4 41 -5 8 -1 39 -77 45 -107 2 -12 10 -39 17 -60 8 -21 13
-50 12 -64 -7 -98 -17 -211 -21 -245 -3 -22 -7 -60 -9 -85 -5 -64 -15 -132
-22 -150 -3 -8 -7 -33 -9 -55 -2 -22 -6 -62 -9 -90 -7 -52 -14 -119 -20 -170
-1 -16 -3 -47 -4 -67 -1 -36 -2 -37 -27 -28 -14 6 -29 8 -33 5 -5 -2 -13 6
-19 20 -10 22 -52 33 -52 13 0 -4 -9 -5 -20 -3 -11 2 -22 -1 -25 -6 -4 -5 -11
-6 -17 -3 -6 4 -17 -1 -24 -11 -8 -11 -26 -18 -44 -18 -30 0 -49 -25 -35 -47
4 -6 -6 -10 -23 -10 -23 0 -31 -5 -36 -25 -4 -14 -13 -25 -21 -25 -8 0 -15 -4
-15 -10 0 -5 -7 -10 -15 -10 -8 0 -15 -4 -15 -10 0 -5 -6 -10 -13 -10 -17 0
-59 -35 -51 -43 3 -3 -3 -3 -15 0 -15 4 -21 1 -21 -11 0 -10 -9 -16 -24 -16
-17 0 -27 -7 -32 -22 -10 -29 -11 -34 -13 -55 -1 -16 -3 -17 -14 -2 -7 9 -27
20 -44 23 -26 6 -34 4 -42 -13 -7 -13 -8 -22 -1 -26 17 -11 11 -44 -10 -55
-11 -6 -20 -8 -20 -5 0 10 -34 -27 -45 -49 -11 -21 -35 -25 -69 -11 -18 8 -19
5 -13 -31 4 -27 3 -34 -3 -24 -9 13 -11 13 -20 0 -9 -13 -12 -13 -23 2 -9 11
-18 14 -28 7 -8 -5 -10 -9 -4 -9 5 0 4 -5 -2 -11 -7 -7 -8 -21 -2 -41 7 -24 5
-29 -6 -24 -8 3 -15 1 -15 -5 0 -6 -4 -8 -9 -4 -5 3 -12 -4 -16 -15 -3 -11
-11 -20 -16 -20 -5 0 -9 -9 -9 -20 0 -11 -9 -37 -20 -57 -11 -21 -20 -43 -20
-49 0 -7 -7 -14 -15 -18 -8 -3 -15 -12 -15 -19 0 -8 -18 -27 -41 -42 -22 -16
-45 -37 -50 -48 -6 -10 -17 -16 -25 -13 -8 3 -14 2 -15 -2 -3 -35 -12 -57 -26
-67 -15 -11 -15 -17 -5 -41 11 -23 11 -29 -2 -36 -9 -5 -16 -16 -16 -23 0 -8
-5 -15 -11 -15 -6 0 -9 -7 -6 -15 4 -8 2 -17 -4 -21 -14 -9 -39 15 -32 32 3 8
-1 14 -11 14 -9 0 -16 -4 -16 -8 0 -12 -47 -32 -55 -24 -15 15 -79 9 -99 -9
-26 -25 -33 -24 -40 7 -5 17 -12 24 -25 22 -10 -2 -29 10 -45 27 -14 17 -25
23 -24 15 4 -18 16 -35 50 -67 15 -14 25 -30 22 -35 -4 -6 -10 -6 -16 0 -6 6
-17 8 -24 5 -8 -3 -22 -2 -31 3 -10 4 -42 8 -72 10 -45 2 -64 -3 -107 -27 -58
-33 -114 -85 -114 -106 0 -8 -8 -13 -17 -11 -13 2 -18 -4 -19 -22 0 -14 -6
-35 -12 -47 -10 -18 -18 -21 -46 -16 -28 4 -35 2 -40 -15 -11 -35 -29 -43 -65
-31 -27 9 -35 8 -51 -6 -11 -10 -20 -27 -20 -37 0 -10 -7 -21 -15 -24 -9 -4
-20 -15 -25 -25 -9 -16 -6 -18 26 -15 23 2 38 -2 41 -11 7 -19 -6 -31 -16 -15
-6 10 -11 9 -21 -3 -11 -13 -11 -16 0 -13 9 2 15 -6 16 -20 1 -12 4 -25 8 -29
3 -3 1 -12 -4 -18 -8 -9 -5 -14 10 -18 13 -3 23 0 26 8 8 20 116 12 142 -11
20 -17 20 -19 5 -36 -13 -14 -25 -17 -52 -12 -20 4 -39 11 -42 17 -8 12 -31
-1 -24 -14 6 -8 -8 -13 -20 -6 -2 1 -11 -7 -19 -18 -15 -20 -15 -20 -16 0 0
27 -26 64 -42 61 -45 -10 -66 -26 -70 -58 -4 -23 0 -37 11 -45 14 -12 13 -16
-13 -39 l-30 -26 -17 20 c-11 14 -20 17 -26 11 -22 -22 -49 -15 -86 21 -35 33
-44 36 -88 34 -27 -1 -49 2 -49 7 0 5 -4 9 -10 9 -5 0 -10 -7 -10 -16 0 -10
-6 -14 -14 -11 -25 10 -39 -21 -40 -92 -1 -75 -24 -122 -57 -116 -16 3 -52
-25 -39 -30 3 -1 -23 -30 -57 -65 -39 -39 -63 -56 -63 -46 0 9 -6 16 -14 16
-18 0 -28 -27 -13 -34 7 -4 -1 -4 -18 -2 -41 6 -62 -8 -70 -45 -4 -17 -12 -32
-18 -35 -7 -2 -13 -25 -14 -50 l-2 -46 49 -21 c27 -12 50 -26 50 -30 0 -13
-54 -56 -71 -57 -23 0 -43 -53 -42 -109 2 -90 15 -166 30 -183 17 -18 116 -43
133 -33 5 3 10 0 10 -8 0 -7 10 -24 23 -37 12 -14 22 -28 22 -31 0 -4 3 -11 7
-15 4 -3 5 3 3 15 -4 23 26 44 33 23 2 -7 13 -12 24 -12 12 0 18 -5 15 -13 -3
-7 4 -12 19 -12 14 0 24 6 24 14 0 7 -6 11 -14 8 -10 -4 -12 0 -8 15 4 18 6
18 14 4 11 -20 29 -21 22 -1 -4 8 -1 15 5 15 6 0 11 -9 11 -21 0 -13 4 -18 12
-13 7 4 8 3 4 -5 -4 -6 -12 -9 -17 -6 -5 4 -12 -1 -15 -9 -6 -16 -48 -17 -71
-3 -6 4 -14 0 -17 -9 -3 -9 -12 -14 -19 -11 -6 2 -18 -1 -24 -9 -18 -19 0 -27
67 -32 103 -7 117 -5 150 26 27 25 58 29 66 7 8 -19 33 -19 40 0 5 13 8 13 27
0 31 -22 56 -18 67 9 7 19 18 25 65 31 60 7 85 -3 85 -36 0 -21 36 -49 62 -49
10 0 18 -4 18 -10 0 -5 12 -13 28 -16 31 -8 72 -41 72 -60 0 -9 8 -10 30 -4
17 5 31 7 31 4 1 -2 2 -9 3 -16 2 -21 27 -21 33 1 3 11 9 18 14 15 5 -3 29 -7
52 -9 32 -2 45 2 55 16 12 17 16 17 35 5 12 -8 37 -17 55 -21 17 -4 32 -11 32
-16 0 -5 7 -9 15 -9 8 0 18 -12 21 -26 4 -16 12 -23 20 -20 8 3 14 1 14 -5 0
-11 110 -7 129 5 5 4 12 2 16 -4 10 -16 28 -11 21 6 -4 12 -2 15 9 11 8 -4 17
-2 21 4 3 6 12 8 20 5 8 -3 11 0 7 10 -3 9 0 14 8 12 23 -5 28 -20 11 -37 -14
-15 -14 -16 7 -19 12 -2 30 0 39 4 23 10 61 11 95 2 15 -4 27 -2 27 3 0 16 29
10 39 -9 8 -12 10 -13 11 -3 0 11 4 10 13 -4 9 -12 19 -15 28 -10 7 5 22 10
33 11 11 0 22 7 24 14 3 8 9 5 18 -11 9 -16 13 -19 14 -8 0 9 6 16 14 16 8 0
12 -6 9 -13 -2 -6 1 -15 7 -19 6 -3 10 -3 9 2 -6 33 2 42 26 33 21 -8 25 -7
25 8 0 11 3 13 8 6 4 -6 16 -10 27 -8 10 2 25 -2 32 -7 7 -6 17 -8 22 -5 5 4
13 2 16 -4 5 -8 11 -7 21 1 11 9 14 8 14 -2 0 -10 3 -10 12 -1 7 7 17 8 28 2
10 -5 27 -7 39 -5 11 2 21 -1 21 -6 0 -6 6 -7 13 -2 6 4 17 8 23 9 6 1 22 5
34 9 15 5 20 4 16 -4 -4 -6 0 -11 9 -11 9 0 14 -4 11 -8 -2 -4 4 -8 14 -8 10
0 16 5 13 10 -4 5 -1 6 8 0 8 -5 21 -9 29 -9 8 0 21 -4 28 -9 7 -4 19 -3 27 4
8 7 22 9 31 6 14 -5 15 -4 5 8 -8 9 -8 16 -2 20 14 9 62 -4 56 -14 -3 -5 -1
-11 4 -14 5 -3 12 2 15 11 6 14 10 13 33 -8 14 -13 23 -18 18 -10 -6 10 -4 12
5 6 19 -12 90 -16 90 -5 0 5 10 10 22 12 12 2 24 10 26 18 4 13 3 13 -10 2
-13 -10 -18 -10 -24 -1 -4 7 -3 9 4 5 6 -3 13 -2 16 2 6 10 36 9 53 -1 6 -4
14 0 17 9 3 9 11 12 18 8 8 -5 9 -2 5 9 -4 11 -1 17 8 17 8 0 15 -7 15 -15 0
-8 4 -15 9 -15 4 0 7 12 5 28 -3 26 -2 26 12 7 13 -17 16 -18 24 -5 9 13 14 7
11 -12 -1 -9 39 -20 79 -22 15 0 26 -4 24 -7 -7 -12 28 -20 41 -9 6 5 15 7 18
4 3 -4 14 -3 24 1 10 5 26 7 36 6 21 -3 22 3 1 23 -8 9 -12 20 -9 26 11 18 24
10 27 -18 2 -19 9 -27 23 -27 11 0 23 5 28 10 4 6 11 4 17 -5 8 -13 10 -12 10
3 0 20 11 22 29 5 11 -11 12 -10 6 1 -6 11 -3 13 13 9 16 -5 22 -2 22 10 0 10
3 13 8 7 9 -12 42 -16 42 -5 0 5 -6 10 -12 13 -10 4 -10 7 0 18 7 8 12 10 11
4 -5 -24 13 -40 44 -39 27 1 32 5 35 27 3 22 6 24 17 14 7 -6 11 -14 10 -17
-6 -11 14 -35 22 -27 4 5 2 11 -4 15 -8 5 -7 12 3 26 12 17 18 15 16 -5 -1 -4
8 -5 18 -2 11 3 20 10 20 17 1 6 7 0 14 -13 l13 -24 5 27 c3 14 1 26 -3 26 -5
0 -9 9 -9 19 0 18 6 20 55 17 30 -1 55 1 55 6 0 5 5 6 12 2 23 -14 122 -10
135 6 9 11 12 12 13 2 0 -9 7 -6 20 6 12 11 32 18 45 16 14 -1 25 2 25 7 0 5
9 9 20 9 11 0 20 -4 20 -8 0 -4 9 -8 20 -8 13 0 20 7 20 19 0 14 4 16 17 9 11
-7 26 -4 50 10 18 11 40 17 49 14 9 -3 25 1 37 9 12 8 32 15 45 15 31 0 114
60 107 77 -2 8 0 11 5 8 6 -3 10 -2 10 3 0 17 35 49 49 44 9 -3 11 0 6 8 -6
10 -1 12 19 8 14 -3 26 -2 26 3 0 15 46 23 140 24 89 1 160 17 160 38 0 4 14
5 30 2 21 -4 29 -2 28 7 -2 9 8 12 29 11 17 -2 35 2 39 9 5 8 2 9 -9 5 -18 -7
-72 35 -60 47 4 4 0 4 -10 0 -10 -3 -17 -1 -17 6 0 6 -4 8 -10 5 -5 -3 -10 -1
-10 4 0 12 72 48 105 54 38 7 98 38 113 58 8 11 20 18 29 15 8 -3 12 -2 9 2
-2 4 1 14 7 22 9 12 36 16 117 17 129 2 164 6 184 23 11 9 16 9 16 1 0 -8 6
-9 18 -4 9 5 26 8 37 8 11 0 31 12 44 28 13 15 26 25 29 23 3 -3 11 -1 19 5 7
6 13 9 13 5 0 -4 21 5 47 19 27 14 53 25 59 25 7 0 9 10 6 26 -4 23 -2 24 21
19 18 -5 28 -1 39 14 12 17 22 19 61 15 36 -3 49 -1 53 11 3 8 10 13 15 10 4
-3 13 3 18 13 11 21 51 37 51 20 0 -5 5 -6 10 -3 13 8 13 -1 0 -26 -9 -16 -7
-19 9 -19 11 0 26 7 35 15 20 20 43 21 26 0 -10 -12 -9 -16 3 -21 25 -9 39 4
27 27 -8 15 -7 23 4 35 14 13 13 17 -7 37 -19 19 -19 22 -5 25 23 4 30 70 8
82 -38 20 -98 -18 -84 -54 3 -9 1 -16 -6 -16 -6 0 -8 5 -5 10 9 14 -8 13 -23
-2 -9 -9 -12 -9 -12 0 0 7 -6 12 -14 12 -7 0 -19 7 -27 16 -9 11 -22 14 -41
10 -20 -4 -27 -2 -22 5 4 8 -4 9 -27 4 -19 -4 -35 -11 -37 -16 -2 -4 -10 -5
-17 -2 -11 4 -12 10 -5 24 8 14 5 23 -12 39 -18 16 -19 20 -5 20 22 0 29 14
21 45 -4 16 -12 24 -19 21 -16 -6 -27 18 -19 39 4 8 2 15 -3 15 -15 0 -53 40
-53 56 0 8 4 13 9 10 5 -3 12 1 15 10 8 21 8 26 -3 20 -16 -10 -22 26 -9 48
18 29 11 74 -13 81 -17 6 -33 44 -31 72 1 7 -45 36 -58 38 -3 0 -11 4 -19 9
-9 6 -18 4 -26 -7 -15 -21 -31 -22 -39 -1 -3 9 -12 14 -20 11 -15 -6 -56 43
-56 67 0 7 -11 17 -25 20 -14 4 -23 11 -20 16 4 6 11 7 17 4 8 -5 9 1 5 17 -4
13 -7 27 -7 30 0 4 -10 9 -22 12 -12 4 -19 9 -16 13 4 3 2 12 -5 19 -7 7 -20
24 -31 39 -10 14 -22 23 -27 20 -5 -2 -14 4 -21 16 -7 11 -20 20 -30 20 -9 0
-19 6 -21 13 -4 8 -6 8 -6 0 -1 -7 -14 -5 -40 8 -22 10 -46 16 -54 13 -7 -2
-20 2 -27 11 -7 8 -18 15 -25 15 -8 0 -12 11 -10 30 3 35 -5 38 -30 10 -13
-15 -21 -17 -31 -9 -7 6 -18 8 -24 4 -7 -4 -10 0 -8 11 2 15 -2 18 -20 16 -20
-3 -22 -1 -14 15 8 13 5 24 -9 42 -10 13 -19 29 -19 37 0 17 -34 36 -53 28 -8
-3 -17 2 -21 11 -4 10 -12 15 -22 11 -8 -3 -12 -1 -9 4 3 5 -5 20 -17 32 -13
13 -22 26 -21 31 4 11 -40 52 -57 53 -45 3 -49 5 -44 18 7 18 -22 28 -35 12
-15 -18 -71 -19 -71 -1 0 7 -6 15 -14 18 -7 3 -18 19 -24 36 -11 30 -9 32 28
51 21 11 41 24 45 30 10 16 -39 12 -61 -5 -25 -19 -34 -19 -34 0 0 8 -7 15
-15 15 -8 0 -15 -4 -15 -9 0 -5 -8 -12 -17 -15 -19 -8 -40 8 -24 18 18 12 12
29 -8 23 -10 -2 -25 0 -34 4 -10 6 -18 5 -22 -1 -9 -14 -25 -13 -25 3 0 6 -11
17 -24 23 -18 9 -25 8 -34 -5 -10 -14 -11 -13 -5 3 5 16 2 17 -25 11 -21 -4
-32 -3 -32 4 0 6 -3 10 -7 10 -19 -3 -33 2 -33 11 0 6 -9 19 -20 30 -11 11
-20 27 -20 35 0 8 -4 15 -9 15 -5 0 -7 9 -4 20 3 11 0 20 -6 20 -7 0 -9 21 -7
60 4 59 4 60 -21 60 -19 0 -24 4 -21 18 7 25 -19 47 -37 32 -11 -9 -18 -9 -30
4 -9 9 -28 19 -42 22 -17 5 -23 12 -20 24 5 21 -23 33 -44 19 -16 -9 -52 8
-44 21 4 6 -7 7 -25 4 -19 -4 -30 -2 -30 5 0 6 -6 11 -14 11 -8 0 -18 9 -21
21 -7 20 -7 20 -26 -2 -17 -20 -23 -41 -22 -77 1 -7 -4 -11 -11 -9 -6 3 -10
10 -8 16 1 7 -1 10 -6 7 -5 -3 -18 1 -28 8 -14 11 -23 12 -39 3 -25 -14 -66
-17 -82 -5 -7 6 -17 6 -24 2 -21 -12 -73 -10 -88 4 -11 11 -16 10 -28 -8 -17
-24 -36 -26 -53 -5 -8 10 -17 12 -24 6 -15 -12 -122 22 -118 37 1 7 -2 12 -8
12 -5 0 -10 -7 -10 -15 0 -9 -6 -12 -15 -9 -11 5 -13 10 -5 19 7 8 5 17 -9 29
-11 10 -17 27 -15 44 7 62 17 149 19 177 5 49 16 129 20 145 2 8 7 49 10 90 3
42 8 91 10 110 3 19 8 60 10 90 6 66 13 128 19 155 2 11 7 41 10 68 4 26 12
47 17 47 6 0 8 3 6 8 -3 4 11 39 32 77 l36 70 100 1 c55 0 129 4 165 8 36 4
85 9 110 10 68 5 204 28 215 38 5 4 19 8 32 8 13 0 23 4 23 9 0 5 12 12 28 16
25 6 92 46 119 72 7 6 18 13 24 15 16 5 -16 66 -50 96 -61 52 -182 100 -276
108 -33 3 -69 7 -80 8 -11 1 -33 -2 -50 -6 -16 -5 -46 -11 -65 -14 -69 -11
-132 -46 -189 -106 l-26 -27 -47 36 c-46 33 -60 53 -38 53 6 0 10 5 10 10 0 6
9 19 20 30 11 11 20 17 20 13 0 -5 16 10 35 31 36 40 45 66 23 66 -7 0 -4 6 5
13 17 12 13 62 -4 51 -17 -10 -9 5 14 27 12 12 17 19 11 16 -7 -4 -17 0 -24 8
-9 10 -9 15 -1 15 15 0 14 46 -2 62 -7 7 -28 40 -47 73 -18 33 -35 62 -36 64
-5 6 -84 -50 -84 -60 0 -4 -8 -10 -17 -14 -10 -3 -30 -25 -45 -48 -55 -88 -53
-185 7 -294 19 -35 31 -63 27 -63 -4 -1 -28 -2 -54 -4 -51 -4 -46 -10 -64 82
-1 8 -9 21 -17 30 -8 10 -28 42 -45 72 -17 30 -39 64 -49 75 -10 11 -35 42
-56 68 -46 57 -150 133 -215 157 -47 17 -203 25 -248 11z m709 -646 c34 -30
34 -36 13 -190 -3 -16 -5 -38 -5 -48 -1 -10 -5 -16 -10 -13 -12 8 -64 154 -57
164 7 12 19 73 18 95 -1 23 8 21 41 -8z"/>
</g>
</svg>
