<?xml version="1.0" standalone="no"?>
<!DOCTYPE svg PUBLIC "-//W3C//DTD SVG 20010904//EN"
 "http://www.w3.org/TR/2001/REC-SVG-20010904/DTD/svg10.dtd">
<svg version="1.0" xmlns="http://www.w3.org/2000/svg"
 width="900.000000pt" height="600.000000pt" viewBox="0 0 900.000000 600.000000"
 preserveAspectRatio="xMidYMid meet">
<metadata>
Created by potrace 1.11, written by Peter Selinger 2001-2013
</metadata>
<g transform="translate(0.000000,600.000000) scale(0.100000,-0.100000)"
fill="#000000" stroke="none">
<path d="M0 5285 l0 -105 46 -28 c26 -15 51 -32 58 -37 6 -6 40 -26 76 -44 36
-18 72 -40 81 -47 9 -8 19 -11 22 -7 4 3 7 1 7 -6 0 -7 4 -10 9 -7 5 4 11 2
13 -3 3 -8 133 -91 143 -91 2 0 24 -13 48 -30 25 -16 48 -30 51 -30 7 0 129
-71 256 -149 109 -67 113 -69 140 -81 13 -6 27 -14 30 -18 3 -4 39 -25 80 -46
41 -21 83 -45 92 -54 10 -8 18 -11 18 -6 0 5 4 4 8 -1 13 -18 145 -101 214
-134 36 -18 75 -41 87 -52 11 -10 22 -19 25 -19 2 0 32 -18 65 -40 33 -22 63
-40 66 -40 3 0 32 -17 63 -39 90 -60 223 -141 233 -141 5 0 9 -3 9 -8 0 -4 17
-16 38 -27 20 -11 58 -34 85 -52 26 -18 47 -30 47 -27 0 4 8 0 18 -8 9 -8 40
-28 67 -44 28 -15 52 -31 55 -34 9 -9 43 -30 85 -50 48 -23 118 -63 125 -71 3
-3 19 -12 35 -21 94 -48 271 -143 275 -147 3 -4 29 -17 58 -30 28 -14 52 -28
52 -33 0 -4 3 -7 8 -6 13 4 235 -114 267 -142 23 -20 117 -71 138 -74 8 -1 41
-19 74 -40 l60 -38 -12 -37 c-8 -20 -21 -63 -31 -96 -9 -33 -21 -65 -25 -71
-5 -6 -6 -13 -3 -17 3 -3 1 -15 -5 -26 -16 -30 -3 -103 18 -99 9 2 16 8 17 13
1 11 33 86 64 150 l20 40 -5 -100 c-2 -55 -8 -115 -14 -132 -5 -18 -6 -35 -2
-38 5 -2 5 -22 2 -42 -4 -21 -6 -45 -6 -53 1 -8 -3 -21 -8 -27 -5 -7 -7 -13
-4 -13 3 0 -8 -44 -24 -97 -17 -54 -32 -109 -35 -122 -3 -14 -8 -29 -12 -35
-3 -6 -7 -15 -8 -21 -2 -5 -10 -39 -19 -75 -21 -82 -10 -136 36 -174 29 -24
32 -25 65 -11 19 8 34 11 34 7 0 -4 11 -19 23 -34 20 -23 30 -27 63 -24 21 2
40 9 40 15 1 6 2 12 4 14 1 1 3 21 5 44 6 70 26 192 41 249 8 30 13 58 13 62
-1 4 0 9 1 12 2 6 8 28 14 55 2 11 5 20 6 20 1 0 3 12 5 26 12 88 104 309 152
361 14 16 18 16 57 -8 22 -13 49 -27 59 -30 9 -4 17 -10 17 -14 0 -4 18 -15
39 -25 26 -11 41 -25 43 -39 2 -12 11 -22 23 -23 11 -2 14 0 8 3 -7 3 -13 10
-13 15 0 5 11 3 25 -3 14 -6 25 -15 25 -20 0 -4 4 -8 8 -8 8 0 84 -41 147 -79
73 -45 158 -91 166 -91 5 0 9 -4 9 -8 0 -4 31 -24 70 -43 38 -18 70 -37 70
-41 0 -5 4 -8 10 -8 5 0 48 -23 96 -50 48 -28 90 -50 95 -50 4 0 23 -14 41
-31 31 -28 126 -79 148 -79 6 0 28 -11 50 -25 22 -14 40 -23 40 -20 0 3 20 -8
44 -25 25 -16 47 -30 51 -30 3 0 34 -18 67 -40 34 -22 65 -40 70 -40 4 0 52
-26 105 -58 54 -32 134 -78 178 -102 44 -23 98 -53 120 -65 22 -12 56 -31 75
-41 19 -11 37 -21 40 -24 3 -3 28 -16 55 -30 28 -13 52 -27 55 -31 3 -4 21
-14 40 -22 43 -20 197 -106 271 -152 9 -5 48 -27 86 -47 39 -20 77 -43 84 -51
8 -7 64 -42 124 -77 61 -35 112 -67 115 -70 3 -4 57 -40 120 -81 63 -42 131
-90 150 -107 19 -17 53 -41 76 -52 45 -21 244 -156 256 -174 5 -7 8 -7 8 -1 0
6 4 5 8 -1 9 -15 218 -154 231 -154 5 0 11 -4 13 -8 4 -11 91 -61 198 -113 47
-23 87 -44 90 -48 3 -4 34 -21 70 -39 36 -17 72 -36 80 -41 8 -5 29 -16 45
-23 66 -31 250 -132 253 -140 2 -4 9 -8 15 -8 6 0 69 -32 141 -72 72 -40 150
-82 173 -93 23 -12 57 -33 75 -47 18 -14 62 -40 98 -58 36 -18 77 -39 92 -46
14 -8 56 -14 92 -14 l66 0 0 55 c0 55 0 56 -46 83 -25 15 -74 45 -108 68 -33
22 -83 51 -111 65 -27 13 -51 27 -53 32 -2 4 -8 7 -13 7 -5 0 -77 40 -160 90
-82 49 -152 90 -155 90 -3 0 -25 14 -50 30 -24 17 -44 27 -44 23 0 -4 -4 -3
-8 2 -4 6 -24 19 -44 30 -21 11 -38 23 -38 27 0 5 -5 8 -11 8 -6 0 -44 20 -83
45 -40 25 -75 45 -78 45 -6 0 -170 97 -185 110 -7 5 -15 10 -17 10 -5 0 -50
26 -131 75 -11 7 -24 12 -29 13 -5 0 -12 4 -15 9 -7 10 -32 25 -86 54 -22 12
-43 27 -47 33 -4 6 -8 7 -8 3 0 -4 -24 8 -54 27 -30 19 -74 45 -97 58 -23 13
-49 28 -58 33 -104 65 -140 85 -150 85 -6 0 -11 5 -11 10 0 6 -6 10 -14 10 -8
0 -16 4 -18 9 -3 9 -83 57 -148 89 -19 9 -36 20 -38 25 -2 4 -8 7 -13 7 -5 0
-62 32 -126 71 -65 39 -127 75 -138 80 -11 5 -33 18 -50 28 -16 11 -52 32 -79
46 -27 15 -61 35 -75 45 -36 25 -182 110 -189 110 -3 0 -13 6 -21 14 -9 7 -41
27 -71 43 -66 36 -258 149 -317 186 -24 15 -47 27 -53 27 -5 0 -10 5 -10 10 0
6 -5 10 -12 10 -6 0 -32 13 -57 28 -25 16 -102 62 -171 102 -69 40 -153 90
-187 111 -34 22 -65 39 -69 39 -3 0 -26 14 -51 30 -24 17 -47 30 -50 30 -3 0
-27 13 -53 29 -27 16 -50 27 -53 25 -3 -3 -14 7 -26 22 -11 15 -21 23 -21 18
0 -5 -4 -4 -8 2 -8 13 -121 78 -140 80 -8 2 -21 9 -30 17 -10 7 -37 25 -62 39
-59 33 -90 50 -250 145 -74 44 -146 86 -160 94 -14 8 -27 16 -30 19 -3 3 -18
13 -35 22 -17 9 -30 25 -30 36 0 25 -23 52 -46 52 -10 0 -22 6 -26 13 -4 6
-16 18 -26 26 -15 12 -20 11 -37 -4 -18 -16 -21 -16 -77 16 -32 18 -60 34 -62
36 -3 2 29 38 71 81 76 78 171 202 198 257 8 17 27 50 42 75 28 48 34 68 47
165 9 62 -3 160 -21 183 -6 6 -7 12 -4 12 4 0 2 9 -4 20 -22 41 9 120 49 123
12 1 21 5 21 10 0 5 6 7 14 4 8 -3 17 -3 21 1 4 4 10 7 13 8 67 7 122 18 122
24 0 12 -58 33 -74 27 -8 -3 -17 -3 -20 1 -4 3 -14 7 -23 8 -49 7 -72 19 -108
55 -48 46 -108 61 -195 49 -80 -11 -128 -39 -193 -112 -31 -35 -64 -70 -73
-78 -98 -91 -182 -203 -252 -335 -31 -59 -90 -196 -97 -228 -4 -15 -11 -30
-16 -32 -4 -3 -5 -13 -2 -21 5 -14 3 -15 -18 -4 -13 7 -26 16 -29 20 -3 4 -25
17 -49 29 -24 13 -62 36 -84 52 -22 16 -46 29 -54 29 -7 0 -13 4 -13 8 0 5
-30 23 -67 42 -37 18 -91 48 -120 66 -28 19 -55 34 -58 34 -3 0 -24 12 -48 27
-23 15 -44 28 -47 28 -3 0 -23 12 -45 26 -22 14 -56 34 -75 45 -19 10 -42 24
-50 30 -8 6 -46 28 -85 48 -38 21 -77 43 -85 50 -8 7 -42 28 -75 46 -33 18
-62 35 -65 39 -3 3 -19 13 -35 22 -64 32 -120 64 -125 70 -3 3 -12 9 -20 13
-8 4 -33 18 -55 31 -22 13 -62 36 -90 50 -27 15 -57 32 -65 39 -8 7 -42 28
-75 46 -33 19 -61 37 -63 42 -2 4 -12 8 -22 8 -10 0 -20 4 -22 9 -1 4 -34 26
-73 48 -161 92 -273 158 -320 189 -27 19 -53 34 -58 34 -8 0 -68 40 -77 51 -8
9 -73 43 -89 45 -8 2 -27 12 -42 23 -16 12 -30 21 -33 21 -8 0 -131 74 -137
83 -3 5 -10 9 -15 9 -5 1 -18 6 -29 13 -72 44 -206 121 -253 147 -32 17 -58
35 -60 40 -2 4 -8 8 -12 8 -5 0 -43 20 -83 45 -41 25 -77 45 -80 45 -4 0 -23
12 -44 26 -21 14 -47 30 -58 35 -11 5 -33 18 -50 29 -16 11 -42 26 -57 32 -16
7 -28 16 -28 20 0 4 -4 8 -10 8 -5 0 -38 17 -72 38 -35 21 -89 53 -120 71
l-58 32 0 -106z m7455 -4335 c61 -34 122 -71 137 -81 15 -11 29 -19 32 -19 3
0 52 -28 108 -62 103 -62 184 -109 268 -155 43 -24 77 -50 55 -42 -24 9 -230
115 -235 120 -5 6 -90 51 -100 53 -9 2 -268 161 -344 211 -41 28 -77 56 -80
63 -3 7 6 4 22 -7 15 -10 77 -47 137 -81z"/>
</g>
</svg>
