<?xml version="1.0" standalone="no"?>
<!DOCTYPE svg PUBLIC "-//W3C//DTD SVG 20010904//EN"
 "http://www.w3.org/TR/2001/REC-SVG-20010904/DTD/svg10.dtd">
<svg version="1.0" xmlns="http://www.w3.org/2000/svg"
 width="400.000000pt" height="600.000000pt" viewBox="0 0 400.000000 600.000000"
 preserveAspectRatio="xMidYMid meet">
<metadata>
Created by potrace 1.11, written by Peter Selinger 2001-2013
</metadata>
<g transform="translate(0.000000,600.000000) scale(0.100000,-0.100000)"
fill="#000000" stroke="none">
<path d="M3413 5520 c-3 -11 -10 -17 -16 -13 -5 3 -7 1 -3 -5 3 -6 -2 -18 -11
-28 -9 -9 -18 -23 -19 -31 -2 -8 -10 -20 -20 -27 -9 -7 -14 -18 -11 -23 4 -6
0 -14 -9 -17 -8 -3 -12 -10 -9 -16 3 -5 1 -10 -6 -10 -7 0 -9 -3 -6 -7 4 -3
-1 -12 -11 -20 -11 -10 -12 -12 -2 -8 10 4 9 2 -2 -8 -10 -8 -15 -17 -11 -20
3 -4 1 -7 -6 -7 -7 0 -10 -4 -7 -9 3 -5 -1 -12 -10 -15 -9 -3 -14 -13 -11 -20
3 -8 -1 -17 -10 -20 -8 -4 -13 -13 -9 -21 3 -8 1 -14 -5 -12 -5 1 -23 -23 -40
-53 -17 -30 -39 -70 -50 -88 -11 -19 -16 -38 -13 -44 4 -6 3 -8 -2 -5 -13 8
-117 -179 -108 -194 4 -8 3 -9 -4 -5 -7 4 -23 -14 -42 -46 -32 -57 -37 -73
-17 -62 7 4 9 3 4 -2 -5 -5 -13 -9 -19 -9 -5 0 -43 -58 -84 -130 -57 -100 -79
-130 -94 -130 -20 0 -42 -23 -35 -36 3 -3 0 -21 -5 -38 -7 -27 -7 -32 5 -27
17 6 19 -2 6 -23 -13 -20 -42 -6 -34 16 5 14 0 12 -19 -7 -14 -13 -24 -32 -23
-42 2 -10 0 -18 -6 -18 -5 0 -9 -7 -9 -15 0 -8 -6 -15 -14 -15 -10 0 -16 -13
-18 -37 -2 -21 -8 -38 -15 -38 -17 0 -24 -10 -28 -41 -2 -16 -7 -39 -12 -51
-8 -21 -10 -21 -160 37 -194 75 -193 74 -193 110 0 17 -8 34 -20 43 -11 8 -18
16 -15 19 3 2 16 65 29 139 27 148 43 309 29 309 -4 0 -9 -29 -9 -65 -2 -70
-10 -151 -17 -163 -3 -4 -8 -29 -11 -55 -18 -132 -28 -162 -66 -195 -13 -12
-13 -13 0 -6 12 6 13 4 3 -6 -23 -24 -43 -20 -43 8 0 27 -39 116 -47 108 -12
-12 -41 32 -46 69 -2 22 -8 50 -12 62 -6 18 0 30 28 57 19 18 41 36 48 38 9 3
9 9 2 23 -12 20 -2 36 30 48 18 7 24 37 7 37 -16 0 12 38 32 43 19 5 24 32 8
42 -5 3 -8 11 -6 18 1 7 1 9 -1 6 -2 -3 -17 -3 -34 -1 -28 4 -30 2 -28 -19 2
-13 0 -30 -4 -36 -5 -7 -5 -13 0 -14 4 -1 -3 -4 -17 -8 -14 -4 -24 -14 -22
-21 6 -26 -8 -58 -28 -63 -17 -4 -19 -9 -10 -32 7 -17 7 -24 0 -20 -6 3 -11
-3 -11 -14 -3 -44 -18 -83 -30 -75 -22 13 -61 -7 -74 -39 -7 -17 -11 -35 -9
-39 3 -5 -7 -8 -23 -9 -27 0 -27 -1 -5 -11 29 -15 28 -23 -5 -27 -73 -8 -115
-2 -203 31 -269 101 -371 138 -380 138 -23 0 -7 30 30 60 33 26 38 35 29 47
-10 11 -7 19 14 39 29 26 33 39 17 49 -11 7 12 35 28 35 16 0 23 31 11 46 -6
7 -8 17 -5 22 3 5 -9 8 -27 8 -36 -1 -50 -21 -35 -50 7 -13 7 -16 -1 -12 -6 4
-11 0 -11 -8 0 -9 -7 -16 -15 -16 -14 0 -20 -12 -16 -34 4 -19 -11 -44 -27
-48 -14 -4 -17 -14 -15 -49 3 -54 -8 -73 -35 -65 -12 4 -19 15 -19 32 -1 13
-7 32 -16 42 -13 15 -12 26 14 112 17 52 39 113 49 135 19 39 19 39 1 17 -11
-12 -34 -67 -51 -122 -17 -55 -37 -105 -46 -112 -8 -7 -21 -19 -29 -26 -14
-13 -20 -49 -17 -102 2 -30 -72 -180 -76 -156 -2 11 -10 15 -21 11 -9 -3 -39
2 -67 10 -63 19 -61 20 -68 -12 -4 -16 -9 -35 -12 -44 -3 -11 10 -20 51 -33
l55 -17 -30 -56 c-38 -70 -35 -102 10 -101 20 1 30 6 30 17 0 9 9 31 21 50 11
19 18 42 16 53 -6 21 10 23 48 6 32 -14 32 -22 -4 -57 -21 -21 -26 -32 -19
-45 5 -9 6 -21 3 -26 -4 -6 2 -7 17 -1 13 4 28 6 34 4 7 -2 12 7 13 24 0 15 1
35 1 44 3 35 59 27 264 -38 110 -35 245 -77 299 -94 87 -27 124 -49 81 -49
-12 0 -14 -4 -7 -12 15 -19 24 -50 14 -43 -6 3 -21 -6 -35 -20 -14 -14 -20
-27 -15 -31 6 -3 8 -12 5 -20 -4 -10 4 -14 28 -14 30 0 34 3 35 28 1 63 1 64
22 59 14 -4 20 -1 18 11 -3 38 1 42 29 36 15 -4 29 -10 32 -15 3 -4 4 -43 2
-87 l-3 -81 -37 -3 c-20 -2 -55 0 -77 4 -49 9 -109 -8 -101 -28 3 -8 -1 -14
-11 -14 -12 0 -13 -3 -3 -15 9 -11 -7 -51 -89 -211 -55 -109 -99 -200 -96
-202 2 -3 8 4 12 14 3 10 15 25 25 32 10 7 16 17 13 22 -3 5 29 77 70 160 69
137 78 150 93 138 15 -12 16 -11 4 4 -9 11 -10 18 -2 23 5 3 10 3 10 -2 1 -18
20 24 20 43 0 21 5 22 85 20 l84 -1 -5 -290 c-3 -159 -6 -325 -7 -367 -2 -76
-2 -77 -34 -92 -53 -25 -87 -87 -90 -165 -2 -69 0 -65 19 32 8 43 20 68 43 93
44 46 60 44 60 -6 0 -36 -2 -40 -25 -40 -24 -1 -24 -1 -5 -12 11 -6 22 -12 23
-14 2 -1 6 -59 9 -128 l5 -126 -56 54 c-31 29 -56 59 -56 65 0 6 -4 11 -10 11
-19 0 -9 -16 50 -78 33 -34 60 -69 60 -76 0 -8 -13 -19 -30 -25 -34 -11 -34
-10 -20 -46 8 -22 6 -34 -12 -64 -12 -20 -24 -38 -27 -41 -11 -9 -31 -50 -31
-61 0 -6 -46 -95 -103 -197 -57 -103 -139 -251 -182 -329 -43 -78 -82 -140
-86 -137 -11 6 -31 -34 -24 -47 6 -8 -111 -231 -248 -477 -17 -32 -24 -50 -15
-47 8 3 30 38 51 78 20 40 50 97 67 126 18 30 45 82 62 115 17 34 43 73 56 88
14 15 23 31 19 35 -4 3 8 34 27 67 59 107 91 166 216 401 67 127 131 238 141
248 11 10 20 22 20 27 3 19 5 25 23 60 10 19 25 39 32 43 8 4 14 19 14 31 0
14 10 30 23 38 24 16 51 13 41 -4 -4 -6 -6 -59 -5 -119 0 -60 -3 -109 -8 -109
-5 0 -7 -10 -4 -21 5 -19 3 -21 -20 -17 -15 3 -27 1 -27 -3 0 -8 15 -13 32
-10 4 0 5 -6 1 -15 -3 -10 -13 -14 -25 -11 -15 4 -17 2 -8 -8 12 -15 -1 -59
-27 -87 -9 -10 -13 -18 -9 -18 8 0 -40 -78 -67 -107 -11 -13 -18 -25 -15 -29
3 -3 -14 -41 -39 -86 -24 -44 -42 -82 -39 -85 2 -3 11 8 20 24 36 70 107 199
138 250 17 28 22 31 40 22 18 -10 18 -12 4 -28 -9 -10 -16 -22 -16 -28 0 -13
-71 -147 -90 -171 -8 -10 -16 -25 -18 -33 -2 -8 -47 -93 -101 -189 -110 -195
-280 -505 -391 -710 -159 -294 -141 -262 -262 -480 -39 -69 -71 -133 -73 -143
-2 -9 -7 -22 -10 -27 -3 -6 -2 -10 4 -10 14 0 32 35 23 45 -4 5 -2 5 5 1 10
-5 130 200 281 484 42 79 285 527 320 590 13 25 40 74 60 110 62 114 184 325
190 330 4 3 8 11 10 18 5 24 103 192 113 192 11 0 13 -226 4 -675 -4 -163 -9
-192 -34 -197 -9 -2 -16 -12 -16 -23 0 -15 -7 -20 -27 -20 -33 1 -37 -11 -6
-21 22 -7 22 -7 2 -23 -11 -9 -19 -21 -17 -27 2 -6 -19 -51 -48 -100 -28 -49
-77 -138 -109 -199 -81 -154 -120 -226 -139 -255 -9 -14 -21 -34 -28 -45 -68
-114 -93 -159 -98 -175 -4 -11 -11 -20 -16 -20 -5 0 -8 -3 -7 -7 1 -5 -3 -18
-10 -30 -7 -13 -9 -23 -5 -23 4 0 2 -4 -6 -9 -8 -5 -16 -16 -17 -25 -2 -13 2
-14 17 -6 18 10 23 21 20 47 -1 6 4 15 10 19 8 4 9 3 5 -4 -4 -7 -4 -12 1 -12
4 0 13 10 19 23 36 72 111 205 209 372 62 105 148 250 191 323 43 72 81 132
85 132 8 0 19 -51 19 -86 0 -17 -6 -24 -20 -24 -11 0 -20 -5 -20 -11 0 -6 6
-9 14 -6 8 3 16 4 18 1 7 -6 -67 -84 -80 -84 -19 0 -14 -20 6 -20 16 -1 16 -1
-1 -14 -12 -10 -16 -21 -12 -38 4 -16 1 -29 -9 -37 -9 -8 -16 -17 -16 -22 0
-12 -72 -129 -80 -129 -3 0 -7 -6 -7 -13 0 -7 -39 -82 -87 -167 -48 -85 -84
-160 -81 -167 2 -8 0 -11 -5 -8 -6 3 -13 -2 -17 -12 -3 -10 -15 -30 -25 -45
-16 -23 -16 -27 -4 -22 11 4 15 1 13 -7 -2 -8 -2 -11 0 -6 3 4 11 7 20 7 12 0
12 2 -1 16 -20 20 -21 30 -1 14 20 -16 32 -5 16 14 -10 12 -9 14 7 9 12 -3 22
2 26 13 4 10 64 110 134 223 71 113 143 232 161 264 18 31 37 57 42 57 5 0 10
-53 10 -117 2 -161 3 -173 9 -173 3 0 5 -23 4 -52 -1 -39 1 -48 10 -37 6 8 17
15 25 17 11 2 11 -1 -2 -20 -8 -13 -19 -22 -24 -21 -5 1 -10 -8 -10 -20 -2
-21 -1 -21 9 -3 8 15 12 16 19 5 5 -8 3 -16 -3 -20 -19 -12 -17 -38 2 -44 24
-8 33 -32 14 -39 -13 -5 -12 -11 6 -38 21 -32 21 -32 1 -9 -24 27 -26 24 -8
-13 8 -14 18 -22 23 -18 5 4 1 -2 -9 -14 -14 -17 -14 -21 -2 -21 8 0 17 7 19
14 3 8 10 12 15 8 6 -3 8 3 6 14 -2 12 3 21 16 24 12 3 19 0 19 -10 0 -8 -5
-11 -12 -7 -7 4 -4 -2 6 -14 23 -26 22 -26 29 -8 4 11 1 13 -11 10 -11 -3 -9
0 4 8 12 7 20 21 19 30 -2 13 1 15 18 8 12 -4 21 -14 19 -21 -2 -9 1 -9 14 1
10 9 12 16 5 18 -6 2 -11 8 -11 13 0 6 4 8 8 5 5 -3 9 1 9 9 0 12 -4 12 -19
-2 -16 -14 -18 -14 -13 -1 4 9 0 18 -11 22 -12 5 -15 2 -10 -10 5 -14 4 -15
-9 -4 -8 7 -12 17 -8 24 14 21 15 58 2 50 -8 -4 -9 -3 -5 4 17 28 15 52 -4 52
-10 0 -21 4 -24 9 -4 5 9 6 29 1 19 -4 37 -5 41 -1 4 3 4 1 1 -5 -4 -7 2 -23
13 -35 18 -23 19 -23 21 -4 1 11 2 25 4 30 1 6 3 17 4 25 1 8 8 2 16 -15 l13
-30 1 28 c1 15 6 27 11 27 12 0 13 33 1 45 -5 6 -11 28 -14 50 -5 36 -4 38 9
21 8 -11 14 -16 14 -10 0 15 -14 29 -39 40 -21 9 -22 11 -7 17 11 5 15 3 10
-5 -4 -7 -3 -8 5 -4 6 4 9 16 6 27 -4 12 -2 19 8 19 17 0 17 71 0 92 -9 10 -9
18 -2 25 15 15 7 129 -9 125 -8 -1 -11 2 -7 8 3 6 12 7 18 3 7 -4 6 0 -2 10
-7 9 -9 17 -3 17 6 0 8 21 6 55 -3 35 1 67 11 91 8 20 13 39 10 42 -3 3 -5 0
-5 -6 0 -7 -4 -12 -9 -12 -4 0 -7 49 -7 108 l2 108 195 294 c107 162 228 346
268 407 41 62 78 113 83 113 5 0 7 4 4 8 -2 4 7 26 22 48 15 22 70 106 122
187 52 81 98 147 102 147 5 0 39 -62 77 -137 39 -76 70 -135 70 -130 1 4 -31
70 -69 148 l-71 140 58 90 c32 50 81 125 108 168 28 43 118 183 200 310 83
127 166 256 185 286 42 65 164 255 294 455 187 287 226 352 220 362 -4 6 -2 8
3 5 16 -10 25 21 28 98 2 58 1 66 -8 45 -6 -14 -20 -33 -31 -42 -10 -10 -15
-18 -11 -18 5 0 0 -7 -11 -15 -10 -8 -15 -15 -10 -15 6 0 2 -6 -7 -12 -9 -7
-91 -130 -183 -273 -91 -143 -196 -305 -231 -360 -101 -157 -204 -318 -252
-395 -24 -39 -68 -107 -97 -153 -70 -110 -121 -189 -249 -392 -59 -93 -131
-206 -160 -250 -48 -75 -107 -168 -216 -338 -174 -273 -273 -422 -280 -425 -5
-2 -9 -8 -9 -14 0 -14 -129 -208 -139 -208 -5 0 -9 24 -10 53 -1 28 -3 63 -5
77 -3 37 7 59 73 162 33 51 105 163 160 248 55 85 104 154 110 153 6 -2 8 3 5
10 -2 7 17 47 43 88 27 41 107 167 178 281 71 115 132 208 136 208 3 0 16 -23
29 -51 13 -28 28 -53 32 -55 5 -3 -6 24 -23 59 l-32 65 103 169 c57 92 118
191 135 218 26 40 260 417 471 757 428 692 465 754 458 761 -10 9 -14 57 -5
57 4 0 8 -9 7 -20 0 -11 3 -20 9 -20 5 0 10 10 10 23 2 29 -36 35 -50 7 -6
-10 -113 -184 -238 -387 -126 -202 -233 -375 -238 -383 -5 -8 -75 -123 -155
-255 -159 -259 -311 -509 -445 -727 l-84 -137 -21 24 c-31 36 -37 31 -12 -10
l20 -36 -32 -52 c-18 -29 -82 -133 -143 -232 -60 -99 -143 -234 -185 -300
-125 -200 -193 -307 -227 -360 -18 -27 -44 -70 -59 -93 -15 -24 -29 -42 -32
-39 -9 8 -14 278 -5 273 5 -3 14 0 20 8 8 10 5 21 -12 48 -19 27 -24 50 -26
104 -1 38 -4 105 -6 149 -1 44 -3 99 -4 123 -1 32 -4 41 -13 36 -7 -5 1 8 18
27 17 20 48 66 69 104 l38 68 19 -36 c10 -20 21 -37 23 -37 3 0 -4 18 -15 41
l-21 40 55 92 c30 51 71 130 92 177 20 47 54 110 74 140 38 56 93 152 170 295
24 44 51 92 61 107 11 14 19 29 19 32 0 11 68 112 84 125 9 7 13 17 10 22 -6
10 26 69 37 69 4 0 25 -6 47 -14 47 -17 62 -8 65 40 2 26 -14 42 -57 57 -5 2
4 25 20 51 16 26 36 60 45 74 31 51 287 488 396 677 96 166 188 329 296 525
16 30 45 81 63 113 35 60 42 83 22 71 -7 -4 -8 -3 -4 5 4 6 11 9 16 6 11 -7
39 55 32 73 -3 9 -1 13 5 9 5 -3 10 0 10 7 0 7 -6 13 -13 13 -7 0 -11 -3 -9
-7 2 -3 -5 -14 -16 -23 -10 -9 -19 -22 -19 -29 1 -8 6 -6 14 5 7 9 17 17 21
17 4 0 2 -6 -4 -13 -6 -8 -8 -17 -5 -20 4 -3 -5 -4 -20 -1 -16 2 -26 0 -26 -7
0 -6 -12 -30 -26 -53 -14 -22 -64 -111 -111 -196 -137 -251 -235 -422 -265
-467 -15 -23 -28 -46 -28 -52 0 -6 -4 -11 -10 -11 -5 0 -9 -3 -8 -7 2 -5 -8
-26 -22 -48 -13 -22 -31 -53 -39 -70 -8 -16 -21 -34 -28 -38 -8 -5 -11 -12 -8
-18 4 -5 1 -9 -6 -9 -7 0 -9 -3 -6 -7 4 -3 -1 -12 -11 -20 -9 -8 -11 -11 -4
-8 11 6 11 3 0 -14 -7 -12 -16 -21 -21 -21 -4 0 -6 -4 -3 -9 3 -5 -1 -11 -9
-15 -8 -3 -15 -14 -15 -24 0 -10 -9 -27 -20 -37 -11 -10 -17 -22 -14 -26 3 -5
0 -9 -6 -9 -6 0 -9 -4 -5 -9 3 -6 -3 -15 -14 -21 -12 -6 -18 -16 -15 -25 4 -8
1 -15 -7 -15 -7 0 -10 -3 -6 -6 3 -4 -5 -21 -18 -39 -14 -17 -25 -37 -25 -44
0 -7 -5 -9 -12 -5 -7 4 -8 3 -4 -4 4 -7 2 -20 -3 -29 -6 -10 -11 -13 -11 -8 0
6 -9 -8 -20 -30 -32 -64 -76 -145 -82 -151 -3 -3 -5 3 -5 13 2 13 -4 17 -21
15 -37 -5 -35 21 6 89 22 35 74 127 117 204 43 77 86 154 95 170 10 17 93 163
185 325 206 361 201 353 224 393 132 228 271 477 271 485 0 15 -80 -114 -196
-317 -68 -119 -128 -223 -134 -231 -5 -8 -19 -33 -31 -55 -12 -22 -60 -107
-107 -190 -47 -82 -123 -217 -170 -300 -46 -82 -104 -184 -127 -225 -23 -41
-75 -132 -114 -202 -40 -71 -75 -128 -79 -128 -19 0 -172 53 -172 60 0 14 26
30 36 21 5 -5 18 -11 29 -15 29 -9 70 69 56 106 -5 14 -7 28 -5 31 3 3 1 15
-6 26 -9 17 -8 22 5 27 8 3 15 14 15 24 0 9 10 30 22 45 12 16 23 37 23 48 1
11 13 28 26 38 13 10 20 21 17 25 -9 8 20 62 195 371 110 193 159 282 269 481
16 28 26 57 23 62 -4 6 -1 9 5 8 6 -2 45 58 86 132 42 74 89 159 105 188 17
29 25 52 19 52 -7 0 -14 -9 -17 -20z m-1861 -1252 c76 -28 135 -54 133 -58 -3
-4 23 -18 58 -30 34 -13 69 -30 77 -38 8 -8 9 -12 3 -8 -7 4 -22 -2 -33 -12
-21 -19 -22 -19 -113 9 -51 16 -189 59 -307 95 -118 37 -217 68 -220 71 -8 8
-7 73 2 73 5 0 6 5 3 10 -25 40 34 23 397 -112z m545 -105 c3 -10 15 -41 28
-68 l22 -51 114 -43 c63 -24 133 -52 156 -62 23 -11 47 -19 52 -19 16 0 13
-11 -6 -25 -14 -10 -28 -9 -77 8 -34 11 -65 27 -70 35 -5 8 -11 10 -15 5 -4
-7 -26 -4 -58 7 -29 9 -53 14 -53 11 2 -15 69 -135 70 -123 0 7 5 10 11 6 6
-3 9 -18 6 -33 -3 -14 1 -37 8 -51 12 -21 14 -22 13 -5 -1 11 1 32 5 46 7 26
8 26 44 13 21 -7 47 -14 58 -14 13 -1 15 -3 6 -7 -25 -10 -51 -42 -45 -57 3
-8 -2 -23 -12 -35 -16 -18 -19 -18 -29 -4 -7 9 -17 13 -24 9 -9 -6 -9 -11 -1
-21 6 -8 12 -29 13 -48 2 -25 6 -33 17 -30 8 3 4 -4 -10 -16 -14 -11 -28 -21
-31 -21 -8 0 -31 -52 -25 -58 3 -2 -1 -17 -10 -33 -8 -16 -11 -29 -7 -29 5 0
3 -4 -3 -8 -11 -7 -66 -105 -120 -213 -24 -50 -40 -69 -64 -79 -19 -8 -29 -18
-26 -26 3 -8 -1 -14 -8 -14 -14 0 -16 17 -20 190 -1 64 -6 121 -10 128 -4 7
-3 12 1 12 9 0 7 92 -2 117 -2 7 0 15 6 18 5 4 7 11 3 16 -3 5 -7 83 -9 174
l-4 164 47 -15 c26 -9 73 -23 105 -31 49 -13 57 -18 51 -35 -9 -31 6 -116 26
-141 l19 -22 22 22 22 22 -57 123 -58 124 -64 18 c-35 10 -64 21 -64 25 0 3 8
16 18 29 15 20 22 22 45 13 32 -12 32 -15 8 36 -11 22 -21 46 -23 54 -2 8 -7
17 -13 21 -6 5 -5 8 3 8 7 0 15 -8 19 -17z m387 -395 c-4 -7 -3 -8 5 -4 7 4
20 4 29 0 22 -9 29 -11 48 -13 9 0 12 -6 8 -13 -4 -7 -3 -8 4 -4 6 4 23 1 37
-7 l26 -13 -21 -27 c-12 -15 -18 -27 -13 -27 4 0 3 -4 -3 -8 -9 -6 -72 -113
-165 -281 -32 -57 -258 -453 -309 -541 -21 -36 -49 -85 -64 -110 -14 -25 -26
-38 -27 -30 0 8 -2 37 -4 65 -2 28 1 56 8 64 9 12 9 13 0 7 -20 -11 -15 1 8
23 12 11 16 21 10 25 -5 4 -7 14 -4 24 5 14 3 15 -8 5 -7 -7 -15 -13 -18 -13
-14 0 -4 108 12 137 21 40 34 48 53 32 13 -10 13 -8 5 14 -8 21 -7 25 4 20 8
-3 15 -10 15 -16 0 -6 2 -8 5 -5 3 2 -2 19 -11 37 -16 31 -15 33 25 109 22 42
45 76 50 75 6 -2 8 3 6 10 -5 12 82 174 105 197 3 3 13 22 22 43 18 37 38 50
38 22 0 -9 6 -12 16 -8 8 3 13 11 11 17 -17 45 -19 58 -6 51 9 -6 11 -3 6 9
-7 19 18 76 33 76 6 0 10 8 10 17 0 9 7 25 17 35 18 20 49 25 37 6z m159 -150
l6 -56 -99 -149 c-55 -81 -113 -163 -130 -182 -16 -19 -30 -37 -30 -41 0 -4
-15 -32 -32 -62 -18 -30 -60 -109 -93 -176 -43 -89 -64 -122 -77 -122 -21 0
-23 -11 -6 -28 9 -9 9 -12 -2 -12 -7 0 -11 -3 -7 -6 3 -4 0 -18 -8 -33 -15
-29 -50 -38 -59 -15 -5 13 113 225 175 316 11 15 19 29 19 32 0 3 40 74 88
158 48 84 124 217 168 295 43 77 80 140 80 140 1 -1 4 -27 7 -59z"/>
</g>
</svg>
