<?xml version="1.0" standalone="no"?>
<!DOCTYPE svg PUBLIC "-//W3C//DTD SVG 20010904//EN"
 "http://www.w3.org/TR/2001/REC-SVG-20010904/DTD/svg10.dtd">
<svg version="1.0" xmlns="http://www.w3.org/2000/svg"
 width="800.000000pt" height="600.000000pt" viewBox="0 0 800.000000 600.000000"
 preserveAspectRatio="xMidYMid meet">
<metadata>
Created by potrace 1.11, written by Peter Selinger 2001-2013
</metadata>
<g transform="translate(0.000000,600.000000) scale(0.100000,-0.100000)"
fill="#000000" stroke="none">
<path d="M3 5568 c1 -238 5 -440 8 -448 4 -8 13 -31 21 -50 23 -52 32 -100 18
-100 -11 0 -37 58 -32 73 1 4 -3 7 -8 7 -6 0 -10 -21 -10 -47 0 -44 3 -49 33
-64 17 -9 34 -24 35 -34 3 -15 -2 -17 -33 -13 l-36 4 5 -80 c2 -45 4 -85 4
-91 -1 -5 -1 -197 -2 -425 l-1 -415 27 -13 c36 -17 35 -38 -2 -57 l-30 -16 0
-144 c0 -86 5 -155 12 -172 6 -15 10 -32 9 -37 -1 -4 3 -13 8 -20 12 -14 9
-40 -4 -44 -5 -2 -12 5 -16 15 -4 10 -8 -254 -8 -587 0 -559 1 -603 16 -575
18 35 47 65 63 65 5 0 10 5 10 12 0 6 3 9 6 6 3 -4 22 5 41 18 20 13 42 24 49
24 8 0 28 9 46 20 19 11 51 20 74 20 41 0 113 -24 115 -38 0 -4 2 -15 4 -24 4
-22 -79 -105 -132 -133 -21 -11 -40 -22 -43 -25 -3 -3 -25 -14 -50 -25 -25
-11 -48 -23 -51 -28 -3 -5 -9 -8 -13 -8 -3 1 -19 -5 -34 -12 -30 -16 -83 -31
-95 -29 -4 1 -7 -298 -7 -664 0 -586 2 -668 16 -689 9 -13 13 -29 10 -34 -4
-5 -2 -12 4 -16 5 -3 9 -24 8 -46 -1 -34 -4 -40 -20 -36 -17 5 -18 -9 -18
-294 l0 -299 4000 0 4000 0 0 1025 c0 904 -2 1025 -15 1025 -8 0 -15 4 -15 8
0 4 -17 7 -37 6 -40 -1 -105 27 -134 59 -10 10 -33 23 -53 28 -40 11 -114 64
-130 94 -6 11 -14 22 -17 25 -9 8 -22 42 -26 70 -2 14 -11 38 -19 54 -17 36
-18 50 -1 43 18 -7 80 20 73 32 -4 5 -2 12 4 16 6 4 8 10 5 15 -3 4 2 10 10
14 9 3 15 0 15 -8 0 -11 25 -13 116 -13 65 0 118 -3 122 -9 4 -5 25 -9 47 -9
22 1 43 -4 47 -9 4 -6 8 283 8 641 l0 653 -42 30 c-22 16 -38 30 -33 30 4 0 2
7 -5 15 -10 12 -16 13 -26 4 -10 -8 -14 -8 -14 0 0 6 5 11 11 11 6 0 8 9 4 20
-5 17 -1 21 24 26 18 4 34 10 36 14 3 5 14 6 25 3 19 -5 20 0 20 113 -1 86 -3
114 -11 102 -11 -19 -44 -24 -53 -9 -6 10 -20 9 -50 -4 -12 -5 -21 -3 -27 6
-5 8 -9 10 -9 5 0 -5 -6 -4 -12 1 -20 16 -94 24 -122 13 -17 -6 -26 -6 -26 0
0 6 -8 10 -18 10 -10 0 -29 11 -42 25 -13 14 -32 25 -42 25 -10 0 -18 4 -18 9
0 5 -16 19 -35 32 -41 28 -46 56 -10 65 19 5 25 13 25 33 1 25 1 25 16 6 12
-17 27 -20 92 -21 42 0 84 -4 93 -8 9 -4 20 -6 25 -4 16 4 114 -25 114 -34 0
-5 4 -6 10 -3 6 3 10 2 10 -3 0 -6 16 -13 35 -16 19 -4 35 -11 35 -16 0 -6 5
-10 10 -10 7 0 9 101 8 298 -3 289 -4 297 -23 298 -28 2 -125 45 -125 56 0 5
-4 6 -10 3 -5 -3 -10 -2 -10 4 0 14 41 51 56 51 15 0 24 23 23 58 0 15 -3 21
-6 15 -6 -16 -35 -17 -51 -1 -9 9 -12 9 -12 0 0 -15 -32 -16 -48 0 -6 6 -21
12 -34 12 -13 1 -29 5 -35 9 -7 5 -17 5 -23 2 -5 -3 -10 -2 -10 3 0 5 -20 13
-45 16 -25 4 -45 12 -45 18 0 6 -3 8 -7 5 -9 -9 -43 23 -43 40 0 7 7 25 16 38
9 13 13 29 10 34 -4 5 -2 12 4 16 5 3 10 15 10 26 0 19 -1 19 -17 4 -15 -15
-17 -15 -25 -1 -12 21 -44 21 -52 -1 -6 -14 -9 -14 -27 5 -11 12 -30 22 -42
23 -20 0 -33 3 -69 12 -7 2 -30 11 -52 20 -40 18 -78 22 -74 10 4 -12 -43
-123 -52 -123 -9 0 -7 41 3 56 4 7 12 55 19 108 7 53 15 96 19 96 4 0 6 8 4
18 -1 10 -10 16 -21 15 -11 -1 -23 5 -27 13 -6 11 -13 12 -28 3 -16 -8 -25 -7
-39 6 -10 9 -28 17 -41 17 -13 1 -30 6 -36 11 -7 5 -13 7 -13 4 0 -3 -16 1
-35 9 -19 7 -37 14 -40 14 -4 0 -20 -32 -30 -60 -1 -3 -9 -21 -17 -40 -9 -19
-14 -38 -12 -42 3 -5 2 -14 -3 -20 -4 -7 -8 -21 -9 -30 -1 -10 -3 -21 -4 -25
-2 -5 -4 -12 -5 -18 -1 -5 -4 -17 -7 -25 -19 -49 -34 -110 -29 -111 3 -1 20
-2 36 -4 17 -1 50 -14 73 -29 23 -14 42 -23 42 -20 0 4 7 1 15 -6 8 -7 15 -10
15 -6 0 3 9 -2 20 -11 22 -19 26 -53 9 -70 -7 -7 -13 -23 -14 -37 -3 -24 6
-32 30 -26 31 8 55 7 55 -1 0 -5 7 -9 15 -9 16 0 56 -20 66 -33 3 -4 10 -7 15
-6 5 1 28 -7 51 -17 39 -17 43 -22 43 -55 0 -20 -7 -42 -15 -49 -8 -7 -12 -16
-9 -21 3 -5 0 -9 -5 -9 -15 0 -14 27 1 33 8 3 7 6 -4 6 -17 1 -34 -33 -30 -56
2 -7 -1 -13 -7 -13 -5 0 -8 11 -7 25 4 27 -24 60 -31 38 -7 -19 -31 -16 -42 5
-7 13 -20 18 -43 17 -18 -2 -37 1 -43 5 -5 4 -28 11 -50 14 -22 4 -61 17 -87
29 -67 31 -74 57 -20 79 15 6 33 10 40 9 6 -1 12 3 12 8 0 6 7 8 16 4 17 -6
34 12 34 36 0 10 -4 11 -13 3 -8 -7 -18 -6 -31 3 -14 11 -22 11 -37 2 -15 -9
-21 -8 -31 6 -7 9 -37 21 -66 27 -30 5 -59 13 -65 17 -7 4 -19 8 -27 9 -38 2
-80 32 -80 57 0 16 27 31 48 28 15 -2 30 34 28 69 -1 18 -7 25 -21 25 -11 0
-30 6 -41 12 -12 7 -24 9 -28 6 -12 -12 -36 -11 -36 1 0 7 -28 18 -67 26 -43
8 -73 20 -81 32 -9 13 -20 16 -38 12 -23 -6 -24 -5 -25 52 -1 33 0 71 1 86 1
23 -2 26 -20 21 -13 -4 -25 0 -30 8 -5 7 -19 14 -32 15 -35 4 -104 29 -141 51
-6 3 -47 -74 -51 -97 -1 -3 -5 -11 -9 -18 -5 -7 -7 -22 -6 -35 1 -12 -1 -29
-4 -37 -3 -8 -8 -40 -11 -70 -6 -56 -13 -95 -16 -95 -1 0 -3 -15 -4 -34 -1
-26 4 -38 24 -53 27 -20 31 -44 15 -82 -15 -34 7 -51 72 -56 64 -5 86 -18 114
-64 14 -22 15 -35 7 -55 -9 -25 -13 -180 -4 -189 3 -2 35 -4 72 -4 53 0 67 -3
71 -17 2 -9 26 -28 52 -43 32 -17 50 -35 53 -50 5 -30 -1 -60 -12 -53 -18 11
-32 -28 -35 -97 -1 -40 -1 -58 2 -40 2 17 9 32 14 32 6 0 7 5 3 12 -4 7 -3 8
5 4 6 -4 8 -13 4 -19 -11 -16 -10 -70 1 -82 5 -6 23 -10 40 -9 17 0 38 -3 46
-7 9 -4 51 -12 94 -18 62 -9 84 -17 104 -36 29 -29 46 -109 27 -125 -7 -5 -14
-7 -18 -4 -3 3 -10 -4 -17 -15 -10 -20 -13 -20 -33 -6 -20 14 -23 14 -39 -7
l-18 -23 -19 24 c-10 13 -23 21 -30 17 -6 -4 -11 -2 -11 5 0 7 -13 10 -35 7
-19 -2 -35 0 -35 4 0 4 -16 8 -36 8 -19 0 -68 15 -109 34 -57 26 -77 42 -91
67 -9 19 -22 37 -28 41 -7 5 -3 8 9 8 11 0 29 6 40 13 11 8 34 13 50 12 56 -2
66 9 62 75 -2 33 0 60 5 60 12 0 10 44 -3 57 -9 9 -16 6 -30 -10 -16 -20 -19
-21 -31 -5 -19 25 -65 31 -73 10 -6 -14 -8 -13 -16 7 -7 17 -15 22 -29 18 -11
-3 -20 -1 -20 4 0 5 -12 9 -27 10 -35 1 -70 14 -57 21 5 3 19 4 32 3 25 -2 25
13 -2 29 -13 9 -20 6 -35 -13 -15 -20 -21 -22 -39 -12 -12 7 -22 9 -22 6 0
-13 -38 32 -44 52 -6 20 9 38 36 42 4 1 13 3 20 6 7 2 22 5 33 7 16 3 21 13
25 58 5 60 19 58 15 -2 -1 -21 3 -42 10 -48 19 -16 26 1 27 63 1 29 5 60 9 69
13 25 -13 28 -32 4 l-17 -21 -7 26 c-5 20 -11 25 -26 22 -10 -3 -19 -9 -19
-14 0 -16 -29 -9 -39 9 -7 13 -20 18 -38 17 -15 -1 -34 3 -42 9 -8 6 -16 10
-18 9 -9 -7 -43 -2 -43 7 0 6 7 10 16 10 14 0 14 3 4 15 -10 12 -15 13 -20 4
-4 -6 -12 -9 -18 -5 -6 3 -12 1 -14 -6 -3 -7 -11 -9 -24 -3 -10 4 -22 8 -25 7
-10 -2 -21 47 -14 58 4 6 15 10 26 10 10 0 19 3 19 8 0 4 26 7 58 7 56 0 57 1
60 30 l4 30 -25 -23 c-25 -24 -25 -24 -32 -3 -3 12 -10 21 -15 21 -5 0 -15 3
-24 6 -11 4 -16 1 -16 -10 0 -9 -7 -16 -15 -16 -8 0 -14 3 -14 8 4 22 -3 30
-21 27 -11 -2 -22 1 -25 6 -4 5 -10 7 -15 4 -5 -3 -11 -1 -14 3 -3 5 6 14 20
21 14 6 22 16 19 22 -5 7 -11 7 -19 0 -7 -6 -16 -8 -19 -4 -4 3 -7 1 -7 -5 0
-20 -39 -24 -70 -5 -16 9 -30 20 -30 24 0 13 39 41 49 34 6 -3 11 -1 11 6 0 7
13 10 35 7 24 -3 35 0 35 9 0 7 4 13 8 13 11 0 9 51 -2 69 -7 12 -12 11 -23
-5 -14 -19 -15 -19 -28 0 -9 12 -21 17 -36 13 -12 -3 -29 -2 -38 2 -32 16 -86
33 -103 33 -10 -1 -18 4 -18 10 0 5 -7 8 -15 4 -11 -4 -15 2 -15 24 0 22 5 29
23 32 19 3 23 12 31 66 10 69 5 82 -25 64 -22 -14 -39 -8 -39 14 0 9 -10 14
-29 14 -16 0 -45 7 -65 15 -20 8 -36 13 -36 10 0 -4 -11 7 -24 22 l-24 28 -11
-28 c-6 -16 -11 -37 -11 -47 0 -10 -4 -21 -8 -24 -4 -2 -7 -38 -7 -78 1 -40
-2 -78 -6 -83 -5 -6 -8 -20 -8 -30 -1 -11 -6 -51 -11 -90 -6 -38 -11 -99 -11
-135 -1 -36 -4 -69 -7 -75 -4 -5 -7 -20 -8 -32 -1 -29 -22 -53 -46 -53 -18 0
-18 -1 -2 -29 11 -19 14 -35 9 -47 -12 -27 -13 -57 -3 -71 5 -6 8 -20 6 -30
-3 -19 16 -21 110 -11 58 6 83 -52 49 -116 -12 -21 -13 -35 -6 -48 6 -10 7
-28 4 -39 -4 -12 -8 -63 -9 -115 -2 -80 0 -97 16 -111 10 -9 18 -13 18 -8 0 4
6 2 14 -4 8 -6 18 -11 22 -10 5 1 22 -3 37 -9 16 -7 31 -12 35 -12 23 -1 46
-34 47 -66 1 -21 9 -40 18 -45 14 -8 14 -12 0 -41 -9 -17 -17 -53 -17 -79 -1
-27 -5 -51 -9 -55 -14 -14 -8 -64 8 -64 8 0 15 -4 15 -9 0 -5 8 -8 18 -7 28 5
73 -25 85 -56 8 -22 45 -23 90 -5 67 28 77 -9 17 -65 -22 -21 -43 -38 -47 -38
-5 0 -9 -71 -11 -157 -2 -87 -6 -171 -8 -188 -11 -67 -9 -88 9 -91 11 -1 17 4
17 18 0 16 5 19 22 15 14 -4 31 2 50 19 16 13 37 24 47 24 9 0 27 7 39 16 12
8 22 12 22 7 0 -4 4 -3 8 2 11 15 80 37 93 29 17 -10 2 -65 -28 -96 -14 -15
-30 -25 -36 -21 -5 3 -13 0 -17 -6 -4 -7 -19 -13 -33 -15 -15 -1 -30 -6 -34
-9 -3 -4 -14 -7 -23 -7 -20 0 -53 -34 -43 -43 3 -4 -12 -7 -34 -7 -39 0 -71
-20 -59 -38 2 -4 26 -9 52 -11 26 -1 53 -5 58 -9 13 -7 26 -10 78 -17 61 -7
118 -41 125 -75 3 -17 11 -30 18 -30 17 0 26 -25 14 -37 -7 -7 -2 -20 15 -38
28 -30 26 -45 -5 -45 -26 0 -37 -30 -16 -42 10 -5 17 -20 17 -34 0 -23 2 -24
23 -12 12 7 25 12 29 13 4 0 16 7 26 15 30 25 83 52 89 47 12 -13 -13 -82 -31
-85 -15 -3 -76 -43 -123 -82 -7 -6 -17 -10 -22 -10 -6 0 -8 -7 -5 -15 4 -8 1
-15 -6 -15 -7 0 -9 11 -5 33 12 60 13 129 2 118 -7 -7 -19 -5 -38 6 -22 13
-31 14 -42 4 -8 -6 -14 -19 -13 -29 4 -24 -15 -42 -30 -28 -7 6 -10 14 -7 19
2 4 -4 7 -15 7 -10 0 -22 3 -26 8 -4 4 -12 8 -17 8 -5 1 -12 3 -16 4 -5 2 -30
4 -58 6 -80 4 -200 25 -203 35 -2 5 -8 7 -13 3 -5 -3 -9 0 -9 6 0 7 -6 10 -14
7 -14 -6 -32 21 -21 31 3 3 5 0 5 -7 0 -8 7 -10 23 -5 12 4 32 7 44 6 13 -1
38 7 55 18 l33 20 -37 -2 c-28 -1 -42 3 -53 17 -8 11 -15 16 -15 11 0 -5 -6
-4 -13 2 -15 13 -77 -22 -77 -44 0 -8 -3 -14 -6 -14 -10 0 -64 58 -64 69 0 6
-4 11 -9 11 -12 0 -6 69 8 83 6 6 11 19 11 30 0 10 4 16 9 12 5 -3 12 -1 16 5
3 5 17 10 31 10 14 0 35 5 47 12 12 6 42 10 67 10 29 -1 40 1 31 7 -9 6 -13
33 -13 97 1 116 13 296 20 290 2 -3 6 -47 8 -98 2 -51 5 -107 5 -125 1 -18 8
-34 15 -37 11 -4 14 8 14 53 0 32 3 61 7 65 4 3 8 41 9 84 2 42 4 94 7 115 3
25 -1 44 -10 53 -17 17 -35 10 -27 -11 3 -7 2 -21 -3 -30 -8 -14 -12 -13 -33
5 -31 27 -74 28 -65 1 4 -13 0 -20 -15 -24 -15 -4 -22 1 -26 18 -7 30 -24 36
-99 41 -79 4 -85 6 -85 17 0 5 -9 7 -20 4 -10 -3 -24 1 -30 8 -13 16 -4 22 30
19 14 -1 34 3 44 8 18 10 16 12 -14 24 -47 20 -67 17 -86 -12 -11 -16 -20 -21
-24 -14 -4 7 -18 17 -31 23 -41 21 -45 122 -4 122 11 1 30 6 42 13 12 6 41 11
65 10 24 -1 54 2 67 6 13 5 27 4 33 -2 5 -5 20 -7 32 -5 22 5 24 10 25 71 1
37 3 85 4 107 2 35 -1 40 -20 43 -15 2 -23 -2 -23 -12 0 -8 -9 -20 -20 -26
-16 -8 -20 -8 -20 3 0 23 -24 37 -69 39 -22 1 -41 5 -41 9 0 4 -17 6 -37 4
-21 -1 -42 1 -48 5 -5 5 -13 8 -18 9 -33 2 -77 15 -77 24 0 6 -3 8 -6 4 -11
-10 -64 46 -64 68 0 42 24 53 138 62 51 4 72 10 72 19 0 8 5 14 11 14 6 0 8
-7 5 -16 -5 -12 0 -15 22 -12 23 2 27 8 27 33 0 17 3 35 6 40 12 20 7 104 -7
116 -11 9 -16 6 -24 -15 -11 -31 -40 -35 -40 -6 0 11 -6 20 -14 20 -8 0 -21 3
-29 6 -10 4 -17 -2 -19 -16 -4 -25 -23 -27 -23 -3 0 13 -13 20 -45 26 -25 4
-52 10 -60 12 -8 2 -21 4 -27 4 -26 2 -12 22 18 28 26 5 29 7 14 15 -27 16
-49 16 -70 2 -27 -19 -32 -18 -50 10 -32 49 12 76 126 76 l69 0 0 73 c0 41 -3
76 -6 80 -8 7 -35 -3 -30 -12 2 -3 -2 -12 -9 -18 -11 -10 -18 -7 -34 15 -17
24 -25 27 -65 25 -28 -2 -46 2 -46 8 0 6 -6 9 -14 6 -19 -8 -28 3 -15 19 15
19 -5 26 -35 13 -34 -16 -76 1 -71 28 2 10 4 22 4 26 1 5 5 6 10 2 5 -3 12 -1
16 4 3 5 13 10 23 10 66 3 149 15 160 23 17 14 15 43 -4 59 -14 11 -18 10 -30
-5 -15 -21 -44 -15 -44 9 0 9 -4 14 -9 10 -5 -3 -13 0 -16 6 -4 5 -12 8 -19 6
-6 -3 -20 1 -31 9 -12 9 -14 14 -6 14 14 0 40 28 41 43 0 14 -64 -4 -86 -24
-25 -24 -30 -24 -56 1 -20 18 -20 22 -7 35 8 8 46 21 84 28 41 7 71 17 71 25
1 6 2 13 4 15 8 10 9 57 0 57 -6 0 -8 5 -5 10 3 6 -3 10 -14 10 -12 0 -21 -4
-21 -10 0 -17 -29 -11 -39 9 -7 13 -20 18 -41 16 -16 -1 -35 4 -41 11 -6 8
-24 14 -40 14 -18 0 -32 7 -39 20 -9 17 -7 22 16 30 15 6 42 11 61 12 19 1 36
5 39 9 7 12 7 116 0 128 -5 7 -13 7 -27 -2 -17 -10 -22 -9 -37 10 -11 15 -24
21 -39 19 -13 -3 -25 -1 -28 5 -4 5 -16 9 -28 9 -12 0 -28 10 -36 22 -12 20
-11 24 8 37 17 11 74 15 274 17 139 2 257 3 262 3 6 1 64 -2 130 -5 66 -3 129
-6 140 -5 42 0 193 -1 265 -2 41 -1 92 1 113 4 20 4 37 3 37 -2 0 -4 12 -4 28
-1 15 4 92 6 172 4 129 -4 719 -15 1110 -22 80 -2 150 -6 155 -10 6 -3 97 -6
203 -5 105 0 192 -2 192 -6 0 -3 56 -6 125 -6 l125 0 0 194 0 193 -3520 0
c-3153 0 -3524 -2 -3551 -15 -16 -9 -27 -20 -24 -25 4 -6 -3 -10 -15 -10 -12
0 -18 -5 -15 -10 3 -6 -5 -14 -19 -20 -19 -7 -25 -16 -23 -32 2 -21 -3 -23
-43 -25 -24 -1 -49 2 -55 6 -5 5 -18 7 -27 6 -10 -2 -18 3 -18 11 0 8 -8 14
-19 14 -10 0 -24 7 -31 15 -7 8 -16 12 -21 9 -5 -3 -12 2 -15 10 -3 8 -15 18
-26 22 -11 3 -17 8 -14 11 3 4 1 12 -5 20 -9 10 -68 13 -285 13 l-274 0 3
-432z m641 102 c3 0 6 8 6 17 0 15 2 14 14 -2 14 -19 14 -19 36 0 18 16 23 17
30 5 19 -29 11 -40 -28 -38 -21 0 -47 -4 -58 -10 -12 -6 -24 -9 -27 -5 -4 3
-12 2 -19 -4 -15 -11 -443 -12 -454 0 -15 15 15 30 63 31 26 1 53 4 58 7 6 3
64 5 130 4 66 -1 128 2 138 7 9 5 23 5 30 1 21 -13 38 -12 44 4 6 14 7 14 18
-1 7 -9 15 -16 19 -16z m3534 -14 c29 -10 58 -70 42 -88 -1 -2 -4 -18 -6 -36
-7 -48 11 -61 96 -69 86 -8 134 -6 138 5 2 7 7 10 12 7 4 -3 13 9 20 25 13 31
26 38 32 18 3 -7 7 -8 10 -2 4 5 0 20 -8 34 -10 20 -13 21 -14 7 0 -10 -4 -15
-10 -12 -11 7 -85 18 -112 17 -9 0 -20 8 -23 19 -4 11 -10 17 -15 14 -5 -3 -7
-12 -3 -20 7 -21 -17 -19 -32 2 -19 25 0 60 21 42 13 -10 17 -10 24 0 5 8 34
15 74 18 55 3 66 1 66 -12 0 -15 1 -15 16 -1 12 12 20 13 35 6 10 -6 19 -7 19
-2 0 5 7 9 15 9 8 0 15 -4 15 -9 0 -5 5 -6 12 -2 8 5 9 2 4 -12 -5 -10 -11
-108 -14 -216 -2 -109 -8 -198 -11 -198 -4 0 -6 -42 -6 -92 1 -96 -9 -137 -35
-140 -8 -1 -22 -2 -30 -3 -42 -5 -117 -17 -129 -21 -11 -4 -10 -7 4 -18 16
-11 17 -24 13 -99 -5 -79 -4 -87 12 -87 10 0 22 10 26 22 6 19 7 19 16 5 10
-19 55 -22 104 -8 35 10 70 -5 69 -29 -1 -36 -17 -61 -35 -55 -10 3 -21 1 -25
-5 -3 -5 -15 -10 -25 -10 -10 0 -31 -5 -47 -11 -15 -7 -41 -13 -58 -14 -16 -1
-32 -3 -35 -5 -3 -1 -14 -4 -25 -5 -11 -2 -33 -8 -49 -14 l-29 -12 7 -112 c4
-62 7 -130 8 -152 0 -22 4 -48 9 -57 7 -12 6 -18 -1 -18 -7 0 -8 -5 -3 -12 4
-7 9 -47 11 -88 2 -41 5 -119 7 -174 2 -54 9 -111 15 -127 7 -15 9 -32 6 -37
-3 -5 1 -15 9 -22 7 -6 12 -17 9 -24 -6 -15 36 -19 53 -5 6 6 17 8 23 4 6 -4
16 -2 23 3 7 5 30 13 52 17 21 3 51 13 66 20 15 8 29 12 32 9 10 -10 -16 -42
-29 -37 -7 2 -26 -3 -43 -12 -17 -8 -31 -13 -31 -10 0 4 -13 -3 -29 -14 -15
-11 -31 -18 -34 -14 -4 3 -13 1 -20 -5 -8 -7 -17 -9 -20 -5 -4 3 -7 1 -7 -6 0
-8 -7 -11 -15 -7 -8 3 -16 2 -16 -2 -6 -33 -3 -362 3 -362 5 0 8 -15 8 -34 0
-40 14 -48 50 -29 20 11 62 29 90 38 3 1 12 4 20 8 8 3 33 11 55 17 22 6 47
14 55 17 8 4 17 7 20 8 3 1 12 4 20 8 42 16 70 17 70 2 0 -8 -12 -22 -27 -32
-16 -10 -34 -25 -41 -35 -7 -9 -18 -15 -25 -12 -7 2 -31 -3 -53 -13 -21 -9
-41 -17 -44 -18 -25 -8 -86 -39 -91 -47 -3 -5 -10 -10 -15 -10 -13 -1 -36 -8
-61 -21 -19 -8 -23 -18 -23 -56 1 -46 17 -81 39 -81 14 0 14 -13 1 -26 -12
-12 -3 -44 11 -44 5 0 9 -7 9 -15 0 -8 -3 -15 -8 -15 -8 0 -7 -99 3 -197 6
-58 8 -63 31 -63 14 0 27 7 30 15 4 8 17 15 30 15 13 0 24 5 24 10 0 6 6 10
13 10 6 0 25 7 41 15 15 8 32 12 37 9 5 -3 9 -1 9 5 0 5 15 13 32 17 18 3 41
16 50 27 10 10 23 17 31 14 7 -2 21 1 32 9 10 8 27 14 37 14 10 0 18 5 18 12
0 6 3 8 6 5 4 -4 19 -1 33 7 119 59 110 56 121 36 12 -22 -6 -70 -26 -70 -7 0
-20 -8 -30 -17 -10 -10 -19 -17 -21 -15 -5 4 -146 -69 -165 -86 -10 -8 -18
-12 -18 -8 0 4 -6 4 -12 -1 -7 -4 -15 -8 -18 -8 -16 -3 -100 -50 -100 -57 0
-4 -7 -8 -15 -8 -9 0 -30 -8 -48 -17 -18 -9 -38 -18 -45 -19 -8 -1 -22 -10
-31 -18 -10 -9 -20 -14 -23 -11 -3 3 -8 -6 -10 -20 -3 -14 -2 -27 1 -30 4 -2
6 -24 5 -49 -1 -26 2 -49 7 -52 5 -3 5 -14 -1 -25 -6 -11 -7 -25 -3 -32 4 -6
8 -29 9 -50 0 -22 7 -42 14 -47 12 -8 26 -160 14 -160 -3 0 -14 4 -24 10 -15
8 -20 6 -26 -13 -4 -12 -6 -39 -5 -59 3 -41 -5 -46 -35 -23 -23 18 -70 19 -81
3 -4 -7 -8 -24 -8 -38 0 -31 -13 -52 -27 -44 -5 4 -16 22 -24 41 -8 18 -19 31
-24 28 -6 -4 -17 1 -25 9 -11 10 -23 13 -38 8 -12 -5 -42 -7 -67 -6 -25 1 -50
-2 -57 -8 -6 -5 -14 -5 -17 0 -3 5 -43 9 -88 9 -83 0 -83 0 -101 31 -20 34
-29 92 -14 92 4 0 6 4 3 9 -8 12 -30 8 -50 -8 -18 -15 -46 -8 -46 12 0 8 -6
20 -14 26 -15 13 -18 51 -4 51 4 0 8 7 8 16 0 21 41 94 53 94 4 0 6 9 2 20 -6
19 1 24 61 35 10 2 20 4 22 4 1 1 5 2 10 2 4 1 13 11 21 21 11 16 21 19 55 14
25 -4 60 -1 88 8 26 7 49 12 52 9 2 -2 10 -6 18 -7 7 -2 20 -6 29 -10 9 -4 41
-6 70 -4 49 3 54 5 53 26 -2 37 13 25 19 -16 5 -27 14 -42 36 -55 16 -9 33
-17 38 -17 9 0 9 353 -1 430 -3 25 -5 50 -5 57 -1 17 -36 34 -55 27 -9 -4 -16
-18 -16 -33 0 -25 -16 -51 -31 -51 -4 0 -10 12 -13 26 -5 17 -12 24 -21 20 -8
-3 -15 2 -17 11 -3 17 -70 29 -97 17 -17 -7 -26 -7 -133 2 -44 4 -68 3 -68 -4
0 -6 -9 -8 -19 -5 -12 3 -23 21 -32 51 -15 58 -13 56 -38 42 -43 -22 -74 43
-50 103 6 15 15 27 19 27 4 0 11 11 14 24 5 20 14 27 54 36 4 1 12 6 19 12 7
5 17 7 23 3 5 -3 10 -2 10 3 0 17 142 27 238 18 61 -6 94 -15 103 -28 8 -13
39 1 39 18 0 8 -4 14 -9 14 -6 0 -8 9 -6 20 3 18 -5 25 -27 21 -5 0 -8 3 -9 9
-3 29 -9 181 -11 292 -4 176 0 173 -205 183 -56 2 -93 0 -93 -5 0 -17 -20 -11
-27 8 -4 9 -11 20 -17 24 -14 9 -15 31 -1 40 6 5 4 8 -5 8 -9 0 -20 -4 -25 -9
-6 -5 -20 -5 -34 0 -21 8 -23 14 -18 46 4 20 13 41 22 46 8 4 13 12 10 18 -6
8 8 13 28 10 4 0 7 3 7 7 0 5 6 9 13 9 6 1 48 7 92 13 44 6 85 11 90 11 6 -1
38 -4 73 -7 l62 -6 0 91 c0 52 -4 91 -10 91 -5 0 -7 7 -4 15 10 24 -42 38
-148 41 -74 2 -100 -1 -109 -12 -19 -23 -29 -16 -29 21 0 19 -3 35 -7 36 -18
1 -57 10 -59 12 -2 1 -5 17 -9 35 -4 24 -2 32 9 32 8 0 19 6 23 14 13 21 110
39 218 40 l100 1 0 68 c-1 74 10 89 19 27 3 -22 9 -58 12 -80 4 -31 10 -40 25
-40 17 0 19 8 19 98 0 97 -8 122 -36 122 -7 0 -14 -10 -16 -22 -2 -12 -9 -23
-17 -26 -8 -3 -11 0 -8 5 7 11 -18 36 -46 46 -13 5 -20 0 -27 -19 -6 -14 -15
-22 -21 -19 -6 4 -8 13 -5 21 3 8 -1 14 -9 14 -8 0 -15 4 -15 9 0 5 -16 8 -35
7 -20 -2 -40 2 -46 10 -9 11 -7 14 10 14 21 0 22 1 4 25 -22 30 -28 31 -56 2
-27 -26 -47 -25 -66 5 -12 20 -11 24 13 45 15 13 38 23 51 23 13 0 26 3 29 8
2 4 25 7 50 6 25 -1 46 2 46 6 0 4 12 6 28 5 47 -3 61 10 58 57 -2 24 -5 50
-7 58 -5 19 -42 35 -47 20 -6 -18 -33 -40 -42 -35 -4 3 -6 14 -3 25 3 11 1 20
-3 21 -5 0 -20 3 -34 5 -14 3 -33 5 -42 6 -25 3 -23 16 3 20 18 3 19 5 5 23
-14 17 -17 18 -26 5 -5 -8 -10 -11 -10 -6 0 6 -5 5 -12 -2 -20 -20 -56 -14
-63 9 -7 20 11 42 31 39 4 -1 10 3 14 9 3 6 44 16 91 21 46 5 92 11 103 12 27
4 38 41 20 67 -14 20 -52 31 -40 12 3 -5 -1 -15 -10 -22 -13 -10 -17 -10 -24
1 -5 8 -6 18 -4 22 3 4 -4 8 -15 8 -12 0 -21 4 -21 9 0 4 -12 6 -27 4 -27 -4
-27 -4 -9 11 11 9 23 16 26 16 4 0 12 11 18 25 l12 25 -30 -15 c-17 -9 -30
-13 -30 -10 0 4 -12 -2 -27 -13 -19 -13 -34 -17 -48 -11 -11 4 -16 8 -11 8 5
1 3 7 -3 14 -8 11 -5 16 15 25 14 7 33 12 44 12 10 0 21 3 24 8 5 8 69 7 84
-2 6 -3 24 -3 41 0 29 6 31 9 31 50 0 40 -19 72 -28 46 -2 -7 -15 -12 -28 -12
-14 0 -23 4 -19 9 3 6 -4 15 -15 21 -11 6 -20 8 -20 5 0 -3 -9 -1 -20 5 -11 6
-20 20 -20 32 0 19 -1 20 -25 4 -23 -15 -65 -22 -65 -10 0 22 25 44 58 49 20
3 45 10 55 16 10 5 22 7 27 4 9 -6 50 13 61 29 10 12 0 89 -12 101 -7 7 -13 4
-21 -8 -9 -18 -12 -17 -39 9 -16 15 -29 24 -29 18 0 -5 -6 -1 -13 8 -7 9 -27
18 -44 20 -27 3 -30 6 -22 26 7 18 16 22 49 22 22 0 40 3 40 8 0 9 167 8 198
-2z m-743 -36 c32 -26 44 -29 74 -24 20 4 44 11 53 15 10 6 19 5 23 -1 4 -6
15 -4 31 6 19 13 24 14 24 3 0 -11 2 -11 8 -2 5 7 19 10 35 8 16 -3 27 -1 27
5 0 14 79 7 108 -9 16 -8 20 -21 20 -63 -1 -29 -3 -57 -7 -63 -7 -11 -11 -93
-15 -315 -3 -155 -11 -214 -26 -205 -5 3 -12 1 -15 -5 -4 -6 -21 -11 -38 -11
-18 0 -57 -2 -87 -5 l-55 -6 0 -104 c0 -89 2 -104 16 -104 9 0 22 7 29 15 10
12 15 13 21 4 7 -12 66 -15 98 -4 12 4 16 -3 17 -30 2 -43 -6 -47 -121 -59
-16 -1 -48 -9 -70 -16 -22 -8 -48 -13 -57 -11 -10 1 -18 -2 -18 -6 0 -5 -27
-9 -59 -9 -58 0 -60 1 -66 31 -3 16 -7 49 -7 73 -1 23 -5 42 -10 42 -5 0 -8
12 -7 28 0 15 -4 54 -11 87 -6 33 -13 71 -15 85 -2 14 -7 36 -11 50 -3 14 -7
35 -8 47 -2 13 -6 26 -11 30 -4 5 -5 -14 -1 -42 4 -27 8 -70 10 -95 2 -25 5
-45 6 -45 3 0 6 -49 14 -187 4 -61 2 -68 -16 -74 -14 -4 -24 -1 -30 10 -19 34
-34 5 -17 -34 1 -3 2 -27 3 -55 1 -27 5 -55 8 -61 11 -17 5 -148 -7 -156 -23
-17 -63 -8 -70 15 -7 18 -9 14 -14 -23 -6 -42 6 -139 19 -150 3 -3 5 -53 5
-113 0 -92 -2 -106 -15 -101 -8 4 -30 9 -47 12 -18 2 -31 8 -28 12 5 8 -23 35
-30 29 -11 -11 -2 -153 12 -189 4 -8 5 -34 4 -57 -1 -24 2 -43 7 -43 4 0 9
-21 10 -47 5 -109 10 -179 15 -193 8 -21 20 -155 18 -194 -1 -15 -4 -16 -16
-6 -8 7 -12 16 -9 22 3 5 0 15 -6 23 -7 8 -9 15 -5 15 4 0 3 6 -3 13 -5 6 -15
37 -21 68 -9 43 -21 65 -51 97 -22 23 -40 50 -40 61 0 11 -5 23 -11 27 -8 5
-8 9 1 14 10 6 10 14 -1 36 -15 32 -14 98 2 88 10 -6 3 143 -8 181 -4 11 -6
37 -6 58 0 20 -3 37 -7 37 -4 0 -6 21 -5 48 2 62 -7 87 -34 88 -29 2 -44 -36
-34 -85 4 -20 6 -40 5 -45 -2 -4 2 -13 7 -20 5 -6 8 -21 7 -31 -2 -11 1 -25 6
-32 5 -7 7 -17 3 -23 -3 -5 -1 -10 4 -10 6 0 11 -18 11 -40 0 -25 5 -40 13
-41 8 0 8 -2 -2 -6 -10 -4 -10 -7 -1 -13 15 -9 20 -55 8 -72 -7 -10 -8 -8 -4
5 3 9 1 17 -4 17 -11 0 -14 -43 -3 -53 7 -8 12 -66 16 -169 1 -38 5 -68 9 -68
4 0 6 -17 5 -37 -2 -21 1 -47 7 -58 5 -11 8 -36 8 -57 -1 -21 1 -38 6 -38 4 0
8 -80 9 -178 2 -213 6 -283 17 -301 18 -28 10 -90 -14 -111 -13 -11 -26 -20
-30 -20 -12 0 -25 63 -25 117 0 29 -3 53 -6 53 -8 0 -19 70 -19 113 0 15 -4
27 -10 27 -7 0 -8 6 0 19 7 14 7 20 -2 23 -6 2 -13 19 -14 37 -1 17 -6 44 -10
59 -7 24 -12 108 -14 231 0 24 -4 49 -8 55 -4 6 -7 27 -8 46 0 19 -4 42 -7 50
-4 8 -5 32 -4 53 2 21 0 40 -5 43 -4 3 -8 23 -8 45 0 22 -5 49 -10 60 -12 21
-45 25 -57 7 -16 -26 -25 -96 -14 -103 5 -3 8 -23 6 -45 -2 -22 0 -40 5 -40 5
0 12 -26 15 -57 4 -32 13 -71 20 -86 11 -22 11 -34 1 -64 -14 -40 -24 -34 -28
16 -1 17 -5 31 -9 31 -4 0 -6 18 -5 40 1 22 0 43 -3 46 -3 3 -6 9 -7 12 0 4
-4 48 -8 97 -9 110 -12 121 -38 145 -15 14 -30 17 -62 14 -22 -3 -47 -7 -53
-9 -7 -2 -13 0 -13 5 0 6 -35 10 -79 10 -82 0 -102 8 -76 30 8 7 15 18 15 25
0 16 -27 27 -35 15 -4 -6 -15 -10 -26 -10 -18 0 -18 1 3 45 13 24 28 45 34 45
6 0 17 7 24 15 7 8 16 13 20 10 5 -3 12 0 15 6 4 5 13 8 21 5 8 -3 14 -1 14 4
0 6 11 10 24 10 14 0 27 3 29 8 13 19 254 -7 268 -30 5 -7 9 -9 9 -4 0 5 6 4
13 -1 37 -29 43 -23 39 41 -2 33 -6 68 -9 76 -3 8 -7 35 -8 60 -1 25 -3 45 -4
45 -2 0 -4 8 -6 18 -4 22 -15 35 -15 18 0 -8 -5 -9 -19 -2 -21 12 -206 9 -234
-4 -16 -7 -18 -3 -15 31 2 29 -2 43 -16 55 -19 16 -19 17 7 43 15 15 27 24 27
20 0 -3 7 -1 15 6 8 6 19 9 24 6 5 -4 12 -2 15 3 6 10 91 23 151 24 46 0 109
-11 145 -26 14 -6 27 -11 30 -11 3 -1 19 -14 34 -29 15 -16 29 -27 31 -25 1 2
-2 32 -6 68 -5 36 -10 90 -13 120 -7 95 -18 113 -58 102 -15 -4 -17 -7 -6 -13
10 -7 10 -9 1 -9 -7 0 -12 -5 -10 -11 5 -24 -21 -18 -27 6 -5 18 -13 25 -34
26 -53 3 -57 4 -69 12 -6 4 -18 4 -27 1 -9 -3 -16 -1 -16 4 0 6 9 14 20 17 19
6 19 7 3 23 -21 21 -63 23 -84 5 -14 -12 -17 -12 -23 2 -3 9 -4 21 -1 25 6 9
-36 7 -52 -3 -5 -3 -24 -9 -41 -12 -32 -5 -40 5 -48 60 -2 11 -12 52 -22 92
-10 39 -18 81 -17 92 1 12 -1 21 -4 21 -6 0 -31 104 -33 138 -1 6 -6 12 -11
12 -6 0 -7 3 -4 7 4 3 -7 30 -24 60 -17 29 -28 53 -24 53 3 0 3 6 -2 13 -4 6
-12 39 -18 72 -5 33 -14 59 -20 57 -10 -2 -10 -35 1 -119 4 -29 2 -59 -3 -65
-10 -14 -11 -97 -1 -113 3 -5 9 -45 13 -87 4 -43 10 -80 15 -83 4 -2 5 -16 2
-30 -2 -14 0 -31 5 -38 11 -13 10 -49 -2 -84 -8 -26 -25 -31 -25 -8 0 7 -6 18
-13 22 -7 4 -19 27 -27 51 -7 23 -17 42 -22 42 -5 0 -7 4 -4 9 3 5 -1 14 -8
21 -8 6 -18 25 -21 41 -4 16 -10 29 -15 29 -5 0 -7 9 -5 20 2 11 0 22 -5 25
-5 3 -9 26 -8 50 1 62 -38 120 -48 72 -2 -7 -6 -22 -10 -34 -4 -14 -2 -23 4
-23 6 0 8 -16 5 -40 -4 -25 -2 -40 5 -40 6 0 9 -12 8 -27 -2 -16 -5 -28 -6
-28 -5 0 -8 -40 -2 -49 3 -6 7 -22 8 -36 1 -14 5 -38 9 -55 25 -117 37 -184
38 -212 1 -18 5 -33 10 -33 15 0 3 -73 -14 -83 -23 -14 -70 0 -76 23 -3 11 -9
20 -12 20 -4 0 -8 6 -9 13 0 6 -10 39 -22 72 -12 33 -23 71 -25 85 -2 14 -4
25 -5 25 -2 0 -4 16 -7 35 -8 83 -16 120 -23 120 -4 0 -6 14 -4 32 3 20 -2 38
-13 50 -22 25 -46 24 -38 -2 3 -11 2 -20 -4 -20 -5 0 -8 -9 -6 -20 7 -36 -14
-21 -26 19 -6 21 -16 38 -23 38 -52 -1 -64 4 -69 29 -2 14 -2 34 0 44 10 39
159 74 185 43 6 -7 19 -13 29 -13 11 0 19 -5 19 -11 0 -5 4 -8 9 -4 5 3 12 1
16 -5 13 -21 23 -9 23 30 0 22 -2 40 -6 40 -4 0 -13 14 -21 32 -13 29 -12 35
6 67 21 37 56 50 91 35 20 -8 40 -13 67 -17 18 -2 20 3 18 48 -1 28 -2 60 -3
71 -1 43 -43 52 -51 12 -3 -12 -8 -15 -18 -9 -9 6 -11 15 -6 27 13 32 14 44 1
51 -18 12 -35 58 -27 72 9 14 61 5 61 -11 0 -5 4 -7 9 -3 5 3 12 1 16 -4 3 -5
13 -10 23 -9 9 0 39 -4 66 -10 47 -10 68 -27 73 -62 2 -8 7 -37 13 -65 6 -27
11 -62 10 -77 0 -15 4 -29 9 -32 4 -3 7 -26 6 -51 -2 -25 1 -45 7 -45 5 0 9
-15 7 -32 -1 -18 1 -40 4 -48 7 -18 15 -78 21 -145 2 -27 5 -52 6 -55 2 -3 4
-16 5 -30 3 -47 15 -60 55 -60 22 0 41 4 44 8 7 12 78 5 86 -9 6 -8 27 -8 81
1 83 14 201 17 241 7 l27 -7 -6 72 c-3 40 -11 79 -17 86 -17 17 -57 24 -55 9
3 -23 -1 -37 -10 -37 -5 0 -11 10 -13 23 -2 16 -9 22 -27 21 -30 -2 -49 15
-43 38 7 27 -26 34 -61 14 -27 -15 -31 -15 -47 -1 -41 37 -68 11 -66 -63 0
-30 -2 -56 -6 -59 -5 -2 -8 4 -8 14 0 11 -5 24 -12 31 -7 7 -8 12 -3 12 4 0 0
9 -11 21 -15 16 -16 22 -4 29 11 7 11 11 -2 23 -13 14 -34 107 -29 131 1 4 -3
13 -8 20 -5 6 -8 23 -6 39 2 15 0 27 -5 27 -4 0 -8 15 -9 33 0 17 -5 59 -11
92 -5 33 -11 70 -14 82 -4 30 -25 53 -41 47 -21 -9 -45 37 -45 87 0 32 -5 49
-15 53 -17 6 -34 -42 -19 -53 13 -9 13 -102 0 -98 -11 4 -37 127 -29 140 2 4
-1 7 -7 7 -6 0 -8 5 -5 10 4 6 -6 10 -24 10 -16 0 -33 5 -36 10 -4 6 -11 7
-17 4 -6 -4 -8 1 -3 15 5 15 2 21 -9 21 -9 0 -16 4 -16 9 0 6 9 8 20 6 11 -2
20 0 20 5 0 4 47 8 105 8 88 -1 107 -4 125 -20 20 -19 24 -30 21 -56 -1 -8 2
-19 7 -25 5 -7 8 -29 7 -49 -1 -21 3 -38 8 -38 4 0 7 -12 6 -27 -1 -16 1 -43
5 -61 6 -26 12 -32 27 -27 10 4 19 2 19 -3 0 -5 7 -9 15 -9 15 0 19 10 16 35
-2 11 10 15 26 10 4 -2 7 -14 7 -28 1 -22 6 -25 38 -26 39 -1 92 -29 83 -44
-3 -5 0 -12 5 -15 6 -4 10 -19 8 -33 -3 -26 -2 -27 52 -26 30 1 47 0 38 -3
-10 -2 -18 -9 -18 -14 0 -6 -4 -7 -10 -4 -5 3 -15 -3 -22 -15 -15 -24 -26 -25
-64 -5 -30 15 -34 14 -38 -7 -1 -7 -4 -17 -8 -23 -3 -5 -5 -41 -4 -80 1 -81
-8 -77 131 -49 44 9 90 16 102 15 12 0 25 4 28 9 3 5 21 -8 41 -28 l35 -37 -7
45 c-4 25 -7 55 -6 67 1 11 -6 24 -15 27 -17 7 -33 -9 -33 -31 0 -21 -18 -15
-25 8 -7 20 -49 44 -72 40 -20 -3 -15 7 24 49 22 24 52 44 74 50 30 8 37 15
34 30 -2 11 0 20 5 20 5 0 10 -12 12 -27 2 -20 9 -28 23 -28 16 0 20 7 22 42
1 24 -3 45 -8 49 -5 3 -7 9 -4 14 3 5 1 12 -5 15 -6 4 -15 -7 -21 -24 -6 -17
-16 -31 -22 -31 -6 0 -8 3 -4 6 9 9 -32 49 -51 49 -9 0 -22 11 -28 23 -17 33
-34 50 -34 32 0 -7 -3 -11 -6 -7 -4 3 -13 -1 -22 -10 -14 -14 -17 -14 -28 2
-9 12 -10 23 -4 36 6 10 10 34 10 53 0 44 25 50 26 6 2 -32 29 -67 39 -50 4 6
11 8 16 4 5 -3 16 0 24 6 8 7 15 9 15 5 0 -4 6 -3 13 2 23 17 78 15 98 -3 19
-17 19 -16 19 47 0 76 -18 112 -55 105 -29 -5 -38 3 -24 21 9 10 8 13 -4 13
-8 0 -18 7 -21 16 -5 13 -2 15 14 11 11 -3 23 -1 26 4 3 5 49 9 103 9 94 0
100 -1 136 -30z m-2408 -22 c52 -1 72 -8 79 -31 5 -12 7 -26 6 -31 -2 -4 3
-14 9 -22 7 -8 9 -17 6 -21 -4 -3 -2 -12 4 -19 6 -8 9 -21 5 -29 -3 -8 -1 -15
4 -15 6 0 10 -18 10 -40 0 -22 4 -40 8 -40 4 0 8 -8 8 -17 2 -44 31 -131 50
-150 6 -7 21 -10 33 -8 11 2 23 0 26 -5 3 -4 26 -7 51 -6 43 2 106 -23 103
-41 -1 -5 -1 -10 1 -13 1 -3 3 -16 6 -29 2 -13 11 -56 20 -95 9 -39 17 -80 18
-91 2 -11 6 -27 9 -35 20 -49 28 -160 12 -160 -14 0 -35 14 -35 24 0 24 -53
122 -81 151 -27 29 -43 75 -53 157 -4 35 -31 64 -43 46 -10 -17 -11 -50 -2
-63 11 -16 29 -136 22 -148 -7 -11 -27 20 -29 46 -1 9 -3 20 -4 25 -2 4 -4 12
-5 17 -6 40 -18 83 -27 102 -8 17 -7 25 6 38 23 23 20 41 -11 63 -27 19 -34
22 -51 22 -5 0 -9 6 -10 13 -3 25 -9 52 -15 67 -12 32 -32 95 -33 105 -3 27
-18 43 -44 48 -24 5 -29 12 -35 49 -4 24 -12 48 -17 55 -5 7 -7 17 -3 23 3 5
1 10 -5 10 -5 0 -9 -13 -8 -30 1 -16 6 -30 10 -30 4 0 7 -3 6 -7 -1 -5 2 -18
6 -31 5 -14 3 -28 -4 -37 -18 -22 -29 -18 -36 13 -4 15 -9 32 -13 37 -3 6 -7
21 -7 35 -1 14 -3 26 -4 28 -1 1 -3 8 -4 15 -1 7 -13 11 -34 9 -30 -3 -33 -1
-30 19 2 12 16 30 33 39 27 15 32 16 47 3 9 -8 29 -15 45 -15z m846 10 c9 -8
21 -38 27 -64 7 -27 14 -56 17 -64 3 -8 7 -24 8 -36 1 -11 5 -26 9 -32 4 -7 2
-12 -6 -12 -8 0 -9 -3 -3 -8 6 -4 11 -18 13 -32 7 -54 23 -98 37 -104 8 -3 15
-13 15 -21 0 -9 4 -14 9 -11 5 3 11 -1 15 -9 3 -8 -11 -31 -33 -55 l-39 -41
-11 31 c-6 18 -8 36 -6 40 3 5 1 12 -5 15 -6 4 -10 14 -9 23 4 26 -20 122 -43
170 -19 41 -21 42 -38 27 -20 -18 -40 -13 -40 11 0 8 -4 14 -9 14 -5 0 -8 15
-7 34 3 30 -17 76 -28 65 -8 -8 -10 -78 -3 -85 13 -13 8 -66 -5 -61 -7 2 -13
10 -13 18 0 8 -3 19 -7 24 -3 6 -5 21 -4 35 4 50 -27 87 -66 81 -13 -2 -9 9
11 38 18 25 23 27 109 26 68 0 93 -4 105 -17z m1037 -65 c0 -17 16 -17 23 1 6
16 47 29 47 14 0 -5 9 -6 20 -3 30 10 25 -17 -7 -37 -21 -13 -24 -18 -10 -18
13 0 10 -7 -16 -30 -44 -38 -55 -38 -59 2 -2 17 -9 33 -16 36 -7 2 -11 -2 -10
-8 2 -7 -5 -14 -15 -15 -25 -4 -35 -17 -19 -22 14 -5 17 -23 3 -23 -5 0 -18
14 -29 32 -19 30 -19 33 -4 57 30 46 34 49 64 37 15 -6 28 -16 28 -23z m-1430
-129 c17 -3 46 -19 52 -28 4 -6 20 -11 35 -11 38 -1 68 -19 70 -42 1 -10 9
-54 18 -98 9 -44 18 -91 20 -105 2 -14 4 -25 5 -25 2 0 4 -9 6 -20 9 -61 26
-152 31 -165 4 -8 7 -29 7 -47 1 -18 5 -35 9 -39 11 -12 8 -86 -3 -79 -6 4 -8
11 -4 16 3 5 0 16 -6 24 -7 8 -10 21 -7 30 4 8 2 17 -2 20 -5 3 -12 28 -16 55
-4 27 -11 52 -15 55 -5 3 -7 14 -5 25 2 11 0 20 -6 20 -5 0 -9 4 -9 9 0 5 -5
22 -12 38 -6 15 -10 31 -10 36 1 4 -10 26 -25 50 -14 23 -26 48 -26 54 0 7 -4
13 -8 13 -4 0 -6 8 -4 18 1 9 0 22 -4 27 -3 6 -7 19 -8 29 -4 23 -11 32 -19
23 -3 -3 1 -32 9 -64 16 -62 8 -97 -19 -86 -8 3 -12 8 -10 11 3 3 1 11 -5 19
-6 7 -9 22 -6 33 3 11 1 23 -4 26 -5 3 -9 16 -9 29 0 22 -24 45 -47 45 -4 0
-6 -25 -5 -55 2 -30 7 -55 10 -55 4 0 7 -13 7 -30 0 -64 -18 -24 -29 65 -2 17
-5 30 -6 30 -1 0 -3 8 -5 17 -2 10 -10 25 -19 34 -11 10 -14 24 -10 42 8 32
52 74 68 64 6 -3 13 -7 16 -8z m-681 -121 c7 -32 16 -62 19 -68 4 -5 7 -17 7
-25 0 -8 3 -19 7 -25 3 -5 9 -31 13 -57 4 -27 10 -48 14 -48 4 0 8 -9 9 -20 1
-11 3 -29 4 -40 1 -11 6 -20 10 -20 4 0 8 -9 8 -20 0 -11 -7 -20 -16 -20 -8 0
-12 5 -9 10 3 6 2 10 -3 10 -6 0 -13 12 -18 28 -9 34 -9 32 -21 62 -6 14 -14
40 -18 58 -5 22 -12 32 -26 32 -10 0 -19 -6 -20 -12 0 -10 -2 -10 -6 0 -2 6
-11 12 -19 12 -9 0 -13 4 -9 9 3 5 1 12 -4 15 -5 4 -13 31 -16 61 -4 31 -14
59 -21 63 -12 6 -10 12 6 30 12 12 25 22 30 22 6 0 10 7 10 15 0 14 3 14 28 1
23 -12 31 -26 41 -73z m-299 -159 c0 4 9 2 19 -4 11 -5 19 -18 19 -28 -1 -9 6
-40 15 -69 8 -28 13 -54 10 -57 -4 -3 -1 -6 5 -6 7 0 11 -3 10 -7 -2 -8 18
-93 30 -123 3 -8 4 -19 3 -24 -1 -4 2 -13 7 -20 14 -19 9 -71 -8 -71 -22 -1
-34 14 -55 70 -17 45 -22 64 -27 103 -2 18 -15 15 -23 -5 -6 -17 -7 -17 -16 0
-6 9 -16 17 -23 17 -13 0 -30 35 -27 54 1 4 -3 14 -9 21 -6 7 -10 17 -9 21 1
5 -3 22 -9 37 -17 39 -15 44 13 51 15 4 30 18 36 32 8 22 12 24 24 14 8 -7 15
-9 15 -6z m516 -167 c7 -4 23 -7 35 -7 13 0 38 -2 54 -4 17 -2 37 -4 46 -5 24
-2 59 -36 59 -58 0 -11 3 -23 7 -27 4 -3 8 -14 9 -24 2 -9 5 -24 7 -32 2 -8 8
-34 12 -57 4 -24 10 -43 14 -43 3 0 7 -10 8 -22 3 -40 10 -72 18 -90 4 -10 5
-24 2 -32 -3 -8 -2 -16 2 -18 5 -2 11 -24 15 -50 6 -42 5 -48 -16 -60 -13 -7
-27 -13 -33 -13 -20 -2 -53 38 -61 73 -4 21 -9 44 -11 52 -3 8 -5 22 -7 30 -1
9 -5 20 -9 26 -3 6 -9 30 -13 53 -4 23 -10 44 -14 46 -5 3 -6 14 -3 25 3 11 1
20 -4 20 -5 0 -10 11 -11 25 -1 14 -4 36 -5 50 -1 14 -5 26 -9 27 -21 4 -28 2
-29 -7 0 -5 -5 -16 -11 -22 -7 -9 -7 -13 1 -13 6 0 10 -3 9 -7 -2 -7 15 -65
29 -103 4 -8 5 -21 4 -27 -1 -7 3 -21 8 -32 8 -14 7 -22 -4 -31 -11 -9 -16 -7
-26 12 -15 26 -20 43 -23 75 -1 13 -6 26 -9 30 -4 3 -7 17 -7 29 0 12 -5 35
-12 51 -6 15 -11 31 -10 35 1 4 -8 10 -21 14 -32 9 -57 34 -73 73 -8 18 -14
35 -14 36 0 12 79 14 96 2z m-807 -43 c11 -14 18 -31 15 -39 -3 -7 -1 -16 5
-19 8 -5 26 -55 46 -126 22 -77 28 -97 36 -106 5 -6 6 -14 2 -17 -3 -4 0 -13
7 -22 7 -8 9 -15 5 -15 -4 0 -2 -6 4 -14 6 -7 14 -33 17 -58 6 -43 5 -46 -21
-52 -16 -4 -33 -2 -42 5 -18 15 -48 71 -45 83 2 4 -3 14 -9 22 -6 8 -8 14 -3
14 4 0 3 5 -4 12 -7 7 -12 18 -12 24 0 7 -5 25 -12 41 -6 15 -10 34 -9 41 1 6
-2 12 -7 12 -5 0 -9 6 -10 13 -3 44 -30 129 -48 148 -19 21 -12 35 20 41 19 3
19 4 2 21 -17 16 -16 17 13 17 20 0 36 -8 50 -26z m7067 -186 c0 -13 -5 -26
-10 -30 -6 -4 -4 -13 4 -22 12 -15 15 -15 36 -1 22 14 52 14 94 -2 8 -4 17 -7
20 -8 3 -1 16 -6 30 -12 14 -6 42 -16 63 -24 20 -7 37 -17 37 -21 0 -4 9 -8
20 -8 25 0 60 -38 57 -61 -5 -30 -28 -49 -51 -43 -14 3 -28 -1 -36 -11 -12
-14 -14 -14 -31 1 -13 12 -28 15 -54 10 -25 -5 -35 -3 -33 5 3 11 -14 18 -62
23 -14 2 -32 6 -40 9 -8 3 -32 11 -53 17 -55 17 -84 34 -108 61 l-20 23 28 15
c15 8 31 14 36 13 4 -1 7 4 7 12 0 9 7 12 20 9 15 -4 20 0 20 15 0 26 10 52
20 52 4 0 7 -10 6 -22z m-5291 -49 c12 -13 42 -105 40 -127 -1 -12 2 -22 7
-22 4 0 8 -10 8 -22 0 -42 23 -168 31 -168 4 0 6 -8 4 -17 -1 -10 1 -22 5 -28
4 -5 8 -17 8 -25 1 -8 6 -37 12 -65 6 -27 12 -78 13 -111 l2 -61 -40 5 c-61 8
-85 19 -85 41 0 11 -5 23 -10 26 -6 4 -8 11 -5 16 4 5 2 9 -3 9 -5 0 -14 24
-21 53 -6 28 -14 63 -17 77 -3 14 -7 34 -8 45 -2 11 -6 27 -9 35 -3 8 -11 50
-17 94 -12 91 -12 91 -52 112 -28 14 -55 11 -32 -4 13 -9 14 -42 1 -42 -5 0
-6 -12 -3 -27 4 -16 9 -41 11 -58 2 -16 4 -30 5 -30 2 0 4 -9 5 -20 2 -11 7
-42 11 -70 6 -46 -3 -61 -11 -18 -2 10 -4 18 -5 18 -1 0 -4 11 -6 25 -17 114
-25 157 -31 170 -10 23 -10 34 0 47 6 9 1 12 -20 12 -103 0 -114 1 -106 14 14
22 12 37 -7 47 -13 7 -21 7 -25 0 -10 -16 -45 -12 -45 5 0 8 7 15 16 15 8 0
25 5 37 12 24 13 43 19 67 20 8 0 20 4 25 8 6 4 28 8 49 8 21 1 42 4 45 8 7 7
147 1 156 -7z m-1168 -16 c12 -8 27 -13 35 -12 17 2 78 -21 76 -29 -1 -4 2
-14 5 -22 13 -32 40 -132 64 -240 9 -41 22 -78 27 -82 6 -4 7 -10 3 -14 -4 -4
-3 -12 3 -18 15 -19 31 -139 19 -151 -13 -13 -106 -12 -120 2 -6 6 -18 53 -25
105 -8 51 -17 100 -21 108 -9 22 -14 42 -17 66 -1 11 -5 24 -8 30 -5 8 -20 75
-22 97 -1 9 -36 37 -47 37 -3 0 -4 -11 -1 -25 2 -15 0 -25 -7 -25 -9 0 -9 -6
0 -22 7 -13 12 -25 12 -28 0 -3 3 -14 8 -25 20 -52 23 -61 24 -70 0 -5 4 -16
9 -23 5 -8 11 -40 15 -72 6 -49 5 -57 -8 -55 -15 2 -63 119 -54 129 3 3 1 11
-3 18 -5 7 -10 20 -12 28 -4 20 -10 48 -18 85 -3 17 -13 36 -22 43 -9 6 -12
12 -8 12 5 0 3 7 -4 15 -10 12 -9 15 6 15 15 0 16 2 5 9 -9 6 -22 6 -32 0 -30
-16 -56 -10 -73 16 -9 14 -12 25 -6 25 5 0 9 3 8 8 -4 11 24 45 52 63 30 20
107 21 137 2z m914 -355 c26 -12 47 -24 46 -27 -1 -3 5 -17 12 -30 8 -14 15
-44 17 -69 2 -24 8 -50 13 -56 6 -6 8 -21 7 -31 -2 -11 0 -24 4 -30 4 -5 11
-32 15 -60 4 -27 10 -54 13 -59 3 -6 7 -19 8 -30 5 -36 11 -60 19 -78 4 -10 5
-25 1 -33 -3 -8 -2 -15 3 -15 8 0 20 -45 22 -80 0 -8 3 -22 6 -30 4 -8 7 -26
8 -40 1 -14 5 -33 9 -42 5 -10 6 -25 3 -33 -4 -8 -2 -17 3 -20 6 -4 10 -19 10
-35 0 -16 4 -39 9 -53 5 -13 6 -29 1 -36 -6 -11 -13 7 -24 69 -1 3 -4 10 -7
15 -4 6 -5 18 -4 28 2 9 -2 17 -8 17 -5 0 -8 3 -4 6 3 4 0 19 -9 35 -14 28
-32 34 -45 15 -4 -5 -15 -6 -25 -2 -11 4 -20 7 -21 7 -8 -2 -45 43 -52 62 -4
12 -9 51 -9 86 -1 36 -5 67 -9 70 -5 3 -9 20 -10 36 -4 41 -8 58 -16 72 -4 6
-6 22 -6 34 1 13 -4 47 -11 74 -6 28 -11 59 -11 70 0 31 -23 56 -50 52 -20 -3
-24 -10 -25 -43 -1 -21 6 -66 16 -99 16 -51 31 -107 34 -125 1 -3 5 -11 10
-18 4 -7 5 -16 2 -19 -3 -3 -1 -12 5 -20 9 -9 8 -17 0 -27 -8 -9 -8 -16 -2
-20 6 -4 8 -13 4 -22 -9 -25 -32 4 -40 50 -4 22 -6 44 -5 49 1 4 -2 7 -7 7 -5
0 -7 14 -6 30 1 17 -1 30 -5 30 -4 0 -12 33 -17 73 -9 59 -16 93 -22 115 -1 1
-1 5 -2 10 -1 4 -5 15 -10 24 -9 17 -11 17 -34 2 -17 -11 -29 -13 -38 -7 -14
12 -146 11 -165 -1 -22 -14 -23 0 -2 27 25 32 26 50 1 42 -29 -9 -34 10 -6 25
14 7 25 17 25 22 0 4 9 8 19 8 11 0 21 5 23 12 2 6 11 13 19 14 37 7 62 14 65
17 2 2 49 4 105 4 84 1 111 -2 150 -19z m-1208 -17 c47 -16 63 -36 78 -103 6
-32 16 -58 21 -58 5 0 6 -11 4 -25 -3 -14 -1 -25 4 -25 4 0 11 -19 15 -41 4
-23 14 -57 21 -75 8 -19 11 -34 7 -34 -5 0 -3 -4 2 -8 9 -6 47 -110 51 -137 0
-5 4 -17 7 -25 16 -39 34 -130 26 -130 -5 0 -9 6 -9 14 0 17 -24 38 -34 29 -3
-4 -12 -8 -19 -9 -7 -1 -20 -5 -29 -9 -11 -4 -18 -3 -18 4 0 7 -7 11 -16 9
-24 -4 -71 60 -86 117 -7 28 -15 52 -18 55 -7 7 -13 30 -14 53 0 9 -3 17 -7
17 -7 0 -23 59 -20 74 1 4 -3 14 -10 22 -6 7 -8 18 -4 24 3 5 2 10 -4 10 -5 0
-13 20 -16 45 -5 31 -14 49 -31 60 -13 8 -24 21 -24 27 0 6 3 9 6 5 4 -3 13 1
22 9 11 12 12 18 3 27 -10 9 -12 9 -9 -3 2 -10 -7 -16 -29 -18 -25 -2 -31 -7
-27 -20 5 -14 4 -14 -4 -3 -12 16 -52 23 -52 9 0 -5 -4 -6 -10 -3 -5 3 -16 3
-22 -2 -7 -4 -22 -8 -33 -8 -11 0 -24 -3 -30 -7 -15 -9 -95 -6 -95 4 0 12 76
80 113 101 18 9 49 20 70 23 20 4 37 9 37 13 0 10 147 4 183 -8z m6298 -372
c5 -1 21 -2 37 -4 15 -1 35 -5 45 -9 9 -5 24 -6 32 -2 8 3 15 2 15 -3 0 -5 29
-11 65 -13 36 -3 72 -11 80 -18 8 -7 15 -9 15 -5 0 5 9 0 20 -10 11 -10 20
-26 20 -36 0 -9 5 -19 11 -21 5 -2 11 -11 12 -20 2 -9 8 -23 15 -31 15 -18 5
-47 -15 -47 -12 0 -13 -3 -4 -14 9 -10 8 -16 -4 -26 -12 -10 -15 -10 -15 0 0
8 -3 10 -7 7 -3 -4 -12 -2 -19 4 -11 9 -16 5 -24 -15 -12 -32 -11 -32 -58 -3
-20 13 -50 24 -67 25 -30 2 -111 16 -151 25 -12 3 -41 16 -65 28 -24 13 -47
23 -50 24 -4 0 -20 11 -38 24 -22 17 -31 32 -31 52 0 21 -4 27 -15 23 -8 -4
-15 -1 -15 5 0 7 8 15 18 18 9 4 19 10 22 15 3 4 15 9 25 11 11 1 25 6 31 9 6
4 21 6 33 3 11 -2 21 0 21 6 0 11 22 7 32 -6 4 -5 8 6 9 25 2 30 3 31 6 8 2
-16 9 -29 14 -29z m-5491 13 c0 -4 21 -6 47 -5 25 2 52 -2 58 -7 7 -5 15 -7
18 -3 4 3 9 -2 13 -11 3 -9 14 -16 24 -16 10 0 23 -7 30 -15 7 -8 9 -15 5 -15
-5 0 -1 -8 7 -17 9 -10 18 -34 22 -53 3 -19 8 -44 10 -55 2 -11 5 -20 6 -20 1
0 3 -11 4 -25 0 -14 4 -29 7 -35 10 -15 32 -127 31 -152 -1 -13 3 -23 10 -23
6 0 9 -3 5 -6 -3 -3 1 -27 8 -52 18 -62 29 -132 26 -159 -1 -13 1 -28 6 -35 4
-7 8 -26 9 -43 0 -16 4 -37 7 -45 4 -8 11 -51 17 -95 14 -100 17 -120 20 -120
1 0 4 -9 6 -20 2 -11 8 -42 14 -69 9 -46 7 -66 -8 -66 -17 0 -72 58 -72 76 0
11 -3 24 -7 28 -5 4 -9 12 -9 17 -1 5 -2 10 -4 12 -1 1 -3 11 -5 22 -2 11 -9
21 -14 23 -6 2 -11 15 -11 28 0 13 -8 32 -17 42 -10 9 -18 24 -17 32 0 8 -5
25 -13 37 -7 12 -13 29 -13 38 0 8 -3 15 -7 15 -5 0 -9 10 -10 23 -4 51 -37
215 -50 247 -4 8 -8 22 -9 30 -2 8 -10 47 -19 85 -22 102 -27 127 -28 153 -1
12 -5 22 -9 22 -4 0 -8 6 -8 13 0 9 -13 14 -32 15 -32 1 -33 0 -36 -46 -3 -50
14 -139 31 -159 5 -7 6 -13 2 -13 -4 0 -2 -6 4 -14 6 -8 11 -18 10 -22 -1 -5
4 -25 11 -44 13 -32 15 -54 11 -102 -1 -24 -21 -23 -21 1 0 11 -5 23 -11 26
-6 4 -8 14 -5 22 4 9 2 21 -3 27 -9 10 -39 143 -45 196 -2 14 -7 34 -12 45 -4
11 -8 34 -8 51 0 17 -6 32 -13 33 -39 6 -250 -3 -259 -11 -4 -4 -10 -5 -15 -3
-4 3 4 25 17 49 26 47 91 109 105 100 5 -3 9 0 9 6 0 7 -7 10 -15 7 -8 -4 -17
-2 -20 3 -4 6 8 11 24 12 53 2 56 3 63 13 7 10 29 15 81 18 15 1 27 5 27 10 0
4 5 7 10 7 6 0 10 -4 10 -8z m-1161 -63 c26 -19 55 -72 56 -104 0 -5 3 -15 7
-20 17 -28 46 -119 43 -136 -2 -10 1 -19 7 -19 6 0 8 -9 5 -20 -3 -11 -1 -23
4 -26 5 -3 9 -14 9 -24 0 -10 5 -31 12 -47 6 -15 12 -35 13 -43 1 -8 6 -26 13
-40 10 -24 23 -69 27 -100 4 -26 10 -45 16 -50 5 -4 26 -88 33 -132 1 -10 5
-21 9 -24 11 -12 -24 -44 -48 -44 -22 0 -60 32 -50 42 6 6 -51 58 -63 58 -14
0 -43 36 -35 43 3 4 -1 7 -10 7 -10 0 -17 8 -17 20 0 11 -5 20 -11 20 -5 0 -7
5 -4 10 4 6 1 17 -5 25 -7 8 -9 15 -4 15 5 0 4 4 -2 8 -10 6 -45 111 -47 140
0 6 -3 12 -7 12 -3 0 -12 24 -19 53 -8 28 -18 58 -24 65 -5 6 -6 12 -2 12 4 0
3 6 -3 13 -6 6 -13 30 -17 52 -4 22 -14 46 -23 53 -9 6 -12 12 -8 12 5 0 3 7
-4 15 -10 13 -8 20 14 41 14 15 26 24 26 20 0 -4 7 -1 15 8 8 8 15 21 15 28 0
8 5 19 10 24 15 15 2 41 -23 48 -17 5 -19 8 -8 15 18 12 61 -1 100 -30z m2363
-686 c52 -4 67 -10 71 -23 3 -12 19 -20 45 -25 38 -6 59 -26 47 -45 -2 -4 6
-19 19 -33 15 -16 20 -30 15 -38 -4 -7 -4 -18 0 -24 5 -5 9 -17 9 -25 5 -58
16 -120 21 -120 4 0 6 -14 5 -30 -1 -17 2 -32 6 -35 5 -3 7 -16 5 -30 -1 -14
2 -25 6 -25 5 0 8 -3 7 -7 -4 -18 15 -124 23 -128 4 -3 6 -12 3 -19 -3 -8 0
-17 5 -21 6 -3 9 -11 6 -16 -4 -5 -1 -9 5 -9 6 0 8 -5 4 -12 -11 -17 -12 -48
-3 -54 4 -2 11 -33 14 -69 4 -36 11 -67 15 -70 4 -2 5 -23 3 -45 -3 -23 -1
-40 5 -40 5 0 9 -16 7 -35 -1 -20 2 -38 6 -41 5 -3 9 -15 8 -27 0 -24 9 -72
18 -97 6 -16 9 -27 11 -48 2 -16 54 -5 65 14 4 7 14 11 22 8 8 -4 15 -1 15 5
0 11 36 29 69 34 26 4 42 18 35 30 -3 7 2 3 10 -7 9 -11 16 -14 16 -8 0 7 7
12 15 12 8 0 15 5 15 10 0 6 8 10 18 10 10 0 22 3 26 8 4 4 12 8 17 8 5 1 10
2 12 4 7 5 46 11 72 11 24 -1 27 1 15 10 -11 8 -12 12 -2 16 7 2 19 12 28 20
8 9 32 18 51 20 20 2 48 13 64 23 15 11 29 20 32 20 3 0 18 5 34 11 15 6 29
10 31 9 1 0 10 6 18 15 9 8 21 15 28 15 16 0 20 -58 5 -76 -6 -8 -8 -14 -3
-14 4 0 -10 -16 -32 -35 -27 -24 -49 -35 -71 -35 -17 0 -35 -5 -39 -11 -4 -8
-9 -7 -15 2 -12 20 -40 0 -62 -44 -12 -27 -23 -37 -41 -37 -20 0 -23 4 -18 28
3 21 2 24 -7 16 -7 -6 -13 -18 -14 -25 -3 -18 -32 -60 -38 -54 -3 2 -20 0 -40
-4 -19 -4 -45 -4 -57 0 -16 6 -22 5 -22 -6 0 -7 8 -15 17 -17 14 -3 13 -7 -10
-30 -16 -16 -33 -25 -42 -21 -9 3 -23 -2 -33 -10 -9 -8 -36 -21 -59 -29 -24
-7 -43 -17 -43 -21 0 -5 -4 -5 -10 -2 -5 3 -10 1 -10 -5 0 -17 -52 -3 -67 17
-7 9 -13 27 -13 40 0 13 -5 23 -11 23 -5 0 -7 5 -4 10 3 6 3 16 -2 23 -4 6 -8
19 -9 27 0 8 -3 22 -7 30 -3 8 -13 39 -22 68 -16 50 -28 59 -67 53 -5 0 -8 3
-8 8 0 5 -9 11 -21 14 -12 3 -18 10 -14 17 4 6 0 19 -9 28 -8 10 -15 26 -15
37 -1 37 -24 155 -31 155 -4 0 -6 12 -5 28 1 15 -2 32 -6 37 -4 6 -8 20 -8 30
0 19 -14 110 -26 165 -3 14 -7 39 -8 57 -1 18 -6 35 -10 39 -4 4 -7 26 -7 48
-1 58 -38 96 -87 88 -25 -4 -27 -10 -14 -45 7 -18 5 -26 -9 -35 -15 -9 -21 -9
-27 1 -13 21 -14 58 -2 73 13 16 15 16 -33 18 -21 1 -38 -2 -38 -6 0 -5 -5 -6
-10 -3 -6 4 -16 2 -23 -3 -16 -13 -235 -13 -243 -1 -3 6 -1 16 6 24 6 7 9 28
7 44 -3 18 -1 31 5 31 6 0 8 9 5 20 -3 10 -1 20 5 22 6 2 6 13 -1 30 -12 32 9
46 34 22 8 -9 15 -13 15 -11 0 3 3 13 7 23 5 13 3 16 -10 11 -9 -3 -17 -2 -17
3 0 12 46 24 59 15 6 -3 15 5 21 19 10 26 22 36 18 14 -2 -6 5 -14 15 -16 16
-3 17 -1 7 17 -10 20 -8 21 42 22 29 1 67 4 83 8 17 4 33 3 36 -1 3 -5 35 -11
71 -15z m4845 14 c3 -4 18 -7 33 -7 15 0 30 -3 34 -7 8 -8 32 -14 61 -16 11
-1 26 -7 33 -14 7 -7 20 -13 28 -13 8 0 14 -4 14 -10 0 -5 6 -7 14 -4 8 3 17
0 21 -5 3 -6 10 -9 14 -6 5 2 24 -10 43 -28 19 -17 43 -37 54 -43 10 -6 20
-24 22 -39 2 -16 11 -39 19 -52 18 -27 15 -32 -17 -38 -25 -5 -40 -15 -22 -15
17 0 15 -37 -2 -43 -8 -3 -16 -1 -18 4 -2 5 -17 11 -33 12 -26 2 -30 -2 -33
-25 -4 -30 -23 -29 -54 2 -10 11 -30 16 -52 15 -20 -1 -36 2 -36 7 0 4 -10 7
-22 6 -22 -2 -117 17 -148 29 -8 4 -17 7 -20 7 -20 3 -96 43 -103 53 -4 7 -13
13 -19 13 -20 0 -67 61 -60 78 4 10 7 12 10 4 2 -7 10 -12 18 -12 8 0 14 -4
14 -9 0 -5 10 -12 23 -16 12 -4 25 -8 30 -10 12 -4 17 -5 23 -4 4 0 10 -3 13
-8 6 -9 83 -35 114 -39 9 -1 18 -3 20 -4 7 -7 135 -6 150 2 25 13 21 27 -10
34 -16 3 -46 12 -68 21 -22 8 -42 15 -45 15 -3 0 -15 4 -28 9 -13 5 -29 9 -37
9 -8 0 -16 4 -20 9 -3 6 -14 8 -25 6 -11 -2 -20 1 -20 6 0 6 -8 9 -17 8 -10
-1 -25 1 -33 4 -8 3 -37 9 -65 13 -62 9 -69 10 -75 13 -3 2 -18 4 -33 6 -16 1
-33 8 -37 15 -11 18 0 42 16 36 8 -3 14 -1 14 4 0 6 12 10 28 10 26 -1 153 18
158 23 6 5 124 0 131 -6z m-6397 -38 c14 -11 40 -27 58 -36 19 -10 31 -22 28
-30 -3 -7 -1 -13 5 -13 6 0 9 -7 6 -15 -4 -8 -2 -17 4 -21 5 -3 9 -13 8 -22
-1 -10 3 -30 9 -45 7 -16 12 -37 12 -47 0 -10 5 -22 11 -25 6 -4 8 -13 5 -21
-3 -7 -1 -16 3 -19 5 -2 14 -26 21 -52 16 -57 14 -51 29 -88 7 -16 17 -51 23
-77 6 -27 16 -48 21 -48 5 0 7 -6 4 -14 -3 -7 -2 -17 3 -22 6 -7 21 -51 46
-139 7 -23 42 -151 45 -165 2 -8 6 -17 10 -20 5 -5 29 -93 31 -117 1 -7 5 -13
9 -13 5 0 6 -7 3 -15 -4 -8 -1 -15 5 -15 6 0 11 -9 11 -19 0 -24 9 -30 51 -35
23 -3 37 1 45 13 7 9 17 17 23 17 6 1 13 3 16 4 3 1 9 3 13 4 5 0 17 9 27 19
9 10 24 16 32 13 8 -3 21 -6 29 -6 8 0 14 -9 14 -20 0 -11 -4 -20 -10 -20 -5
0 -9 -3 -9 -7 4 -24 -4 -30 -32 -28 -23 2 -29 -1 -24 -13 4 -12 -1 -14 -31 -9
-27 5 -41 1 -56 -12 -11 -11 -26 -18 -33 -17 -20 3 -45 27 -45 42 0 8 -4 14
-8 14 -5 0 -9 6 -9 13 -1 6 -12 40 -26 74 -14 34 -22 64 -19 67 3 3 0 6 -6 6
-6 0 -9 6 -6 13 2 7 -4 22 -15 34 -11 11 -17 23 -14 26 12 12 -9 46 -27 44
-11 -1 -20 -4 -20 -8 0 -10 -53 -33 -86 -36 -38 -4 -98 44 -88 71 3 9 1 16 -5
16 -6 0 -11 9 -11 20 0 12 -7 34 -15 50 -8 16 -16 37 -18 47 -1 10 -5 23 -8
28 -4 6 -12 34 -20 63 -7 28 -17 52 -23 52 -5 0 -7 3 -4 6 4 3 -3 36 -14 72
-11 37 -20 75 -20 85 1 9 -3 17 -7 17 -5 0 -8 8 -7 18 1 27 -36 94 -56 100
-24 6 -23 39 1 47 11 3 23 15 26 26 4 11 18 31 31 45 17 16 24 33 22 52 -4 37
-36 37 -67 -1 -23 -27 -23 -29 -4 -19 17 9 22 9 27 -5 4 -9 4 -18 1 -21 -3 -3
-5 0 -5 7 0 8 -5 9 -19 2 -10 -6 -21 -7 -25 -4 -5 6 -10 -12 -7 -29 0 -5 -7
-8 -17 -8 -10 0 -22 -3 -26 -7 -3 -4 -17 -9 -29 -11 -12 -2 -26 -5 -32 -7 -5
-1 -25 -6 -42 -10 -18 -4 -33 -11 -33 -15 0 -7 -36 -17 -85 -23 -11 -1 -22 -5
-25 -9 -3 -3 -28 -8 -55 -10 -45 -3 -50 -1 -47 17 2 11 8 23 14 26 5 3 9 10 9
15 0 5 10 20 22 34 12 14 21 28 19 33 -1 4 3 7 8 7 6 0 10 7 10 15 0 8 5 16
10 16 6 1 15 3 20 4 6 1 13 3 18 4 4 1 1 5 -6 10 -9 5 0 10 28 15 23 3 52 14
66 22 13 9 24 13 24 8 0 -4 5 -3 12 4 7 7 20 12 30 12 10 0 18 5 18 10 0 6 -4
10 -10 10 -5 0 -10 5 -10 12 0 7 6 6 18 -4 9 -8 37 -18 62 -22 40 -5 43 -4 27
8 -10 8 -27 12 -37 9 -22 -6 -28 12 -7 21 28 11 152 -6 177 -25z m2497 -341
c-16 -12 -42 -22 -57 -23 -16 -2 -39 -14 -52 -27 -25 -28 -87 -62 -95 -54 -5
4 -14 -2 -47 -31 -8 -7 -16 -9 -20 -6 -3 3 -14 0 -23 -8 -10 -8 -36 -24 -58
-36 -46 -25 -69 -16 -80 30 -6 24 -4 27 18 27 14 0 27 5 29 10 2 6 12 12 23
14 11 3 38 12 59 21 22 9 49 19 60 22 27 6 38 9 56 16 27 11 115 39 128 41 7
1 18 8 24 14 7 7 23 12 38 12 l25 -1 -28 -21z m2612 -100 c-1 -7 0 -31 1 -53
2 -39 3 -39 10 -10 4 17 8 24 10 18 4 -31 2 -101 -5 -135 -4 -21 -4 -49 -1
-62 6 -24 7 -24 34 -10 31 16 52 18 52 5 0 -5 8 -8 18 -6 9 1 22 -1 27 -5 6
-4 23 -10 38 -14 19 -5 32 -16 39 -36 6 -18 17 -30 28 -30 9 0 49 -31 88 -68
57 -55 70 -73 65 -91 -4 -15 2 -30 16 -45 18 -19 32 -23 74 -22 29 1 57 4 62
8 6 4 17 3 24 -1 10 -6 -2 -24 -42 -65 -31 -31 -59 -56 -63 -56 -4 0 -20 -12
-36 -27 -26 -25 -29 -25 -46 -10 -10 10 -22 14 -25 10 -4 -3 -7 -1 -7 5 0 7
-3 11 -7 10 -5 0 -16 2 -26 7 -24 10 -42 -8 -42 -42 0 -37 -31 -38 -70 -4 -29
25 -38 27 -103 26 -40 -1 -72 3 -72 8 0 5 -16 7 -35 4 -19 -3 -38 -1 -41 4 -3
5 -15 9 -27 9 -24 0 -67 26 -67 39 0 5 15 12 34 15 19 4 39 13 46 21 12 15 6
35 -11 35 -24 0 -52 48 -52 88 0 26 -16 25 -31 -3 -6 -11 -17 -24 -25 -30 -7
-6 -15 -32 -18 -58 -3 -26 -8 -47 -10 -47 -11 0 -63 35 -63 42 0 4 -6 8 -13 8
-26 0 -67 70 -67 115 0 13 -4 27 -10 30 -9 6 17 74 33 86 4 3 7 10 6 15 -4 25
3 35 24 32 24 -3 87 20 87 32 0 4 34 6 75 5 48 -1 79 3 86 11 9 11 14 53 22
174 5 74 6 80 12 80 3 0 5 -6 4 -12z m-3791 -278 c41 0 54 -5 80 -30 18 -16
41 -30 52 -30 11 0 20 -5 20 -12 0 -6 3 -8 7 -5 12 13 33 -16 33 -45 0 -21 6
-31 19 -35 14 -4 19 -13 17 -34 -1 -17 6 -62 17 -102 27 -103 28 -112 32 -217
1 -52 6 -105 10 -117 5 -14 3 -23 -4 -23 -16 0 -46 51 -43 72 2 10 -1 18 -6
18 -6 0 -9 11 -7 25 1 14 -1 25 -4 25 -8 0 -31 105 -31 141 0 14 -11 35 -23
48 -21 19 -25 20 -37 6 -7 -8 -9 -15 -5 -15 4 0 2 -7 -5 -15 -7 -8 -8 -20 -4
-27 5 -7 9 -20 9 -28 1 -8 9 -31 20 -50 10 -19 19 -39 20 -45 0 -5 6 -21 14
-35 26 -45 43 -124 45 -205 1 -44 0 -86 -2 -92 -9 -27 -39 -8 -46 27 -1 3 -6
19 -13 35 -6 17 -15 48 -19 70 -4 22 -9 47 -11 55 -3 8 -5 23 -6 33 -1 9 -5
17 -9 17 -4 0 -7 3 -6 8 3 14 -15 117 -25 142 -6 14 -10 28 -9 32 2 11 -56 27
-85 22 -24 -4 -32 0 -43 21 -14 27 -54 36 -44 10 4 -8 2 -15 -2 -16 -19 -1
-44 -8 -78 -19 -20 -6 -40 -9 -46 -5 -5 3 -15 3 -21 -1 -18 -11 -213 -4 -220
8 -6 10 3 46 24 98 17 41 14 65 -8 65 -25 0 -40 32 -24 51 6 8 20 14 31 14 10
0 16 5 13 10 -3 6 -1 10 5 10 6 0 20 9 32 20 12 11 29 20 38 20 9 0 22 11 30
24 7 14 18 22 25 20 7 -3 16 -1 19 4 3 6 -1 12 -9 16 -21 8 -18 24 6 31 19 6
99 15 141 16 10 0 20 4 23 10 4 5 18 3 35 -6 16 -8 51 -15 78 -15z m-1884 -2
c23 -12 35 -13 59 -4 27 10 31 8 56 -20 14 -17 38 -34 54 -38 15 -3 27 -13 27
-21 0 -8 4 -15 8 -15 5 0 9 -6 10 -12 1 -17 39 -125 49 -141 4 -6 8 -16 9 -22
1 -5 7 -30 14 -55 6 -25 12 -54 14 -65 2 -11 5 -20 6 -20 6 0 6 -61 0 -70 -10
-14 -10 -75 -1 -75 10 0 8 -61 -3 -78 -12 -20 -42 4 -60 48 -9 22 -16 43 -15
46 0 3 -6 15 -14 27 -7 12 -20 43 -28 70 -7 26 -17 47 -20 47 -4 0 -10 14 -14
30 -7 32 -40 70 -61 70 -6 0 -14 -13 -16 -30 -3 -16 -1 -30 4 -30 4 0 8 -8 8
-18 0 -10 5 -23 11 -29 6 -6 23 -35 38 -64 42 -83 65 -123 74 -130 12 -9 20
-50 19 -94 -1 -80 -4 -93 -19 -99 -17 -7 -56 22 -48 35 3 4 0 11 -5 14 -12 8
-31 48 -37 80 -2 10 -7 22 -12 25 -4 3 -11 17 -15 32 -3 15 -11 40 -18 55 -6
15 -12 31 -13 36 -2 4 -4 10 -5 15 -1 4 -2 10 -1 15 0 4 -3 7 -9 7 -5 0 -10 8
-10 17 0 9 -9 26 -19 37 -10 12 -28 37 -39 57 l-20 37 39 38 c53 52 92 132 83
170 -10 41 -79 107 -103 99 -11 -3 -22 -1 -26 5 -3 6 -11 8 -16 5 -5 -4 -9 0
-9 9 0 27 29 29 74 4z m4821 -175 c-1 -27 -3 -50 -5 -53 -4 -8 -7 -23 -8 -42
-1 -10 -5 -18 -9 -17 -15 2 -53 -13 -53 -21 0 -4 -20 -16 -44 -26 -24 -10 -42
-22 -40 -26 3 -4 -15 -18 -40 -30 -26 -12 -46 -26 -46 -31 0 -4 -4 -6 -8 -3
-5 3 -28 -13 -51 -34 -24 -22 -50 -40 -60 -40 -9 0 -26 -7 -37 -15 -12 -8 -24
-11 -28 -8 -3 3 -6 -1 -6 -10 0 -8 -10 -19 -22 -23 -13 -4 -26 -12 -30 -18 -4
-6 -12 -11 -17 -11 -5 0 -21 -10 -35 -22 -14 -13 -26 -20 -26 -15 0 4 -4 2 -8
-3 -10 -15 -128 -85 -142 -85 -7 0 -10 7 -6 15 3 8 2 15 -3 15 -8 0 -26 -94
-22 -113 1 -4 -4 -17 -10 -29 -11 -21 -12 -21 -28 10 -12 23 -16 55 -14 124 0
51 -2 97 -5 103 -12 18 -9 89 4 102 10 10 14 7 20 -20 4 -17 9 -35 10 -39 1
-5 3 -11 4 -15 2 -5 4 -12 5 -18 1 -5 5 -17 8 -25 3 -8 8 -22 10 -30 3 -8 6
31 6 87 1 56 -2 104 -7 107 -9 5 -8 83 1 92 3 4 9 -5 13 -20 3 -14 13 -26 21
-26 13 0 13 -3 -1 -25 -21 -32 -20 -58 2 -78 16 -15 21 -14 64 13 25 16 49 26
52 23 3 -4 6 2 6 12 0 10 -8 24 -17 32 -16 12 -15 13 15 8 29 -6 34 -4 39 16
6 20 7 20 18 5 16 -21 48 -10 42 15 -3 12 1 17 12 17 9 0 24 3 34 7 10 4 17 3
17 -3 0 -6 9 -10 20 -9 18 1 20 8 20 64 0 38 4 63 11 63 5 0 7 -4 4 -10 -3 -5
-2 -10 4 -10 5 0 8 -9 6 -19 -2 -11 3 -25 11 -31 17 -15 77 -5 97 15 8 8 17
11 21 8 3 -4 6 -1 6 5 0 6 7 9 17 5 10 -4 14 -2 10 4 -6 9 35 31 63 34 17 3
40 22 40 34 0 8 6 15 13 15 6 0 25 11 41 25 16 14 32 25 37 25 4 0 6 -21 4
-47z m1199 -940 c4 -5 15 -9 24 -9 26 -2 62 -16 62 -23 0 -13 61 -42 83 -40
30 4 69 -10 87 -31 8 -9 39 -23 68 -31 39 -10 68 -27 111 -66 32 -29 60 -50
63 -48 12 12 55 -44 61 -79 4 -26 17 -50 39 -70 34 -32 44 -74 21 -89 -7 -4
-13 -15 -13 -22 0 -8 -6 -15 -12 -15 -10 0 -10 -2 0 -9 8 -4 16 -26 19 -48 l5
-40 -44 -11 c-41 -10 -45 -15 -46 -42 -1 -49 -42 -76 -70 -48 -14 14 -92 19
-92 6 0 -4 -43 -8 -95 -8 -60 0 -95 4 -95 11 0 5 -4 8 -8 5 -5 -3 -23 4 -41
15 -26 16 -30 23 -21 33 6 8 22 17 35 20 45 11 41 42 -12 90 -27 24 -58 61
-68 83 -11 21 -22 40 -25 43 -11 10 -33 65 -31 77 1 6 -3 14 -9 18 -8 5 -39
64 -44 85 -5 16 -28 50 -35 50 -28 0 -35 -219 -8 -246 4 -4 7 -17 7 -29 0 -32
48 -122 80 -149 16 -13 27 -26 24 -28 -7 -8 -100 16 -116 29 -8 7 -18 10 -21
6 -4 -3 -7 0 -7 7 0 7 -3 11 -6 8 -3 -3 -18 6 -34 20 -16 15 -40 36 -54 47
-14 11 -26 26 -26 33 0 6 -4 12 -8 12 -11 0 -46 72 -43 88 1 8 -2 19 -7 25
-11 16 -8 86 6 120 7 16 12 34 12 40 0 18 30 58 39 53 4 -3 18 13 31 34 21 34
50 54 73 51 4 -1 7 7 7 17 0 11 9 27 20 37 11 10 20 15 20 11 0 -4 8 -2 18 3
20 12 65 14 76 4z m-4513 -52 c29 -33 46 -43 71 -44 27 -2 37 -9 53 -40 16
-30 27 -39 57 -43 51 -9 72 -26 74 -60 1 -41 21 -84 38 -84 22 0 31 -57 12
-76 -18 -18 -21 -34 -6 -34 6 0 10 -5 10 -12 0 -6 7 -19 15 -28 8 -9 16 -25
18 -36 1 -10 6 -25 10 -31 5 -7 6 -17 2 -22 -3 -5 -1 -12 4 -16 5 -3 10 -13
10 -23 0 -9 5 -42 10 -73 12 -61 20 -127 23 -174 1 -16 7 -33 13 -37 6 -5 4
-13 -7 -24 -15 -15 -18 -16 -33 -1 -20 20 -45 80 -45 107 0 11 -5 20 -11 20
-5 0 -7 5 -4 10 4 6 2 17 -4 24 -7 8 -11 18 -10 22 1 5 -3 22 -9 37 -7 16 -12
34 -12 42 0 8 -4 16 -9 20 -6 3 -8 14 -6 25 2 10 -7 30 -20 44 -39 42 -49 35
-54 -41 -1 -24 2 -43 7 -43 6 0 9 -8 8 -17 -2 -10 0 -20 3 -23 3 -3 14 -23 25
-45 37 -80 100 -199 106 -202 7 -4 3 -91 -5 -103 -4 -6 -2 -17 5 -25 7 -9 8
-15 0 -20 -5 -3 -10 -17 -10 -31 0 -17 -5 -24 -20 -24 -11 0 -20 5 -20 11 0 6
-8 23 -19 37 -10 15 -26 54 -36 87 -9 33 -22 66 -27 73 -6 7 -8 15 -5 19 4 3
3 11 -2 17 -5 6 -14 36 -20 66 -7 30 -15 62 -18 70 -3 8 -7 22 -9 30 -2 8 -19
29 -38 47 -27 26 -43 33 -75 33 -22 0 -43 5 -46 10 -4 6 9 30 28 53 47 58 59
84 52 110 -4 15 -3 18 3 9 7 -10 13 -7 26 13 10 15 15 29 12 32 -3 4 -1 12 5
19 13 16 4 107 -11 112 -5 2 -10 10 -10 18 0 17 -59 74 -76 74 -6 0 -17 -7
-25 -16 -10 -12 -10 -20 -1 -34 6 -11 8 -22 3 -25 -5 -3 -8 -18 -7 -35 1 -16
-1 -30 -4 -30 -6 0 -5 -29 4 -85 3 -16 5 -34 5 -39 1 -5 8 -2 17 5 14 11 18
10 30 -6 12 -16 12 -20 -1 -28 -8 -4 -15 -15 -15 -22 0 -14 -12 -17 -92 -17
-15 -1 -25 -5 -22 -9 3 -5 -2 -9 -10 -9 -8 0 -17 -8 -21 -17 -6 -19 -75 -66
-111 -77 -28 -8 -68 7 -100 39 -14 14 -22 25 -18 25 3 0 2 6 -4 13 -12 14 -13
185 -1 192 4 3 5 14 2 25 -3 11 -1 20 5 20 6 0 13 18 17 40 4 22 10 40 14 40
4 0 7 8 8 18 3 31 9 57 17 75 5 9 6 23 3 31 -3 8 4 21 18 30 13 9 33 25 44 37
32 34 62 45 125 44 57 -1 61 -3 97 -44z m2243 5 c18 -8 41 -24 49 -37 13 -17
27 -23 60 -24 33 0 54 -8 84 -32 25 -20 57 -35 84 -39 62 -9 86 -26 84 -61 -1
-24 6 -32 54 -58 44 -23 56 -35 57 -55 1 -14 -1 -29 -4 -35 -12 -18 -9 -30 17
-58 38 -41 36 -75 -6 -92 -41 -17 -51 -40 -28 -65 10 -11 14 -20 9 -20 -5 0
-3 -4 5 -9 12 -8 12 -12 2 -25 -8 -9 -10 -16 -5 -17 5 0 -2 -5 -15 -10 -16 -6
-34 -5 -56 2 -52 19 -65 8 -65 -55 0 -46 -3 -56 -20 -61 -24 -8 -56 9 -70 36
-6 11 -15 17 -20 14 -5 -3 -11 -1 -15 5 -9 15 -65 13 -65 -2 0 -10 -2 -10 -8
0 -5 7 -22 12 -38 10 -62 -4 -154 2 -154 11 0 5 6 16 13 23 20 20 12 46 -25
87 -35 38 -74 101 -62 101 3 0 2 6 -4 13 -11 14 -32 130 -35 194 -1 23 -5 44
-9 48 -3 4 -4 17 -2 30 2 12 -3 28 -11 35 -16 13 -50 6 -40 -9 3 -5 1 -12 -5
-16 -5 -3 -10 -14 -10 -24 0 -10 -9 -26 -19 -35 -11 -10 -18 -26 -16 -37 2
-10 -1 -19 -6 -19 -6 0 -8 -4 -5 -8 6 -10 -29 -42 -45 -42 -6 0 -9 -7 -5 -15
8 -21 -4 -75 -16 -75 -6 0 -7 7 -4 16 3 8 2 12 -4 9 -6 -3 -10 -2 -10 4 0 6
-6 8 -14 5 -29 -11 -37 82 -8 104 9 7 17 16 18 20 2 13 23 57 23 48 1 -5 7 -3
15 4 8 6 13 17 10 24 -3 7 6 17 18 23 13 6 30 23 38 39 23 46 40 62 60 57 13
-4 23 5 35 31 12 25 27 39 49 45 47 14 103 13 140 -3z m1219 -89 c3 -8 2 -18
-1 -23 -13 -17 -91 -74 -101 -74 -6 0 -10 -3 -8 -7 1 -5 -2 -9 -6 -10 -5 -1
-18 -12 -29 -25 -11 -13 -23 -23 -28 -23 -4 0 -22 -15 -39 -32 -17 -18 -35
-33 -39 -33 -11 0 -65 -60 -55 -61 9 0 -36 -21 -56 -25 -7 -1 -20 -12 -28 -23
-8 -12 -18 -21 -23 -21 -6 0 -32 -21 -60 -47 -70 -67 -131 -118 -141 -118 -4
0 -14 -6 -20 -12 -7 -7 -17 -13 -21 -13 -5 0 -21 -11 -36 -25 -24 -23 -27 -23
-34 -7 -15 38 -8 59 21 72 18 7 31 21 33 33 2 16 11 23 31 25 27 3 39 31 15
33 -7 1 7 5 32 10 30 6 52 18 70 39 14 16 29 30 33 30 5 0 23 11 41 25 18 14
37 25 42 25 15 0 56 49 50 59 -4 5 -2 12 4 16 6 4 8 11 5 16 -4 5 -2 9 4 9 5
0 13 -4 16 -10 8 -13 21 -13 37 3 26 24 133 102 150 109 10 4 18 12 18 18 0 5
5 10 11 10 14 0 64 39 65 51 3 18 4 19 23 19 10 0 21 -6 24 -13z m-2068 -173
c18 -13 20 -13 27 3 6 17 7 17 7 0 1 -11 -8 -21 -19 -24 -11 -3 -20 -11 -20
-17 0 -6 -7 -22 -16 -34 -12 -18 -19 -20 -35 -12 -16 9 -25 5 -52 -20 -17 -16
-38 -30 -44 -30 -7 0 -13 -3 -13 -7 0 -5 -22 -20 -49 -35 -27 -16 -59 -39 -72
-53 -13 -13 -30 -25 -36 -25 -7 0 -13 -4 -13 -10 0 -5 -6 -7 -13 -4 -7 2 -25
-9 -41 -25 -16 -16 -34 -27 -42 -24 -14 5 -80 -40 -102 -69 -7 -10 -20 -18
-28 -18 -8 0 -14 -4 -14 -8 0 -9 -46 -34 -65 -37 -5 -1 -16 3 -22 8 -9 6 -15
4 -19 -7 -8 -22 -31 -20 -44 3 -12 24 -4 30 33 25 23 -2 26 0 17 11 -9 11 -5
17 18 29 17 9 32 21 35 28 4 8 6 7 6 -4 1 -12 19 0 58 40 32 31 64 56 71 54 7
-2 11 3 10 9 -2 8 12 15 32 19 34 6 125 53 135 70 3 5 27 16 53 24 26 9 59 27
72 39 14 13 38 27 53 31 15 3 27 11 27 17 0 6 4 8 9 5 5 -3 21 10 35 29 30 39
33 40 61 19z"/>
</g>
</svg>
