<?xml version="1.0" standalone="no"?>
<!DOCTYPE svg PUBLIC "-//W3C//DTD SVG 20010904//EN"
 "http://www.w3.org/TR/2001/REC-SVG-20010904/DTD/svg10.dtd">
<svg version="1.0" xmlns="http://www.w3.org/2000/svg"
 width="360.000000pt" height="600.000000pt" viewBox="0 0 360.000000 600.000000"
 preserveAspectRatio="xMidYMid meet">
<metadata>
Created by potrace 1.11, written by Peter Selinger 2001-2013
</metadata>
<g transform="translate(0.000000,600.000000) scale(0.100000,-0.100000)"
fill="#000000" stroke="none">
<path d="M2605 5928 c-91 -12 -105 -14 -175 -33 -36 -9 -69 -18 -75 -19 -27
-6 -136 -68 -170 -98 -80 -69 -186 -183 -233 -252 -79 -117 -164 -271 -154
-280 3 -3 0 -6 -6 -6 -7 0 -12 -4 -12 -9 0 -5 -17 -47 -39 -93 -21 -45 -51
-113 -65 -150 -14 -38 -37 -96 -50 -130 -14 -35 -28 -76 -32 -93 -4 -16 -9
-34 -13 -40 -3 -5 -7 -14 -8 -20 -1 -5 -14 -53 -28 -105 -28 -104 -29 -111
-44 -220 -11 -76 -8 -284 4 -330 3 -14 8 -36 9 -50 2 -14 11 -42 19 -63 9 -20
16 -41 16 -45 1 -20 68 -135 101 -173 21 -24 36 -47 33 -52 -2 -4 0 -6 5 -5 6
2 32 -14 60 -35 107 -80 309 -183 380 -192 12 -1 25 -5 28 -8 3 -3 -6 -40 -19
-83 -13 -42 -23 -93 -21 -111 3 -34 3 -34 -34 -28 -20 3 -45 8 -54 11 -9 3
-26 7 -37 9 -12 3 -30 7 -42 10 -11 2 -28 6 -37 9 -9 3 -33 8 -52 11 -19 3
-48 8 -65 12 -16 3 -43 8 -60 10 -47 7 -559 11 -570 5 -23 -14 -74 -10 -93 7
-23 19 -22 27 34 226 9 33 17 65 18 70 2 6 8 30 15 55 7 25 15 52 17 60 2 8
15 56 29 105 14 50 27 99 29 110 2 11 9 32 15 48 6 15 13 40 16 55 13 74 31
115 57 128 47 25 64 78 28 89 -50 16 -185 28 -320 28 -202 1 -303 -16 -505
-85 -76 -26 -138 -54 -295 -133 -11 -5 -20 -13 -20 -17 0 -5 -4 -8 -10 -8 -10
0 -35 -18 -74 -55 -49 -45 -77 -117 -77 -192 1 -42 6 -83 11 -90 2 -2 3 -6 5
-10 10 -36 69 -125 114 -173 20 -21 56 -66 98 -122 18 -24 63 -82 100 -129 38
-48 75 -97 83 -109 8 -13 23 -32 33 -42 19 -20 22 -38 7 -38 -6 0 -29 -12 -53
-27 -23 -14 -47 -26 -54 -26 -7 0 -10 -3 -8 -7 2 -4 -23 -34 -56 -68 -73 -76
-89 -111 -90 -203 -1 -27 8 -67 19 -93 12 -25 18 -46 14 -46 -4 0 8 -9 26 -20
17 -11 32 -24 32 -30 0 -5 7 -10 15 -10 7 0 18 -6 22 -13 7 -11 76 -58 138
-94 24 -14 145 -73 149 -73 2 0 20 -7 40 -15 20 -8 38 -15 41 -15 3 0 18 -6
33 -13 37 -19 143 -55 183 -62 18 -3 36 -8 41 -11 4 -3 16 -7 25 -9 10 -2 59
-14 108 -28 52 -13 117 -23 153 -23 34 1 62 -1 62 -4 0 -6 188 -5 209 1 20 5
25 -196 6 -226 -9 -14 -13 -75 -13 -210 0 -243 0 -235 -14 -230 -7 2 -29 6
-48 9 -19 3 -48 8 -64 11 -15 3 -47 8 -70 10 -22 2 -52 6 -66 9 -13 3 -41 8
-61 11 -20 3 -50 9 -67 14 -17 5 -32 7 -35 5 -2 -3 -25 0 -49 5 -43 10 -63 13
-153 26 -22 3 -51 8 -65 10 -14 3 -41 8 -60 10 -19 3 -44 8 -56 10 -83 18 -92
17 -125 -14 -19 -18 -29 -36 -26 -45 4 -9 2 -18 -3 -21 -5 -3 -5 -18 0 -34 10
-34 5 -41 -27 -41 -13 0 -23 -4 -23 -9 0 -5 -8 -12 -18 -15 -19 -6 -54 -65
-59 -99 -2 -12 -5 -32 -8 -43 -3 -14 1 -24 11 -28 8 -3 12 -11 8 -17 -4 -7 -3
-9 4 -5 6 3 13 2 17 -4 3 -5 3 -10 -2 -10 -4 -1 -21 -11 -37 -24 l-29 -24 29
-31 c23 -25 39 -31 79 -34 30 -3 64 2 85 11 55 23 130 31 158 16 14 -7 31 -10
39 -7 7 3 23 -3 34 -13 12 -11 22 -17 23 -15 2 7 68 -15 117 -39 11 -6 22 -2
33 12 15 17 20 18 33 6 10 -8 14 -8 10 -1 -9 15 12 28 25 15 6 -6 -4 -16 -31
-28 -22 -9 -38 -21 -35 -26 3 -4 0 -8 -6 -8 -9 0 -100 -50 -195 -107 -11 -7
-27 -16 -35 -20 -45 -22 -258 -147 -272 -160 -20 -18 -32 -62 -31 -118 0 -38
-21 -70 -39 -59 -4 2 -9 0 -13 -6 -4 -6 -11 -8 -16 -5 -5 4 -9 -1 -9 -9 0 -8
-9 -21 -20 -29 -25 -17 -60 -93 -60 -132 0 -42 10 -75 24 -75 6 -1 25 -12 41
-26 28 -23 29 -26 12 -38 -16 -13 -16 -14 -1 -20 12 -5 14 -10 7 -17 -17 -17
16 -52 35 -37 8 7 44 12 81 13 55 0 74 5 104 25 20 14 42 37 48 52 6 14 23 32
37 40 36 18 126 71 132 78 6 6 263 134 271 135 13 0 304 151 311 160 5 7 8 7
8 0 0 -6 4 -5 8 1 4 6 41 28 82 49 84 42 168 55 194 29 8 -8 19 -14 25 -14 6
0 11 -3 11 -7 1 -11 80 -99 80 -90 0 5 10 -3 23 -16 12 -14 26 -25 31 -25 5 0
15 -13 23 -29 7 -15 11 -21 9 -12 -5 20 24 47 47 43 9 -1 19 2 23 7 9 15 24
10 18 -6 -4 -8 -1 -15 5 -15 6 0 10 6 8 12 -1 7 4 12 11 10 16 -3 -1 33 -21
44 -9 5 -9 4 1 -7 26 -28 10 -29 -20 0 -17 16 -36 28 -42 27 -6 -2 -8 -1 -4 1
3 2 4 22 2 44 l-4 40 28 -32 c15 -18 27 -36 27 -41 0 -4 4 -8 8 -7 5 0 18 -13
30 -28 12 -15 32 -39 44 -53 13 -14 21 -30 19 -36 -2 -6 1 -11 9 -10 7 0 40
-35 74 -79 l61 -79 -35 -19 c-19 -9 -41 -26 -48 -37 -6 -11 -17 -20 -24 -20
-6 0 -15 -5 -19 -12 -4 -6 -3 -8 3 -5 6 4 1 -12 -10 -35 -27 -54 -32 -143 -9
-161 24 -17 52 -54 33 -42 -11 6 -13 4 -8 -9 4 -9 3 -15 -2 -12 -5 3 -11 -1
-15 -9 -3 -10 8 -23 34 -40 35 -22 50 -25 140 -25 113 0 145 11 173 58 16 28
16 32 2 46 -11 11 -14 27 -11 53 31 218 23 364 -23 428 -16 22 -41 58 -57 81
-16 23 -44 62 -62 88 -18 25 -30 51 -27 56 4 6 2 9 -3 8 -11 -3 -76 81 -69 88
5 5 72 13 162 19 33 2 91 9 129 14 38 6 73 8 78 5 4 -3 8 -2 8 3 0 4 21 8 47
9 27 0 94 3 150 7 97 6 105 5 163 -22 43 -19 74 -27 104 -25 46 3 115 36 131
63 12 21 15 42 5 36 -4 -3 -10 2 -14 10 -3 8 -1 17 5 21 6 3 8 12 5 20 -3 7
-1 16 3 19 5 2 7 18 6 35 -1 17 0 32 4 34 7 4 5 161 -2 214 -5 38 -50 82 -87
83 -14 0 -162 2 -330 4 -168 2 -402 5 -522 7 -234 3 -223 0 -175 55 11 12 16
26 13 32 -4 6 -2 19 3 30 15 27 21 83 21 186 0 133 -8 157 -51 176 -44 18 -76
3 -116 -55 l-33 -48 0 47 c0 51 -13 85 -34 85 -7 0 -13 6 -14 13 0 6 -3 48 -7
92 -3 44 -8 92 -10 108 -4 25 3 32 28 28 4 0 7 4 7 10 0 5 4 8 8 5 4 -3 28 0
53 6 24 5 53 11 64 13 48 9 95 24 136 43 24 12 78 31 119 43 41 12 81 26 88
32 6 5 12 7 12 4 0 -4 17 0 38 7 57 20 157 14 234 -16 37 -14 80 -24 97 -22
31 4 243 82 294 109 16 8 35 15 43 15 8 0 14 5 14 11 0 7 10 9 24 7 17 -4 23
-1 19 9 -3 7 0 13 5 13 11 0 49 92 56 133 2 12 -5 31 -15 43 -19 20 -18 22 12
120 17 54 37 117 46 139 8 22 16 47 18 55 2 8 49 150 104 315 56 165 103 307
105 316 2 8 11 31 18 50 8 18 15 39 16 44 0 6 21 16 47 23 37 11 49 20 60 45
16 37 4 67 -25 67 -11 0 -20 5 -20 11 0 5 -4 8 -8 5 -5 -3 -33 1 -63 9 -30 7
-76 16 -104 20 -27 3 -59 8 -70 9 -11 2 -28 4 -38 5 -19 1 -19 -10 -2 171 7
69 12 109 26 182 5 32 12 70 15 85 2 16 9 51 14 78 5 28 12 66 15 85 3 19 10
58 15 85 5 28 12 75 15 105 3 30 8 62 10 70 26 102 24 521 -4 618 -5 18 -10
36 -10 40 -5 47 -69 183 -102 215 -11 10 -19 23 -19 30 0 21 -119 157 -136
157 -6 0 -17 6 -23 14 -11 14 -142 61 -196 71 -109 19 -183 23 -260 13z
m-1560 -1796 c-4 -15 -9 -38 -11 -51 -3 -14 -7 -28 -9 -31 -2 -4 -7 -22 -10
-40 -3 -18 -9 -38 -12 -44 -4 -6 -8 -17 -9 -26 0 -8 -10 -46 -22 -85 -12 -38
-23 -84 -26 -101 -3 -17 -13 -47 -21 -67 -8 -21 -13 -37 -11 -37 3 0 -4 -25
-14 -55 -10 -30 -16 -55 -13 -55 3 0 0 -6 -6 -13 -6 -8 -8 -16 -5 -20 3 -3 1
-14 -5 -25 -5 -10 -12 -30 -15 -43 -10 -43 -41 -144 -48 -155 -4 -6 -33 -16
-65 -23 -32 -8 -71 -17 -88 -21 -96 -26 -100 -25 -141 32 -21 29 -41 55 -44
58 -3 3 -9 12 -15 21 -26 43 -108 160 -149 214 -118 155 -87 303 81 390 21 11
44 26 51 33 8 7 18 10 23 7 5 -4 9 -2 9 2 0 5 19 17 43 27 128 55 187 78 187
71 0 -3 14 1 30 10 17 9 30 14 30 11 0 -2 16 0 36 6 62 17 77 19 139 25 33 3
61 6 62 7 1 1 14 3 29 4 24 2 26 0 19 -26z m2041 -784 c-4 -13 -9 -30 -11 -38
-2 -8 -36 -109 -75 -225 -39 -115 -72 -216 -74 -223 -3 -18 -12 -16 -54 13
-103 72 -261 172 -289 184 l-33 13 0 125 0 124 38 -6 c78 -11 138 -17 172 -17
82 0 200 19 250 39 8 3 24 8 35 10 11 2 24 8 29 13 16 16 19 12 12 -12z
m-2156 -1978 c74 -23 144 -45 155 -50 11 -4 40 -14 65 -21 25 -7 47 -13 50
-14 3 -1 20 -6 38 -10 18 -4 35 -11 38 -16 2 -4 12 -6 22 -3 14 5 13 2 -3 -11
-34 -28 -95 -56 -107 -49 -6 4 -8 3 -5 -3 4 -6 0 -16 -8 -23 -12 -10 -15 -10
-15 1 0 9 -3 9 -12 -2 -32 -38 -91 -56 -84 -26 1 7 1 9 -1 5 -3 -5 -13 -8 -24
-8 -13 0 -17 5 -13 18 5 13 4 14 -4 3 -5 -7 -24 -15 -42 -17 -25 -3 -33 0 -37
16 -4 15 -13 20 -34 18 -17 -1 -37 6 -51 19 -23 20 -59 42 -111 65 -24 11 -26
16 -21 48 4 19 10 40 14 45 4 6 6 21 4 34 -5 28 12 43 35 30 9 -4 77 -27 151
-49z m1974 -138 c-20 -13 -45 -73 -51 -122 -4 -36 -10 -49 -22 -48 -24 0 -296
-13 -366 -17 -61 -4 -135 -10 -260 -21 -38 -3 -78 -6 -88 -5 -18 0 -47 23 -47
38 0 5 -8 18 -18 29 -10 11 -27 32 -36 47 -18 27 -18 27 5 28 27 1 45 3 149
14 41 4 93 9 115 10 22 2 72 6 110 10 76 8 112 11 220 20 90 7 169 15 171 18
2 1 31 3 65 4 35 1 59 -1 53 -5z m-1454 -313 c0 -10 -15 -26 -32 -37 -41 -24
-165 -92 -195 -106 -13 -6 -23 -14 -23 -17 0 -3 -24 -16 -52 -30 -29 -13 -55
-26 -58 -30 -3 -3 -18 -12 -35 -21 -48 -24 -163 -88 -255 -140 -46 -26 -90
-48 -97 -48 -7 0 -16 -1 -20 -2 -4 -2 -8 26 -9 61 -2 45 1 68 12 78 8 8 14 12
14 9 0 -3 26 8 58 23 52 27 113 55 280 132 34 16 64 29 67 28 3 0 35 16 70 36
36 19 67 35 70 36 2 0 41 17 86 38 76 35 84 37 101 22 10 -8 18 -23 18 -32z"/>
</g>
</svg>
